G04*
G04 #@! TF.GenerationSoftware,Altium Limited,Altium Designer,20.1.10 (176)*
G04*
G04 Layer_Color=32896*
%FSAX42Y42*%
%MOMM*%
G71*
G04*
G04 #@! TF.SameCoordinates,6C51F090-7910-440F-980D-B9DEBD6B7A16*
G04*
G04*
G04 #@! TF.FilePolarity,Positive*
G04*
G01*
G75*
%ADD10C,0.20*%
%ADD14C,0.25*%
%ADD15C,0.15*%
%ADD16C,0.13*%
%ADD18C,0.05*%
D10*
X025266Y007704D02*
G03*
X025266Y007704I-000010J000000D01*
G01*
X025266Y014569D02*
G03*
X025266Y014569I-000010J000000D01*
G01*
X025266Y010004D02*
G03*
X025266Y010004I-000010J000000D01*
G01*
Y012304D02*
G03*
X025266Y012304I-000010J000000D01*
G01*
X026667Y008196D02*
G03*
X026667Y008196I-000010J000000D01*
G01*
Y010496D02*
G03*
X026667Y010496I-000010J000000D01*
G01*
Y012796D02*
G03*
X026667Y012796I-000010J000000D01*
G01*
X026667Y015061D02*
G03*
X026667Y015061I-000010J000000D01*
G01*
X025121Y016899D02*
G03*
X025121Y016899I-000010J000000D01*
G01*
X025717Y016660D02*
X025857D01*
X025717Y016320D02*
X025857D01*
Y016660D01*
X025235Y016320D02*
X025374D01*
X025235Y016660D02*
X025374D01*
X025235Y016320D02*
Y016660D01*
X025857Y009158D02*
Y009217D01*
X025827D01*
X025817Y009207D01*
Y009188D01*
X025827Y009178D01*
X025857D01*
X025837D02*
X025817Y009158D01*
X025797D02*
X025777D01*
X025787D01*
Y009217D01*
X025797Y009207D01*
X025707Y009217D02*
X025727Y009207D01*
X025747Y009188D01*
Y009168D01*
X025737Y009158D01*
X025717D01*
X025707Y009168D01*
Y009178D01*
X025717Y009188D01*
X025747D01*
X025687Y009217D02*
X025647D01*
Y009207D01*
X025687Y009168D01*
Y009158D01*
X025523D02*
Y009217D01*
X025493D01*
X025483Y009207D01*
Y009188D01*
X025493Y009178D01*
X025523D01*
X025503D02*
X025483Y009158D01*
X025463D02*
X025443D01*
X025453D01*
Y009217D01*
X025463Y009207D01*
X025373Y009217D02*
X025393Y009207D01*
X025413Y009188D01*
Y009168D01*
X025403Y009158D01*
X025383D01*
X025373Y009168D01*
Y009178D01*
X025383Y009188D01*
X025413D01*
X025313Y009217D02*
X025333Y009207D01*
X025353Y009188D01*
Y009168D01*
X025343Y009158D01*
X025323D01*
X025313Y009168D01*
Y009178D01*
X025323Y009188D01*
X025353D01*
X026431Y011289D02*
X026441Y011299D01*
X026461D01*
X026471Y011289D01*
Y011249D01*
X026461Y011239D01*
X026441D01*
X026431Y011249D01*
X026371Y011299D02*
X026391Y011289D01*
X026411Y011269D01*
Y011249D01*
X026401Y011239D01*
X026381D01*
X026371Y011249D01*
Y011259D01*
X026381Y011269D01*
X026411D01*
X026351Y011289D02*
X026341Y011299D01*
X026321D01*
X026311Y011289D01*
Y011249D01*
X026321Y011239D01*
X026341D01*
X026351Y011249D01*
Y011289D01*
X025872Y013790D02*
Y013850D01*
X025842D01*
X025832Y013840D01*
Y013820D01*
X025842Y013810D01*
X025872D01*
X025852D02*
X025832Y013790D01*
X025812D02*
X025792D01*
X025802D01*
Y013850D01*
X025812Y013840D01*
X025723Y013790D02*
X025762D01*
X025723Y013830D01*
Y013840D01*
X025733Y013850D01*
X025753D01*
X025762Y013840D01*
X025703Y013850D02*
X025663D01*
Y013840D01*
X025703Y013800D01*
Y013790D01*
X026284Y016193D02*
Y016253D01*
X026254D01*
X026244Y016243D01*
Y016223D01*
X026254Y016213D01*
X026284D01*
X026264D02*
X026244Y016193D01*
X026224D02*
X026204D01*
X026214D01*
Y016253D01*
X026224Y016243D01*
X026174D02*
X026164Y016253D01*
X026144D01*
X026134Y016243D01*
Y016203D01*
X026144Y016193D01*
X026164D01*
X026174Y016203D01*
Y016243D01*
X026074Y016253D02*
X026114D01*
Y016223D01*
X026094Y016233D01*
X026084D01*
X026074Y016223D01*
Y016203D01*
X026084Y016193D01*
X026104D01*
X026114Y016203D01*
X026284Y013930D02*
Y013990D01*
X026254D01*
X026244Y013980D01*
Y013960D01*
X026254Y013950D01*
X026284D01*
X026264D02*
X026244Y013930D01*
X026224D02*
X026204D01*
X026214D01*
Y013990D01*
X026224Y013980D01*
X026134Y013930D02*
X026174D01*
X026134Y013970D01*
Y013980D01*
X026144Y013990D01*
X026164D01*
X026174Y013980D01*
X026074Y013990D02*
X026114D01*
Y013960D01*
X026094Y013970D01*
X026084D01*
X026074Y013960D01*
Y013940D01*
X026084Y013930D01*
X026104D01*
X026114Y013940D01*
X025523Y011490D02*
Y011550D01*
X025493D01*
X025483Y011540D01*
Y011520D01*
X025493Y011510D01*
X025523D01*
X025503D02*
X025483Y011490D01*
X025463D02*
X025443D01*
X025453D01*
Y011550D01*
X025463Y011540D01*
X025383Y011490D02*
Y011550D01*
X025413Y011520D01*
X025373D01*
X025313Y011550D02*
X025333Y011540D01*
X025353Y011520D01*
Y011500D01*
X025343Y011490D01*
X025323D01*
X025313Y011500D01*
Y011510D01*
X025323Y011520D01*
X025353D01*
X025523Y016053D02*
Y016113D01*
X025493D01*
X025483Y016103D01*
Y016083D01*
X025493Y016073D01*
X025523D01*
X025503D02*
X025483Y016053D01*
X025463D02*
X025443D01*
X025453D01*
Y016113D01*
X025463Y016103D01*
X025413D02*
X025403Y016113D01*
X025383D01*
X025373Y016103D01*
Y016063D01*
X025383Y016053D01*
X025403D01*
X025413Y016063D01*
Y016103D01*
X025313Y016113D02*
X025333Y016103D01*
X025353Y016083D01*
Y016063D01*
X025343Y016053D01*
X025323D01*
X025313Y016063D01*
Y016073D01*
X025323Y016083D01*
X025353D01*
X025523Y010653D02*
Y010712D01*
X025493D01*
X025483Y010702D01*
Y010682D01*
X025493Y010673D01*
X025523D01*
X025503D02*
X025483Y010653D01*
X025423D02*
X025463D01*
X025423Y010692D01*
Y010702D01*
X025433Y010712D01*
X025453D01*
X025463Y010702D01*
X025403Y010663D02*
X025393Y010653D01*
X025373D01*
X025363Y010663D01*
Y010702D01*
X025373Y010712D01*
X025393D01*
X025403Y010702D01*
Y010692D01*
X025393Y010682D01*
X025363D01*
X025523Y012963D02*
Y013022D01*
X025493D01*
X025483Y013012D01*
Y012993D01*
X025493Y012983D01*
X025523D01*
X025503D02*
X025483Y012963D01*
X025423D02*
X025463D01*
X025423Y013002D01*
Y013012D01*
X025433Y013022D01*
X025453D01*
X025463Y013012D01*
X025403Y013022D02*
X025363D01*
Y013012D01*
X025403Y012973D01*
Y012963D01*
X025523Y015215D02*
Y015275D01*
X025493D01*
X025483Y015265D01*
Y015245D01*
X025493Y015235D01*
X025523D01*
X025503D02*
X025483Y015215D01*
X025423D02*
X025463D01*
X025423Y015255D01*
Y015265D01*
X025433Y015275D01*
X025453D01*
X025463Y015265D01*
X025363Y015275D02*
X025403D01*
Y015245D01*
X025383Y015255D01*
X025373D01*
X025363Y015245D01*
Y015225D01*
X025373Y015215D01*
X025393D01*
X025403Y015225D01*
X025523Y008350D02*
Y008410D01*
X025493D01*
X025483Y008400D01*
Y008380D01*
X025493Y008370D01*
X025523D01*
X025503D02*
X025483Y008350D01*
X025463Y008400D02*
X025453Y008410D01*
X025433D01*
X025423Y008400D01*
Y008390D01*
X025433Y008380D01*
X025443D01*
X025433D01*
X025423Y008370D01*
Y008360D01*
X025433Y008350D01*
X025453D01*
X025463Y008360D01*
X025403Y008400D02*
X025393Y008410D01*
X025373D01*
X025363Y008400D01*
Y008360D01*
X025373Y008350D01*
X025393D01*
X025403Y008360D01*
Y008400D01*
X025523Y013790D02*
Y013850D01*
X025493D01*
X025483Y013840D01*
Y013820D01*
X025493Y013810D01*
X025523D01*
X025503D02*
X025483Y013790D01*
X025463D02*
X025443D01*
X025453D01*
Y013850D01*
X025463Y013840D01*
X025373Y013790D02*
X025413D01*
X025373Y013830D01*
Y013840D01*
X025383Y013850D01*
X025403D01*
X025413Y013840D01*
X025313Y013850D02*
X025333Y013840D01*
X025353Y013820D01*
Y013800D01*
X025343Y013790D01*
X025323D01*
X025313Y013800D01*
Y013810D01*
X025323Y013820D01*
X025353D01*
X026284Y011654D02*
Y011714D01*
X026254D01*
X026244Y011704D01*
Y011684D01*
X026254Y011674D01*
X026284D01*
X026264D02*
X026244Y011654D01*
X026224D02*
X026204D01*
X026214D01*
Y011714D01*
X026224Y011704D01*
X026144Y011654D02*
Y011714D01*
X026174Y011684D01*
X026134D01*
X026074Y011714D02*
X026114D01*
Y011684D01*
X026094Y011694D01*
X026084D01*
X026074Y011684D01*
Y011664D01*
X026084Y011654D01*
X026104D01*
X026114Y011664D01*
X025875Y016053D02*
Y016113D01*
X025845D01*
X025835Y016103D01*
Y016083D01*
X025845Y016073D01*
X025875D01*
X025855D02*
X025835Y016053D01*
X025815D02*
X025795D01*
X025805D01*
Y016113D01*
X025815Y016103D01*
X025765D02*
X025755Y016113D01*
X025735D01*
X025725Y016103D01*
Y016063D01*
X025735Y016053D01*
X025755D01*
X025765Y016063D01*
Y016103D01*
X025705Y016113D02*
X025665D01*
Y016103D01*
X025705Y016063D01*
Y016053D01*
X026250Y009323D02*
Y009382D01*
X026220D01*
X026210Y009372D01*
Y009353D01*
X026220Y009343D01*
X026250D01*
X026230D02*
X026210Y009323D01*
X026190D02*
X026170D01*
X026180D01*
Y009382D01*
X026190Y009372D01*
X026100Y009382D02*
X026120Y009372D01*
X026140Y009353D01*
Y009333D01*
X026130Y009323D01*
X026110D01*
X026100Y009333D01*
Y009343D01*
X026110Y009353D01*
X026140D01*
X026040Y009382D02*
X026080D01*
Y009353D01*
X026060Y009362D01*
X026050D01*
X026040Y009353D01*
Y009333D01*
X026050Y009323D01*
X026070D01*
X026080Y009333D01*
X025870Y011490D02*
Y011550D01*
X025840D01*
X025830Y011540D01*
Y011520D01*
X025840Y011510D01*
X025870D01*
X025850D02*
X025830Y011490D01*
X025810D02*
X025790D01*
X025800D01*
Y011550D01*
X025810Y011540D01*
X025730Y011490D02*
Y011550D01*
X025760Y011520D01*
X025720D01*
X025700Y011550D02*
X025660D01*
Y011540D01*
X025700Y011500D01*
Y011490D01*
D14*
X025489Y016363D02*
Y016617D01*
X025265Y005684D02*
X025275Y005694D01*
X025295D01*
X025305Y005684D01*
Y005644D01*
X025295Y005634D01*
X025275D01*
X025265Y005644D01*
X025205Y005634D02*
X025245D01*
X025205Y005674D01*
Y005684D01*
X025215Y005694D01*
X025235D01*
X025245Y005684D01*
X025155Y005634D02*
Y005694D01*
X025185Y005664D01*
X025145D01*
X024992Y005684D02*
X025002Y005694D01*
X025022D01*
X025032Y005684D01*
Y005644D01*
X025022Y005634D01*
X025002D01*
X024992Y005644D01*
X024972Y005634D02*
X024953D01*
X024962D01*
Y005694D01*
X024972Y005684D01*
X024923D02*
X024913Y005694D01*
X024893D01*
X024883Y005684D01*
Y005674D01*
X024893Y005664D01*
X024903D01*
X024893D01*
X024883Y005654D01*
Y005644D01*
X024893Y005634D01*
X024913D01*
X024923Y005644D01*
X025805Y005684D02*
X025815Y005694D01*
X025835D01*
X025845Y005684D01*
Y005644D01*
X025835Y005634D01*
X025815D01*
X025805Y005644D01*
X025785Y005634D02*
X025765D01*
X025775D01*
Y005694D01*
X025785Y005684D01*
X025735Y005694D02*
X025695D01*
Y005684D01*
X025735Y005644D01*
Y005634D01*
X027062Y005375D02*
X027072Y005385D01*
X027092D01*
X027102Y005375D01*
Y005335D01*
X027092Y005325D01*
X027072D01*
X027062Y005335D01*
X027003Y005325D02*
X027042D01*
X027003Y005365D01*
Y005375D01*
X027013Y005385D01*
X027032D01*
X027042Y005375D01*
X026943Y005385D02*
X026983D01*
Y005355D01*
X026963Y005365D01*
X026953D01*
X026943Y005355D01*
Y005335D01*
X026953Y005325D01*
X026973D01*
X026983Y005335D01*
X024882Y010500D02*
Y010450D01*
X024872Y010440D01*
X024852D01*
X024842Y010450D01*
Y010500D01*
X024783Y010440D02*
X024822D01*
X024783Y010480D01*
Y010490D01*
X024793Y010500D01*
X024812D01*
X024822Y010490D01*
X024763Y010500D02*
X024723D01*
Y010490D01*
X024763Y010450D01*
Y010440D01*
X024882Y008177D02*
Y008128D01*
X024872Y008118D01*
X024852D01*
X024842Y008128D01*
Y008177D01*
X024822Y008167D02*
X024812Y008177D01*
X024793D01*
X024783Y008167D01*
Y008157D01*
X024793Y008147D01*
X024802D01*
X024793D01*
X024783Y008138D01*
Y008128D01*
X024793Y008118D01*
X024812D01*
X024822Y008128D01*
X024763Y008167D02*
X024753Y008177D01*
X024733D01*
X024723Y008167D01*
Y008128D01*
X024733Y008118D01*
X024753D01*
X024763Y008128D01*
Y008167D01*
X025572Y017747D02*
X025582Y017757D01*
X025602D01*
X025612Y017747D01*
Y017708D01*
X025602Y017698D01*
X025582D01*
X025572Y017708D01*
X025513Y017757D02*
X025533Y017747D01*
X025553Y017727D01*
Y017708D01*
X025543Y017698D01*
X025523D01*
X025513Y017708D01*
Y017718D01*
X025523Y017727D01*
X025553D01*
X024644Y003650D02*
X024654Y003660D01*
X024674D01*
X024684Y003650D01*
Y003610D01*
X024674Y003600D01*
X024654D01*
X024644Y003610D01*
X024624Y003600D02*
X024604D01*
X024614D01*
Y003660D01*
X024624Y003650D01*
X024534Y003600D02*
X024574D01*
X024534Y003640D01*
Y003650D01*
X024544Y003660D01*
X024564D01*
X024574Y003650D01*
X024644Y004240D02*
X024654Y004250D01*
X024674D01*
X024684Y004240D01*
Y004200D01*
X024674Y004190D01*
X024654D01*
X024644Y004200D01*
X024584Y004190D02*
X024624D01*
X024584Y004230D01*
Y004240D01*
X024594Y004250D01*
X024614D01*
X024624Y004240D01*
X024564D02*
X024554Y004250D01*
X024534D01*
X024524Y004240D01*
Y004230D01*
X024534Y004220D01*
X024544D01*
X024534D01*
X024524Y004210D01*
Y004200D01*
X024534Y004190D01*
X024554D01*
X024564Y004200D01*
X024882Y015050D02*
Y015000D01*
X024872Y014990D01*
X024852D01*
X024842Y015000D01*
Y015050D01*
X024783Y014990D02*
X024822D01*
X024783Y015030D01*
Y015040D01*
X024793Y015050D01*
X024812D01*
X024822Y015040D01*
X024763Y014990D02*
X024743D01*
X024753D01*
Y015050D01*
X024763Y015040D01*
X025255Y017747D02*
X025265Y017757D01*
X025285D01*
X025295Y017747D01*
Y017708D01*
X025285Y017698D01*
X025265D01*
X025255Y017708D01*
X025235Y017698D02*
X025215D01*
X025225D01*
Y017757D01*
X025235Y017747D01*
X025185D02*
X025175Y017757D01*
X025155D01*
X025145Y017747D01*
Y017708D01*
X025155Y017698D01*
X025175D01*
X025185Y017708D01*
Y017747D01*
X026142Y002913D02*
Y002972D01*
X026112D01*
X026102Y002962D01*
Y002942D01*
X026112Y002933D01*
X026142D01*
X026122D02*
X026102Y002913D01*
X026043Y002972D02*
X026082D01*
Y002942D01*
X026062Y002952D01*
X026053D01*
X026043Y002942D01*
Y002923D01*
X026053Y002913D01*
X026072D01*
X026082Y002923D01*
X026023D02*
X026013Y002913D01*
X025993D01*
X025983Y002923D01*
Y002962D01*
X025993Y002972D01*
X026013D01*
X026023Y002962D01*
Y002952D01*
X026013Y002942D01*
X025983D01*
X027082Y013917D02*
X027092Y013927D01*
X027112D01*
X027122Y013917D01*
Y013878D01*
X027112Y013868D01*
X027092D01*
X027082Y013878D01*
X027022Y013927D02*
X027062D01*
Y013898D01*
X027042Y013907D01*
X027032D01*
X027022Y013898D01*
Y013878D01*
X027032Y013868D01*
X027052D01*
X027062Y013878D01*
X026962Y013927D02*
X027002D01*
Y013898D01*
X026982Y013907D01*
X026972D01*
X026962Y013898D01*
Y013878D01*
X026972Y013868D01*
X026992D01*
X027002Y013878D01*
X027102Y016140D02*
X027112Y016150D01*
X027132D01*
X027142Y016140D01*
Y016100D01*
X027132Y016090D01*
X027112D01*
X027102Y016100D01*
X027043Y016150D02*
X027082D01*
Y016120D01*
X027063Y016130D01*
X027053D01*
X027043Y016120D01*
Y016100D01*
X027053Y016090D01*
X027073D01*
X027082Y016100D01*
X027023Y016090D02*
X027003D01*
X027013D01*
Y016150D01*
X027023Y016140D01*
X024644Y004779D02*
X024654Y004789D01*
X024674D01*
X024684Y004779D01*
Y004739D01*
X024674Y004729D01*
X024654D01*
X024644Y004739D01*
X024584Y004729D02*
X024624D01*
X024584Y004769D01*
Y004779D01*
X024594Y004789D01*
X024614D01*
X024624Y004779D01*
X024524Y004729D02*
X024564D01*
X024524Y004769D01*
Y004779D01*
X024534Y004789D01*
X024554D01*
X024564Y004779D01*
X024882Y012810D02*
Y012760D01*
X024872Y012750D01*
X024852D01*
X024842Y012760D01*
Y012810D01*
X024783Y012750D02*
X024822D01*
X024783Y012790D01*
Y012800D01*
X024793Y012810D01*
X024812D01*
X024822Y012800D01*
X024733Y012750D02*
Y012810D01*
X024763Y012780D01*
X024723D01*
X027082Y011617D02*
X027092Y011627D01*
X027112D01*
X027122Y011617D01*
Y011578D01*
X027112Y011568D01*
X027092D01*
X027082Y011578D01*
X027022Y011627D02*
X027062D01*
Y011597D01*
X027042Y011607D01*
X027032D01*
X027022Y011597D01*
Y011578D01*
X027032Y011568D01*
X027052D01*
X027062Y011578D01*
X027002D02*
X026992Y011568D01*
X026972D01*
X026962Y011578D01*
Y011617D01*
X026972Y011627D01*
X026992D01*
X027002Y011617D01*
Y011607D01*
X026992Y011597D01*
X026962D01*
X026142Y003495D02*
Y003555D01*
X026112D01*
X026102Y003545D01*
Y003525D01*
X026112Y003515D01*
X026142D01*
X026122D02*
X026102Y003495D01*
X026043Y003555D02*
X026082D01*
Y003525D01*
X026062Y003535D01*
X026053D01*
X026043Y003525D01*
Y003505D01*
X026053Y003495D01*
X026072D01*
X026082Y003505D01*
X026023Y003545D02*
X026013Y003555D01*
X025993D01*
X025983Y003545D01*
Y003535D01*
X025993Y003525D01*
X025983Y003515D01*
Y003505D01*
X025993Y003495D01*
X026013D01*
X026023Y003505D01*
Y003515D01*
X026013Y003525D01*
X026023Y003535D01*
Y003545D01*
X026013Y003525D02*
X025993D01*
X026400Y003545D02*
X026410Y003555D01*
X026430D01*
X026440Y003545D01*
Y003505D01*
X026430Y003495D01*
X026410D01*
X026400Y003505D01*
X026340Y003495D02*
X026380D01*
X026340Y003535D01*
Y003545D01*
X026350Y003555D01*
X026370D01*
X026380Y003545D01*
X026280Y003555D02*
X026300Y003545D01*
X026320Y003525D01*
Y003505D01*
X026310Y003495D01*
X026290D01*
X026280Y003505D01*
Y003515D01*
X026290Y003525D01*
X026320D01*
X027082Y009317D02*
X027092Y009327D01*
X027112D01*
X027122Y009317D01*
Y009278D01*
X027112Y009268D01*
X027092D01*
X027082Y009278D01*
X027022Y009327D02*
X027042Y009317D01*
X027062Y009297D01*
Y009278D01*
X027052Y009268D01*
X027032D01*
X027022Y009278D01*
Y009288D01*
X027032Y009297D01*
X027062D01*
X027002Y009317D02*
X026992Y009327D01*
X026972D01*
X026962Y009317D01*
Y009307D01*
X026972Y009297D01*
X026982D01*
X026972D01*
X026962Y009288D01*
Y009278D01*
X026972Y009268D01*
X026992D01*
X027002Y009278D01*
X024575Y006318D02*
Y006377D01*
X024545D01*
X024535Y006367D01*
Y006347D01*
X024545Y006338D01*
X024575D01*
X024555D02*
X024535Y006318D01*
X024475D02*
X024515D01*
X024475Y006357D01*
Y006367D01*
X024485Y006377D01*
X024505D01*
X024515Y006367D01*
X024415Y006377D02*
X024435Y006367D01*
X024455Y006347D01*
Y006328D01*
X024445Y006318D01*
X024425D01*
X024415Y006328D01*
Y006338D01*
X024425Y006347D01*
X024455D01*
X025225Y006788D02*
Y006847D01*
X025195D01*
X025185Y006837D01*
Y006818D01*
X025195Y006808D01*
X025225D01*
X025205D02*
X025185Y006788D01*
X025125D02*
X025165D01*
X025125Y006827D01*
Y006837D01*
X025135Y006847D01*
X025155D01*
X025165Y006837D01*
X025105D02*
X025095Y006847D01*
X025075D01*
X025065Y006837D01*
Y006827D01*
X025075Y006818D01*
X025065Y006808D01*
Y006798D01*
X025075Y006788D01*
X025095D01*
X025105Y006798D01*
Y006808D01*
X025095Y006818D01*
X025105Y006827D01*
Y006837D01*
X025095Y006818D02*
X025075D01*
X025577Y003272D02*
X025587Y003282D01*
X025607D01*
X025617Y003272D01*
Y003233D01*
X025607Y003223D01*
X025587D01*
X025577Y003233D01*
X025557Y003223D02*
X025538D01*
X025547D01*
Y003282D01*
X025557Y003272D01*
X025468Y003282D02*
X025508D01*
Y003253D01*
X025488Y003262D01*
X025478D01*
X025468Y003253D01*
Y003233D01*
X025478Y003223D01*
X025498D01*
X025508Y003233D01*
X026297Y008332D02*
Y008283D01*
X026287Y008273D01*
X026267D01*
X026257Y008283D01*
Y008332D01*
X026198Y008273D02*
X026237D01*
X026198Y008312D01*
Y008322D01*
X026208Y008332D01*
X026227D01*
X026237Y008322D01*
X026178Y008283D02*
X026168Y008273D01*
X026148D01*
X026138Y008283D01*
Y008322D01*
X026148Y008332D01*
X026168D01*
X026178Y008322D01*
Y008312D01*
X026168Y008303D01*
X026138D01*
X026297Y010660D02*
Y010610D01*
X026287Y010600D01*
X026267D01*
X026257Y010610D01*
Y010660D01*
X026198Y010600D02*
X026237D01*
X026198Y010640D01*
Y010650D01*
X026208Y010660D01*
X026227D01*
X026237Y010650D01*
X026138Y010660D02*
X026158Y010650D01*
X026178Y010630D01*
Y010610D01*
X026168Y010600D01*
X026148D01*
X026138Y010610D01*
Y010620D01*
X026148Y010630D01*
X026178D01*
X026297Y012980D02*
Y012930D01*
X026287Y012920D01*
X026267D01*
X026257Y012930D01*
Y012980D01*
X026198Y012920D02*
X026237D01*
X026198Y012960D01*
Y012970D01*
X026208Y012980D01*
X026227D01*
X026237Y012970D01*
X026178D02*
X026168Y012980D01*
X026148D01*
X026138Y012970D01*
Y012960D01*
X026148Y012950D01*
X026158D01*
X026148D01*
X026138Y012940D01*
Y012930D01*
X026148Y012920D01*
X026168D01*
X026178Y012930D01*
X026297Y015256D02*
Y015206D01*
X026287Y015196D01*
X026267D01*
X026257Y015206D01*
Y015256D01*
X026198Y015196D02*
X026237D01*
X026198Y015236D01*
Y015246D01*
X026208Y015256D01*
X026227D01*
X026237Y015246D01*
X026178D02*
X026168Y015256D01*
X026148D01*
X026138Y015246D01*
Y015206D01*
X026148Y015196D01*
X026168D01*
X026178Y015206D01*
Y015246D01*
X025590Y017340D02*
Y017290D01*
X025580Y017280D01*
X025560D01*
X025550Y017290D01*
Y017340D01*
X025530Y017330D02*
X025520Y017340D01*
X025500D01*
X025490Y017330D01*
Y017320D01*
X025500Y017310D01*
X025510D01*
X025500D01*
X025490Y017300D01*
Y017290D01*
X025500Y017280D01*
X025520D01*
X025530Y017290D01*
X025907Y017747D02*
X025917Y017757D01*
X025937D01*
X025947Y017747D01*
Y017708D01*
X025937Y017698D01*
X025917D01*
X025907Y017708D01*
X025848Y017757D02*
X025888D01*
Y017727D01*
X025868Y017737D01*
X025858D01*
X025848Y017727D01*
Y017708D01*
X025858Y017698D01*
X025878D01*
X025888Y017708D01*
X026705Y003707D02*
X026715Y003717D01*
X026735D01*
X026745Y003707D01*
Y003668D01*
X026735Y003658D01*
X026715D01*
X026705Y003668D01*
X026685Y003658D02*
X026665D01*
X026675D01*
Y003717D01*
X026685Y003707D01*
X026595Y003717D02*
X026615Y003707D01*
X026635Y003688D01*
Y003668D01*
X026625Y003658D01*
X026605D01*
X026595Y003668D01*
Y003678D01*
X026605Y003688D01*
X026635D01*
X026657Y017995D02*
X026667Y018005D01*
X026687D01*
X026697Y017995D01*
Y017955D01*
X026687Y017945D01*
X026667D01*
X026657Y017955D01*
X026637Y017945D02*
X026618D01*
X026628D01*
Y018005D01*
X026637Y017995D01*
X026588Y017945D02*
X026568D01*
X026578D01*
Y018005D01*
X026588Y017995D01*
X027362Y003590D02*
X027372Y003600D01*
X027392D01*
X027402Y003590D01*
Y003550D01*
X027392Y003540D01*
X027372D01*
X027362Y003550D01*
X027342Y003540D02*
X027323D01*
X027332D01*
Y003600D01*
X027342Y003590D01*
X027293D02*
X027283Y003600D01*
X027263D01*
X027253Y003590D01*
Y003580D01*
X027263Y003570D01*
X027253Y003560D01*
Y003550D01*
X027263Y003540D01*
X027283D01*
X027293Y003550D01*
Y003560D01*
X027283Y003570D01*
X027293Y003580D01*
Y003590D01*
X027283Y003570D02*
X027263D01*
X027362Y004240D02*
X027372Y004250D01*
X027392D01*
X027402Y004240D01*
Y004200D01*
X027392Y004190D01*
X027372D01*
X027362Y004200D01*
X027342Y004190D02*
X027323D01*
X027332D01*
Y004250D01*
X027342Y004240D01*
X027293Y004200D02*
X027283Y004190D01*
X027263D01*
X027253Y004200D01*
Y004240D01*
X027263Y004250D01*
X027283D01*
X027293Y004240D01*
Y004230D01*
X027283Y004220D01*
X027253D01*
X027362Y004779D02*
X027372Y004789D01*
X027392D01*
X027402Y004779D01*
Y004739D01*
X027392Y004729D01*
X027372D01*
X027362Y004739D01*
X027342Y004729D02*
X027323D01*
X027332D01*
Y004789D01*
X027342Y004779D01*
X027263Y004729D02*
Y004789D01*
X027293Y004759D01*
X027253D01*
X027352Y005375D02*
X027362Y005385D01*
X027382D01*
X027392Y005375D01*
Y005335D01*
X027382Y005325D01*
X027362D01*
X027352Y005335D01*
X027293Y005325D02*
X027332D01*
X027293Y005365D01*
Y005375D01*
X027303Y005385D01*
X027322D01*
X027332Y005375D01*
X027273Y005385D02*
X027233D01*
Y005375D01*
X027273Y005335D01*
Y005325D01*
X027082Y010705D02*
X027092Y010715D01*
X027112D01*
X027122Y010705D01*
Y010665D01*
X027112Y010655D01*
X027092D01*
X027082Y010665D01*
X027022Y010715D02*
X027042Y010705D01*
X027062Y010685D01*
Y010665D01*
X027052Y010655D01*
X027032D01*
X027022Y010665D01*
Y010675D01*
X027032Y010685D01*
X027062D01*
X026962Y010655D02*
X027002D01*
X026962Y010695D01*
Y010705D01*
X026972Y010715D01*
X026992D01*
X027002Y010705D01*
X025980Y002230D02*
X025990Y002240D01*
X026010D01*
X026020Y002230D01*
Y002190D01*
X026010Y002180D01*
X025990D01*
X025980Y002190D01*
X025920Y002180D02*
X025960D01*
X025920Y002220D01*
Y002230D01*
X025930Y002240D01*
X025950D01*
X025960Y002230D01*
X025900D02*
X025890Y002240D01*
X025870D01*
X025860Y002230D01*
Y002190D01*
X025870Y002180D01*
X025890D01*
X025900Y002190D01*
Y002230D01*
X026445Y005684D02*
X026455Y005694D01*
X026475D01*
X026485Y005684D01*
Y005644D01*
X026475Y005634D01*
X026455D01*
X026445Y005644D01*
X026385Y005634D02*
X026425D01*
X026385Y005674D01*
Y005684D01*
X026395Y005694D01*
X026415D01*
X026425Y005684D01*
X026365Y005634D02*
X026345D01*
X026355D01*
Y005694D01*
X026365Y005684D01*
X027082Y008405D02*
X027092Y008415D01*
X027112D01*
X027122Y008405D01*
Y008365D01*
X027112Y008355D01*
X027092D01*
X027082Y008365D01*
X027022Y008415D02*
X027042Y008405D01*
X027062Y008385D01*
Y008365D01*
X027052Y008355D01*
X027032D01*
X027022Y008365D01*
Y008375D01*
X027032Y008385D01*
X027062D01*
X026962Y008415D02*
X026982Y008405D01*
X027002Y008385D01*
Y008365D01*
X026992Y008355D01*
X026972D01*
X026962Y008365D01*
Y008375D01*
X026972Y008385D01*
X027002D01*
X027082Y013005D02*
X027092Y013015D01*
X027112D01*
X027122Y013005D01*
Y012965D01*
X027112Y012955D01*
X027092D01*
X027082Y012965D01*
X027022Y013015D02*
X027062D01*
Y012985D01*
X027042Y012995D01*
X027032D01*
X027022Y012985D01*
Y012965D01*
X027032Y012955D01*
X027052D01*
X027062Y012965D01*
X027002Y013005D02*
X026992Y013015D01*
X026972D01*
X026962Y013005D01*
Y012995D01*
X026972Y012985D01*
X026962Y012975D01*
Y012965D01*
X026972Y012955D01*
X026992D01*
X027002Y012965D01*
Y012975D01*
X026992Y012985D01*
X027002Y012995D01*
Y013005D01*
X026992Y012985D02*
X026972D01*
X027082Y015300D02*
X027092Y015310D01*
X027112D01*
X027122Y015300D01*
Y015260D01*
X027112Y015250D01*
X027092D01*
X027082Y015260D01*
X027022Y015310D02*
X027062D01*
Y015280D01*
X027042Y015290D01*
X027032D01*
X027022Y015280D01*
Y015260D01*
X027032Y015250D01*
X027052D01*
X027062Y015260D01*
X026972Y015250D02*
Y015310D01*
X027002Y015280D01*
X026962D01*
X025020Y016520D02*
X025030Y016530D01*
X025050D01*
X025060Y016520D01*
Y016480D01*
X025050Y016470D01*
X025030D01*
X025020Y016480D01*
X025000Y016530D02*
X024960D01*
Y016520D01*
X025000Y016480D01*
Y016470D01*
X026425Y008962D02*
X026435Y008972D01*
X026455D01*
X026465Y008962D01*
Y008923D01*
X026455Y008913D01*
X026435D01*
X026425Y008923D01*
X026366Y008972D02*
X026386Y008962D01*
X026405Y008943D01*
Y008923D01*
X026395Y008913D01*
X026376D01*
X026366Y008923D01*
Y008933D01*
X026376Y008943D01*
X026405D01*
X026316Y008913D02*
Y008972D01*
X026346Y008943D01*
X026306D01*
X026425Y010952D02*
X026435Y010962D01*
X026455D01*
X026465Y010952D01*
Y010913D01*
X026455Y010903D01*
X026435D01*
X026425Y010913D01*
X026366Y010962D02*
X026386Y010952D01*
X026405Y010932D01*
Y010913D01*
X026395Y010903D01*
X026376D01*
X026366Y010913D01*
Y010923D01*
X026376Y010932D01*
X026405D01*
X026346Y010903D02*
X026326D01*
X026336D01*
Y010962D01*
X026346Y010952D01*
X026425Y013252D02*
X026435Y013262D01*
X026455D01*
X026465Y013252D01*
Y013213D01*
X026455Y013203D01*
X026435D01*
X026425Y013213D01*
X026366Y013262D02*
X026405D01*
Y013232D01*
X026386Y013242D01*
X026376D01*
X026366Y013232D01*
Y013213D01*
X026376Y013203D01*
X026395D01*
X026405Y013213D01*
X026346Y013262D02*
X026306D01*
Y013252D01*
X026346Y013213D01*
Y013203D01*
X026425Y015518D02*
X026435Y015528D01*
X026455D01*
X026465Y015518D01*
Y015478D01*
X026455Y015468D01*
X026435D01*
X026425Y015478D01*
X026366Y015528D02*
X026405D01*
Y015498D01*
X026386Y015508D01*
X026376D01*
X026366Y015498D01*
Y015478D01*
X026376Y015468D01*
X026395D01*
X026405Y015478D01*
X026346Y015518D02*
X026336Y015528D01*
X026316D01*
X026306Y015518D01*
Y015508D01*
X026316Y015498D01*
X026326D01*
X026316D01*
X026306Y015488D01*
Y015478D01*
X026316Y015468D01*
X026336D01*
X026346Y015478D01*
X026425Y015828D02*
X026435Y015838D01*
X026455D01*
X026465Y015828D01*
Y015788D01*
X026455Y015778D01*
X026435D01*
X026425Y015788D01*
X026366Y015838D02*
X026405D01*
Y015808D01*
X026386Y015818D01*
X026376D01*
X026366Y015808D01*
Y015788D01*
X026376Y015778D01*
X026395D01*
X026405Y015788D01*
X026306Y015778D02*
X026346D01*
X026306Y015818D01*
Y015828D01*
X026316Y015838D01*
X026336D01*
X026346Y015828D01*
X026425Y008652D02*
X026435Y008662D01*
X026455D01*
X026465Y008652D01*
Y008613D01*
X026455Y008603D01*
X026435D01*
X026425Y008613D01*
X026366Y008662D02*
X026386Y008652D01*
X026405Y008632D01*
Y008613D01*
X026395Y008603D01*
X026376D01*
X026366Y008613D01*
Y008623D01*
X026376Y008632D01*
X026405D01*
X026306Y008662D02*
X026346D01*
Y008632D01*
X026326Y008642D01*
X026316D01*
X026306Y008632D01*
Y008613D01*
X026316Y008603D01*
X026336D01*
X026346Y008613D01*
X026425Y013562D02*
X026435Y013572D01*
X026455D01*
X026465Y013562D01*
Y013523D01*
X026455Y013513D01*
X026435D01*
X026425Y013523D01*
X026366Y013572D02*
X026405D01*
Y013543D01*
X026386Y013552D01*
X026376D01*
X026366Y013543D01*
Y013523D01*
X026376Y013513D01*
X026395D01*
X026405Y013523D01*
X026306Y013572D02*
X026326Y013562D01*
X026346Y013543D01*
Y013523D01*
X026336Y013513D01*
X026316D01*
X026306Y013523D01*
Y013533D01*
X026316Y013543D01*
X026346D01*
D15*
X026974Y004934D02*
X027101D01*
X026974Y005251D02*
X027101D01*
X027114Y005061D02*
Y005124D01*
X026961Y005061D02*
Y005124D01*
X025974Y011218D02*
Y011282D01*
X026126Y011218D02*
Y011282D01*
X025986Y011409D02*
X026114D01*
X025986Y011092D02*
X026114D01*
X025707Y013709D02*
X025833D01*
X025707Y013391D02*
X025833D01*
X025694Y013518D02*
Y013582D01*
X025846Y013518D02*
Y013582D01*
X025437Y011092D02*
X025563D01*
X025437Y011409D02*
X025563D01*
X025576Y011218D02*
Y011282D01*
X025424Y011218D02*
Y011282D01*
X025437Y015657D02*
X025563D01*
X025437Y015974D02*
X025563D01*
X025576Y015784D02*
Y015847D01*
X025424Y015784D02*
Y015847D01*
X025437Y011089D02*
X025563D01*
X025437Y010771D02*
X025563D01*
X025424Y010898D02*
Y010961D01*
X025576Y010898D02*
Y010961D01*
X025437Y013388D02*
X025563D01*
X025437Y013071D02*
X025563D01*
X025424Y013198D02*
Y013262D01*
X025576Y013198D02*
Y013262D01*
X025437Y015654D02*
X025563D01*
X025437Y015336D02*
X025563D01*
X025424Y015463D02*
Y015527D01*
X025576Y015463D02*
Y015527D01*
X025437Y008792D02*
X025563D01*
X025437Y009109D02*
X025563D01*
X025576Y008918D02*
Y008982D01*
X025424Y008918D02*
Y008982D01*
X026296Y016007D02*
Y016134D01*
X025978Y016007D02*
Y016134D01*
X026105Y016147D02*
X026169D01*
X026105Y015994D02*
X026169D01*
X025714Y017514D02*
Y017641D01*
X025396Y017514D02*
Y017641D01*
X025523Y017654D02*
X025587D01*
X025523Y017501D02*
X025587D01*
X024989Y003601D02*
Y003664D01*
X024836Y003601D02*
Y003664D01*
X024849Y003474D02*
X024976D01*
X024849Y003791D02*
X024976D01*
X024989Y004178D02*
Y004242D01*
X024836Y004178D02*
Y004242D01*
X024849Y004051D02*
X024976D01*
X024849Y004369D02*
X024976D01*
X025049Y017514D02*
Y017641D01*
X025366Y017514D02*
Y017641D01*
X025176Y017501D02*
X025240D01*
X025176Y017654D02*
X025240D01*
X026013Y003074D02*
X026077D01*
X026013Y003226D02*
X026077D01*
X025886Y003086D02*
Y003213D01*
X026204Y003086D02*
Y003213D01*
X027047Y013771D02*
X027111D01*
X027047Y013618D02*
X027111D01*
X027238Y013631D02*
Y013758D01*
X026920Y013631D02*
Y013758D01*
X026921Y015896D02*
Y016024D01*
X027238Y015896D02*
Y016024D01*
X027048Y015884D02*
X027111D01*
X027048Y016036D02*
X027111D01*
X024989Y004733D02*
Y004797D01*
X024836Y004733D02*
Y004797D01*
X024849Y004606D02*
X024976D01*
X024849Y004924D02*
X024976D01*
X025437Y008789D02*
X025563D01*
X025437Y008471D02*
X025563D01*
X025424Y008598D02*
Y008661D01*
X025576Y008598D02*
Y008661D01*
X025437Y013391D02*
X025563D01*
X025437Y013709D02*
X025563D01*
X025576Y013518D02*
Y013582D01*
X025424Y013518D02*
Y013582D01*
X025740Y005394D02*
X025804D01*
X025740Y005546D02*
X025804D01*
X025614Y005406D02*
Y005533D01*
X025931Y005406D02*
Y005533D01*
X026920Y011331D02*
Y011458D01*
X027238Y011331D02*
Y011458D01*
X027047Y011318D02*
X027111D01*
X027047Y011471D02*
X027111D01*
X025886Y003262D02*
Y003388D01*
X026204Y003262D02*
Y003388D01*
X026014Y003249D02*
X026077D01*
X026014Y003401D02*
X026077D01*
X026536Y003262D02*
Y003388D01*
X026218Y003262D02*
Y003388D01*
X026345Y003401D02*
X026409D01*
X026345Y003249D02*
X026409D01*
X027047Y009171D02*
X027111D01*
X027047Y009018D02*
X027111D01*
X027238Y009031D02*
Y009158D01*
X026920Y009031D02*
Y009158D01*
X024463Y006099D02*
X024526D01*
X024463Y006251D02*
X024526D01*
X024336Y006112D02*
Y006238D01*
X024654Y006112D02*
Y006238D01*
X025074Y006514D02*
Y006577D01*
X025226Y006514D02*
Y006577D01*
X025086Y006704D02*
X025213D01*
X025086Y006387D02*
X025213D01*
X025724Y003391D02*
X025851D01*
X025724Y003074D02*
X025851D01*
X025711Y003201D02*
Y003264D01*
X025864Y003201D02*
Y003264D01*
X025840Y008918D02*
Y008982D01*
X025688Y008918D02*
Y008982D01*
X025700Y008792D02*
X025827D01*
X025700Y009109D02*
X025827D01*
X026296Y011436D02*
Y011564D01*
X025978Y011436D02*
Y011564D01*
X026105Y011576D02*
X026169D01*
X026105Y011424D02*
X026169D01*
X025712Y015974D02*
X025839D01*
X025712Y015657D02*
X025839D01*
X025699Y015784D02*
Y015847D01*
X025851Y015784D02*
Y015847D01*
X025743Y017514D02*
Y017641D01*
X026061Y017514D02*
Y017641D01*
X025870Y017501D02*
X025934D01*
X025870Y017654D02*
X025934D01*
X026559Y003566D02*
X026686D01*
X026559Y003249D02*
X026686D01*
X026546Y003376D02*
Y003439D01*
X026699Y003376D02*
Y003439D01*
X026534Y017541D02*
X026661D01*
X026534Y017859D02*
X026661D01*
X026674Y017668D02*
Y017732D01*
X026521Y017668D02*
Y017732D01*
X026961Y003574D02*
Y003637D01*
X027114Y003574D02*
Y003637D01*
X026974Y003764D02*
X027101D01*
X026974Y003447D02*
X027101D01*
X026974Y004104D02*
X027101D01*
X026974Y004422D02*
X027101D01*
X027114Y004231D02*
Y004294D01*
X026961Y004231D02*
Y004294D01*
X026974Y004544D02*
X027101D01*
X026974Y004862D02*
X027101D01*
X027114Y004671D02*
Y004735D01*
X026961Y004671D02*
Y004735D01*
X027149Y004934D02*
X027276D01*
X027149Y005251D02*
X027276D01*
X027289Y005061D02*
Y005124D01*
X027136Y005061D02*
Y005124D01*
X027247Y010831D02*
Y010958D01*
X026930Y010831D02*
Y010958D01*
X027057Y010971D02*
X027120D01*
X027057Y010818D02*
X027120D01*
X024957Y005197D02*
X025084D01*
X024957Y005514D02*
X025084D01*
X025096Y005324D02*
Y005387D01*
X024944Y005324D02*
Y005387D01*
X025132Y005197D02*
X025259D01*
X025132Y005514D02*
X025259D01*
X025271Y005324D02*
Y005387D01*
X025119Y005324D02*
Y005387D01*
X025918Y001901D02*
X025982D01*
X025918Y002054D02*
X025982D01*
X025791Y001914D02*
Y002041D01*
X026108Y001914D02*
Y002041D01*
X026296Y009136D02*
Y009264D01*
X025978Y009136D02*
Y009264D01*
X026105Y009276D02*
X026169D01*
X026105Y009124D02*
X026169D01*
X025700Y011409D02*
X025827D01*
X025700Y011092D02*
X025827D01*
X025688Y011218D02*
Y011282D01*
X025840Y011218D02*
Y011282D01*
X026299Y013742D02*
Y013869D01*
X025981Y013742D02*
Y013869D01*
X026108Y013882D02*
X026172D01*
X026108Y013729D02*
X026172D01*
X026504Y005412D02*
Y005538D01*
X026186Y005412D02*
Y005538D01*
X026313Y005551D02*
X026377D01*
X026313Y005399D02*
X026377D01*
X027057Y008518D02*
X027120D01*
X027057Y008671D02*
X027120D01*
X026930Y008531D02*
Y008658D01*
X027247Y008531D02*
Y008658D01*
X027057Y013118D02*
X027120D01*
X027057Y013271D02*
X027120D01*
X026930Y013131D02*
Y013258D01*
X027247Y013131D02*
Y013258D01*
X027248Y015397D02*
Y015524D01*
X026930Y015397D02*
Y015524D01*
X027057Y015536D02*
X027121D01*
X027057Y015384D02*
X027121D01*
X025974Y008918D02*
Y008982D01*
X026126Y008918D02*
Y008982D01*
X025986Y009109D02*
X026114D01*
X025986Y008792D02*
X026114D01*
X025986Y011089D02*
X026114D01*
X025986Y010771D02*
X026114D01*
X025974Y010898D02*
Y010961D01*
X026126Y010898D02*
Y010961D01*
Y013198D02*
Y013262D01*
X025974Y013198D02*
Y013262D01*
X025986Y013071D02*
X026114D01*
X025986Y013388D02*
X026114D01*
X025987Y015654D02*
X026114D01*
X025987Y015336D02*
X026114D01*
X025974Y015463D02*
Y015527D01*
X026127Y015463D02*
Y015527D01*
X025987Y015657D02*
X026114D01*
X025987Y015974D02*
X026114D01*
X026127Y015784D02*
Y015847D01*
X025974Y015784D02*
Y015847D01*
X026126Y008598D02*
Y008661D01*
X025974Y008598D02*
Y008661D01*
X025986Y008471D02*
X026114D01*
X025986Y008789D02*
X026114D01*
X025974Y013518D02*
Y013582D01*
X026126Y013518D02*
Y013582D01*
X025986Y013709D02*
X026114D01*
X025986Y013391D02*
X026114D01*
D16*
X024968Y007928D02*
Y008368D01*
X025268Y007928D02*
Y008368D01*
X024968Y014793D02*
Y015233D01*
X025268Y014793D02*
Y015233D01*
X025268Y010228D02*
Y010668D01*
X024968Y010228D02*
Y010668D01*
Y012528D02*
Y012968D01*
X025268Y012528D02*
Y012968D01*
X025993Y008207D02*
X026433D01*
X025993Y007907D02*
X026433D01*
X025993Y010207D02*
X026433D01*
X025993Y010507D02*
X026433D01*
X025993Y012807D02*
X026433D01*
X025993Y012507D02*
X026433D01*
X025993Y015073D02*
X026433D01*
X025993Y014773D02*
X026433D01*
X025335Y017188D02*
X025774D01*
X025335Y016888D02*
X025774D01*
D18*
X002554Y016958D02*
X002574D01*
X002554Y016955D02*
X002572D01*
X002556Y016952D02*
X002572D01*
X002556Y016950D02*
X002569D01*
X002541Y016975D02*
X002554D01*
X002544Y016973D02*
X002554D01*
X002546Y016970D02*
X002556D01*
X002546Y016968D02*
X002556D01*
X002549Y016965D02*
X002559D01*
X002549Y016963D02*
X002562D01*
X002551Y016960D02*
X002562D01*
X002579Y016985D02*
X002589D01*
X002577Y016983D02*
X002589D01*
X002536Y016985D02*
X002546D01*
X002539Y016983D02*
X002549D01*
X002584Y016996D02*
X002597D01*
X002584Y016993D02*
X002595D01*
X002582Y016991D02*
X002592D01*
X002582Y016988D02*
X002592D01*
X002567Y016935D02*
X002577D01*
X002569Y016932D02*
X002579D01*
X002569Y016930D02*
X002579D01*
X002572Y016927D02*
X002582D01*
X002572Y016924D02*
X002582D01*
X002574Y016922D02*
X002584D01*
X002577Y016980D02*
X002587D01*
X002559Y016947D02*
X002569D01*
X002562Y016945D02*
X002572D01*
X002562Y016942D02*
X002572D01*
X002574Y016978D02*
X002584D01*
X002574Y016975D02*
X002584D01*
X002572Y016973D02*
X002582D01*
X002569Y016970D02*
X002582D01*
X002569Y016968D02*
X002579D01*
X002567Y016965D02*
X002577D01*
X002567Y016963D02*
X002577D01*
X002564Y016960D02*
X002574D01*
X002564Y016940D02*
X002574D01*
X002564Y016937D02*
X002577D01*
X002534Y016991D02*
X002544D01*
X002534Y016988D02*
X002546D01*
X002531Y016996D02*
X002541D01*
X002531Y016993D02*
X002541D01*
X002539Y016980D02*
X002549D01*
X002541Y016978D02*
X002551D01*
X002531Y017189D02*
X002554D01*
X002531Y017186D02*
X002554D01*
X002536Y017217D02*
X002607D01*
X002536Y017219D02*
X002605D01*
X002534Y017214D02*
X002567D01*
X002534Y017212D02*
X002559D01*
X002531Y017209D02*
X002556D01*
X002531Y017206D02*
X002554D01*
X002531Y017204D02*
X002554D01*
X002541Y017224D02*
X002600D01*
X002539Y017222D02*
X002602D01*
X002556Y017234D02*
X002584D01*
X002551Y017232D02*
X002589D01*
X002546Y017229D02*
X002595D01*
X002544Y017227D02*
X002597D01*
X002534Y017176D02*
X002607D01*
X002536Y017173D02*
X002605D01*
X002539Y017171D02*
X002605D01*
X002546Y017163D02*
X002595D01*
X002549Y017161D02*
X002592D01*
X002554Y017158D02*
X002587D01*
X002534Y017179D02*
X002562D01*
X002539Y017168D02*
X002602D01*
X002541Y017166D02*
X002600D01*
X002531Y017184D02*
X002556D01*
X002531Y017181D02*
X002559D01*
X002574Y017214D02*
X002607D01*
X002582Y017212D02*
X002610D01*
X002584Y017209D02*
X002610D01*
X002569Y017237D02*
X002572D01*
X002584Y017184D02*
X002610D01*
X002582Y017181D02*
X002610D01*
X002579Y017179D02*
X002607D01*
X002562Y017156D02*
X002579D01*
X002529Y017201D02*
X002551D01*
X002529Y017199D02*
X002551D01*
X002529Y017196D02*
X002551D01*
X002529Y017194D02*
X002551D01*
X002529Y017191D02*
X002551D01*
X002709Y016455D02*
X002716D01*
X002732Y016500D02*
X002772D01*
X002732Y016498D02*
X002772D01*
X002732Y016495D02*
X002772D01*
X002732Y016493D02*
X002772D01*
X002729Y016490D02*
X002772D01*
X002729Y016505D02*
X002772D01*
X002729Y016503D02*
X002772D01*
X002729Y016488D02*
X002772D01*
X002729Y016485D02*
X002772D01*
X002793Y016498D02*
X002816D01*
X002793Y016495D02*
X002816D01*
X002793Y016493D02*
X002816D01*
X002793Y016490D02*
X002816D01*
X002793Y016505D02*
X002816D01*
X002793Y016503D02*
X002816D01*
X002793Y016500D02*
X002816D01*
X002793Y016488D02*
X002816D01*
X002793Y016485D02*
X002816D01*
X002689Y016528D02*
X002737D01*
X002683Y016526D02*
X002739D01*
X002673Y016483D02*
X002699D01*
X002673Y016480D02*
X002701D01*
X002676Y016513D02*
X002706D01*
X002673Y016510D02*
X002701D01*
X002673Y016508D02*
X002699D01*
X002673Y016505D02*
X002696D01*
X002671Y016503D02*
X002694D01*
X002671Y016500D02*
X002694D01*
X002671Y016498D02*
X002694D01*
X002671Y016495D02*
X002694D01*
X002671Y016493D02*
X002694D01*
X002671Y016490D02*
X002694D01*
X002671Y016488D02*
X002696D01*
X002673Y016485D02*
X002696D01*
X002727Y016483D02*
X002752D01*
X002724Y016480D02*
X002749D01*
X002681Y016521D02*
X002744D01*
X002678Y016518D02*
X002747D01*
X002676Y016516D02*
X002749D01*
X002681Y016523D02*
X002742D01*
X002719Y016513D02*
X002749D01*
X002724Y016510D02*
X002752D01*
X002727Y016508D02*
X002752D01*
X002704Y016536D02*
X002722D01*
X002696Y016533D02*
X002729D01*
X002691Y016531D02*
X002734D01*
X002683Y016467D02*
X002742D01*
X002716Y016477D02*
X002749D01*
X002681Y016470D02*
X002744D01*
X002678Y016472D02*
X002747D01*
X002676Y016475D02*
X002747D01*
X002689Y016462D02*
X002737D01*
X002686Y016465D02*
X002739D01*
X002676Y016477D02*
X002706D01*
X002783Y016780D02*
X002838D01*
X002775Y016805D02*
X002777D01*
X002772Y016803D02*
X002780D01*
X002770Y016800D02*
X002783D01*
X002767Y016798D02*
X002785D01*
X002767Y016795D02*
X002790D01*
X002767Y016792D02*
X002795D01*
X002772Y016861D02*
X002780D01*
X002775Y016858D02*
X002777D01*
X002795Y016775D02*
X002826D01*
X002788Y016777D02*
X002833D01*
X002676Y016985D02*
X002686D01*
X002676Y016983D02*
X002686D01*
X002724Y016985D02*
X002732D01*
X002724Y016983D02*
X002732D01*
X002813Y017041D02*
X002838D01*
X002816Y017039D02*
X002838D01*
X002816Y017036D02*
X002841D01*
X002816Y017064D02*
X002841D01*
X002816Y017062D02*
X002838D01*
X002813Y017059D02*
X002838D01*
X002813Y017057D02*
X002836D01*
X002813Y017054D02*
X002836D01*
X002813Y017051D02*
X002836D01*
X002813Y017049D02*
X002836D01*
X002813Y017046D02*
X002836D01*
X002813Y017044D02*
X002836D01*
X002783Y016884D02*
X002838D01*
X002780Y016881D02*
X002841D01*
X002798Y016889D02*
X002823D01*
X002790Y016886D02*
X002833D01*
X002767Y016871D02*
X002798D01*
X002765Y016869D02*
X002790D01*
X002676Y016996D02*
X002686D01*
X002676Y016993D02*
X002686D01*
X002676Y016991D02*
X002686D01*
X002676Y016988D02*
X002686D01*
X002724Y016996D02*
X002732D01*
X002724Y016993D02*
X002732D01*
X002724Y016991D02*
X002732D01*
X002724Y016988D02*
X002732D01*
X002676Y016935D02*
X002686D01*
X002676Y016932D02*
X002686D01*
X002724Y016935D02*
X002732D01*
X002724Y016932D02*
X002732D01*
X002676Y016930D02*
X002686D01*
X002676Y016927D02*
X002686D01*
X002676Y016924D02*
X002686D01*
X002676Y016922D02*
X002686D01*
X002724Y016930D02*
X002732D01*
X002724Y016927D02*
X002732D01*
X002724Y016924D02*
X002732D01*
X002724Y016922D02*
X002732D01*
X002676Y016947D02*
X002686D01*
X002676Y016945D02*
X002686D01*
X002676Y016942D02*
X002686D01*
X002676Y016980D02*
X002686D01*
X002676Y016978D02*
X002686D01*
X002676Y016975D02*
X002686D01*
X002676Y016973D02*
X002686D01*
X002676Y016970D02*
X002686D01*
X002676Y016968D02*
X002686D01*
X002676Y016965D02*
X002686D01*
X002676Y016955D02*
X002686D01*
X002676Y016952D02*
X002686D01*
X002676Y016950D02*
X002686D01*
X002676Y016963D02*
X002732D01*
X002676Y016960D02*
X002732D01*
X002676Y016958D02*
X002732D01*
X002724Y016980D02*
X002732D01*
X002724Y016978D02*
X002732D01*
X002724Y016975D02*
X002732D01*
X002724Y016973D02*
X002732D01*
X002724Y016970D02*
X002732D01*
X002724Y016968D02*
X002732D01*
X002724Y016965D02*
X002732D01*
X002724Y016955D02*
X002732D01*
X002724Y016952D02*
X002732D01*
X002724Y016950D02*
X002732D01*
X002724Y016947D02*
X002732D01*
X002724Y016945D02*
X002732D01*
X002724Y016942D02*
X002732D01*
X002676Y016940D02*
X002686D01*
X002676Y016937D02*
X002686D01*
X002724Y016940D02*
X002732D01*
X002724Y016937D02*
X002732D01*
X002963Y016505D02*
X002986D01*
X002963Y016503D02*
X002986D01*
X002963Y016500D02*
X002986D01*
X002963Y016498D02*
X002986D01*
X002963Y016495D02*
X002986D01*
X002963Y016493D02*
X002986D01*
X002963Y016490D02*
X002986D01*
X002963Y016488D02*
X002986D01*
X002963Y016485D02*
X002986D01*
X003006Y016505D02*
X003029D01*
X003006Y016503D02*
X003029D01*
X003006Y016500D02*
X003029D01*
X003006Y016498D02*
X003029D01*
X003006Y016495D02*
X003029D01*
X003006Y016493D02*
X003029D01*
X003006Y016490D02*
X003029D01*
X003006Y016485D02*
X003029D01*
X003006Y016488D02*
X003029D01*
X002879Y016505D02*
X002902D01*
X002879Y016503D02*
X002902D01*
X002879Y016500D02*
X002902D01*
X002879Y016498D02*
X002902D01*
X002879Y016495D02*
X002902D01*
X002879Y016493D02*
X002902D01*
X002879Y016490D02*
X002902D01*
X002879Y016488D02*
X002902D01*
X002879Y016485D02*
X002902D01*
X002922Y016505D02*
X002945D01*
X002922Y016503D02*
X002945D01*
X002922Y016500D02*
X002945D01*
X002922Y016498D02*
X002945D01*
X002922Y016495D02*
X002945D01*
X002922Y016493D02*
X002945D01*
X002922Y016490D02*
X002945D01*
X002922Y016488D02*
X002945D01*
X002922Y016485D02*
X002945D01*
X002920Y016782D02*
X002983D01*
X002925Y016780D02*
X002978D01*
X002953Y016790D02*
X002993D01*
X002912Y016787D02*
X002991D01*
X002917Y016785D02*
X002986D01*
X002927Y016777D02*
X002976D01*
X002937Y016775D02*
X002965D01*
X002988Y016810D02*
X003006D01*
X002993Y016833D02*
X003011D01*
X002993Y016831D02*
X003011D01*
X002986Y016808D02*
X003006D01*
X002983Y016805D02*
X003003D01*
X002981Y016803D02*
X003003D01*
X002978Y016800D02*
X003001D01*
X002976Y016798D02*
X002998D01*
X002970Y016795D02*
X002996D01*
X002965Y016792D02*
X002996D01*
X002991Y016818D02*
X003009D01*
X002991Y016815D02*
X003009D01*
X002988Y016813D02*
X003006D01*
X002993Y016828D02*
X003009D01*
X002991Y016825D02*
X003009D01*
X002991Y016823D02*
X003009D01*
X002991Y016820D02*
X003009D01*
X002991Y016838D02*
X003009D01*
X002993Y016836D02*
X003009D01*
X002981Y016861D02*
X003001D01*
X002983Y016858D02*
X003003D01*
X002986Y016856D02*
X003006D01*
X002986Y016853D02*
X003006D01*
X002988Y016851D02*
X003006D01*
X002988Y016848D02*
X003009D01*
X002991Y016846D02*
X003009D01*
X002991Y016843D02*
X003009D01*
X002991Y016841D02*
X003009D01*
X002897Y016810D02*
X002917D01*
X002897Y016808D02*
X002917D01*
X002899Y016805D02*
X002920D01*
X002899Y016803D02*
X002922D01*
X002902Y016800D02*
X002925D01*
X002904Y016798D02*
X002927D01*
X002904Y016795D02*
X002932D01*
X002907Y016792D02*
X002937D01*
X002910Y016790D02*
X002950D01*
X002894Y016818D02*
X002912D01*
X002894Y016815D02*
X002915D01*
X002894Y016813D02*
X002915D01*
X002892Y016828D02*
X002910D01*
X002892Y016825D02*
X002912D01*
X002894Y016823D02*
X002912D01*
X002894Y016820D02*
X002912D01*
X002892Y016838D02*
X002912D01*
X002892Y016836D02*
X002910D01*
X002892Y016833D02*
X002910D01*
X002892Y016831D02*
X002910D01*
X002851Y016838D02*
X002869D01*
X002851Y016836D02*
X002869D01*
X002851Y016833D02*
X002869D01*
X002851Y016831D02*
X002869D01*
X002851Y016828D02*
X002869D01*
X002851Y016825D02*
X002869D01*
X002851Y016823D02*
X002869D01*
X002851Y016820D02*
X002869D01*
X002849Y016818D02*
X002869D01*
X002849Y016815D02*
X002866D01*
X002849Y016813D02*
X002866D01*
X002899Y016861D02*
X002922D01*
X002899Y016858D02*
X002920D01*
X002897Y016856D02*
X002917D01*
X002897Y016853D02*
X002917D01*
X002897Y016851D02*
X002915D01*
X002894Y016848D02*
X002915D01*
X002894Y016846D02*
X002912D01*
X002849Y016848D02*
X002866D01*
X002849Y016846D02*
X002869D01*
X002894Y016843D02*
X002912D01*
X002894Y016841D02*
X002912D01*
X002851Y016843D02*
X002869D01*
X002851Y016841D02*
X002869D01*
X002915Y016876D02*
X002988D01*
X002910Y016874D02*
X002993D01*
X002937Y016889D02*
X002965D01*
X002930Y016886D02*
X002973D01*
X002925Y016884D02*
X002978D01*
X002920Y016881D02*
X002983D01*
X002917Y016879D02*
X002986D01*
X002965Y016871D02*
X002993D01*
X002970Y016869D02*
X002996D01*
X002866Y017036D02*
X002892D01*
X002864Y017034D02*
X002892D01*
X002866Y017064D02*
X002892D01*
X002869Y017062D02*
X002894D01*
X002907Y016869D02*
X002932D01*
X002907Y016871D02*
X002937D01*
X003161Y016607D02*
X003186D01*
X003161Y016604D02*
X003189D01*
X003164Y016602D02*
X003191D01*
X003166Y016599D02*
X003194D01*
X003166Y016597D02*
X003194D01*
X003153Y016615D02*
X003181D01*
X003156Y016612D02*
X003184D01*
X003158Y016610D02*
X003186D01*
X003143Y016632D02*
X003169D01*
X003146Y016630D02*
X003171D01*
X003146Y016627D02*
X003174D01*
X003148Y016625D02*
X003174D01*
X003151Y016622D02*
X003176D01*
X003151Y016620D02*
X003179D01*
X003153Y016617D02*
X003179D01*
X003141Y016635D02*
X003169D01*
X003138Y016643D02*
X003164D01*
X003138Y016640D02*
X003166D01*
X003141Y016637D02*
X003166D01*
X003207Y016579D02*
X003209D01*
X003204Y016577D02*
X003212D01*
X003169Y016594D02*
X003194D01*
X003171Y016592D02*
X003191D01*
X003174Y016589D02*
X003186D01*
X003174Y016587D02*
X003184D01*
X003176Y016584D02*
X003181D01*
X003232Y016526D02*
X003247D01*
X003237Y016523D02*
X003245D01*
X003235Y016546D02*
X003245D01*
X003232Y016543D02*
X003247D01*
X003240Y016521D02*
X003242D01*
X003219Y016505D02*
X003242D01*
X003219Y016503D02*
X003242D01*
X003219Y016500D02*
X003242D01*
X003219Y016498D02*
X003242D01*
X003219Y016495D02*
X003242D01*
X003219Y016493D02*
X003242D01*
X003219Y016490D02*
X003242D01*
X003219Y016488D02*
X003242D01*
X003219Y016485D02*
X003242D01*
X003176Y016505D02*
X003199D01*
X003176Y016503D02*
X003199D01*
X003176Y016500D02*
X003199D01*
X003176Y016498D02*
X003199D01*
X003176Y016495D02*
X003199D01*
X003176Y016493D02*
X003199D01*
X003176Y016490D02*
X003199D01*
X003176Y016485D02*
X003199D01*
X003176Y016488D02*
X003199D01*
X003197Y016561D02*
X003219D01*
X003199Y016559D02*
X003217D01*
X003202Y016556D02*
X003214D01*
X003202Y016574D02*
X003214D01*
X003199Y016571D02*
X003217D01*
X003197Y016569D02*
X003219D01*
X003194Y016566D02*
X003222D01*
X003194Y016564D02*
X003222D01*
X003237Y016549D02*
X003242D01*
X003204Y016554D02*
X003212D01*
X003207Y016551D02*
X003209D01*
X003130Y016655D02*
X003156D01*
X003133Y016653D02*
X003158D01*
X003133Y016650D02*
X003158D01*
X003136Y016648D02*
X003161D01*
X003136Y016645D02*
X003161D01*
X003130Y016658D02*
X003156D01*
X003092Y016505D02*
X003115D01*
X003092Y016503D02*
X003115D01*
X003092Y016500D02*
X003115D01*
X003092Y016498D02*
X003115D01*
X003092Y016495D02*
X003115D01*
X003092Y016493D02*
X003115D01*
X003092Y016490D02*
X003115D01*
X003092Y016485D02*
X003115D01*
X003092Y016488D02*
X003115D01*
X003136Y016505D02*
X003156D01*
X003136Y016503D02*
X003156D01*
X003136Y016500D02*
X003156D01*
X003136Y016498D02*
X003156D01*
X003136Y016495D02*
X003156D01*
X003136Y016493D02*
X003156D01*
X003136Y016490D02*
X003156D01*
X003136Y016485D02*
X003156D01*
X003136Y016488D02*
X003156D01*
X003141Y016782D02*
X003158D01*
X003141Y016780D02*
X003158D01*
X003189Y016792D02*
X003217D01*
X003194Y016803D02*
X003199D01*
X003191Y016800D02*
X003204D01*
X003189Y016798D02*
X003207D01*
X003186Y016795D02*
X003212D01*
X003194Y016861D02*
X003202D01*
X003197Y016858D02*
X003199D01*
X003217Y016775D02*
X003247D01*
X003141Y016810D02*
X003158D01*
X003141Y016808D02*
X003158D01*
X003141Y016805D02*
X003158D01*
X003141Y016803D02*
X003158D01*
X003141Y016800D02*
X003158D01*
X003141Y016798D02*
X003158D01*
X003141Y016795D02*
X003158D01*
X003141Y016792D02*
X003158D01*
X003141Y016790D02*
X003158D01*
X003141Y016787D02*
X003158D01*
X003141Y016785D02*
X003158D01*
X003077Y016838D02*
X003095D01*
X003077Y016836D02*
X003097D01*
X003080Y016833D02*
X003118D01*
X003082Y016831D02*
X003115D01*
X003085Y016828D02*
X003113D01*
X003087Y016825D02*
X003110D01*
X003095Y016818D02*
X003103D01*
X003095Y016815D02*
X003103D01*
X003097Y016813D02*
X003100D01*
X003103Y016838D02*
X003120D01*
X003100Y016836D02*
X003120D01*
X003090Y016823D02*
X003108D01*
X003092Y016820D02*
X003105D01*
X003067Y016848D02*
X003087D01*
X003070Y016846D02*
X003087D01*
X003062Y016853D02*
X003082D01*
X003064Y016851D02*
X003085D01*
X003110Y016848D02*
X003130D01*
X003110Y016846D02*
X003128D01*
X003115Y016853D02*
X003136D01*
X003113Y016851D02*
X003133D01*
X003059Y016858D02*
X003077D01*
X003059Y016856D02*
X003080D01*
X003072Y016843D02*
X003090D01*
X003075Y016841D02*
X003092D01*
X003108Y016843D02*
X003125D01*
X003105Y016841D02*
X003123D01*
X003141Y016818D02*
X003158D01*
X003141Y016815D02*
X003158D01*
X003141Y016813D02*
X003158D01*
X003141Y016838D02*
X003158D01*
X003141Y016836D02*
X003158D01*
X003141Y016833D02*
X003158D01*
X003141Y016831D02*
X003158D01*
X003141Y016828D02*
X003158D01*
X003141Y016825D02*
X003158D01*
X003141Y016823D02*
X003158D01*
X003141Y016820D02*
X003158D01*
X003141Y016848D02*
X003158D01*
X003141Y016846D02*
X003158D01*
X003123Y016861D02*
X003158D01*
X003141Y016858D02*
X003158D01*
X003120D02*
X003138D01*
X003141Y016856D02*
X003158D01*
X003118D02*
X003138D01*
X003141Y016853D02*
X003158D01*
X003141Y016851D02*
X003158D01*
X003141Y016843D02*
X003158D01*
X003141Y016841D02*
X003158D01*
X003100Y016731D02*
X003123D01*
X003103Y016729D02*
X003125D01*
X003103Y016726D02*
X003125D01*
X003103Y016724D02*
X003125D01*
X003103Y016721D02*
X003128D01*
X003105Y016719D02*
X003128D01*
X003105Y016716D02*
X003128D01*
X003105Y016714D02*
X003130D01*
X003108Y016711D02*
X003130D01*
X003108Y016709D02*
X003133D01*
X003108Y016706D02*
X003133D01*
X003110Y016704D02*
X003133D01*
X003110Y016701D02*
X003136D01*
X003113Y016698D02*
X003136D01*
X003113Y016696D02*
X003136D01*
X003118Y016686D02*
X003141D01*
X003118Y016683D02*
X003143D01*
X003118Y016681D02*
X003143D01*
X003120Y016678D02*
X003146D01*
X003120Y016676D02*
X003146D01*
X003123Y016673D02*
X003146D01*
X003123Y016671D02*
X003148D01*
X003125Y016668D02*
X003148D01*
X003125Y016665D02*
X003151D01*
X003113Y016693D02*
X003138D01*
X003115Y016691D02*
X003138D01*
X003115Y016688D02*
X003141D01*
X003095Y016749D02*
X003120D01*
X003097Y016747D02*
X003120D01*
X003097Y016744D02*
X003120D01*
X003097Y016742D02*
X003120D01*
X003097Y016739D02*
X003123D01*
X003141Y016777D02*
X003158D01*
X003141Y016775D02*
X003158D01*
X003100Y016737D02*
X003123D01*
X003100Y016734D02*
X003123D01*
X003146Y017064D02*
X003171D01*
X003143Y017062D02*
X003169D01*
X003108Y016985D02*
X003133D01*
X003108Y016983D02*
X003130D01*
X003217Y016889D02*
X003245D01*
X003224Y016922D02*
X003247D01*
X003224Y016919D02*
X003247D01*
X003224Y016917D02*
X003247D01*
X003222Y016914D02*
X003247D01*
X003222Y016912D02*
X003245D01*
X003189Y016871D02*
X003219D01*
X003186Y016869D02*
X003212D01*
X003118Y017013D02*
X003143D01*
X003113Y016996D02*
X003136D01*
X003110Y016993D02*
X003136D01*
X003110Y016991D02*
X003133D01*
X003110Y016988D02*
X003133D01*
X003118Y017011D02*
X003143D01*
X003118Y017008D02*
X003141D01*
X003115Y017006D02*
X003141D01*
X003115Y017003D02*
X003138D01*
X003113Y017001D02*
X003138D01*
X003113Y016998D02*
X003138D01*
X003123Y017021D02*
X003148D01*
X003120Y017018D02*
X003146D01*
X003120Y017016D02*
X003146D01*
X003130Y017036D02*
X003156D01*
X003128Y017034D02*
X003153D01*
X003128Y017031D02*
X003153D01*
X003125Y017029D02*
X003151D01*
X003125Y017026D02*
X003151D01*
X003123Y017024D02*
X003148D01*
X003095Y016935D02*
X003118D01*
X003092Y016932D02*
X003115D01*
X003146Y016886D02*
X003158D01*
X003143Y016884D02*
X003158D01*
X003092Y016930D02*
X003115D01*
X003092Y016927D02*
X003115D01*
X003092Y016924D02*
X003115D01*
X003092Y016922D02*
X003115D01*
X003090Y016919D02*
X003113D01*
X003090Y016917D02*
X003113D01*
X003090Y016914D02*
X003113D01*
X003090Y016912D02*
X003113D01*
X003141Y016881D02*
X003158D01*
X003138Y016879D02*
X003158D01*
X003136Y016876D02*
X003158D01*
X003133Y016874D02*
X003158D01*
X003130Y016871D02*
X003158D01*
X003130Y016869D02*
X003158D01*
X003105Y016980D02*
X003130D01*
X003105Y016978D02*
X003130D01*
X003105Y016975D02*
X003128D01*
X003105Y016973D02*
X003128D01*
X003103Y016970D02*
X003125D01*
X003103Y016968D02*
X003125D01*
X003103Y016965D02*
X003125D01*
X003100Y016963D02*
X003125D01*
X003100Y016960D02*
X003123D01*
X003100Y016958D02*
X003123D01*
X003097Y016955D02*
X003123D01*
X003097Y016952D02*
X003120D01*
X003097Y016950D02*
X003120D01*
X003097Y016947D02*
X003120D01*
X003095Y016945D02*
X003120D01*
X003095Y016942D02*
X003118D01*
X003095Y016940D02*
X003118D01*
X003095Y016937D02*
X003118D01*
X003161Y017087D02*
X003186D01*
X003158Y017085D02*
X003186D01*
X003156Y017082D02*
X003184D01*
X003153Y017079D02*
X003181D01*
X003153Y017077D02*
X003181D01*
X003151Y017074D02*
X003179D01*
X003151Y017072D02*
X003176D01*
X003164Y017092D02*
X003191D01*
X003161Y017090D02*
X003189D01*
X003166Y017097D02*
X003197D01*
X003166Y017095D02*
X003194D01*
X003202Y017138D02*
X003232D01*
X003199Y017135D02*
X003230D01*
X003214Y017151D02*
X003247D01*
X003212Y017148D02*
X003245D01*
X003197Y017133D02*
X003227D01*
X003194Y017130D02*
X003224D01*
X003191Y017128D02*
X003222D01*
X003189Y017125D02*
X003219D01*
X003186Y017123D02*
X003217D01*
X003186Y017120D02*
X003214D01*
X003184Y017118D02*
X003212D01*
X003181Y017115D02*
X003209D01*
X003179Y017112D02*
X003209D01*
X003176Y017110D02*
X003207D01*
X003174Y017107D02*
X003204D01*
X003174Y017105D02*
X003202D01*
X003171Y017102D02*
X003199D01*
X003169Y017100D02*
X003197D01*
X003209Y017145D02*
X003242D01*
X003204Y017140D02*
X003235D01*
X003207Y017143D02*
X003240D01*
X003392Y016442D02*
X003400D01*
X003384Y016444D02*
X003402D01*
X003377Y016447D02*
X003402D01*
X003379Y016450D02*
X003402D01*
X003379Y016452D02*
X003402D01*
X003379Y016455D02*
X003405D01*
X003415Y016424D02*
X003438D01*
X003415Y016427D02*
X003438D01*
X003418Y016414D02*
X003445D01*
X003418Y016416D02*
X003443D01*
X003418Y016419D02*
X003440D01*
X003415Y016422D02*
X003440D01*
X003420Y016409D02*
X003451D01*
X003420Y016411D02*
X003448D01*
X003412Y016437D02*
X003435D01*
X003412Y016439D02*
X003435D01*
X003412Y016442D02*
X003435D01*
X003412Y016444D02*
X003435D01*
X003412Y016447D02*
X003435D01*
X003412Y016450D02*
X003435D01*
X003412Y016452D02*
X003435D01*
X003415Y016455D02*
X003438D01*
X003412Y016434D02*
X003435D01*
X003412Y016429D02*
X003438D01*
X003412Y016432D02*
X003435D01*
X003354Y016455D02*
X003357D01*
X003341Y016607D02*
X003387D01*
X003367Y016592D02*
X003425D01*
X003346Y016604D02*
X003392D01*
X003349Y016602D02*
X003397D01*
X003354Y016599D02*
X003402D01*
X003357Y016597D02*
X003410D01*
X003362Y016594D02*
X003415D01*
X003331Y016615D02*
X003372D01*
X003334Y016612D02*
X003377D01*
X003339Y016610D02*
X003382D01*
X003329Y016617D02*
X003367D01*
X003372Y016589D02*
X003433D01*
X003377Y016587D02*
X003440D01*
X003382Y016462D02*
X003405D01*
X003415D02*
X003440D01*
X003418Y016465D02*
X003443D01*
X003418Y016467D02*
X003443D01*
X003420Y016470D02*
X003445D01*
X003423Y016475D02*
X003451D01*
X003420Y016472D02*
X003448D01*
X003382Y016465D02*
X003395D01*
X003384Y016467D02*
X003387D01*
X003285Y016658D02*
X003316D01*
X003288Y016655D02*
X003318D01*
X003291Y016653D02*
X003321D01*
X003293Y016650D02*
X003324D01*
X003296Y016648D02*
X003326D01*
X003296Y016645D02*
X003329D01*
X003298Y016643D02*
X003331D01*
X003301Y016640D02*
X003336D01*
X003303Y016637D02*
X003339D01*
X003308Y016635D02*
X003341D01*
X003311Y016632D02*
X003344D01*
X003313Y016630D02*
X003349D01*
X003316Y016627D02*
X003351D01*
X003318Y016625D02*
X003357D01*
X003321Y016622D02*
X003359D01*
X003324Y016620D02*
X003364D01*
X003296Y016483D02*
X003321D01*
X003298Y016480D02*
X003321D01*
X003275Y016495D02*
X003278D01*
X003270Y016523D02*
X003273D01*
X003268Y016521D02*
X003278D01*
X003268Y016518D02*
X003280D01*
X003265Y016516D02*
X003285D01*
X003268Y016500D02*
X003283D01*
X003270Y016498D02*
X003280D01*
X003306Y016500D02*
X003311D01*
X003306Y016498D02*
X003313D01*
X003303Y016495D02*
X003318D01*
X003301Y016493D02*
X003324D01*
X003301Y016490D02*
X003326D01*
X003263Y016513D02*
X003288D01*
X003263Y016510D02*
X003288D01*
X003260Y016508D02*
X003288D01*
X003260Y016505D02*
X003285D01*
X003263Y016503D02*
X003283D01*
X003298Y016488D02*
X003324D01*
X003298Y016485D02*
X003324D01*
X003344Y016480D02*
X003351D01*
X003344Y016483D02*
X003346D01*
X003336Y016462D02*
X003362D01*
X003336Y016465D02*
X003362D01*
X003339Y016467D02*
X003362D01*
X003339Y016470D02*
X003364D01*
X003339Y016472D02*
X003364D01*
X003341Y016475D02*
X003364D01*
X003341Y016477D02*
X003359D01*
X003313Y016472D02*
X003316D01*
X003308Y016475D02*
X003318D01*
X003303Y016477D02*
X003318D01*
X003334Y016782D02*
X003400D01*
X003339Y016780D02*
X003395D01*
X003311Y016810D02*
X003420D01*
X003313Y016808D02*
X003420D01*
X003313Y016805D02*
X003418D01*
X003316Y016803D02*
X003418D01*
X003308Y016818D02*
X003423D01*
X003311Y016815D02*
X003423D01*
X003311Y016813D02*
X003423D01*
X003308Y016838D02*
X003425D01*
X003308Y016836D02*
X003425D01*
X003308Y016833D02*
X003425D01*
X003308Y016831D02*
X003425D01*
X003308Y016828D02*
X003425D01*
X003308Y016825D02*
X003425D01*
X003308Y016823D02*
X003425D01*
X003308Y016820D02*
X003425D01*
X003316Y016861D02*
X003418D01*
X003313Y016858D02*
X003418D01*
X003313Y016856D02*
X003420D01*
X003311Y016853D02*
X003420D01*
X003311Y016851D02*
X003423D01*
X003311Y016848D02*
X003423D01*
X003308Y016846D02*
X003423D01*
X003308Y016843D02*
X003425D01*
X003308Y016841D02*
X003425D01*
X003316Y016800D02*
X003415D01*
X003318Y016798D02*
X003415D01*
X003321Y016795D02*
X003412D01*
X003324Y016792D02*
X003410D01*
X003324Y016790D02*
X003407D01*
X003329Y016787D02*
X003405D01*
X003331Y016785D02*
X003402D01*
X003351Y016775D02*
X003382D01*
X003369Y016749D02*
X003397D01*
X003344Y016777D02*
X003390D01*
X003384Y016731D02*
X003418D01*
X003387Y016729D02*
X003420D01*
X003405Y016714D02*
X003448D01*
X003390Y016726D02*
X003425D01*
X003392Y016724D02*
X003428D01*
X003395Y016721D02*
X003433D01*
X003397Y016719D02*
X003438D01*
X003400Y016716D02*
X003443D01*
X003372Y016747D02*
X003400D01*
X003374Y016744D02*
X003402D01*
X003374Y016742D02*
X003405D01*
X003377Y016739D02*
X003407D01*
X003379Y016737D02*
X003410D01*
X003382Y016734D02*
X003415D01*
X003268Y016810D02*
X003288D01*
X003265Y016808D02*
X003285D01*
X003265Y016805D02*
X003285D01*
X003263Y016803D02*
X003283D01*
X003260Y016800D02*
X003280D01*
X003255Y016798D02*
X003280D01*
X003273Y016838D02*
X003291D01*
X003273Y016836D02*
X003291D01*
X003273Y016833D02*
X003291D01*
X003273Y016831D02*
X003291D01*
X003273Y016828D02*
X003291D01*
X003273Y016825D02*
X003291D01*
X003273Y016823D02*
X003291D01*
X003270Y016820D02*
X003291D01*
X003270Y016818D02*
X003288D01*
X003270Y016815D02*
X003288D01*
X003268Y016813D02*
X003288D01*
X003265Y016856D02*
X003285D01*
X003268Y016853D02*
X003285D01*
X003268Y016851D02*
X003288D01*
X003270Y016848D02*
X003288D01*
X003270Y016846D02*
X003288D01*
X003263Y016861D02*
X003283D01*
X003263Y016858D02*
X003283D01*
X003270Y016843D02*
X003291D01*
X003273Y016841D02*
X003291D01*
X003275Y016671D02*
X003303D01*
X003278Y016668D02*
X003306D01*
X003278Y016665D02*
X003308D01*
X003265Y016686D02*
X003291D01*
X003265Y016683D02*
X003293D01*
X003268Y016681D02*
X003296D01*
X003270Y016678D02*
X003298D01*
X003270Y016676D02*
X003298D01*
X003273Y016673D02*
X003301D01*
X003255Y016701D02*
X003280D01*
X003255Y016698D02*
X003283D01*
X003257Y016696D02*
X003283D01*
X003260Y016693D02*
X003285D01*
X003263Y016688D02*
X003291D01*
X003260Y016691D02*
X003288D01*
X003362Y016932D02*
X003387D01*
X003362Y016935D02*
X003390D01*
X003354Y016889D02*
X003379D01*
X003359Y016930D02*
X003387D01*
X003359Y016927D02*
X003384D01*
X003357Y016924D02*
X003382D01*
X003357Y016922D02*
X003382D01*
X003354Y016919D02*
X003379D01*
X003354Y016917D02*
X003379D01*
X003351Y016914D02*
X003377D01*
X003351Y016912D02*
X003374D01*
X003344Y016886D02*
X003387D01*
X003339Y016884D02*
X003392D01*
X003334Y016881D02*
X003397D01*
X003331Y016879D02*
X003400D01*
X003329Y016876D02*
X003405D01*
X003326Y016874D02*
X003407D01*
X003324Y016871D02*
X003410D01*
X003321Y016869D02*
X003412D01*
X003369Y016945D02*
X003397D01*
X003367Y016942D02*
X003395D01*
X003367Y016940D02*
X003395D01*
X003364Y016937D02*
X003392D01*
X003405Y016980D02*
X003448D01*
X003397Y016975D02*
X003438D01*
X003395Y016973D02*
X003433D01*
X003392Y016970D02*
X003428D01*
X003390Y016968D02*
X003425D01*
X003387Y016965D02*
X003420D01*
X003384Y016963D02*
X003418D01*
X003400Y016978D02*
X003443D01*
X003382Y016960D02*
X003415D01*
X003379Y016958D02*
X003410D01*
X003377Y016955D02*
X003407D01*
X003374Y016952D02*
X003405D01*
X003374Y016950D02*
X003402D01*
X003372Y016947D02*
X003400D01*
X003268Y017013D02*
X003296D01*
X003265Y017011D02*
X003293D01*
X003265Y017008D02*
X003291D01*
X003263Y017006D02*
X003291D01*
X003260Y017003D02*
X003288D01*
X003260Y017001D02*
X003285D01*
X003257Y016998D02*
X003285D01*
X003255Y016996D02*
X003283D01*
X003255Y016993D02*
X003280D01*
X003291Y017041D02*
X003321D01*
X003288Y017039D02*
X003318D01*
X003285Y017036D02*
X003316D01*
X003283Y017034D02*
X003313D01*
X003280Y017031D02*
X003311D01*
X003280Y017029D02*
X003308D01*
X003278Y017026D02*
X003306D01*
X003275Y017024D02*
X003303D01*
X003273Y017021D02*
X003303D01*
X003270Y017018D02*
X003301D01*
X003270Y017016D02*
X003298D01*
X003306Y017057D02*
X003339D01*
X003303Y017054D02*
X003336D01*
X003301Y017051D02*
X003334D01*
X003298Y017049D02*
X003329D01*
X003296Y017046D02*
X003326D01*
X003293Y017044D02*
X003324D01*
X003313Y017064D02*
X003349D01*
X003311Y017062D02*
X003346D01*
X003308Y017059D02*
X003341D01*
X003354Y017239D02*
X003435D01*
X003346Y017237D02*
X003423D01*
X003318Y017224D02*
X003377D01*
X003313Y017222D02*
X003369D01*
X003341Y017234D02*
X003412D01*
X003334Y017232D02*
X003402D01*
X003329Y017229D02*
X003392D01*
X003324Y017227D02*
X003384D01*
X003351Y017092D02*
X003390D01*
X003346Y017090D02*
X003392D01*
X003367Y017102D02*
X003387D01*
X003364Y017100D02*
X003387D01*
X003359Y017097D02*
X003390D01*
X003354Y017095D02*
X003390D01*
X003341Y017087D02*
X003387D01*
X003339Y017085D02*
X003382D01*
X003336Y017082D02*
X003377D01*
X003331Y017079D02*
X003372D01*
X003329Y017077D02*
X003369D01*
X003412Y017123D02*
X003420D01*
X003405Y017120D02*
X003420D01*
X003400Y017118D02*
X003423D01*
X003397Y017115D02*
X003423D01*
X003400Y017112D02*
X003423D01*
X003400Y017110D02*
X003425D01*
X003402Y017107D02*
X003425D01*
X003402Y017105D02*
X003425D01*
X003402Y017102D02*
X003425D01*
X003405Y017100D02*
X003418D01*
X003377Y017107D02*
X003384D01*
X003372Y017105D02*
X003384D01*
X003405Y017097D02*
X003410D01*
X003303Y017217D02*
X003357D01*
X003291Y017209D02*
X003339D01*
X003301Y017214D02*
X003351D01*
X003296Y017212D02*
X003344D01*
X003308Y017219D02*
X003364D01*
X003326Y017074D02*
X003364D01*
X003321Y017072D02*
X003359D01*
X003552Y016437D02*
X003575D01*
X003552Y016439D02*
X003575D01*
X003552Y016442D02*
X003575D01*
X003552Y016444D02*
X003575D01*
X003552Y016447D02*
X003575D01*
X003552Y016450D02*
X003575D01*
X003550Y016452D02*
X003572D01*
X003552Y016434D02*
X003578D01*
X003565Y016455D02*
X003572D01*
X003471Y016376D02*
X003486D01*
X003598Y016439D02*
X003605D01*
X003595Y016442D02*
X003616D01*
X003595Y016447D02*
X003618D01*
X003595Y016450D02*
X003618D01*
X003595Y016452D02*
X003618D01*
X003593Y016455D02*
X003618D01*
X003595Y016444D02*
X003621D01*
X003638Y016452D02*
X003649D01*
X003638Y016455D02*
X003654D01*
X003552Y016432D02*
X003567D01*
X003519Y016424D02*
X003542D01*
X003519Y016427D02*
X003542D01*
X003511Y016414D02*
X003537D01*
X003514Y016416D02*
X003539D01*
X003517Y016419D02*
X003539D01*
X003517Y016422D02*
X003542D01*
X003504Y016406D02*
X003534D01*
X003506Y016409D02*
X003534D01*
X003509Y016411D02*
X003537D01*
X003494Y016401D02*
X003529D01*
X003486Y016399D02*
X003529D01*
X003458Y016378D02*
X003499D01*
Y016404D02*
X003532D01*
X003522Y016437D02*
X003545D01*
X003522Y016439D02*
X003545D01*
X003522Y016442D02*
X003545D01*
X003522Y016444D02*
X003545D01*
X003522Y016447D02*
X003545D01*
X003522Y016450D02*
X003545D01*
X003519Y016452D02*
X003542D01*
X003519Y016455D02*
X003542D01*
X003522Y016434D02*
X003545D01*
X003519Y016432D02*
X003545D01*
X003519Y016429D02*
X003542D01*
X003519Y016579D02*
X003618D01*
X003570Y016587D02*
X003628D01*
X003560Y016584D02*
X003631D01*
X003545Y016582D02*
X003623D01*
X003638Y016597D02*
X003654D01*
X003646Y016620D02*
X003651D01*
X003644Y016617D02*
X003654D01*
X003616Y016602D02*
X003621D01*
X003608Y016599D02*
X003623D01*
X003603Y016597D02*
X003623D01*
X003595Y016594D02*
X003626D01*
X003588Y016592D02*
X003626D01*
X003580Y016589D02*
X003628D01*
X003641Y016594D02*
X003649D01*
X003641Y016592D02*
X003644D01*
X003603Y016462D02*
X003616D01*
X003651Y016477D02*
X003654D01*
X003491Y016483D02*
X003529D01*
X003499Y016480D02*
X003532D01*
X003463Y016505D02*
X003494D01*
X003468Y016559D02*
X003545D01*
X003517Y016462D02*
X003539D01*
X003514Y016465D02*
X003539D01*
X003514Y016467D02*
X003539D01*
X003511Y016470D02*
X003537D01*
X003509Y016472D02*
X003537D01*
X003506Y016475D02*
X003534D01*
X003501Y016477D02*
X003532D01*
X003570Y016716D02*
X003611D01*
X003565Y016714D02*
X003608D01*
X003557Y016711D02*
X003605D01*
X003550Y016709D02*
X003600D01*
X003542Y016706D02*
X003598D01*
X003529Y016704D02*
X003593D01*
X003545Y016782D02*
X003565D01*
X003545Y016780D02*
X003565D01*
X003595Y016731D02*
X003628D01*
X003590Y016729D02*
X003626D01*
X003623Y016762D02*
X003651D01*
X003628Y016770D02*
X003654D01*
X003628Y016767D02*
X003654D01*
X003626Y016764D02*
X003651D01*
X003588Y016726D02*
X003623D01*
X003583Y016724D02*
X003621D01*
X003580Y016721D02*
X003616D01*
X003575Y016719D02*
X003613D01*
Y016749D02*
X003641D01*
X003611Y016747D02*
X003641D01*
X003608Y016744D02*
X003638D01*
X003605Y016742D02*
X003636D01*
X003603Y016739D02*
X003633D01*
X003621Y016759D02*
X003649D01*
X003621Y016757D02*
X003646D01*
X003618Y016754D02*
X003646D01*
X003616Y016752D02*
X003644D01*
X003600Y016737D02*
X003631D01*
X003598Y016734D02*
X003631D01*
X003458Y016810D02*
X003481D01*
X003545D02*
X003565D01*
X003458Y016808D02*
X003478D01*
X003545D02*
X003565D01*
X003545Y016805D02*
X003565D01*
X003545Y016803D02*
X003565D01*
X003545Y016800D02*
X003565D01*
X003545Y016798D02*
X003565D01*
X003545Y016795D02*
X003565D01*
X003545Y016792D02*
X003565D01*
X003545Y016790D02*
X003565D01*
X003545Y016787D02*
X003565D01*
X003545Y016785D02*
X003565D01*
X003476Y016838D02*
X003499D01*
X003476Y016836D02*
X003496D01*
X003473Y016833D02*
X003496D01*
X003471Y016831D02*
X003494D01*
X003471Y016828D02*
X003491D01*
X003468Y016825D02*
X003489D01*
X003466Y016823D02*
X003489D01*
X003466Y016820D02*
X003486D01*
X003463Y016818D02*
X003486D01*
X003463Y016815D02*
X003484D01*
X003461Y016813D02*
X003481D01*
X003484Y016846D02*
X003511D01*
X003481Y016843D02*
X003504D01*
X003478Y016841D02*
X003501D01*
X003545Y016818D02*
X003565D01*
X003545Y016815D02*
X003565D01*
X003545Y016813D02*
X003565D01*
X003545Y016831D02*
X003565D01*
X003545Y016828D02*
X003565D01*
X003545Y016825D02*
X003565D01*
X003545Y016823D02*
X003565D01*
X003545Y016820D02*
X003565D01*
X003545Y016838D02*
X003565D01*
X003545Y016836D02*
X003565D01*
X003545Y016833D02*
X003565D01*
X003489Y016861D02*
X003565D01*
X003491Y016858D02*
X003565D01*
X003491Y016853D02*
X003565D01*
X003489Y016851D02*
X003565D01*
X003484Y016848D02*
X003565D01*
X003496Y016856D02*
X003565D01*
X003545Y016846D02*
X003565D01*
X003545Y016843D02*
X003565D01*
X003545Y016841D02*
X003565D01*
X003468Y016683D02*
X003542D01*
X003481Y016681D02*
X003529D01*
X003458Y016686D02*
X003552D01*
X003545Y016777D02*
X003565D01*
X003545Y016775D02*
X003565D01*
X003550Y016985D02*
X003600D01*
X003557Y016983D02*
X003603D01*
X003529Y016991D02*
X003593D01*
X003542Y016988D02*
X003595D01*
X003565Y016980D02*
X003608D01*
X003570Y016978D02*
X003611D01*
X003623Y016932D02*
X003651D01*
X003621Y016935D02*
X003649D01*
X003626Y016930D02*
X003651D01*
X003628Y016927D02*
X003654D01*
X003628Y016924D02*
X003654D01*
X003588Y016968D02*
X003623D01*
X003590Y016965D02*
X003626D01*
X003593Y016963D02*
X003628D01*
X003598Y016960D02*
X003628D01*
X003600Y016958D02*
X003631D01*
X003603Y016955D02*
X003633D01*
X003605Y016952D02*
X003636D01*
X003608Y016950D02*
X003638D01*
X003611Y016947D02*
X003641D01*
X003613Y016945D02*
X003641D01*
X003616Y016942D02*
X003644D01*
X003618Y016940D02*
X003646D01*
X003621Y016937D02*
X003646D01*
X003575Y016975D02*
X003613D01*
X003578Y016973D02*
X003616D01*
X003583Y016970D02*
X003618D01*
X003484Y017013D02*
X003529D01*
X003468Y017011D02*
X003542D01*
X003458Y017008D02*
X003552D01*
X003545Y016932D02*
X003565D01*
X003478Y016876D02*
X003499D01*
X003478Y016874D02*
X003501D01*
X003481Y016871D02*
X003504D01*
X003484Y016869D02*
X003506D01*
X003473Y016884D02*
X003494D01*
X003473Y016881D02*
X003496D01*
X003476Y016879D02*
X003496D01*
X003468Y016889D02*
X003491D01*
X003471Y016886D02*
X003491D01*
X003458Y016907D02*
X003478D01*
X003458Y016904D02*
X003481D01*
X003461Y016902D02*
X003481D01*
X003463Y016899D02*
X003484D01*
X003463Y016897D02*
X003486D01*
X003468Y016891D02*
X003489D01*
X003466Y016894D02*
X003486D01*
X003545Y016889D02*
X003565D01*
X003545Y016886D02*
X003565D01*
X003545Y016884D02*
X003565D01*
X003545Y016881D02*
X003565D01*
X003545Y016879D02*
X003565D01*
X003545Y016876D02*
X003565D01*
X003545Y016874D02*
X003565D01*
X003545Y016871D02*
X003565D01*
X003545Y016869D02*
X003565D01*
X003545Y016902D02*
X003565D01*
X003545Y016899D02*
X003565D01*
X003545Y016897D02*
X003565D01*
X003545Y016930D02*
X003565D01*
X003545Y016927D02*
X003565D01*
X003545Y016924D02*
X003565D01*
X003545Y016922D02*
X003565D01*
X003545Y016919D02*
X003565D01*
X003545Y016917D02*
X003565D01*
X003545Y016914D02*
X003565D01*
X003545Y016912D02*
X003565D01*
X003545Y016909D02*
X003565D01*
X003545Y016907D02*
X003565D01*
X003545Y016904D02*
X003565D01*
X003545Y016894D02*
X003565D01*
X003545Y016891D02*
X003565D01*
X003557Y017242D02*
X003649D01*
X003532Y017245D02*
X003644D01*
X003572Y017125D02*
X003590D01*
X003572Y017123D02*
X003598D01*
X003572Y017120D02*
X003595D01*
X003572Y017118D02*
X003595D01*
X003570Y017115D02*
X003595D01*
X003570Y017112D02*
X003595D01*
X003570Y017110D02*
X003593D01*
X003570Y017107D02*
X003593D01*
X003621Y017090D02*
X003631D01*
X003616Y017092D02*
X003633D01*
X003616Y017112D02*
X003626D01*
X003616Y017110D02*
X003631D01*
X003613Y017107D02*
X003636D01*
X003613Y017105D02*
X003638D01*
X003613Y017102D02*
X003638D01*
X003611Y017100D02*
X003636D01*
X003611Y017097D02*
X003636D01*
X003608Y017095D02*
X003633D01*
X003626Y017087D02*
X003631D01*
X003575Y017128D02*
X003583D01*
X003580Y017105D02*
X003593D01*
X003588Y017102D02*
X003590D01*
X003484Y017267D02*
X003527D01*
X003486Y017135D02*
X003509D01*
X003499Y017138D02*
X003509D01*
X003529Y017135D02*
X003545D01*
X003486Y017133D02*
X003509D01*
X003486Y017130D02*
X003509D01*
X003486Y017128D02*
X003509D01*
X003486Y017125D02*
X003509D01*
X003486Y017123D02*
X003509D01*
X003486Y017120D02*
X003509D01*
X003486Y017118D02*
X003509D01*
X003486Y017115D02*
X003506D01*
X003529Y017133D02*
X003555D01*
X003529Y017130D02*
X003552D01*
X003529Y017128D02*
X003552D01*
X003529Y017125D02*
X003552D01*
X003529Y017123D02*
X003552D01*
X003529Y017120D02*
X003552D01*
X003529Y017118D02*
X003552D01*
X003529Y017115D02*
X003550D01*
X003542Y017112D02*
X003550D01*
X003745Y016528D02*
X003776D01*
X003748Y016526D02*
X003776D01*
X003745Y016531D02*
X003773D01*
X003816Y016579D02*
X003826D01*
X003819Y016577D02*
X003826D01*
X003842Y016615D02*
X003854D01*
X003839Y016632D02*
X003857D01*
X003834Y016620D02*
X003857D01*
X003837Y016617D02*
X003857D01*
X003816Y016602D02*
X003824D01*
X003814Y016599D02*
X003826D01*
X003814Y016597D02*
X003832D01*
X003811Y016594D02*
X003834D01*
X003809Y016592D02*
X003837D01*
X003806Y016589D02*
X003837D01*
X003806Y016587D02*
X003834D01*
X003811Y016584D02*
X003832D01*
X003814Y016582D02*
X003829D01*
X003819Y016604D02*
X003821D01*
X003844Y016612D02*
X003852D01*
X003849Y016610D02*
X003852D01*
X003839Y016635D02*
X003852D01*
X003842Y016637D02*
X003847D01*
X003821Y016574D02*
X003824D01*
X003791Y016571D02*
X003793D01*
X003788Y016569D02*
X003796D01*
X003786Y016566D02*
X003799D01*
X003783Y016564D02*
X003801D01*
X003781Y016561D02*
X003804D01*
X003778Y016559D02*
X003806D01*
X003778Y016556D02*
X003806D01*
X003781Y016554D02*
X003804D01*
X003783Y016551D02*
X003801D01*
X003786Y016549D02*
X003799D01*
X003788Y016546D02*
X003796D01*
X003791Y016543D02*
X003793D01*
X003672Y016627D02*
X003694D01*
X003674Y016625D02*
X003692D01*
X003677Y016622D02*
X003689D01*
X003677Y016620D02*
X003687D01*
X003679Y016617D02*
X003684D01*
X003669Y016632D02*
X003697D01*
X003669Y016630D02*
X003699D01*
X003669Y016635D02*
X003694D01*
X003682Y016645D02*
X003687D01*
X003679Y016643D02*
X003687D01*
X003702Y016658D02*
X003725D01*
X003705Y016655D02*
X003725D01*
X003707Y016653D02*
X003722D01*
X003710Y016650D02*
X003720D01*
X003712Y016648D02*
X003717D01*
X003677Y016640D02*
X003689D01*
X003672Y016637D02*
X003692D01*
X003753Y016521D02*
X003768D01*
X003753Y016518D02*
X003765D01*
X003755Y016516D02*
X003763D01*
X003674Y016483D02*
X003699D01*
X003674Y016480D02*
X003702D01*
X003689Y016495D02*
X003692D01*
X003684Y016493D02*
X003694D01*
X003679Y016490D02*
X003694D01*
X003722Y016516D02*
X003730D01*
X003720Y016513D02*
X003732D01*
X003715Y016510D02*
X003732D01*
X003712Y016508D02*
X003735D01*
X003710Y016505D02*
X003738D01*
X003712Y016503D02*
X003738D01*
X003712Y016500D02*
X003740D01*
X003715Y016498D02*
X003738D01*
X003717Y016495D02*
X003732D01*
X003717Y016493D02*
X003730D01*
X003720Y016490D02*
X003725D01*
X003674Y016488D02*
X003697D01*
X003674Y016485D02*
X003699D01*
X003720Y016488D02*
X003722D01*
X003750Y016523D02*
X003771D01*
X003760Y016543D02*
X003763D01*
X003758Y016541D02*
X003765D01*
X003755Y016538D02*
X003765D01*
X003750Y016536D02*
X003768D01*
X003748Y016533D02*
X003771D01*
X003679Y016470D02*
X003689D01*
X003679Y016472D02*
X003694D01*
X003682Y016467D02*
X003684D01*
X003677Y016475D02*
X003699D01*
X003677Y016477D02*
X003702D01*
X003765Y016782D02*
X003788D01*
X003765Y016780D02*
X003788D01*
X003771Y016810D02*
X003793D01*
X003771Y016808D02*
X003793D01*
X003768Y016787D02*
X003773D01*
X003765Y016785D02*
X003783D01*
X003771Y016813D02*
X003793D01*
X003773Y016818D02*
X003796D01*
X003771Y016815D02*
X003796D01*
X003773Y016828D02*
X003796D01*
X003773Y016825D02*
X003796D01*
X003773Y016823D02*
X003796D01*
X003773Y016820D02*
X003796D01*
X003773Y016861D02*
X003796D01*
X003773Y016858D02*
X003796D01*
X003773Y016856D02*
X003796D01*
X003773Y016853D02*
X003796D01*
X003773Y016851D02*
X003796D01*
X003748Y016731D02*
X003773D01*
X003765Y016777D02*
X003788D01*
X003763Y016775D02*
X003788D01*
X003763Y016772D02*
X003786D01*
X003763Y016770D02*
X003786D01*
X003760Y016767D02*
X003786D01*
X003771Y016764D02*
X003783D01*
X003753Y016742D02*
X003773D01*
X003750Y016739D02*
X003776D01*
X003750Y016737D02*
X003776D01*
X003748Y016734D02*
X003773D01*
X003788Y016805D02*
X003793D01*
X003778Y016762D02*
X003783D01*
X003745Y016729D02*
X003771D01*
X003755Y016724D02*
X003768D01*
X003760Y016721D02*
X003768D01*
X003765Y016719D02*
X003768D01*
X003712Y016676D02*
X003715D01*
X003710Y016673D02*
X003717D01*
X003707Y016671D02*
X003720D01*
X003705Y016668D02*
X003725D01*
X003702Y016665D02*
X003727D01*
X003738Y016683D02*
X003745D01*
X003743Y016681D02*
X003745D01*
X003735Y016709D02*
X003740D01*
X003732Y016706D02*
X003745D01*
X003735Y016686D02*
X003748D01*
X003750Y016726D02*
X003771D01*
X003732Y016704D02*
X003750D01*
X003730Y016701D02*
X003753D01*
X003727Y016698D02*
X003755D01*
X003727Y016696D02*
X003753D01*
X003725Y016693D02*
X003753D01*
X003727Y016691D02*
X003750D01*
X003732Y016688D02*
X003750D01*
X003755Y016747D02*
X003760D01*
X003753Y016744D02*
X003765D01*
X003773Y016871D02*
X003796D01*
X003773Y016869D02*
X003796D01*
X003776Y016914D02*
X003788D01*
X003765Y016912D02*
X003788D01*
X003765Y016909D02*
X003791D01*
X003768Y016907D02*
X003791D01*
X003768Y016904D02*
X003791D01*
X003768Y016902D02*
X003791D01*
X003768Y016899D02*
X003791D01*
X003768Y016897D02*
X003793D01*
X003771Y016894D02*
X003791D01*
X003771Y016891D02*
X003776D01*
X003768Y016958D02*
X003776D01*
X003760Y016955D02*
X003776D01*
X003755Y016952D02*
X003778D01*
X003753Y016950D02*
X003778D01*
X003755Y016947D02*
X003778D01*
X003755Y016945D02*
X003781D01*
X003755Y016942D02*
X003781D01*
X003758Y016940D02*
X003781D01*
X003758Y016937D02*
X003778D01*
X003735Y016985D02*
X003760D01*
X003738Y016983D02*
X003763D01*
X003839Y017062D02*
X003844D01*
X003837Y017064D02*
X003847D01*
X003786Y016917D02*
X003788D01*
X003679Y017013D02*
X003750D01*
X003684Y017008D02*
X003745D01*
X003689Y017006D02*
X003743D01*
X003692Y017003D02*
X003738D01*
X003697Y017001D02*
X003735D01*
X003705Y016998D02*
X003727D01*
X003682Y017011D02*
X003748D01*
X003750Y016998D02*
X003755D01*
X003745Y016996D02*
X003755D01*
X003740Y016993D02*
X003758D01*
X003738Y016991D02*
X003758D01*
X003735Y016988D02*
X003760D01*
X003674Y017021D02*
X003707D01*
X003672Y017029D02*
X003697D01*
X003674Y017026D02*
X003699D01*
X003674Y017024D02*
X003702D01*
X003672Y017041D02*
X003692D01*
X003672Y017039D02*
X003692D01*
X003672Y017036D02*
X003694D01*
X003672Y017034D02*
X003694D01*
X003672Y017031D02*
X003694D01*
X003674Y017062D02*
X003705D01*
X003674Y017059D02*
X003702D01*
X003674Y017057D02*
X003699D01*
X003672Y017054D02*
X003697D01*
X003672Y017051D02*
X003694D01*
X003672Y017049D02*
X003694D01*
X003672Y017046D02*
X003694D01*
X003672Y017044D02*
X003692D01*
X003677Y017018D02*
X003753D01*
X003679Y017016D02*
X003753D01*
X003725Y017021D02*
X003755D01*
X003738Y017041D02*
X003760D01*
X003738Y017039D02*
X003760D01*
X003738Y017036D02*
X003760D01*
X003738Y017034D02*
X003760D01*
X003735Y017031D02*
X003758D01*
X003735Y017029D02*
X003758D01*
X003732Y017026D02*
X003758D01*
X003730Y017024D02*
X003755D01*
X003677Y017064D02*
X003753D01*
X003725Y017062D02*
X003755D01*
X003730Y017059D02*
X003755D01*
X003732Y017057D02*
X003758D01*
X003735Y017054D02*
X003758D01*
X003735Y017051D02*
X003758D01*
X003738Y017049D02*
X003760D01*
X003738Y017046D02*
X003760D01*
X003738Y017044D02*
X003760D01*
Y016935D02*
X003771D01*
X003760Y016932D02*
X003763D01*
X003738Y016980D02*
X003765D01*
X003740Y016978D02*
X003760D01*
X003740Y016975D02*
X003755D01*
X003743Y016973D02*
X003750D01*
X003755Y017158D02*
X003786D01*
X003758Y017156D02*
X003788D01*
X003760Y017153D02*
X003791D01*
X003763Y017151D02*
X003793D01*
X003765Y017148D02*
X003796D01*
X003768Y017145D02*
X003799D01*
X003740Y017168D02*
X003776D01*
X003745Y017166D02*
X003778D01*
X003748Y017163D02*
X003781D01*
X003750Y017161D02*
X003783D01*
X003771Y017143D02*
X003801D01*
X003773Y017140D02*
X003804D01*
X003712Y017189D02*
X003748D01*
X003715Y017186D02*
X003753D01*
X003778Y017138D02*
X003806D01*
X003781Y017135D02*
X003809D01*
X003826Y017082D02*
X003854D01*
X003826Y017079D02*
X003854D01*
X003829Y017077D02*
X003857D01*
X003832Y017074D02*
X003857D01*
X003809Y017105D02*
X003837D01*
X003809Y017102D02*
X003839D01*
X003811Y017100D02*
X003839D01*
X003793Y017120D02*
X003824D01*
X003796Y017118D02*
X003826D01*
X003799Y017115D02*
X003829D01*
X003801Y017112D02*
X003829D01*
X003804Y017110D02*
X003832D01*
X003806Y017107D02*
X003834D01*
X003814Y017097D02*
X003842D01*
X003816Y017095D02*
X003844D01*
X003819Y017092D02*
X003847D01*
X003819Y017090D02*
X003847D01*
X003821Y017087D02*
X003849D01*
X003824Y017085D02*
X003852D01*
X003783Y017133D02*
X003811D01*
X003786Y017130D02*
X003814D01*
X003786Y017128D02*
X003816D01*
X003788Y017125D02*
X003819D01*
X003791Y017123D02*
X003821D01*
X003684Y017204D02*
X003725D01*
X003689Y017201D02*
X003730D01*
X003694Y017199D02*
X003735D01*
X003674Y017209D02*
X003717D01*
X003679Y017206D02*
X003722D01*
X003699Y017196D02*
X003738D01*
X003702Y017194D02*
X003743D01*
X003707Y017191D02*
X003745D01*
X003661Y017214D02*
X003710D01*
X003669Y017212D02*
X003712D01*
X003697Y017082D02*
X003735D01*
X003692Y017079D02*
X003740D01*
X003687Y017077D02*
X003743D01*
X003684Y017074D02*
X003745D01*
X003702Y017085D02*
X003727D01*
X003682Y017072D02*
X003748D01*
X003720Y017184D02*
X003755D01*
X003722Y017181D02*
X003758D01*
X003727Y017179D02*
X003763D01*
X003730Y017176D02*
X003765D01*
X003735Y017173D02*
X003768D01*
X003738Y017171D02*
X003771D01*
X003867Y016650D02*
X003875D01*
X003872Y016648D02*
X003875D01*
X003895Y016782D02*
X003920D01*
X003895Y016780D02*
X003918D01*
X003898Y016798D02*
X003905D01*
X003898Y016795D02*
X003920D01*
X003898Y016792D02*
X003920D01*
X003898Y016790D02*
X003920D01*
X003898Y016787D02*
X003920D01*
X003898Y016785D02*
X003920D01*
X003900Y016820D02*
X003923D01*
X003900Y016833D02*
X003926D01*
X003900Y016831D02*
X003923D01*
X003900Y016828D02*
X003923D01*
X003900Y016825D02*
X003923D01*
X003900Y016823D02*
X003923D01*
X003903Y016818D02*
X003923D01*
X003903Y016838D02*
X003926D01*
X003903Y016836D02*
X003926D01*
X003903Y016861D02*
X003926D01*
X003898Y016731D02*
X003908D01*
X003875Y016706D02*
X003900D01*
X003875Y016704D02*
X003900D01*
X003877Y016709D02*
X003900D01*
X003880Y016714D02*
X003887D01*
X003877Y016711D02*
X003895D01*
X003875Y016701D02*
X003898D01*
X003877Y016693D02*
X003895D01*
X003872Y016698D02*
X003898D01*
X003872Y016696D02*
X003898D01*
X003890Y016688D02*
X003892D01*
X003882Y016691D02*
X003895D01*
Y016777D02*
X003918D01*
X003890Y016754D02*
X003903D01*
X003890Y016752D02*
X003913D01*
X003890Y016749D02*
X003913D01*
X003890Y016747D02*
X003913D01*
X003887Y016744D02*
X003913D01*
X003887Y016742D02*
X003910D01*
X003887Y016739D02*
X003910D01*
X003905Y016775D02*
X003918D01*
X003885Y016737D02*
X003910D01*
X003890Y016734D02*
X003910D01*
X003877Y016985D02*
X003882D01*
X003885Y017011D02*
X003892D01*
X003875Y016993D02*
X003898D01*
X003875Y016991D02*
X003895D01*
X003877Y016988D02*
X003887D01*
X003877Y017008D02*
X003892D01*
X003872Y017006D02*
X003892D01*
X003870Y017003D02*
X003895D01*
X003872Y017001D02*
X003895D01*
X003872Y016998D02*
X003898D01*
X003872Y016996D02*
X003898D01*
X003867Y017051D02*
X003872D01*
X003900Y016881D02*
X003923D01*
X003900Y016879D02*
X003923D01*
X003900Y016876D02*
X003923D01*
X003900Y016874D02*
X003923D01*
X003900Y016871D02*
X003923D01*
X003900Y016869D02*
X003923D01*
X003895Y016924D02*
X003918D01*
X003895Y016922D02*
X003918D01*
X003895Y016919D02*
X003918D01*
X003895Y016917D02*
X003918D01*
X003895Y016914D02*
X003920D01*
X003898Y016912D02*
X003920D01*
X003898Y016909D02*
X003920D01*
X003898Y016907D02*
X003920D01*
X003898Y016904D02*
X003913D01*
X003908Y016927D02*
X003918D01*
X003900Y016970D02*
X003905D01*
X003892Y016968D02*
X003908D01*
X003885Y016965D02*
X003908D01*
X003885Y016963D02*
X003908D01*
X003885Y016960D02*
X003910D01*
X003887Y016958D02*
X003910D01*
X003887Y016955D02*
X003910D01*
X003887Y016952D02*
X003910D01*
X003887Y016950D02*
X003913D01*
X003890Y016947D02*
X003905D01*
X003890Y016945D02*
X003895D01*
X002767Y016866D02*
X002788D01*
X002770Y016864D02*
X002783D01*
X002691Y016460D02*
X002732D01*
X002696Y016457D02*
X002727D01*
X002976Y016866D02*
X002998D01*
X002978Y016864D02*
X003001D01*
X002864Y017067D02*
X002892D01*
X002904Y016866D02*
X002927D01*
X002902Y016864D02*
X002925D01*
X003148Y017069D02*
X003174D01*
X003146Y017067D02*
X003174D01*
X003189Y016866D02*
X003207D01*
X003191Y016864D02*
X003204D01*
X003128Y016866D02*
X003158D01*
X003125Y016864D02*
X003158D01*
X003128Y016663D02*
X003151D01*
X003128Y016660D02*
X003153D01*
X003318Y016866D02*
X003412D01*
X003316Y016864D02*
X003415D01*
X003379Y016457D02*
X003405D01*
X003382Y016460D02*
X003405D01*
X003415D02*
X003440D01*
X003415Y016457D02*
X003438D01*
X003318Y017069D02*
X003357D01*
X003316Y017067D02*
X003351D01*
X003255Y016866D02*
X003280D01*
X003257Y016864D02*
X003280D01*
Y016663D02*
X003311D01*
X003283Y016660D02*
X003313D01*
X003341Y016460D02*
X003359D01*
X003346Y016457D02*
X003359D01*
X003593D02*
X003616D01*
X003593Y016460D02*
X003616D01*
X003486Y016866D02*
X003511D01*
X003486Y016864D02*
X003565D01*
X003545Y016866D02*
X003565D01*
X003519Y016457D02*
X003542D01*
X003517Y016460D02*
X003542D01*
X003773Y016866D02*
X003796D01*
X003773Y016864D02*
X003796D01*
X003834Y017069D02*
X003857D01*
X003837Y017067D02*
X003852D01*
X003679Y017069D02*
X003750D01*
X003679Y017067D02*
X003753D01*
X003699Y016663D02*
X003730D01*
X003699Y016660D02*
X003727D01*
X003900Y016866D02*
X003923D01*
X003900Y016864D02*
X003926D01*
X003230Y016528D02*
X003250D01*
X003230Y016541D02*
X003250D01*
X003227Y016538D02*
X003252D01*
X003224Y016536D02*
X003255D01*
X003224Y016533D02*
X003252D01*
X003227Y016531D02*
X003250D01*
X003049Y016505D02*
X003072D01*
X003049Y016503D02*
X003072D01*
X003049Y016500D02*
X003072D01*
X003049Y016498D02*
X003072D01*
X003049Y016495D02*
X003072D01*
X003049Y016493D02*
X003072D01*
X003049Y016490D02*
X003072D01*
X003049Y016488D02*
X003072D01*
X003049Y016485D02*
X003072D01*
X002836Y016498D02*
X002859D01*
X002836Y016495D02*
X002859D01*
X002836Y016493D02*
X002859D01*
X002836Y016490D02*
X002859D01*
X002836Y016505D02*
X002859D01*
X002836Y016503D02*
X002859D01*
X002836Y016500D02*
X002859D01*
X002836Y016488D02*
X002859D01*
X002836Y016485D02*
X002859D01*
X003199Y016782D02*
X003265D01*
X003204Y016780D02*
X003260D01*
X003039Y016782D02*
X003057D01*
X003039Y016780D02*
X003057D01*
X002777Y016782D02*
X002843D01*
X003194Y016787D02*
X003270D01*
X003197Y016785D02*
X003268D01*
X003191Y016790D02*
X003273D01*
X003247Y016792D02*
X003275D01*
X003252Y016795D02*
X003278D01*
X003240Y016731D02*
X003263D01*
X003240Y016729D02*
X003265D01*
X003242Y016726D02*
X003265D01*
X003242Y016724D02*
X003268D01*
X003245Y016721D02*
X003268D01*
X003245Y016719D02*
X003270D01*
X003247Y016716D02*
X003273D01*
X003247Y016714D02*
X003273D01*
X003209Y016777D02*
X003255D01*
X003232Y016749D02*
X003255D01*
X003232Y016747D02*
X003257D01*
X003235Y016744D02*
X003257D01*
X003235Y016742D02*
X003260D01*
X003237Y016739D02*
X003260D01*
X003237Y016737D02*
X003263D01*
X003237Y016734D02*
X003263D01*
X003250Y016711D02*
X003275D01*
X003250Y016709D02*
X003275D01*
X003252Y016706D02*
X003278D01*
X003252Y016704D02*
X003280D01*
X003039Y016810D02*
X003057D01*
X003039Y016808D02*
X003057D01*
X003039Y016805D02*
X003057D01*
X003039Y016803D02*
X003057D01*
X003039Y016800D02*
X003057D01*
X003039Y016798D02*
X003057D01*
X003039Y016795D02*
X003057D01*
X003039Y016792D02*
X003057D01*
X003039Y016790D02*
X003057D01*
X003039Y016787D02*
X003057D01*
X003039Y016785D02*
X003057D01*
X003039Y016818D02*
X003057D01*
X003039Y016815D02*
X003057D01*
X003039Y016813D02*
X003057D01*
X003039Y016828D02*
X003057D01*
X003039Y016825D02*
X003057D01*
X003039Y016823D02*
X003057D01*
X003039Y016820D02*
X003057D01*
X003039Y016838D02*
X003057D01*
X003039Y016836D02*
X003057D01*
X003039Y016833D02*
X003057D01*
X003039Y016831D02*
X003057D01*
X003039Y016858D02*
X003057D01*
X003039Y016856D02*
X003057D01*
X003039Y016853D02*
X003057D01*
X003039Y016851D02*
X003057D01*
X003039Y016861D02*
X003075D01*
X003039Y016848D02*
X003057D01*
X003039Y016846D02*
X003057D01*
X003039Y016843D02*
X003057D01*
X003039Y016841D02*
X003057D01*
X003039Y016777D02*
X003057D01*
X003039Y016775D02*
X003057D01*
X002770Y016790D02*
X002851D01*
X002772Y016787D02*
X002849D01*
X002775Y016785D02*
X002846D01*
X002841Y016803D02*
X002861D01*
X002838Y016800D02*
X002861D01*
X002836Y016798D02*
X002859D01*
X002831Y016795D02*
X002856D01*
X002826Y016792D02*
X002854D01*
X002841Y016861D02*
X002861D01*
X002846Y016810D02*
X002866D01*
X002846Y016808D02*
X002864D01*
X002843Y016805D02*
X002864D01*
X002846Y016853D02*
X002866D01*
X002846Y016851D02*
X002866D01*
X002843Y016858D02*
X002864D01*
X002843Y016856D02*
X002864D01*
X002871Y017041D02*
X003158D01*
X002869Y017039D02*
X003156D01*
X002871Y017059D02*
X003169D01*
X002871Y017057D02*
X003166D01*
X002871Y017054D02*
X003166D01*
X002874Y017051D02*
X003164D01*
X002874Y017049D02*
X003161D01*
X002871Y017046D02*
X003161D01*
X002871Y017044D02*
X003158D01*
X003250Y016985D02*
X003275D01*
X003250Y016983D02*
X003275D01*
X002643Y016985D02*
X002653D01*
X002643Y016983D02*
X002653D01*
X003252Y016991D02*
X003280D01*
X003252Y016988D02*
X003278D01*
X003227Y016932D02*
X003252D01*
X003230Y016935D02*
X003252D01*
X003209Y016886D02*
X003252D01*
X003204Y016884D02*
X003257D01*
X003199Y016881D02*
X003263D01*
X003197Y016879D02*
X003268D01*
X003194Y016876D02*
X003270D01*
X003191Y016874D02*
X003273D01*
X003245Y016871D02*
X003275D01*
X003227Y016930D02*
X003250D01*
X003227Y016927D02*
X003250D01*
X003227Y016924D02*
X003250D01*
X003245Y016975D02*
X003270D01*
X003245Y016973D02*
X003270D01*
X003242Y016970D02*
X003268D01*
X003242Y016968D02*
X003268D01*
X003247Y016980D02*
X003273D01*
X003247Y016978D02*
X003273D01*
X003235Y016950D02*
X003257D01*
X003232Y016947D02*
X003257D01*
X003232Y016945D02*
X003257D01*
X003232Y016942D02*
X003255D01*
X003240Y016965D02*
X003265D01*
X003240Y016963D02*
X003265D01*
X003237Y016960D02*
X003263D01*
X003237Y016958D02*
X003263D01*
X003237Y016955D02*
X003260D01*
X003235Y016952D02*
X003260D01*
X003230Y016940D02*
X003255D01*
X003230Y016937D02*
X003252D01*
X003250Y016869D02*
X003278D01*
X003039Y016886D02*
X003052D01*
X003039Y016884D02*
X003054D01*
X003039Y016874D02*
X003064D01*
X003039Y016871D02*
X003067D01*
X003039Y016881D02*
X003057D01*
X003039Y016879D02*
X003059D01*
X003039Y016876D02*
X003062D01*
X003039Y016869D02*
X003070D01*
X002836Y017013D02*
X002874D01*
X002841Y017011D02*
X002866D01*
X002816Y017034D02*
X002843D01*
X002818Y017031D02*
X002892D01*
X002818Y017029D02*
X002889D01*
X002821Y017026D02*
X002887D01*
X002823Y017024D02*
X002887D01*
X002826Y017021D02*
X002884D01*
X002828Y017018D02*
X002882D01*
X002831Y017016D02*
X002876D01*
X002775Y016879D02*
X002846D01*
X002772Y016876D02*
X002849D01*
X002770Y016874D02*
X002851D01*
X002823Y016871D02*
X002854D01*
X002831Y016869D02*
X002856D01*
X002605Y016996D02*
X002653D01*
X002605Y016993D02*
X002653D01*
X002605Y016991D02*
X002653D01*
X002643Y016988D02*
X002653D01*
X002643Y016935D02*
X002653D01*
X002643Y016932D02*
X002653D01*
X002643Y016930D02*
X002653D01*
X002643Y016927D02*
X002653D01*
X002643Y016924D02*
X002653D01*
X002643Y016922D02*
X002653D01*
X002643Y016980D02*
X002653D01*
X002643Y016955D02*
X002653D01*
X002643Y016952D02*
X002653D01*
X002643Y016950D02*
X002653D01*
X002643Y016947D02*
X002653D01*
X002643Y016945D02*
X002653D01*
X002643Y016942D02*
X002653D01*
X002643Y016978D02*
X002653D01*
X002643Y016975D02*
X002653D01*
X002643Y016973D02*
X002653D01*
X002643Y016970D02*
X002653D01*
X002643Y016968D02*
X002653D01*
X002643Y016965D02*
X002653D01*
X002643Y016963D02*
X002653D01*
X002643Y016960D02*
X002653D01*
X002643Y016958D02*
X002653D01*
X002643Y016940D02*
X002653D01*
X002643Y016937D02*
X002653D01*
X002587Y017189D02*
X003301D01*
X002587Y017186D02*
X003296D01*
X002587Y017206D02*
X003334D01*
X002587Y017204D02*
X003329D01*
X002589Y017201D02*
X003324D01*
X002589Y017199D02*
X003318D01*
X002589Y017196D02*
X003313D01*
X002589Y017194D02*
X003308D01*
X002589Y017191D02*
X003306D01*
X003217Y017153D02*
X003250D01*
X003247Y017179D02*
X003285D01*
X003242Y017176D02*
X003280D01*
X003222Y017158D02*
X003257D01*
X003219Y017156D02*
X003252D01*
X003235Y017168D02*
X003270D01*
X003232Y017166D02*
X003268D01*
X003227Y017163D02*
X003263D01*
X003224Y017161D02*
X003260D01*
X003240Y017173D02*
X003278D01*
X003237Y017171D02*
X003273D01*
X003252Y017184D02*
X003293D01*
X003250Y017181D02*
X003288D01*
X002836Y017087D02*
X002871D01*
X002826Y017079D02*
X002884D01*
X002823Y017077D02*
X002884D01*
X002821Y017074D02*
X002887D01*
X002818Y017072D02*
X002889D01*
X002831Y017085D02*
X002876D01*
X002828Y017082D02*
X002879D01*
X002843Y017090D02*
X002866D01*
X003453Y016381D02*
X003504D01*
X003423Y016406D02*
X003453D01*
X003448Y016383D02*
X003509D01*
X003425Y016401D02*
X003463D01*
X003430Y016396D02*
X003527D01*
X003433Y016394D02*
X003524D01*
X003435Y016391D02*
X003522D01*
X003440Y016389D02*
X003517D01*
X003443Y016386D02*
X003514D01*
X003428Y016399D02*
X003471D01*
X003425Y016404D02*
X003456D01*
X003400Y016577D02*
X003613D01*
X003405Y016574D02*
X003605D01*
X003412Y016571D02*
X003598D01*
X003420Y016569D02*
X003590D01*
X003430Y016566D02*
X003583D01*
X003440Y016564D02*
X003572D01*
X003392Y016579D02*
X003504D01*
X003854Y016658D02*
X003880D01*
X003857Y016655D02*
X003877D01*
X003837Y016630D02*
X003859D01*
X003834Y016627D02*
X003862D01*
X003834Y016625D02*
X003859D01*
X003832Y016622D02*
X003859D01*
X003862Y016653D02*
X003877D01*
X003633Y016607D02*
X003661D01*
X003636Y016604D02*
X003661D01*
X003636Y016602D02*
X003661D01*
X003638Y016599D02*
X003656D01*
X003638Y016615D02*
X003656D01*
X003633Y016612D02*
X003656D01*
X003633Y016610D02*
X003659D01*
X003636Y016462D02*
X003661D01*
X003636Y016465D02*
X003659D01*
X003633Y016467D02*
X003659D01*
X003633Y016470D02*
X003656D01*
X003636Y016472D02*
X003656D01*
X003644Y016475D02*
X003656D01*
X003382Y016584D02*
X003453D01*
X003387Y016582D02*
X003468D01*
X003448Y016500D02*
X003506D01*
X003445Y016498D02*
X003511D01*
X003425Y016480D02*
X003458D01*
X003428Y016483D02*
X003466D01*
X003440Y016495D02*
X003517D01*
X003438Y016493D02*
X003519D01*
X003435Y016490D02*
X003522D01*
X003433Y016488D02*
X003524D01*
X003430Y016485D02*
X003527D01*
X003456Y016503D02*
X003501D01*
X003453Y016561D02*
X003560D01*
X003423Y016477D02*
X003456D01*
X003423Y016701D02*
X003588D01*
X003428Y016698D02*
X003585D01*
X003433Y016696D02*
X003580D01*
X003438Y016693D02*
X003572D01*
X003636Y016782D02*
X003661D01*
X003633Y016780D02*
X003659D01*
X003440D02*
X003461D01*
X003440Y016782D02*
X003463D01*
X003857Y016665D02*
X003882D01*
X003862Y016676D02*
X003867D01*
X003862Y016673D02*
X003872D01*
X003859Y016671D02*
X003877D01*
X003859Y016668D02*
X003882D01*
X003646Y016810D02*
X003669D01*
X003641Y016792D02*
X003664D01*
X003638Y016790D02*
X003664D01*
X003638Y016787D02*
X003661D01*
X003636Y016785D02*
X003661D01*
X003646Y016808D02*
X003669D01*
X003646Y016805D02*
X003669D01*
X003644Y016803D02*
X003666D01*
X003644Y016800D02*
X003666D01*
X003644Y016798D02*
X003666D01*
X003641Y016795D02*
X003666D01*
X003649Y016818D02*
X003672D01*
X003649Y016815D02*
X003672D01*
X003651Y016831D02*
X003674D01*
X003649Y016828D02*
X003672D01*
X003649Y016825D02*
X003672D01*
X003649Y016823D02*
X003672D01*
X003649Y016820D02*
X003672D01*
X003651Y016838D02*
X003674D01*
X003651Y016836D02*
X003674D01*
X003651Y016833D02*
X003674D01*
X003651Y016861D02*
X003674D01*
X003651Y016858D02*
X003674D01*
X003651Y016856D02*
X003674D01*
X003651Y016853D02*
X003674D01*
X003651Y016851D02*
X003674D01*
X003651Y016848D02*
X003674D01*
X003651Y016846D02*
X003674D01*
X003651Y016843D02*
X003674D01*
X003651Y016841D02*
X003674D01*
X003646Y016813D02*
X003669D01*
X003633Y016777D02*
X003659D01*
X003631Y016775D02*
X003656D01*
X003631Y016772D02*
X003656D01*
X003451Y016798D02*
X003471D01*
X003448Y016795D02*
X003471D01*
X003448Y016792D02*
X003468D01*
X003445Y016790D02*
X003468D01*
X003443Y016787D02*
X003466D01*
X003443Y016785D02*
X003463D01*
X003453Y016800D02*
X003473D01*
X003456Y016805D02*
X003476D01*
X003453Y016803D02*
X003476D01*
X003451Y016688D02*
X003560D01*
X003443Y016691D02*
X003567D01*
X003407Y016711D02*
X003453D01*
X003410Y016709D02*
X003461D01*
X003415Y016706D02*
X003468D01*
X003418Y016704D02*
X003481D01*
X003438Y016777D02*
X003458D01*
X003435Y016775D02*
X003458D01*
X003438Y017001D02*
X003572D01*
X003433Y016998D02*
X003578D01*
X003428Y016996D02*
X003583D01*
X003423Y016993D02*
X003588D01*
X003410Y016985D02*
X003461D01*
X003407Y016983D02*
X003453D01*
X003852Y017041D02*
X003877D01*
X003852Y017039D02*
X003880D01*
X003854Y017036D02*
X003880D01*
X003857Y017031D02*
X003877D01*
X003857Y017029D02*
X003872D01*
X003854Y017034D02*
X003882D01*
X003857Y017046D02*
X003875D01*
X003854Y017044D02*
X003877D01*
X003859Y017026D02*
X003867D01*
X003859Y017024D02*
X003862D01*
Y017049D02*
X003872D01*
X003649Y016879D02*
X003672D01*
X003649Y016876D02*
X003672D01*
X003649Y016874D02*
X003672D01*
X003649Y016871D02*
X003672D01*
X003649Y016869D02*
X003672D01*
X003641Y016902D02*
X003664D01*
X003631Y016922D02*
X003656D01*
X003631Y016919D02*
X003656D01*
X003633Y016917D02*
X003659D01*
X003636Y016914D02*
X003659D01*
X003636Y016912D02*
X003661D01*
X003636Y016909D02*
X003661D01*
X003638Y016907D02*
X003661D01*
X003638Y016904D02*
X003664D01*
X003646Y016889D02*
X003669D01*
X003646Y016886D02*
X003669D01*
X003646Y016884D02*
X003669D01*
X003646Y016881D02*
X003669D01*
X003641Y016899D02*
X003666D01*
X003644Y016897D02*
X003666D01*
X003644Y016894D02*
X003666D01*
X003644Y016891D02*
X003666D01*
X003451Y017006D02*
X003560D01*
X003443Y017003D02*
X003567D01*
X003415Y016988D02*
X003471D01*
X003420Y016991D02*
X003484D01*
X003440Y016932D02*
X003463D01*
X003445Y016927D02*
X003466D01*
X003445Y016924D02*
X003468D01*
X003448Y016922D02*
X003468D01*
X003448Y016919D02*
X003471D01*
X003451Y016917D02*
X003473D01*
X003443Y016930D02*
X003463D01*
X003453Y016914D02*
X003473D01*
X003453Y016912D02*
X003476D01*
X003456Y016909D02*
X003476D01*
X003392Y017252D02*
X003618D01*
X003410Y017257D02*
X003600D01*
X003400Y017255D02*
X003611D01*
X003382Y017250D02*
X003628D01*
X003374Y017247D02*
X003636D01*
X003438Y017262D02*
X003575D01*
X003423Y017260D02*
X003588D01*
X003359Y017242D02*
X003453D01*
X003367Y017245D02*
X003478D01*
X003832Y017072D02*
X003859D01*
X003575Y017239D02*
X003656D01*
X003588Y017237D02*
X003661D01*
X003598Y017234D02*
X003669D01*
X003611Y017232D02*
X003674D01*
X003618Y017229D02*
X003679D01*
X003649Y017219D02*
X003699D01*
X003636Y017224D02*
X003689D01*
X003641Y017222D02*
X003694D01*
X003628Y017227D02*
X003684D01*
X003656Y017217D02*
X003705D01*
X003654Y017087D02*
X003672D01*
X003651Y017085D02*
X003674D01*
X003649Y017082D02*
X003677D01*
X003649Y017079D02*
X003677D01*
X003649Y017074D02*
X003672D01*
X003651Y017072D02*
X003669D01*
X003654Y017090D02*
X003666D01*
X003646Y017077D02*
X003674D01*
X003656Y017092D02*
X003661D01*
X003656Y017095D02*
X003659D01*
X003456Y017265D02*
X003557D01*
X003445Y017110D02*
X003453D01*
X003451Y017133D02*
X003463D01*
X003445Y017112D02*
X003468D01*
X003440Y017130D02*
X003466D01*
X003440Y017128D02*
X003466D01*
X003440Y017125D02*
X003466D01*
X003443Y017123D02*
X003466D01*
X003443Y017120D02*
X003466D01*
X003443Y017118D02*
X003466D01*
X003443Y017115D02*
X003466D01*
X003039Y016866D02*
X003070D01*
X003039Y016864D02*
X003072D01*
X002816Y017067D02*
X002846D01*
X002818Y017069D02*
X002892D01*
X002838Y016864D02*
X002861D01*
X002833Y016866D02*
X002859D01*
X003854Y016660D02*
X003880D01*
X003857Y016663D02*
X003882D01*
X003656Y017069D02*
X003669D01*
X003659Y017067D02*
X003666D01*
X003649Y016866D02*
X003672D01*
X003651Y016864D02*
X003672D01*
X003638Y016457D02*
X003661D01*
X003636Y016460D02*
X003661D01*
X002529Y016899D02*
X002732D01*
X002529Y016897D02*
X002732D01*
X002529Y016894D02*
X002732D01*
X002529Y016891D02*
X002732D01*
M02*
