M48
;Layer_Color=9474304
;FILE_FORMAT=4:2
METRIC
;TYPE=PLATED
T1F00S00C0.30
T2F00S00C0.50
T3F00S00C0.70
T4F00S00C0.86
T5F00S00C0.90
T6F00S00C1.00
T7F00S00C1.02
T8F00S00C1.10
T9F00S00C2.30
T10F00S00C3.00
T11F00S00C4.00
%
T01
X001332Y003405
X001505Y003440
X001632
X001770Y003765
X001225Y003672
X003200Y002140
Y001967
X003258Y001530
X003465Y001738
X003750Y001877
X003550Y001365
X004262Y001530
X004375Y001925
X004603Y001738
X004688Y001365
X004903Y002052
X004905Y002577
X004583Y002660
X004700Y002858
X004595Y003338
Y003420
Y003503
X004167Y003750
X005362Y002865
X006550Y001450
X007225Y001500
X006695Y000823
X008297
X008150Y001450
X008825Y001500
X009750Y001450
X010425Y001500
X011350Y001450
X011495Y000823
X009895
X012025Y001500
X012950Y001450
X013625Y001500
X014550Y001450
X015225Y001500
X014695Y000823
X013095
X016293
X016150Y001450
X016825Y001500
X017750Y001450
X018425Y001500
X019350Y001450
X019498Y000823
X017898
X020025Y001500
X020950Y001450
X021625Y001500
X022550Y001450
X023225Y001500
X022695Y000823
X021098
X025695Y001977
X026205
X026573Y001890
X026980Y001885
Y001330
X026573Y001340
X026525Y003025
X026565Y003125
X026425
X026280
X026350Y003025
X025948
X025788Y003550
X025600Y003600
X025475Y003550
X025293Y003517
X025093Y003728
X024912Y003397
X025380Y003180
X026120Y003696
X026475Y003525
X026560Y003600
X027170Y003580
Y003720
Y003890
X027311Y002620
X024140Y003760
X023888Y003860
X028420
X028335Y003270
X028145Y002620
X028420Y004060
Y004247
Y004450
Y004652
Y004855
X027170Y004830
Y004670
Y004350
Y004167
Y003980
Y005288
X026842Y005238
X026760Y005000
X026510Y005712
X026450Y005787
X026352
X026260
X026200Y005715
X026142Y005642
X025890
X025767
X025327Y005653
X025225
X025123
X025020
X024635Y005525
X024748Y004942
Y004803
Y004650
X024747Y004272
Y004155
X025150Y004662
X025195Y005120
X025175Y007670
X025025
X025773
X025923
X026531
X026681
X027130Y006020
X027370
X027610
X023761Y004380
X022475Y004800
X020875
X019275
X017675
X016075
X014475
X012875
X011275
X009675
X008075
X006475
X004072Y004720
X004108Y004472
X004272Y004060
X001960Y004122
X024770Y008475
X024912Y008787
Y008935
X024605Y009128
X025364Y008994
X025363Y008672
X025750Y008725
X026185Y008740
X026192Y008985
X026050Y009045
X026350Y009200
X026663Y009110
X026675Y008600
X026489Y008511
X026045Y008242
X026170Y008075
X026183Y007960
X025729Y008240
X025215Y008150
X025175Y009970
X025025
X025215Y010450
X025729Y010540
X026045Y010542
X026170Y010375
X026183Y010260
X025923Y009970
X025773
X026531
X026681
X026675Y010900
X026489Y010811
X026185Y011040
Y011302
X026049Y011346
X025764Y011346
X025750Y011025
X025363Y010972
X025364Y011294
X024912Y011235
Y011087
X024770Y010775
X024632Y011375
X026350Y011500
X026659Y011395
X027459
Y010895
Y009100
Y008595
X026681Y012270
X026531
X025923
X025773
X025175
X025025
X025215Y012750
X024905Y013035
X024912Y013387
Y013535
X025364Y013594
X025363Y013272
X025770Y013325
Y013646
X026050Y013645
X026185Y013602
Y013340
X026489Y013111
X026675Y013200
X026659Y013695
X026340Y013805
X026532Y014535
X026682
X025923
X025773
X025176
X025026
X025215Y015015
X025729Y015105
X026046Y015107
X026170Y014940
X026184Y014825
X026185Y015606
Y015867
X025775Y015710
X025365Y015859
X025364Y015537
X024913Y015653
Y015800
X024771Y015340
X026489Y015376
X026676Y015465
X027459Y015460
X027459Y013695
Y013195
X026045Y012842
X026170Y012675
X026183Y012560
X025729Y012840
X025771Y015913
X026051Y015910
X026340Y016070
X026659Y015960
X026575Y016625
X026242Y016412
X026142
X025733Y016410
X025160Y016420
X025268Y016807
X025617Y016885
X025842Y017265
X026002Y017798
X026383
X026925Y017825
X026817Y017602
X026923Y018610
X025620Y017798
X025495
X024957Y017575
X024770Y017460
X024910Y017135
Y017017
X024770Y016680
X024771Y016109
X027459Y015960
T02
X001225Y004583
T03
X007360Y002320
X007145Y003640
X006800
Y003345
X006445Y003640
X008045
X008400
Y003345
X008745Y003640
X009645
X010000
Y003345
X010345Y003640
X011245
X011600
Y003345
X010560Y002320
X008960
X012160
X011945Y003640
X012845
X013200
Y003345
X013545Y003640
X014445
X014800
Y003345
X015145Y003640
X015360Y002320
X013760
X016960
X016745Y003640
X016400
Y003345
X016045Y003640
X017645
X018000
Y003345
X018345Y003640
X019245
X019600
Y003345
X018560Y002320
X020160
X019945Y003640
X020845
X021200
Y003345
X021545Y003640
X022445
X022800
Y003345
X023145Y003640
X023375Y002320
X021760
X002488Y004715
T04
X027660Y003460
Y003660
Y003860
X027860
Y003660
Y003460
Y004060
Y004260
Y004460
Y004660
Y004860
Y005060
Y005260
X027660
Y005060
Y004860
Y004660
Y004460
Y004260
Y004060
T05
X025073Y018130
Y018330
X025323
Y018130
T06
X003788Y002605
X004247Y002670
X023793Y018002
T07
X024117Y004379
X024371
Y004759
X024117
T08
X024121Y006426
Y006680
X024375
X024629
X024883
Y006426
X024629
X024375
X025392Y006426
Y006680
X025646
Y006426
X023306Y005308
Y005054
X023052
Y005308
X021706
X021452
Y005054
X021706
X020106
X019852
Y005308
X020106
X018506
X018252
Y005054
X018506
X016906
X016652
Y005308
X016906
X015306
X015052
Y005054
X015306
X013706
X013452
Y005308
X013706
X012106
Y005054
X011852
Y005308
X010506
Y005054
X010252
Y005308
X008906
X008652
Y005054
X008906
X007306
X007052
Y005308
X007306
X004895Y005325
X004595
X003845
X003545
X019851Y012167
X020105
Y012421
X019851
Y012675
Y012929
Y013183
Y013437
X020105
Y013183
Y012929
Y012675
X021451
X021705
Y012421
X021451
Y012167
X021705
Y012929
Y013183
X021451
Y013437
X021705
X021451Y012929
X023051
Y013183
Y013437
X023305
Y013183
Y012929
Y012675
Y012421
Y012167
X023051
Y012421
Y012675
X018505
X018251
Y012421
X018505
Y012167
X018251
Y012929
X018505
Y013183
X018251
Y013437
X018505
X016905
X016651
Y013183
Y012929
X016905
Y013183
Y012675
Y012421
Y012167
X016651
Y012421
Y012675
X015305
X015051
Y012421
X015305
Y012167
X015051
Y012929
X015305
Y013183
X015051
Y013437
X015305
X013705
X013451
Y013183
Y012929
X013705
Y013183
Y012675
Y012421
Y012167
X013451
Y012421
Y012675
X012105
Y012929
Y013183
Y013437
Y012421
Y012167
X011851
Y012421
Y012675
Y012929
Y013183
Y013437
X010505
Y013183
Y012929
Y012675
X010251
Y012421
X010505
Y012167
X010251
Y012929
Y013183
Y013437
X008905
X008651
Y013183
Y012929
X008905
Y013183
Y012675
Y012421
Y012167
X008651
Y012421
Y012675
X007305
X007051
Y012421
X007305
Y012167
X007051
Y012929
X007305
Y013183
X007051
Y013437
X007305
X003645Y015215
X003345Y015220
X002595
X002295Y015215
X001545
X001245Y015220
X007051Y017494
Y017748
Y018002
X007305
Y017748
Y017494
Y018256
Y018510
X007051
Y018764
X007305
X007051Y018256
X008651
Y018510
Y018764
X008905
Y018510
Y018256
Y018002
Y017748
Y017494
X008651
Y017748
Y018002
X010251
X010505
Y017748
X010251
Y017494
X010505
Y018256
Y018510
X010251
Y018764
X010505
X010251Y018256
X011851
Y018510
Y018764
Y018002
Y017748
Y017494
X012105
Y017748
Y018002
Y018256
Y018510
Y018764
X013451
Y018510
X013705
Y018256
Y018002
X013451
Y017748
X013705
Y017494
X013451
Y018256
X013705Y018764
X015051
X015305
Y018510
X015051
Y018256
X015305
Y018002
Y017748
Y017494
X015051
Y017748
Y018002
X016651
X016905
Y017748
X016651
Y017494
X016905
Y018256
Y018510
X016651
Y018764
X016905
X016651Y018256
X018251
Y018510
Y018764
X018505
Y018510
Y018256
Y018002
Y017748
Y017494
X018251
Y017748
Y018002
X019851
X020105
Y017748
X019851
Y017494
X020105
Y018256
Y018510
X019851
Y018764
X020105
X019851Y018256
X021451
Y018002
X021705
Y017748
X021451
Y017494
X021705
Y018256
Y018510
X021451
Y018764
X021705
X023051
Y018510
X023305
Y018256
Y018002
X023051
Y017748
X023305
Y017494
X023051
Y018256
X023305Y018764
T09
X024596Y018600
X025800
T10
X004555Y007275
X005265Y006760
X001505Y007275
X000795Y006760
X001830Y009625
X003030Y010925
X004230Y009625
X004555Y013275
X005265Y013790
X001505Y013275
X000795Y013790
T11
X000915Y001624
X018775
X027705
X000915Y009524
X009845
X018775
X027705
X000915Y017424
X009845
X027705
M30
