G04*
G04 #@! TF.GenerationSoftware,Altium Limited,Altium Designer,20.1.10 (176)*
G04*
G04 Layer_Color=16711935*
%FSAX42Y42*%
%MOMM*%
G71*
G04*
G04 #@! TF.SameCoordinates,6C51F090-7910-440F-980D-B9DEBD6B7A16*
G04*
G04*
G04 #@! TF.FilePolarity,Negative*
G04*
G01*
G75*
%ADD19R,1.00X1.50*%
%ADD20R,1.50X1.00*%
%ADD40R,2.20X3.00*%
%ADD47C,1.80*%
%ADD48R,1.80X1.80*%
%ADD49R,1.61X1.61*%
%ADD50C,1.61*%
%ADD51C,3.52*%
%ADD52C,1.73*%
G04:AMPARAMS|DCode=53|XSize=1.73mm|YSize=1.73mm|CornerRadius=0.48mm|HoleSize=0mm|Usage=FLASHONLY|Rotation=180.000|XOffset=0mm|YOffset=0mm|HoleType=Round|Shape=RoundedRectangle|*
%AMROUNDEDRECTD53*
21,1,1.73,0.76,0,0,180.0*
21,1,0.76,1.73,0,0,180.0*
1,1,0.97,-0.38,0.38*
1,1,0.97,0.38,0.38*
1,1,0.97,0.38,-0.38*
1,1,0.97,-0.38,-0.38*
%
%ADD53ROUNDEDRECTD53*%
%ADD54O,2.90X3.20*%
%ADD55C,5.20*%
%ADD56R,2.90X3.20*%
%ADD57R,1.80X1.80*%
%ADD58C,1.57*%
%ADD59R,1.57X1.57*%
%ADD60C,0.80*%
%ADD61C,1.50*%
%ADD62C,6.20*%
%ADD139R,0.61X1.77*%
%ADD140R,1.77X0.61*%
D19*
X026042Y016071D02*
D03*
X026232D02*
D03*
X025460Y017577D02*
D03*
X025650D02*
D03*
X025302D02*
D03*
X025112D02*
D03*
X026140Y003150D02*
D03*
X025950D02*
D03*
X026984Y013695D02*
D03*
X027174D02*
D03*
X027174Y015960D02*
D03*
X026984D02*
D03*
X025867Y005470D02*
D03*
X025677D02*
D03*
X027174Y011395D02*
D03*
X026984D02*
D03*
X026140Y003325D02*
D03*
X025950D02*
D03*
X026283D02*
D03*
X026473D02*
D03*
X026984Y009095D02*
D03*
X027174D02*
D03*
X024590Y006175D02*
D03*
X024400D02*
D03*
X026042Y011500D02*
D03*
X026232D02*
D03*
X025997Y017577D02*
D03*
X025807D02*
D03*
X026994Y010895D02*
D03*
X027184D02*
D03*
X026045Y001977D02*
D03*
X025855D02*
D03*
X026042Y009200D02*
D03*
X026232D02*
D03*
X026045Y013805D02*
D03*
X026235D02*
D03*
X026250Y005475D02*
D03*
X026440D02*
D03*
X027184Y008595D02*
D03*
X026994D02*
D03*
X027184Y013195D02*
D03*
X026994D02*
D03*
X026994Y015460D02*
D03*
X027184D02*
D03*
D20*
X027038Y005188D02*
D03*
Y004997D02*
D03*
X026050Y011155D02*
D03*
Y011345D02*
D03*
X025770Y013455D02*
D03*
Y013646D02*
D03*
X025500Y011345D02*
D03*
Y011155D02*
D03*
Y015910D02*
D03*
Y015720D02*
D03*
Y010835D02*
D03*
Y011025D02*
D03*
Y013135D02*
D03*
Y013325D02*
D03*
Y015400D02*
D03*
Y015590D02*
D03*
Y009045D02*
D03*
Y008855D02*
D03*
X024912Y003728D02*
D03*
Y003538D02*
D03*
Y004305D02*
D03*
Y004115D02*
D03*
Y004860D02*
D03*
Y004670D02*
D03*
X025500Y008535D02*
D03*
Y008725D02*
D03*
Y013645D02*
D03*
Y013455D02*
D03*
X025150Y006450D02*
D03*
Y006640D02*
D03*
X025788Y003138D02*
D03*
Y003328D02*
D03*
X025764Y009046D02*
D03*
Y008856D02*
D03*
X025775Y015721D02*
D03*
Y015911D02*
D03*
X026623Y003313D02*
D03*
Y003503D02*
D03*
X026598Y017795D02*
D03*
Y017605D02*
D03*
X027038Y003510D02*
D03*
Y003700D02*
D03*
Y004358D02*
D03*
Y004167D02*
D03*
Y004797D02*
D03*
Y004608D02*
D03*
X027212Y005188D02*
D03*
Y004997D02*
D03*
X025020Y005450D02*
D03*
Y005260D02*
D03*
X025195Y005450D02*
D03*
Y005260D02*
D03*
X025764Y011156D02*
D03*
Y011346D02*
D03*
X026050Y008855D02*
D03*
Y009045D02*
D03*
Y010835D02*
D03*
Y011025D02*
D03*
Y013325D02*
D03*
Y013135D02*
D03*
X026051Y015400D02*
D03*
Y015590D02*
D03*
X026051Y015910D02*
D03*
Y015720D02*
D03*
X026050Y008725D02*
D03*
Y008535D02*
D03*
Y013455D02*
D03*
Y013645D02*
D03*
D40*
X025730Y016490D02*
D03*
X025362D02*
D03*
D47*
X021451Y018002D02*
D03*
X021705D02*
D03*
X021451Y017748D02*
D03*
X021705D02*
D03*
X021451Y017494D02*
D03*
X021705Y018256D02*
D03*
X021451Y018510D02*
D03*
X021705D02*
D03*
X021451Y018764D02*
D03*
X021705D02*
D03*
X021451Y018256D02*
D03*
X007052Y005054D02*
D03*
X007306Y005308D02*
D03*
X007052D02*
D03*
X008652D02*
D03*
X008906D02*
D03*
X008652Y005054D02*
D03*
X015051Y012675D02*
D03*
X015305D02*
D03*
X015051Y012421D02*
D03*
X015305D02*
D03*
X015051Y012167D02*
D03*
X015305Y012929D02*
D03*
X015051Y013183D02*
D03*
X015305D02*
D03*
X015051Y013437D02*
D03*
X015305D02*
D03*
X015051Y012929D02*
D03*
X016651D02*
D03*
X016905Y013437D02*
D03*
X016651D02*
D03*
X016905Y013183D02*
D03*
X016651D02*
D03*
X016905Y012929D02*
D03*
X016651Y012167D02*
D03*
X016905Y012421D02*
D03*
X016651D02*
D03*
X016905Y012675D02*
D03*
X016651D02*
D03*
X018252Y005308D02*
D03*
X018506D02*
D03*
X018252Y005054D02*
D03*
X018251Y012675D02*
D03*
X018505D02*
D03*
X018251Y012421D02*
D03*
X018505D02*
D03*
X018251Y012167D02*
D03*
X018505Y012929D02*
D03*
X018251Y013183D02*
D03*
X018505D02*
D03*
X018251Y013437D02*
D03*
X018505D02*
D03*
X018251Y012929D02*
D03*
X019852Y005054D02*
D03*
X020106Y005308D02*
D03*
X019852D02*
D03*
X021452D02*
D03*
X021706D02*
D03*
X021452Y005054D02*
D03*
X007051Y018002D02*
D03*
X007305D02*
D03*
X007051Y017748D02*
D03*
X007305D02*
D03*
X007051Y017494D02*
D03*
X007305Y018256D02*
D03*
X007051Y018510D02*
D03*
X007305D02*
D03*
X007051Y018764D02*
D03*
X007305D02*
D03*
X007051Y018256D02*
D03*
X008651D02*
D03*
X008905Y018764D02*
D03*
X008651D02*
D03*
X008905Y018510D02*
D03*
X008651D02*
D03*
X008905Y018256D02*
D03*
X008651Y017494D02*
D03*
X008905Y017748D02*
D03*
X008651D02*
D03*
X008905Y018002D02*
D03*
X008651D02*
D03*
X010252Y005054D02*
D03*
X010506Y005308D02*
D03*
X010252D02*
D03*
X010251Y018002D02*
D03*
X010505D02*
D03*
X010251Y017748D02*
D03*
X010505D02*
D03*
X010251Y017494D02*
D03*
X010505Y018256D02*
D03*
X010251Y018510D02*
D03*
X010505D02*
D03*
X010251Y018764D02*
D03*
X010505D02*
D03*
X010251Y018256D02*
D03*
X011852Y005308D02*
D03*
X012106D02*
D03*
X011852Y005054D02*
D03*
X011851Y018256D02*
D03*
X012105Y018764D02*
D03*
X011851D02*
D03*
X012105Y018510D02*
D03*
X011851D02*
D03*
X012105Y018256D02*
D03*
X011851Y017494D02*
D03*
X012105Y017748D02*
D03*
X011851D02*
D03*
X012105Y018002D02*
D03*
X011851D02*
D03*
X013452Y005054D02*
D03*
X013706Y005308D02*
D03*
X013452D02*
D03*
X013451Y018002D02*
D03*
X013705D02*
D03*
X013451Y017748D02*
D03*
X013705D02*
D03*
X013451Y017494D02*
D03*
X013705Y018256D02*
D03*
X013451Y018510D02*
D03*
X013705D02*
D03*
X013451Y018764D02*
D03*
X013705D02*
D03*
X013451Y018256D02*
D03*
X015051D02*
D03*
X015305Y018764D02*
D03*
X015051D02*
D03*
X015305Y018510D02*
D03*
X015051D02*
D03*
X015305Y018256D02*
D03*
X015051Y017494D02*
D03*
X015305Y017748D02*
D03*
X015051D02*
D03*
X015305Y018002D02*
D03*
X015051D02*
D03*
X015052Y005308D02*
D03*
X015306D02*
D03*
X015052Y005054D02*
D03*
X016651Y018002D02*
D03*
X016905D02*
D03*
X016651Y017748D02*
D03*
X016905D02*
D03*
X016651Y017494D02*
D03*
X016905Y018256D02*
D03*
X016651Y018510D02*
D03*
X016905D02*
D03*
X016651Y018764D02*
D03*
X016905D02*
D03*
X016651Y018256D02*
D03*
X016652Y005054D02*
D03*
X016906Y005308D02*
D03*
X016652D02*
D03*
X018251Y018256D02*
D03*
X018505Y018764D02*
D03*
X018251D02*
D03*
X018505Y018510D02*
D03*
X018251D02*
D03*
X018505Y018256D02*
D03*
X018251Y017494D02*
D03*
X018505Y017748D02*
D03*
X018251D02*
D03*
X018505Y018002D02*
D03*
X018251D02*
D03*
X019851D02*
D03*
X020105D02*
D03*
X019851Y017748D02*
D03*
X020105D02*
D03*
X019851Y017494D02*
D03*
X020105Y018256D02*
D03*
X019851Y018510D02*
D03*
X020105D02*
D03*
X019851Y018764D02*
D03*
X020105D02*
D03*
X019851Y018256D02*
D03*
X023052Y005054D02*
D03*
X023306Y005308D02*
D03*
X023052D02*
D03*
X023051Y018002D02*
D03*
X023305D02*
D03*
X023051Y017748D02*
D03*
X023305D02*
D03*
X023051Y017494D02*
D03*
X023305Y018256D02*
D03*
X023051Y018510D02*
D03*
X023305D02*
D03*
X023051Y018764D02*
D03*
X023305D02*
D03*
X023051Y018256D02*
D03*
X024121Y006680D02*
D03*
X024629D02*
D03*
X024375D02*
D03*
X024121Y006426D02*
D03*
X024375D02*
D03*
X024629D02*
D03*
X024883D02*
D03*
X025392Y006426D02*
D03*
Y006680D02*
D03*
X025646Y006426D02*
D03*
X007051Y012675D02*
D03*
X007305D02*
D03*
X007051Y012421D02*
D03*
X007305D02*
D03*
X007051Y012167D02*
D03*
X007305Y012929D02*
D03*
X007051Y013183D02*
D03*
X007305D02*
D03*
X007051Y013437D02*
D03*
X007305D02*
D03*
X007051Y012929D02*
D03*
X008651D02*
D03*
X008905Y013437D02*
D03*
X008651D02*
D03*
X008905Y013183D02*
D03*
X008651D02*
D03*
X008905Y012929D02*
D03*
X008651Y012167D02*
D03*
X008905Y012421D02*
D03*
X008651D02*
D03*
X008905Y012675D02*
D03*
X008651D02*
D03*
X010251D02*
D03*
X010505D02*
D03*
X010251Y012421D02*
D03*
X010505D02*
D03*
X010251Y012167D02*
D03*
X010505Y012929D02*
D03*
X010251Y013183D02*
D03*
X010505D02*
D03*
X010251Y013437D02*
D03*
X010505D02*
D03*
X010251Y012929D02*
D03*
X011851D02*
D03*
X012105Y013437D02*
D03*
X011851D02*
D03*
X012105Y013183D02*
D03*
X011851D02*
D03*
X012105Y012929D02*
D03*
X011851Y012167D02*
D03*
X012105Y012421D02*
D03*
X011851D02*
D03*
X012105Y012675D02*
D03*
X011851D02*
D03*
X013451Y012929D02*
D03*
X013705Y013437D02*
D03*
X013451D02*
D03*
X013705Y013183D02*
D03*
X013451D02*
D03*
X013705Y012929D02*
D03*
X013451Y012167D02*
D03*
X013705Y012421D02*
D03*
X013451D02*
D03*
X013705Y012675D02*
D03*
X013451D02*
D03*
X019851Y012929D02*
D03*
X020105Y013437D02*
D03*
X019851D02*
D03*
X020105Y013183D02*
D03*
X019851D02*
D03*
X020105Y012929D02*
D03*
X019851Y012167D02*
D03*
X020105Y012421D02*
D03*
X019851D02*
D03*
X020105Y012675D02*
D03*
X019851D02*
D03*
X021451D02*
D03*
X021705D02*
D03*
X021451Y012421D02*
D03*
X021705D02*
D03*
X021451Y012167D02*
D03*
X021705Y012929D02*
D03*
X021451Y013183D02*
D03*
X021705D02*
D03*
X021451Y013437D02*
D03*
X021705D02*
D03*
X021451Y012929D02*
D03*
X023051D02*
D03*
X023305Y013437D02*
D03*
X023051D02*
D03*
X023305Y013183D02*
D03*
X023051D02*
D03*
X023305Y012929D02*
D03*
X023051Y012167D02*
D03*
X023305Y012421D02*
D03*
X023051D02*
D03*
X023305Y012675D02*
D03*
X023051D02*
D03*
D48*
X021705Y017494D02*
D03*
X007306Y005054D02*
D03*
X008906D02*
D03*
X015305Y012167D02*
D03*
X016905D02*
D03*
X018506Y005054D02*
D03*
X018505Y012167D02*
D03*
X020106Y005054D02*
D03*
X021706D02*
D03*
X007305Y017494D02*
D03*
X008905D02*
D03*
X010506Y005054D02*
D03*
X010505Y017494D02*
D03*
X012106Y005054D02*
D03*
X012105Y017494D02*
D03*
X013706Y005054D02*
D03*
X013705Y017494D02*
D03*
X015305D02*
D03*
X015306Y005054D02*
D03*
X016905Y017494D02*
D03*
X016906Y005054D02*
D03*
X018505Y017494D02*
D03*
X020105D02*
D03*
X023306Y005054D02*
D03*
X023305Y017494D02*
D03*
X007305Y012167D02*
D03*
X008905D02*
D03*
X010505D02*
D03*
X012105D02*
D03*
X013705D02*
D03*
X020105D02*
D03*
X021705D02*
D03*
X023305D02*
D03*
D49*
X025073Y018130D02*
D03*
D50*
X025323D02*
D03*
Y018330D02*
D03*
X025073D02*
D03*
D51*
X025800Y018600D02*
D03*
X024596D02*
D03*
D52*
X024117Y004759D02*
D03*
Y004379D02*
D03*
D53*
X024371Y004759D02*
D03*
Y004379D02*
D03*
D54*
X003645Y015215D02*
D03*
X003345Y015220D02*
D03*
X004895Y005325D02*
D03*
X002295Y015215D02*
D03*
X004595Y005325D02*
D03*
X003845D02*
D03*
X002595Y015220D02*
D03*
X003545Y005325D02*
D03*
D55*
X001505Y007275D02*
D03*
X004555D02*
D03*
X001830Y009625D02*
D03*
X004230D02*
D03*
X003030Y010925D02*
D03*
X004555Y013275D02*
D03*
X005265Y013790D02*
D03*
X000795Y006760D02*
D03*
X005265D02*
D03*
X000795Y013790D02*
D03*
X001505Y013275D02*
D03*
D56*
X001545Y015215D02*
D03*
X001245Y015220D02*
D03*
D57*
X024883Y006680D02*
D03*
X025646Y006680D02*
D03*
D58*
X027660Y004660D02*
D03*
Y004860D02*
D03*
X027860Y004460D02*
D03*
X027660D02*
D03*
X027860Y004660D02*
D03*
Y004860D02*
D03*
Y005060D02*
D03*
X027660D02*
D03*
X027860Y005260D02*
D03*
Y004260D02*
D03*
X027660Y004060D02*
D03*
X027860D02*
D03*
X027660Y004260D02*
D03*
X027860Y003860D02*
D03*
X027660Y003660D02*
D03*
X027860D02*
D03*
X027660Y003860D02*
D03*
X027860Y003460D02*
D03*
X027660D02*
D03*
D59*
Y005260D02*
D03*
D60*
X026192Y008985D02*
D03*
X026350Y009200D02*
D03*
X004595Y003420D02*
D03*
Y003503D02*
D03*
Y003338D02*
D03*
X001332Y003405D02*
D03*
X003550Y001365D02*
D03*
X004167Y003750D02*
D03*
X004375Y001925D02*
D03*
X004603Y001738D02*
D03*
X024748Y004803D02*
D03*
Y004942D02*
D03*
X024912Y008787D02*
D03*
Y011087D02*
D03*
Y011235D02*
D03*
Y013535D02*
D03*
X024913Y015800D02*
D03*
X024910Y017017D02*
D03*
Y017135D02*
D03*
X025475Y003550D02*
D03*
X025750Y011025D02*
D03*
X025923Y007670D02*
D03*
Y012270D02*
D03*
X025923Y014535D02*
D03*
X026142Y005642D02*
D03*
X026142Y016412D02*
D03*
X026280Y003125D02*
D03*
X026350Y011500D02*
D03*
X026573Y001340D02*
D03*
X026560Y003600D02*
D03*
X026531Y007670D02*
D03*
Y012270D02*
D03*
X026532Y014535D02*
D03*
X026681Y007670D02*
D03*
Y012270D02*
D03*
X026682Y014535D02*
D03*
X026980Y001885D02*
D03*
X027170Y003980D02*
D03*
X027130Y006020D02*
D03*
X027370D02*
D03*
X001505Y003440D02*
D03*
X003750Y001877D02*
D03*
X011275Y004800D02*
D03*
X016150Y001450D02*
D03*
X020025Y001500D02*
D03*
X023888Y003860D02*
D03*
X024635Y005525D02*
D03*
X024912Y008935D02*
D03*
Y013387D02*
D03*
X024913Y015653D02*
D03*
X025093Y003728D02*
D03*
X025293Y003517D02*
D03*
X025327Y005653D02*
D03*
X025495Y017798D02*
D03*
X025695Y001977D02*
D03*
X025750Y008725D02*
D03*
X025923Y009970D02*
D03*
X026120Y003696D02*
D03*
X026350Y003025D02*
D03*
X026340Y013805D02*
D03*
Y016070D02*
D03*
X026525Y003025D02*
D03*
X026510Y005712D02*
D03*
X026531Y009970D02*
D03*
X026663Y009110D02*
D03*
X026681Y009970D02*
D03*
X026925Y017825D02*
D03*
X026923Y018610D02*
D03*
X027170Y003890D02*
D03*
X028145Y002620D02*
D03*
X003258Y001530D02*
D03*
X003200Y002140D02*
D03*
X003465Y001738D02*
D03*
X004688Y001365D02*
D03*
X004262Y001530D02*
D03*
X024140Y003760D02*
D03*
X025025Y007670D02*
D03*
X025175D02*
D03*
Y012270D02*
D03*
X025025D02*
D03*
X025026Y014535D02*
D03*
X025176D02*
D03*
X024771Y015340D02*
D03*
X024957Y017575D02*
D03*
X025380Y003180D02*
D03*
X025788Y003550D02*
D03*
X025600Y003600D02*
D03*
X025773Y007670D02*
D03*
X025729Y008240D02*
D03*
X025773Y012270D02*
D03*
X025770Y013325D02*
D03*
X025773Y014535D02*
D03*
X025775Y015710D02*
D03*
X026425Y003125D02*
D03*
X026842Y005238D02*
D03*
X026450Y005787D02*
D03*
X026260D02*
D03*
X026352D02*
D03*
X026489Y013111D02*
D03*
X026659Y013695D02*
D03*
X026659Y015960D02*
D03*
X026242Y016412D02*
D03*
X027170Y004167D02*
D03*
X027610Y006020D02*
D03*
X027459Y008595D02*
D03*
Y010895D02*
D03*
X027459Y015960D02*
D03*
X001225Y003672D02*
D03*
X001632Y003440D02*
D03*
X001225Y004583D02*
D03*
X003200Y001967D02*
D03*
X004072Y004720D02*
D03*
X004700Y002858D02*
D03*
X004583Y002660D02*
D03*
X004272Y004060D02*
D03*
X005362Y002865D02*
D03*
X006475Y004800D02*
D03*
X007225Y001500D02*
D03*
X008075Y004800D02*
D03*
X008825Y001500D02*
D03*
X009750Y001450D02*
D03*
X009675Y004800D02*
D03*
X010425Y001500D02*
D03*
X011350Y001450D02*
D03*
X012025Y001500D02*
D03*
X012950Y001450D02*
D03*
X012875Y004800D02*
D03*
X013625Y001500D02*
D03*
X014550Y001450D02*
D03*
X014475Y004800D02*
D03*
X015225Y001500D02*
D03*
X016075Y004800D02*
D03*
X016825Y001500D02*
D03*
X017750Y001450D02*
D03*
X017675Y004800D02*
D03*
X018425Y001500D02*
D03*
X019498Y000823D02*
D03*
X019350Y001450D02*
D03*
X019275Y004800D02*
D03*
X021098Y000823D02*
D03*
X020950Y001450D02*
D03*
X020875Y004800D02*
D03*
X021625Y001500D02*
D03*
X022695Y000823D02*
D03*
X022550Y001450D02*
D03*
X022475Y004800D02*
D03*
X023225Y001500D02*
D03*
X024748Y004650D02*
D03*
X025150Y004662D02*
D03*
X024747Y004272D02*
D03*
X025225Y005653D02*
D03*
X025020D02*
D03*
X025123D02*
D03*
X025195Y005120D02*
D03*
X024770Y008475D02*
D03*
X025025Y009970D02*
D03*
X025175D02*
D03*
X024632Y011375D02*
D03*
X024770Y010775D02*
D03*
X024771Y016109D02*
D03*
X024770Y016680D02*
D03*
Y017460D02*
D03*
X025948Y003025D02*
D03*
X025890Y005642D02*
D03*
X025767D02*
D03*
X025729Y010540D02*
D03*
X025773Y009970D02*
D03*
X025764Y011346D02*
D03*
X026049Y011346D02*
D03*
X025729Y012840D02*
D03*
X025770Y013646D02*
D03*
X025729Y015105D02*
D03*
X025771Y015913D02*
D03*
X025617Y016885D02*
D03*
X026002Y017798D02*
D03*
X025620D02*
D03*
X025842Y017265D02*
D03*
X026205Y001977D02*
D03*
X026573Y001890D02*
D03*
X026565Y003125D02*
D03*
X026475Y003525D02*
D03*
X026200Y005715D02*
D03*
X026675Y008600D02*
D03*
X026489Y008511D02*
D03*
X026659Y011395D02*
D03*
X026489Y010811D02*
D03*
X026675Y010900D02*
D03*
Y013200D02*
D03*
X026489Y015376D02*
D03*
X026575Y016625D02*
D03*
X026817Y017602D02*
D03*
X026383Y017798D02*
D03*
X027170Y003720D02*
D03*
Y003580D02*
D03*
Y004670D02*
D03*
Y004350D02*
D03*
Y004830D02*
D03*
Y005288D02*
D03*
X027459Y013195D02*
D03*
Y013695D02*
D03*
X027459Y015460D02*
D03*
X028420Y003860D02*
D03*
Y004060D02*
D03*
Y004247D02*
D03*
Y004450D02*
D03*
Y004652D02*
D03*
Y004855D02*
D03*
X001960Y004122D02*
D03*
X024912Y003397D02*
D03*
X024747Y004155D02*
D03*
X024605Y009128D02*
D03*
X024905Y013035D02*
D03*
X025160Y016420D02*
D03*
X025733Y016410D02*
D03*
X026760Y005000D02*
D03*
X026676Y015465D02*
D03*
X027311Y002620D02*
D03*
X027459Y009100D02*
D03*
Y011395D02*
D03*
X028335Y003270D02*
D03*
X001770Y003765D02*
D03*
X026050Y009045D02*
D03*
X026183Y010260D02*
D03*
X026170Y014940D02*
D03*
X025364Y015537D02*
D03*
X026980Y001330D02*
D03*
X006695Y000823D02*
D03*
X006550Y001450D02*
D03*
X004903Y002052D02*
D03*
X004108Y004472D02*
D03*
X008297Y000823D02*
D03*
X009895D02*
D03*
X008150Y001450D02*
D03*
X011495Y000823D02*
D03*
X013095D02*
D03*
X014695D02*
D03*
X016293D02*
D03*
X017898D02*
D03*
X023761Y004380D02*
D03*
X026183Y007960D02*
D03*
X026170Y008075D02*
D03*
X026185Y008740D02*
D03*
X025363Y008672D02*
D03*
X025215Y010450D02*
D03*
X026170Y010375D02*
D03*
X026045Y010542D02*
D03*
X025363Y010972D02*
D03*
X025364Y011294D02*
D03*
X026185Y011302D02*
D03*
Y011040D02*
D03*
X025215Y012750D02*
D03*
X026183Y012560D02*
D03*
X026170Y012675D02*
D03*
X026045Y012842D02*
D03*
X025363Y013272D02*
D03*
X026050Y013645D02*
D03*
X025364Y013594D02*
D03*
X026185Y013340D02*
D03*
Y013602D02*
D03*
X026184Y014825D02*
D03*
X025215Y015015D02*
D03*
X026046Y015107D02*
D03*
X026185Y015867D02*
D03*
X026051Y015910D02*
D03*
X025365Y015859D02*
D03*
X025268Y016807D02*
D03*
X004905Y002577D02*
D03*
X025215Y008150D02*
D03*
X026045Y008242D02*
D03*
X025364Y008994D02*
D03*
X026185Y015606D02*
D03*
D61*
X023375Y002320D02*
D03*
X006445Y003640D02*
D03*
X006800D02*
D03*
X007145D02*
D03*
X008045D02*
D03*
X008745D02*
D03*
X008400D02*
D03*
X009645D02*
D03*
X010345D02*
D03*
X010000D02*
D03*
X011245D02*
D03*
X012160Y002320D02*
D03*
X011945Y003640D02*
D03*
X011600D02*
D03*
X012845D02*
D03*
X013760Y002320D02*
D03*
X013545Y003640D02*
D03*
X014445D02*
D03*
X015360Y002320D02*
D03*
X015145Y003640D02*
D03*
X016045D02*
D03*
X016960Y002320D02*
D03*
X016745Y003640D02*
D03*
X017645D02*
D03*
X018560Y002320D02*
D03*
X018345Y003640D02*
D03*
X019245D02*
D03*
X020160Y002320D02*
D03*
X019945Y003640D02*
D03*
X020845D02*
D03*
X021760Y002320D02*
D03*
X021545Y003640D02*
D03*
X022445D02*
D03*
X023145D02*
D03*
X003788Y002605D02*
D03*
X006800Y003345D02*
D03*
X008400D02*
D03*
X010000D02*
D03*
X011600D02*
D03*
X002488Y004715D02*
D03*
X004247Y002670D02*
D03*
X008960Y002320D02*
D03*
X007360D02*
D03*
X010560D02*
D03*
X013200Y003640D02*
D03*
X016400D02*
D03*
X014800D02*
D03*
X019600D02*
D03*
X018000D02*
D03*
X022800D02*
D03*
X021200D02*
D03*
X013200Y003345D02*
D03*
X016400D02*
D03*
X014800D02*
D03*
X019600D02*
D03*
X018000D02*
D03*
X022800D02*
D03*
X021200D02*
D03*
X023793Y018002D02*
D03*
D62*
X000915Y009524D02*
D03*
X009845D02*
D03*
X018775D02*
D03*
X027705D02*
D03*
X000915Y001624D02*
D03*
Y017424D02*
D03*
X009845D02*
D03*
X018775Y001624D02*
D03*
X027705D02*
D03*
Y017424D02*
D03*
D139*
X025215Y008435D02*
D03*
X025150D02*
D03*
X025085D02*
D03*
X025020D02*
D03*
Y007861D02*
D03*
X025085D02*
D03*
X025150D02*
D03*
X025215D02*
D03*
X025215Y015300D02*
D03*
X025151D02*
D03*
X025085D02*
D03*
X025021D02*
D03*
Y014726D02*
D03*
X025085D02*
D03*
X025151D02*
D03*
X025215D02*
D03*
X025215Y010161D02*
D03*
X025150D02*
D03*
X025085D02*
D03*
X025020D02*
D03*
Y010735D02*
D03*
X025085D02*
D03*
X025150D02*
D03*
X025215D02*
D03*
Y013035D02*
D03*
X025150D02*
D03*
X025085D02*
D03*
X025020D02*
D03*
Y012461D02*
D03*
X025085D02*
D03*
X025150D02*
D03*
X025215D02*
D03*
D140*
X026500Y008155D02*
D03*
Y008090D02*
D03*
Y008025D02*
D03*
Y007960D02*
D03*
X025926D02*
D03*
Y008025D02*
D03*
Y008090D02*
D03*
Y008155D02*
D03*
Y010455D02*
D03*
Y010390D02*
D03*
Y010325D02*
D03*
Y010260D02*
D03*
X026500D02*
D03*
Y010325D02*
D03*
Y010390D02*
D03*
Y010455D02*
D03*
Y012755D02*
D03*
Y012690D02*
D03*
Y012625D02*
D03*
Y012560D02*
D03*
X025926D02*
D03*
Y012625D02*
D03*
Y012690D02*
D03*
Y012755D02*
D03*
X026501Y015020D02*
D03*
Y014955D02*
D03*
Y014890D02*
D03*
Y014825D02*
D03*
X025927D02*
D03*
Y014890D02*
D03*
Y014955D02*
D03*
Y015020D02*
D03*
X025842Y016940D02*
D03*
Y017005D02*
D03*
Y017070D02*
D03*
Y017135D02*
D03*
X025268D02*
D03*
Y017070D02*
D03*
Y017005D02*
D03*
Y016940D02*
D03*
M02*
