G04*
G04 #@! TF.GenerationSoftware,Altium Limited,Altium Designer,20.1.10 (176)*
G04*
G04 Layer_Color=16711935*
%FSLAX44Y44*%
%MOMM*%
G71*
G04*
G04 #@! TF.SameCoordinates,9A07C0F8-2EC5-444E-B81E-C5A403CEBA23*
G04*
G04*
G04 #@! TF.FilePolarity,Positive*
G04*
G01*
G75*
%ADD10C,0.2000*%
%ADD19C,1.2000*%
%ADD20C,1.2000*%
D10*
X65548Y147420D02*
G03*
X76279Y136585I25981J15000D01*
G01*
Y1768255D02*
G03*
X65548Y1757420I15250J-25835D01*
G01*
Y147420D02*
G03*
X39567Y162420I-25981J-15000D01*
G01*
Y1742420D02*
G03*
X65548Y1757420I0J30000D01*
G01*
X91028Y110750D02*
G03*
X76279Y136585I-30000J-0D01*
G01*
Y1768255D02*
G03*
X91028Y1794090I-15250J25835D01*
G01*
X1028Y192420D02*
G03*
X31028Y162420I30000J0D01*
G01*
Y1742420D02*
G03*
X1028Y1712420I0J-30000D01*
G01*
X91028Y32420D02*
G03*
X121028Y2420I30000J0D01*
G01*
Y1902420D02*
G03*
X91028Y1872420I0J-30000D01*
G01*
X2741029Y2420D02*
G03*
X2771028Y32420I0J30000D01*
G01*
X2785779Y136585D02*
G03*
X2771028Y110750I15250J-25835D01*
G01*
X2785779Y136585D02*
G03*
X2796509Y147420I-15250J25835D01*
G01*
X2822490Y162420D02*
G03*
X2796509Y147420I0J-30000D01*
G01*
X2831029Y162420D02*
G03*
X2861029Y192420I0J30000D01*
G01*
Y1712420D02*
G03*
X2831029Y1742420I-30000J0D01*
G01*
X2796509Y1757420D02*
G03*
X2822490Y1742420I25981J15000D01*
G01*
X2796509Y1757420D02*
G03*
X2785779Y1768255I-25981J-15000D01*
G01*
X2771028Y1794090D02*
G03*
X2785779Y1768255I30000J0D01*
G01*
X2771028Y1872420D02*
G03*
X2741029Y1902420I-30000J0D01*
G01*
X2771028Y32420D02*
Y110750D01*
X31028Y1742420D02*
X39567D01*
X31028Y162420D02*
X39567D01*
X91028Y1794090D02*
Y1872420D01*
Y32420D02*
Y110750D01*
X1028Y192420D02*
Y1712420D01*
X121028Y2420D02*
X2741029D01*
X2822490Y162420D02*
X2831029D01*
X2861029Y190228D02*
Y1712420D01*
X2822490Y1742420D02*
X2831029D01*
X2771028Y1794090D02*
Y1872420D01*
X121028Y1902420D02*
X2741029D01*
X65548Y147420D02*
G03*
X76279Y136585I25981J15000D01*
G01*
Y1768255D02*
G03*
X65548Y1757420I15250J-25835D01*
G01*
Y147420D02*
G03*
X39567Y162420I-25981J-15000D01*
G01*
Y1742420D02*
G03*
X65548Y1757420I0J30000D01*
G01*
X91028Y110750D02*
G03*
X76279Y136585I-30000J-0D01*
G01*
Y1768255D02*
G03*
X91028Y1794090I-15250J25835D01*
G01*
X1028Y192420D02*
G03*
X31028Y162420I30000J0D01*
G01*
Y1742420D02*
G03*
X1028Y1712420I0J-30000D01*
G01*
X91028Y32420D02*
G03*
X121028Y2420I30000J0D01*
G01*
Y1902420D02*
G03*
X91028Y1872420I0J-30000D01*
G01*
X2741029Y2420D02*
G03*
X2771028Y32420I0J30000D01*
G01*
X2785779Y136585D02*
G03*
X2771028Y110750I15250J-25835D01*
G01*
X2785779Y136585D02*
G03*
X2796509Y147420I-15250J25835D01*
G01*
X2822490Y162420D02*
G03*
X2796509Y147420I0J-30000D01*
G01*
X2831029Y162420D02*
G03*
X2861029Y192420I0J30000D01*
G01*
Y1712420D02*
G03*
X2831029Y1742420I-30000J0D01*
G01*
X2796509Y1757420D02*
G03*
X2822490Y1742420I25981J15000D01*
G01*
X2796509Y1757420D02*
G03*
X2785779Y1768255I-25981J-15000D01*
G01*
X2771028Y1794090D02*
G03*
X2785779Y1768255I30000J0D01*
G01*
X2771028Y1872420D02*
G03*
X2741029Y1902420I-30000J0D01*
G01*
X2771028Y32420D02*
Y110750D01*
X31028Y1742420D02*
X39567D01*
X31028Y162420D02*
X39567D01*
X91028Y1794090D02*
Y1872420D01*
Y32420D02*
Y110750D01*
X1028Y192420D02*
Y1712420D01*
X121028Y2420D02*
X2741029D01*
X2822490Y162420D02*
X2831029D01*
X2861029Y190228D02*
Y1712420D01*
X2822490Y1742420D02*
X2831029D01*
X2771028Y1794090D02*
Y1872420D01*
X121028Y1902420D02*
X2741029D01*
D19*
X91028Y110750D02*
G03*
X76279Y136585I-30000J-0D01*
G01*
X91028Y32420D02*
G03*
X121028Y2420I30000J0D01*
G01*
X2741029D02*
G03*
X2771028Y32420I0J30000D01*
G01*
X2785779Y136585D02*
G03*
X2771028Y110750I15250J-25835D01*
G01*
X2785779Y136585D02*
G03*
X2796509Y147420I-15250J25835D01*
G01*
X2822490Y162420D02*
G03*
X2796509Y147420I0J-30000D01*
G01*
X2832995Y162420D02*
G03*
X2860803Y190228I0J27808D01*
G01*
X2861029Y1712420D02*
G03*
X2831029Y1742420I-30000J0D01*
G01*
X2796509Y1757420D02*
G03*
X2822490Y1742420I25981J15000D01*
G01*
X2796509Y1757420D02*
G03*
X2785779Y1768255I-25981J-15000D01*
G01*
X2771028Y1794090D02*
G03*
X2785779Y1768255I30000J0D01*
G01*
X2771028Y1872420D02*
G03*
X2741029Y1902420I-30000J0D01*
G01*
X121028D02*
G03*
X91028Y1872420I0J-30000D01*
G01*
X76279Y1768255D02*
G03*
X91028Y1794090I-15250J25835D01*
G01*
X76279Y1768255D02*
G03*
X65548Y1757420I15250J-25835D01*
G01*
X39567Y1742420D02*
G03*
X65548Y1757420I0J30000D01*
G01*
X31028Y1742420D02*
G03*
X1028Y1712420I0J-30000D01*
G01*
Y192420D02*
G03*
X31028Y162420I30000J0D01*
G01*
X65548Y147420D02*
G03*
X39567Y162420I-25981J-15000D01*
G01*
X65548Y147420D02*
G03*
X76279Y136585I25981J15000D01*
G01*
X91028Y110750D02*
G03*
X76279Y136585I-30000J-0D01*
G01*
X91028Y32420D02*
G03*
X121028Y2420I30000J0D01*
G01*
X2741029D02*
G03*
X2771028Y32420I0J30000D01*
G01*
X2785779Y136585D02*
G03*
X2771028Y110750I15250J-25835D01*
G01*
X2785779Y136585D02*
G03*
X2796509Y147420I-15250J25835D01*
G01*
X2822490Y162420D02*
G03*
X2796509Y147420I0J-30000D01*
G01*
X2831029Y162420D02*
G03*
X2861029Y192420I0J30000D01*
G01*
Y1712420D02*
G03*
X2831029Y1742420I-30000J0D01*
G01*
X2796509Y1757420D02*
G03*
X2822490Y1742420I25981J15000D01*
G01*
X2796509Y1757420D02*
G03*
X2785779Y1768255I-25981J-15000D01*
G01*
X2771028Y1794090D02*
G03*
X2785779Y1768255I30000J0D01*
G01*
X2771028Y1872420D02*
G03*
X2741029Y1902420I-30000J0D01*
G01*
X121028D02*
G03*
X91028Y1872420I0J-30000D01*
G01*
X76279Y1768255D02*
G03*
X91028Y1794090I-15250J25835D01*
G01*
X76279Y1768255D02*
G03*
X65548Y1757420I15250J-25835D01*
G01*
X39567Y1742420D02*
G03*
X65548Y1757420I0J30000D01*
G01*
X31028Y1742420D02*
G03*
X1028Y1712420I0J-30000D01*
G01*
Y192420D02*
G03*
X31028Y162420I30000J0D01*
G01*
X65548Y147420D02*
G03*
X39567Y162420I-25981J-15000D01*
G01*
X65548Y147420D02*
G03*
X76279Y136585I25981J15000D01*
G01*
X91028Y110750D02*
G03*
X76279Y136585I-30000J-0D01*
G01*
X91028Y32420D02*
G03*
X121028Y2420I30000J0D01*
G01*
X2741029D02*
G03*
X2771028Y32420I0J30000D01*
G01*
X2785779Y136585D02*
G03*
X2771028Y110750I15250J-25835D01*
G01*
X2785779Y136585D02*
G03*
X2796509Y147420I-15250J25835D01*
G01*
X2822490Y162420D02*
G03*
X2796509Y147420I0J-30000D01*
G01*
X2831029Y162420D02*
G03*
X2861029Y192420I0J30000D01*
G01*
Y1712420D02*
G03*
X2831029Y1742420I-30000J0D01*
G01*
X2796509Y1757420D02*
G03*
X2822490Y1742420I25981J15000D01*
G01*
X2796509Y1757420D02*
G03*
X2785779Y1768255I-25981J-15000D01*
G01*
X2771028Y1794090D02*
G03*
X2785779Y1768255I30000J0D01*
G01*
X2771028Y1872420D02*
G03*
X2741029Y1902420I-30000J0D01*
G01*
X121028D02*
G03*
X91028Y1872420I0J-30000D01*
G01*
X76279Y1768255D02*
G03*
X91028Y1794090I-15250J25835D01*
G01*
X76279Y1768255D02*
G03*
X65548Y1757420I15250J-25835D01*
G01*
X39567Y1742420D02*
G03*
X65548Y1757420I0J30000D01*
G01*
X31028Y1742420D02*
G03*
X1028Y1712420I0J-30000D01*
G01*
Y192420D02*
G03*
X31028Y162420I30000J0D01*
G01*
X65548Y147420D02*
G03*
X39567Y162420I-25981J-15000D01*
G01*
X65548Y147420D02*
G03*
X76279Y136585I25981J15000D01*
G01*
Y136585D02*
X77920Y135543D01*
X80985Y133150D01*
X83714Y130381D01*
X86063Y127282D01*
X87991Y123905D01*
X89465Y120308D01*
X90463Y116550D01*
X90965Y112694D01*
X91028Y110750D01*
X91028Y32420D01*
Y30454D02*
Y32420D01*
Y30454D02*
X91542Y26555D01*
X92560Y22756D01*
X94065Y19123D01*
X96031Y15717D01*
X98425Y12597D01*
X101206Y9816D01*
X104326Y7423D01*
X107731Y5456D01*
X111365Y3951D01*
X115163Y2933D01*
X119062Y2420D01*
X121028Y2420D01*
X2741029D01*
X2742995D01*
X2746894Y2933D01*
X2750692Y3951D01*
X2754326Y5456D01*
X2757731Y7423D01*
X2760851Y9816D01*
X2763632Y12597D01*
X2766026Y15717D01*
X2767992Y19123D01*
X2769497Y22756D01*
X2770515Y26555D01*
X2771028Y30454D01*
Y32420D01*
Y110750D01*
X2771092Y112694D01*
X2771595Y116550D01*
X2772592Y120308D01*
X2774066Y123905D01*
X2775994Y127282D01*
X2778343Y130381D01*
X2781072Y133150D01*
X2784136Y135543D01*
X2785779Y136585D01*
X2787440Y137566D01*
X2790486Y139938D01*
X2793202Y142681D01*
X2795544Y145749D01*
X2796509Y147420D01*
X2797546Y149087D01*
X2799935Y152200D01*
X2802710Y154975D01*
X2805823Y157364D01*
X2809221Y159326D01*
X2812847Y160828D01*
X2816637Y161844D01*
X2820528Y162356D01*
X2822490Y162420D01*
X2831029D01*
X2832995D01*
X2836894Y162933D01*
X2840692Y163951D01*
X2844326Y165456D01*
X2847731Y167422D01*
X2850851Y169816D01*
X2853632Y172597D01*
X2856026Y175717D01*
X2857993Y179123D01*
X2859497Y182756D01*
X2860515Y186555D01*
X2861029Y190454D01*
Y192420D01*
Y1712420D01*
Y1714386D01*
X2860515Y1718285D02*
X2861029Y1714386D01*
X2859497Y1722084D02*
X2860515Y1718285D01*
X2857993Y1725717D02*
X2859497Y1722084D01*
X2856026Y1729123D02*
X2857993Y1725717D01*
X2853632Y1732243D02*
X2856026Y1729123D01*
X2850851Y1735023D02*
X2853632Y1732243D01*
X2847731Y1737417D02*
X2850851Y1735023D01*
X2844326Y1739384D02*
X2847731Y1737417D01*
X2840692Y1740889D02*
X2844326Y1739384D01*
X2836894Y1741907D02*
X2840692Y1740889D01*
X2832995Y1742420D02*
X2836894Y1741907D01*
X2831029Y1742420D02*
X2832995D01*
X2822490D02*
X2831029D01*
X2820528Y1742484D02*
X2822490Y1742420D01*
X2816637Y1742996D02*
X2820528Y1742484D01*
X2812847Y1744012D02*
X2816637Y1742996D01*
X2809221Y1745514D02*
X2812847Y1744012D01*
X2805823Y1747476D02*
X2809221Y1745514D01*
X2802710Y1749865D02*
X2805823Y1747476D01*
X2799935Y1752639D02*
X2802710Y1749865D01*
X2797546Y1755753D02*
X2799935Y1752639D01*
X2796509Y1757420D02*
X2797546Y1755753D01*
X2795544Y1759091D02*
X2796509Y1757420D01*
X2793202Y1762159D02*
X2795544Y1759091D01*
X2790486Y1764902D02*
X2793202Y1762159D01*
X2787440Y1767274D02*
X2790486Y1764902D01*
X2785779Y1768255D02*
X2787440Y1767274D01*
X2784136Y1769297D02*
X2785779Y1768255D01*
X2781072Y1771690D02*
X2784136Y1769297D01*
X2778343Y1774459D02*
X2781072Y1771690D01*
X2775994Y1777558D02*
X2778343Y1774459D01*
X2774066Y1780935D02*
X2775994Y1777558D01*
X2772592Y1784532D02*
X2774066Y1780935D01*
X2771595Y1788290D02*
X2772592Y1784532D01*
X2771092Y1792146D02*
X2771595Y1788290D01*
X2771028Y1794090D02*
X2771092Y1792146D01*
X2771028Y1794090D02*
Y1872420D01*
Y1874386D01*
X2770515Y1878285D02*
X2771028Y1874386D01*
X2769497Y1882084D02*
X2770515Y1878285D01*
X2767992Y1885717D02*
X2769497Y1882084D01*
X2766026Y1889123D02*
X2767992Y1885717D01*
X2763632Y1892243D02*
X2766026Y1889123D01*
X2760851Y1895023D02*
X2763632Y1892243D01*
X2757731Y1897417D02*
X2760851Y1895023D01*
X2754326Y1899384D02*
X2757731Y1897417D01*
X2750692Y1900889D02*
X2754326Y1899384D01*
X2746894Y1901907D02*
X2750692Y1900889D01*
X2742995Y1902420D02*
X2746894Y1901907D01*
X2741029Y1902420D02*
X2742995D01*
X121028D02*
X2741029D01*
X119062D02*
X121028D01*
X115163Y1901907D02*
X119062Y1902420D01*
X111365Y1900889D02*
X115163Y1901907D01*
X107731Y1899384D02*
X111365Y1900889D01*
X104326Y1897417D02*
X107731Y1899384D01*
X101206Y1895023D02*
X104326Y1897417D01*
X98425Y1892243D02*
X101206Y1895023D01*
X96031Y1889123D02*
X98425Y1892243D01*
X94065Y1885717D02*
X96031Y1889123D01*
X92560Y1882084D02*
X94065Y1885717D01*
X91542Y1878285D02*
X92560Y1882084D01*
X91028Y1874386D02*
X91542Y1878285D01*
X91028Y1872420D02*
Y1874386D01*
Y1794090D02*
Y1872420D01*
X90965Y1792146D02*
X91028Y1794090D01*
X90463Y1788290D02*
X90965Y1792146D01*
X89465Y1784532D02*
X90463Y1788290D01*
X87991Y1780935D02*
X89465Y1784532D01*
X86063Y1777558D02*
X87991Y1780935D01*
X83714Y1774459D02*
X86063Y1777558D01*
X80985Y1771690D02*
X83714Y1774459D01*
X77920Y1769297D02*
X80985Y1771690D01*
X76279Y1768255D02*
X77920Y1769297D01*
X74616Y1767274D02*
X76279Y1768255D01*
X71571Y1764902D02*
X74616Y1767274D01*
X68855Y1762159D02*
X71571Y1764902D01*
X66513Y1759091D02*
X68855Y1762159D01*
X65548Y1757420D02*
X66513Y1759091D01*
X64511Y1755753D02*
X65548Y1757420D01*
X62122Y1752639D02*
X64511Y1755753D01*
X59347Y1749865D02*
X62122Y1752639D01*
X56234Y1747476D02*
X59347Y1749865D01*
X52836Y1745514D02*
X56234Y1747476D01*
X49210Y1744012D02*
X52836Y1745514D01*
X45420Y1742996D02*
X49210Y1744012D01*
X41529Y1742484D02*
X45420Y1742996D01*
X39567Y1742420D02*
X41529Y1742484D01*
X31028Y1742420D02*
X39567D01*
X29062D02*
X31028D01*
X25163Y1741907D02*
X29062Y1742420D01*
X21365Y1740889D02*
X25163Y1741907D01*
X17731Y1739384D02*
X21365Y1740889D01*
X14325Y1737417D02*
X17731Y1739384D01*
X11206Y1735023D02*
X14325Y1737417D01*
X8425Y1732243D02*
X11206Y1735023D01*
X6031Y1729123D02*
X8425Y1732243D01*
X4065Y1725717D02*
X6031Y1729123D01*
X2560Y1722084D02*
X4065Y1725717D01*
X1542Y1718285D02*
X2560Y1722084D01*
X1028Y1714386D02*
X1542Y1718285D01*
X1028Y1712420D02*
Y1714386D01*
Y192420D02*
Y1712420D01*
Y190454D02*
Y192420D01*
Y190454D02*
X1542Y186555D01*
X2560Y182756D01*
X4065Y179123D01*
X6031Y175717D01*
X8425Y172597D01*
X11206Y169816D01*
X14325Y167422D01*
X17731Y165456D01*
X21365Y163951D01*
X25163Y162933D01*
X29062Y162420D01*
X31028Y162420D01*
X39567D01*
X41529Y162356D01*
X45420Y161844D01*
X49210Y160828D01*
X52836Y159326D01*
X56234Y157364D01*
X59347Y154975D01*
X62122Y152200D01*
X64511Y149087D01*
X65548Y147420D01*
X66513Y145749D01*
X68855Y142681D01*
X71571Y139938D01*
X74616Y137566D01*
X76279Y136585D01*
X91028Y32420D02*
Y110750D01*
X121028Y2420D02*
X2741029D01*
X2771028Y32420D02*
Y110750D01*
X2796509Y147420D02*
X2796509Y147420D01*
X2822490Y162420D02*
Y162420D01*
Y162420D02*
X2831029D01*
X2861029Y192420D02*
Y1712420D01*
X2822490Y1742420D02*
X2831029D01*
X2822490Y1742420D02*
Y1742420D01*
X2796509Y1757420D02*
X2796509Y1757420D01*
X2771028Y1794090D02*
Y1872420D01*
X121028Y1902420D02*
X2741029D01*
X91028Y1794090D02*
Y1872420D01*
X31028Y1742420D02*
X39567D01*
X1028Y192420D02*
Y1712420D01*
X31028Y162420D02*
X39567D01*
X91028Y32420D02*
Y110750D01*
X121028Y2420D02*
X2741029D01*
X2771028Y32420D02*
Y110750D01*
X2796509Y147420D02*
X2796509Y147420D01*
X2822490Y162420D02*
Y162420D01*
Y162420D02*
X2831029D01*
X2861029Y192420D02*
Y1712420D01*
X2822490Y1742420D02*
X2831029D01*
X2822490Y1742420D02*
Y1742420D01*
X2796509Y1757420D02*
X2796509Y1757420D01*
X2771028Y1794090D02*
Y1872420D01*
X121028Y1902420D02*
X2741029D01*
X91028Y1794090D02*
Y1872420D01*
X31028Y1742420D02*
X39567D01*
X1028Y192420D02*
Y1712420D01*
X31028Y162420D02*
X39567D01*
X91028Y32420D02*
Y110750D01*
X121028Y2420D02*
X2741029D01*
X2771028Y32420D02*
Y110750D01*
X2796509Y147420D02*
X2796509Y147420D01*
X2822490Y162420D02*
Y162420D01*
Y162420D02*
X2831029D01*
X2861029Y192420D02*
Y1712420D01*
X2822490Y1742420D02*
X2831029D01*
X2822490Y1742420D02*
Y1742420D01*
X2796509Y1757420D02*
X2796509Y1757420D01*
X2771028Y1794090D02*
Y1872420D01*
X121028Y1902420D02*
X2741029D01*
X91028Y1794090D02*
Y1872420D01*
X31028Y1742420D02*
X39567D01*
X1028Y192420D02*
Y1712420D01*
X31028Y162420D02*
X39567D01*
X91028Y110750D02*
G03*
X76279Y136585I-30000J-0D01*
G01*
X91028Y32420D02*
G03*
X121028Y2420I30000J0D01*
G01*
X2741029D02*
G03*
X2771028Y32420I0J30000D01*
G01*
X2785779Y136585D02*
G03*
X2771028Y110750I15250J-25835D01*
G01*
X2785779Y136585D02*
G03*
X2796509Y147420I-15250J25835D01*
G01*
X2822490Y162420D02*
G03*
X2796509Y147420I0J-30000D01*
G01*
X2832995Y162420D02*
G03*
X2860803Y190228I0J27808D01*
G01*
X2861029Y1712420D02*
G03*
X2831029Y1742420I-30000J0D01*
G01*
X2796509Y1757420D02*
G03*
X2822490Y1742420I25981J15000D01*
G01*
X2796509Y1757420D02*
G03*
X2785779Y1768255I-25981J-15000D01*
G01*
X2771028Y1794090D02*
G03*
X2785779Y1768255I30000J0D01*
G01*
X2771028Y1872420D02*
G03*
X2741029Y1902420I-30000J0D01*
G01*
X121028D02*
G03*
X91028Y1872420I0J-30000D01*
G01*
X76279Y1768255D02*
G03*
X91028Y1794090I-15250J25835D01*
G01*
X76279Y1768255D02*
G03*
X65548Y1757420I15250J-25835D01*
G01*
X39567Y1742420D02*
G03*
X65548Y1757420I0J30000D01*
G01*
X31028Y1742420D02*
G03*
X1028Y1712420I0J-30000D01*
G01*
Y192420D02*
G03*
X31028Y162420I30000J0D01*
G01*
X65548Y147420D02*
G03*
X39567Y162420I-25981J-15000D01*
G01*
X65548Y147420D02*
G03*
X76279Y136585I25981J15000D01*
G01*
X91028Y110750D02*
G03*
X76279Y136585I-30000J-0D01*
G01*
X91028Y32420D02*
G03*
X121028Y2420I30000J0D01*
G01*
X2741029D02*
G03*
X2771028Y32420I0J30000D01*
G01*
X2785779Y136585D02*
G03*
X2771028Y110750I15250J-25835D01*
G01*
X2785779Y136585D02*
G03*
X2796509Y147420I-15250J25835D01*
G01*
X2822490Y162420D02*
G03*
X2796509Y147420I0J-30000D01*
G01*
X2831029Y162420D02*
G03*
X2861029Y192420I0J30000D01*
G01*
Y1712420D02*
G03*
X2831029Y1742420I-30000J0D01*
G01*
X2796509Y1757420D02*
G03*
X2822490Y1742420I25981J15000D01*
G01*
X2796509Y1757420D02*
G03*
X2785779Y1768255I-25981J-15000D01*
G01*
X2771028Y1794090D02*
G03*
X2785779Y1768255I30000J0D01*
G01*
X2771028Y1872420D02*
G03*
X2741029Y1902420I-30000J0D01*
G01*
X121028D02*
G03*
X91028Y1872420I0J-30000D01*
G01*
X76279Y1768255D02*
G03*
X91028Y1794090I-15250J25835D01*
G01*
X76279Y1768255D02*
G03*
X65548Y1757420I15250J-25835D01*
G01*
X39567Y1742420D02*
G03*
X65548Y1757420I0J30000D01*
G01*
X31028Y1742420D02*
G03*
X1028Y1712420I0J-30000D01*
G01*
Y192420D02*
G03*
X31028Y162420I30000J0D01*
G01*
X65548Y147420D02*
G03*
X39567Y162420I-25981J-15000D01*
G01*
X65548Y147420D02*
G03*
X76279Y136585I25981J15000D01*
G01*
X91028Y110750D02*
G03*
X76279Y136585I-30000J-0D01*
G01*
X91028Y32420D02*
G03*
X121028Y2420I30000J0D01*
G01*
X2741029D02*
G03*
X2771028Y32420I0J30000D01*
G01*
X2785779Y136585D02*
G03*
X2771028Y110750I15250J-25835D01*
G01*
X2785779Y136585D02*
G03*
X2796509Y147420I-15250J25835D01*
G01*
X2822490Y162420D02*
G03*
X2796509Y147420I0J-30000D01*
G01*
X2831029Y162420D02*
G03*
X2861029Y192420I0J30000D01*
G01*
Y1712420D02*
G03*
X2831029Y1742420I-30000J0D01*
G01*
X2796509Y1757420D02*
G03*
X2822490Y1742420I25981J15000D01*
G01*
X2796509Y1757420D02*
G03*
X2785779Y1768255I-25981J-15000D01*
G01*
X2771028Y1794090D02*
G03*
X2785779Y1768255I30000J0D01*
G01*
X2771028Y1872420D02*
G03*
X2741029Y1902420I-30000J0D01*
G01*
X121028D02*
G03*
X91028Y1872420I0J-30000D01*
G01*
X76279Y1768255D02*
G03*
X91028Y1794090I-15250J25835D01*
G01*
X76279Y1768255D02*
G03*
X65548Y1757420I15250J-25835D01*
G01*
X39567Y1742420D02*
G03*
X65548Y1757420I0J30000D01*
G01*
X31028Y1742420D02*
G03*
X1028Y1712420I0J-30000D01*
G01*
Y192420D02*
G03*
X31028Y162420I30000J0D01*
G01*
X65548Y147420D02*
G03*
X39567Y162420I-25981J-15000D01*
G01*
X65548Y147420D02*
G03*
X76279Y136585I25981J15000D01*
G01*
Y136585D02*
X77920Y135543D01*
X80985Y133150D01*
X83714Y130381D01*
X86063Y127282D01*
X87991Y123905D01*
X89465Y120308D01*
X90463Y116550D01*
X90965Y112694D01*
X91028Y110750D01*
X91028Y32420D01*
Y30454D02*
Y32420D01*
Y30454D02*
X91542Y26555D01*
X92560Y22756D01*
X94065Y19123D01*
X96031Y15717D01*
X98425Y12597D01*
X101206Y9816D01*
X104326Y7423D01*
X107731Y5456D01*
X111365Y3951D01*
X115163Y2933D01*
X119062Y2420D01*
X121028Y2420D01*
X2741029D01*
X2742995D01*
X2746894Y2933D01*
X2750692Y3951D01*
X2754326Y5456D01*
X2757731Y7423D01*
X2760851Y9816D01*
X2763632Y12597D01*
X2766026Y15717D01*
X2767992Y19123D01*
X2769497Y22756D01*
X2770515Y26555D01*
X2771028Y30454D01*
Y32420D01*
Y110750D01*
X2771092Y112694D01*
X2771595Y116550D01*
X2772592Y120308D01*
X2774066Y123905D01*
X2775994Y127282D01*
X2778343Y130381D01*
X2781072Y133150D01*
X2784136Y135543D01*
X2785779Y136585D01*
X2787440Y137566D01*
X2790486Y139938D01*
X2793202Y142681D01*
X2795544Y145749D01*
X2796509Y147420D01*
X2797546Y149087D01*
X2799935Y152200D01*
X2802710Y154975D01*
X2805823Y157364D01*
X2809221Y159326D01*
X2812847Y160828D01*
X2816637Y161844D01*
X2820528Y162356D01*
X2822490Y162420D01*
X2831029D01*
X2832995D01*
X2836894Y162933D01*
X2840692Y163951D01*
X2844326Y165456D01*
X2847731Y167422D01*
X2850851Y169816D01*
X2853632Y172597D01*
X2856026Y175717D01*
X2857993Y179123D01*
X2859497Y182756D01*
X2860515Y186555D01*
X2861029Y190454D01*
Y192420D01*
Y1712420D01*
Y1714386D01*
X2860515Y1718285D02*
X2861029Y1714386D01*
X2859497Y1722084D02*
X2860515Y1718285D01*
X2857993Y1725717D02*
X2859497Y1722084D01*
X2856026Y1729123D02*
X2857993Y1725717D01*
X2853632Y1732243D02*
X2856026Y1729123D01*
X2850851Y1735023D02*
X2853632Y1732243D01*
X2847731Y1737417D02*
X2850851Y1735023D01*
X2844326Y1739384D02*
X2847731Y1737417D01*
X2840692Y1740889D02*
X2844326Y1739384D01*
X2836894Y1741907D02*
X2840692Y1740889D01*
X2832995Y1742420D02*
X2836894Y1741907D01*
X2831029Y1742420D02*
X2832995D01*
X2822490D02*
X2831029D01*
X2820528Y1742484D02*
X2822490Y1742420D01*
X2816637Y1742996D02*
X2820528Y1742484D01*
X2812847Y1744012D02*
X2816637Y1742996D01*
X2809221Y1745514D02*
X2812847Y1744012D01*
X2805823Y1747476D02*
X2809221Y1745514D01*
X2802710Y1749865D02*
X2805823Y1747476D01*
X2799935Y1752639D02*
X2802710Y1749865D01*
X2797546Y1755753D02*
X2799935Y1752639D01*
X2796509Y1757420D02*
X2797546Y1755753D01*
X2795544Y1759091D02*
X2796509Y1757420D01*
X2793202Y1762159D02*
X2795544Y1759091D01*
X2790486Y1764902D02*
X2793202Y1762159D01*
X2787440Y1767274D02*
X2790486Y1764902D01*
X2785779Y1768255D02*
X2787440Y1767274D01*
X2784136Y1769297D02*
X2785779Y1768255D01*
X2781072Y1771690D02*
X2784136Y1769297D01*
X2778343Y1774459D02*
X2781072Y1771690D01*
X2775994Y1777558D02*
X2778343Y1774459D01*
X2774066Y1780935D02*
X2775994Y1777558D01*
X2772592Y1784532D02*
X2774066Y1780935D01*
X2771595Y1788290D02*
X2772592Y1784532D01*
X2771092Y1792146D02*
X2771595Y1788290D01*
X2771028Y1794090D02*
X2771092Y1792146D01*
X2771028Y1794090D02*
Y1872420D01*
Y1874386D01*
X2770515Y1878285D02*
X2771028Y1874386D01*
X2769497Y1882084D02*
X2770515Y1878285D01*
X2767992Y1885717D02*
X2769497Y1882084D01*
X2766026Y1889123D02*
X2767992Y1885717D01*
X2763632Y1892243D02*
X2766026Y1889123D01*
X2760851Y1895023D02*
X2763632Y1892243D01*
X2757731Y1897417D02*
X2760851Y1895023D01*
X2754326Y1899384D02*
X2757731Y1897417D01*
X2750692Y1900889D02*
X2754326Y1899384D01*
X2746894Y1901907D02*
X2750692Y1900889D01*
X2742995Y1902420D02*
X2746894Y1901907D01*
X2741029Y1902420D02*
X2742995D01*
X121028D02*
X2741029D01*
X119062D02*
X121028D01*
X115163Y1901907D02*
X119062Y1902420D01*
X111365Y1900889D02*
X115163Y1901907D01*
X107731Y1899384D02*
X111365Y1900889D01*
X104326Y1897417D02*
X107731Y1899384D01*
X101206Y1895023D02*
X104326Y1897417D01*
X98425Y1892243D02*
X101206Y1895023D01*
X96031Y1889123D02*
X98425Y1892243D01*
X94065Y1885717D02*
X96031Y1889123D01*
X92560Y1882084D02*
X94065Y1885717D01*
X91542Y1878285D02*
X92560Y1882084D01*
X91028Y1874386D02*
X91542Y1878285D01*
X91028Y1872420D02*
Y1874386D01*
Y1794090D02*
Y1872420D01*
X90965Y1792146D02*
X91028Y1794090D01*
X90463Y1788290D02*
X90965Y1792146D01*
X89465Y1784532D02*
X90463Y1788290D01*
X87991Y1780935D02*
X89465Y1784532D01*
X86063Y1777558D02*
X87991Y1780935D01*
X83714Y1774459D02*
X86063Y1777558D01*
X80985Y1771690D02*
X83714Y1774459D01*
X77920Y1769297D02*
X80985Y1771690D01*
X76279Y1768255D02*
X77920Y1769297D01*
X74616Y1767274D02*
X76279Y1768255D01*
X71571Y1764902D02*
X74616Y1767274D01*
X68855Y1762159D02*
X71571Y1764902D01*
X66513Y1759091D02*
X68855Y1762159D01*
X65548Y1757420D02*
X66513Y1759091D01*
X64511Y1755753D02*
X65548Y1757420D01*
X62122Y1752639D02*
X64511Y1755753D01*
X59347Y1749865D02*
X62122Y1752639D01*
X56234Y1747476D02*
X59347Y1749865D01*
X52836Y1745514D02*
X56234Y1747476D01*
X49210Y1744012D02*
X52836Y1745514D01*
X45420Y1742996D02*
X49210Y1744012D01*
X41529Y1742484D02*
X45420Y1742996D01*
X39567Y1742420D02*
X41529Y1742484D01*
X31028Y1742420D02*
X39567D01*
X29062D02*
X31028D01*
X25163Y1741907D02*
X29062Y1742420D01*
X21365Y1740889D02*
X25163Y1741907D01*
X17731Y1739384D02*
X21365Y1740889D01*
X14325Y1737417D02*
X17731Y1739384D01*
X11206Y1735023D02*
X14325Y1737417D01*
X8425Y1732243D02*
X11206Y1735023D01*
X6031Y1729123D02*
X8425Y1732243D01*
X4065Y1725717D02*
X6031Y1729123D01*
X2560Y1722084D02*
X4065Y1725717D01*
X1542Y1718285D02*
X2560Y1722084D01*
X1028Y1714386D02*
X1542Y1718285D01*
X1028Y1712420D02*
Y1714386D01*
Y192420D02*
Y1712420D01*
Y190454D02*
Y192420D01*
Y190454D02*
X1542Y186555D01*
X2560Y182756D01*
X4065Y179123D01*
X6031Y175717D01*
X8425Y172597D01*
X11206Y169816D01*
X14325Y167422D01*
X17731Y165456D01*
X21365Y163951D01*
X25163Y162933D01*
X29062Y162420D01*
X31028Y162420D01*
X39567D01*
X41529Y162356D01*
X45420Y161844D01*
X49210Y160828D01*
X52836Y159326D01*
X56234Y157364D01*
X59347Y154975D01*
X62122Y152200D01*
X64511Y149087D01*
X65548Y147420D01*
X66513Y145749D01*
X68855Y142681D01*
X71571Y139938D01*
X74616Y137566D01*
X76279Y136585D01*
X91028Y32420D02*
Y110750D01*
X121028Y2420D02*
X2741029D01*
X2771028Y32420D02*
Y110750D01*
X2796509Y147420D02*
X2796509Y147420D01*
X2822490Y162420D02*
Y162420D01*
Y162420D02*
X2831029D01*
X2861029Y192420D02*
Y1712420D01*
X2822490Y1742420D02*
X2831029D01*
X2822490Y1742420D02*
Y1742420D01*
X2796509Y1757420D02*
X2796509Y1757420D01*
X2771028Y1794090D02*
Y1872420D01*
X121028Y1902420D02*
X2741029D01*
X91028Y1794090D02*
Y1872420D01*
X31028Y1742420D02*
X39567D01*
X1028Y192420D02*
Y1712420D01*
X31028Y162420D02*
X39567D01*
X91028Y32420D02*
Y110750D01*
X121028Y2420D02*
X2741029D01*
X2771028Y32420D02*
Y110750D01*
X2796509Y147420D02*
X2796509Y147420D01*
X2822490Y162420D02*
Y162420D01*
Y162420D02*
X2831029D01*
X2861029Y192420D02*
Y1712420D01*
X2822490Y1742420D02*
X2831029D01*
X2822490Y1742420D02*
Y1742420D01*
X2796509Y1757420D02*
X2796509Y1757420D01*
X2771028Y1794090D02*
Y1872420D01*
X121028Y1902420D02*
X2741029D01*
X91028Y1794090D02*
Y1872420D01*
X31028Y1742420D02*
X39567D01*
X1028Y192420D02*
Y1712420D01*
X31028Y162420D02*
X39567D01*
X91028Y32420D02*
Y110750D01*
X121028Y2420D02*
X2741029D01*
X2771028Y32420D02*
Y110750D01*
X2796509Y147420D02*
X2796509Y147420D01*
X2822490Y162420D02*
Y162420D01*
Y162420D02*
X2831029D01*
X2861029Y192420D02*
Y1712420D01*
X2822490Y1742420D02*
X2831029D01*
X2822490Y1742420D02*
Y1742420D01*
X2796509Y1757420D02*
X2796509Y1757420D01*
X2771028Y1794090D02*
Y1872420D01*
X121028Y1902420D02*
X2741029D01*
X91028Y1794090D02*
Y1872420D01*
X31028Y1742420D02*
X39567D01*
X1028Y192420D02*
Y1712420D01*
X31028Y162420D02*
X39567D01*
D20*
X76279Y136585D02*
X77920Y135543D01*
X80985Y133150D01*
X83714Y130381D01*
X86063Y127282D01*
X87991Y123905D01*
X89465Y120308D01*
X90463Y116550D01*
X90965Y112694D01*
X91028Y110750D01*
X91028Y32420D01*
Y30454D02*
Y32420D01*
Y30454D02*
X91542Y26555D01*
X92560Y22756D01*
X94065Y19123D01*
X96031Y15717D01*
X98425Y12597D01*
X101206Y9816D01*
X104326Y7423D01*
X107731Y5456D01*
X111365Y3951D01*
X115163Y2933D01*
X119062Y2420D01*
X121028Y2420D01*
X2741029D01*
X2742995D01*
X2746894Y2933D01*
X2750692Y3951D01*
X2754326Y5456D01*
X2757731Y7423D01*
X2760851Y9816D01*
X2763632Y12597D01*
X2766026Y15717D01*
X2767992Y19123D01*
X2769497Y22756D01*
X2770515Y26555D01*
X2771028Y30454D01*
Y32420D01*
Y110750D01*
X2771092Y112694D01*
X2771595Y116550D01*
X2772592Y120308D01*
X2774066Y123905D01*
X2775994Y127282D01*
X2778343Y130381D01*
X2781072Y133150D01*
X2784136Y135543D01*
X2785779Y136585D01*
X2787440Y137566D01*
X2790486Y139938D01*
X2793202Y142681D01*
X2795544Y145749D01*
X2796509Y147420D01*
X2797546Y149087D01*
X2799935Y152200D01*
X2802710Y154975D01*
X2805823Y157364D01*
X2809221Y159326D01*
X2812847Y160828D01*
X2816637Y161844D01*
X2820528Y162356D01*
X2822490Y162420D01*
X2831029D01*
X2832995D01*
X2836894Y162933D01*
X2840692Y163951D01*
X2844326Y165456D01*
X2847731Y167422D01*
X2850851Y169816D01*
X2853632Y172597D01*
X2856026Y175717D01*
X2857993Y179123D01*
X2859497Y182756D01*
X2860515Y186555D01*
X2861029Y190454D01*
Y192420D01*
Y1712420D01*
Y1714386D01*
X2860515Y1718285D02*
X2861029Y1714386D01*
X2859497Y1722084D02*
X2860515Y1718285D01*
X2857993Y1725717D02*
X2859497Y1722084D01*
X2856026Y1729123D02*
X2857993Y1725717D01*
X2853632Y1732243D02*
X2856026Y1729123D01*
X2850851Y1735023D02*
X2853632Y1732243D01*
X2847731Y1737417D02*
X2850851Y1735023D01*
X2844326Y1739384D02*
X2847731Y1737417D01*
X2840692Y1740889D02*
X2844326Y1739384D01*
X2836894Y1741907D02*
X2840692Y1740889D01*
X2832995Y1742420D02*
X2836894Y1741907D01*
X2831029Y1742420D02*
X2832995D01*
X2822490D02*
X2831029D01*
X2820528Y1742484D02*
X2822490Y1742420D01*
X2816637Y1742996D02*
X2820528Y1742484D01*
X2812847Y1744012D02*
X2816637Y1742996D01*
X2809221Y1745514D02*
X2812847Y1744012D01*
X2805823Y1747476D02*
X2809221Y1745514D01*
X2802710Y1749865D02*
X2805823Y1747476D01*
X2799935Y1752639D02*
X2802710Y1749865D01*
X2797546Y1755753D02*
X2799935Y1752639D01*
X2796509Y1757420D02*
X2797546Y1755753D01*
X2795544Y1759091D02*
X2796509Y1757420D01*
X2793202Y1762159D02*
X2795544Y1759091D01*
X2790486Y1764902D02*
X2793202Y1762159D01*
X2787440Y1767274D02*
X2790486Y1764902D01*
X2785779Y1768255D02*
X2787440Y1767274D01*
X2784136Y1769297D02*
X2785779Y1768255D01*
X2781072Y1771690D02*
X2784136Y1769297D01*
X2778343Y1774459D02*
X2781072Y1771690D01*
X2775994Y1777558D02*
X2778343Y1774459D01*
X2774066Y1780935D02*
X2775994Y1777558D01*
X2772592Y1784532D02*
X2774066Y1780935D01*
X2771595Y1788290D02*
X2772592Y1784532D01*
X2771092Y1792146D02*
X2771595Y1788290D01*
X2771028Y1794090D02*
X2771092Y1792146D01*
X2771028Y1794090D02*
Y1872420D01*
Y1874386D01*
X2770515Y1878285D02*
X2771028Y1874386D01*
X2769497Y1882084D02*
X2770515Y1878285D01*
X2767992Y1885717D02*
X2769497Y1882084D01*
X2766026Y1889123D02*
X2767992Y1885717D01*
X2763632Y1892243D02*
X2766026Y1889123D01*
X2760851Y1895023D02*
X2763632Y1892243D01*
X2757731Y1897417D02*
X2760851Y1895023D01*
X2754326Y1899384D02*
X2757731Y1897417D01*
X2750692Y1900889D02*
X2754326Y1899384D01*
X2746894Y1901907D02*
X2750692Y1900889D01*
X2742995Y1902420D02*
X2746894Y1901907D01*
X2741029Y1902420D02*
X2742995D01*
X121028D02*
X2741029D01*
X119062D02*
X121028D01*
X115163Y1901907D02*
X119062Y1902420D01*
X111365Y1900889D02*
X115163Y1901907D01*
X107731Y1899384D02*
X111365Y1900889D01*
X104326Y1897417D02*
X107731Y1899384D01*
X101206Y1895023D02*
X104326Y1897417D01*
X98425Y1892243D02*
X101206Y1895023D01*
X96031Y1889123D02*
X98425Y1892243D01*
X94065Y1885717D02*
X96031Y1889123D01*
X92560Y1882084D02*
X94065Y1885717D01*
X91542Y1878285D02*
X92560Y1882084D01*
X91028Y1874386D02*
X91542Y1878285D01*
X91028Y1872420D02*
Y1874386D01*
Y1794090D02*
Y1872420D01*
X90965Y1792146D02*
X91028Y1794090D01*
X90463Y1788290D02*
X90965Y1792146D01*
X89465Y1784532D02*
X90463Y1788290D01*
X87991Y1780935D02*
X89465Y1784532D01*
X86063Y1777558D02*
X87991Y1780935D01*
X83714Y1774459D02*
X86063Y1777558D01*
X80985Y1771690D02*
X83714Y1774459D01*
X77920Y1769297D02*
X80985Y1771690D01*
X76279Y1768255D02*
X77920Y1769297D01*
X74616Y1767274D02*
X76279Y1768255D01*
X71571Y1764902D02*
X74616Y1767274D01*
X68855Y1762159D02*
X71571Y1764902D01*
X66513Y1759091D02*
X68855Y1762159D01*
X65548Y1757420D02*
X66513Y1759091D01*
X64511Y1755753D02*
X65548Y1757420D01*
X62122Y1752639D02*
X64511Y1755753D01*
X59347Y1749865D02*
X62122Y1752639D01*
X56234Y1747476D02*
X59347Y1749865D01*
X52836Y1745514D02*
X56234Y1747476D01*
X49210Y1744012D02*
X52836Y1745514D01*
X45420Y1742996D02*
X49210Y1744012D01*
X41529Y1742484D02*
X45420Y1742996D01*
X39567Y1742420D02*
X41529Y1742484D01*
X31028Y1742420D02*
X39567D01*
X29062D02*
X31028D01*
X25163Y1741907D02*
X29062Y1742420D01*
X21365Y1740889D02*
X25163Y1741907D01*
X17731Y1739384D02*
X21365Y1740889D01*
X14325Y1737417D02*
X17731Y1739384D01*
X11206Y1735023D02*
X14325Y1737417D01*
X8425Y1732243D02*
X11206Y1735023D01*
X6031Y1729123D02*
X8425Y1732243D01*
X4065Y1725717D02*
X6031Y1729123D01*
X2560Y1722084D02*
X4065Y1725717D01*
X1542Y1718285D02*
X2560Y1722084D01*
X1028Y1714386D02*
X1542Y1718285D01*
X1028Y1712420D02*
Y1714386D01*
Y192420D02*
Y1712420D01*
Y190454D02*
Y192420D01*
Y190454D02*
X1542Y186555D01*
X2560Y182756D01*
X4065Y179123D01*
X6031Y175717D01*
X8425Y172597D01*
X11206Y169816D01*
X14325Y167422D01*
X17731Y165456D01*
X21365Y163951D01*
X25163Y162933D01*
X29062Y162420D01*
X31028Y162420D01*
X39567D01*
X41529Y162356D01*
X45420Y161844D01*
X49210Y160828D01*
X52836Y159326D01*
X56234Y157364D01*
X59347Y154975D01*
X62122Y152200D01*
X64511Y149087D01*
X65548Y147420D01*
X66513Y145749D01*
X68855Y142681D01*
X71571Y139938D01*
X74616Y137566D01*
X76279Y136585D01*
X77920Y135543D01*
X80985Y133150D01*
X83714Y130381D01*
X86063Y127282D01*
X87991Y123905D01*
X89465Y120308D01*
X90463Y116550D01*
X90965Y112694D01*
X91028Y110750D01*
X91028Y32420D01*
Y30454D02*
Y32420D01*
Y30454D02*
X91542Y26555D01*
X92560Y22756D01*
X94065Y19123D01*
X96031Y15717D01*
X98425Y12597D01*
X101206Y9816D01*
X104326Y7423D01*
X107731Y5456D01*
X111365Y3951D01*
X115163Y2933D01*
X119062Y2420D01*
X121028Y2420D01*
X2741029D01*
X2742995D01*
X2746894Y2933D01*
X2750692Y3951D01*
X2754326Y5456D01*
X2757731Y7423D01*
X2760851Y9816D01*
X2763632Y12597D01*
X2766026Y15717D01*
X2767992Y19123D01*
X2769497Y22756D01*
X2770515Y26555D01*
X2771028Y30454D01*
Y32420D01*
Y110750D01*
X2771092Y112694D01*
X2771595Y116550D01*
X2772592Y120308D01*
X2774066Y123905D01*
X2775994Y127282D01*
X2778343Y130381D01*
X2781072Y133150D01*
X2784136Y135543D01*
X2785779Y136585D01*
X2787440Y137566D01*
X2790486Y139938D01*
X2793202Y142681D01*
X2795544Y145749D01*
X2796509Y147420D01*
X2797546Y149087D01*
X2799935Y152200D01*
X2802710Y154975D01*
X2805823Y157364D01*
X2809221Y159326D01*
X2812847Y160828D01*
X2816637Y161844D01*
X2820528Y162356D01*
X2822490Y162420D01*
X2831029D01*
X2832995D01*
X2836894Y162933D01*
X2840692Y163951D01*
X2844326Y165456D01*
X2847731Y167422D01*
X2850851Y169816D01*
X2853632Y172597D01*
X2856026Y175717D01*
X2857993Y179123D01*
X2859497Y182756D01*
X2860515Y186555D01*
X2861029Y190454D01*
Y192420D01*
Y1712420D01*
Y1714386D01*
X2860515Y1718285D02*
X2861029Y1714386D01*
X2859497Y1722084D02*
X2860515Y1718285D01*
X2857993Y1725717D02*
X2859497Y1722084D01*
X2856026Y1729123D02*
X2857993Y1725717D01*
X2853632Y1732243D02*
X2856026Y1729123D01*
X2850851Y1735023D02*
X2853632Y1732243D01*
X2847731Y1737417D02*
X2850851Y1735023D01*
X2844326Y1739384D02*
X2847731Y1737417D01*
X2840692Y1740889D02*
X2844326Y1739384D01*
X2836894Y1741907D02*
X2840692Y1740889D01*
X2832995Y1742420D02*
X2836894Y1741907D01*
X2831029Y1742420D02*
X2832995D01*
X2822490D02*
X2831029D01*
X2820528Y1742484D02*
X2822490Y1742420D01*
X2816637Y1742996D02*
X2820528Y1742484D01*
X2812847Y1744012D02*
X2816637Y1742996D01*
X2809221Y1745514D02*
X2812847Y1744012D01*
X2805823Y1747476D02*
X2809221Y1745514D01*
X2802710Y1749865D02*
X2805823Y1747476D01*
X2799935Y1752639D02*
X2802710Y1749865D01*
X2797546Y1755753D02*
X2799935Y1752639D01*
X2796509Y1757420D02*
X2797546Y1755753D01*
X2795544Y1759091D02*
X2796509Y1757420D01*
X2793202Y1762159D02*
X2795544Y1759091D01*
X2790486Y1764902D02*
X2793202Y1762159D01*
X2787440Y1767274D02*
X2790486Y1764902D01*
X2785779Y1768255D02*
X2787440Y1767274D01*
X2784136Y1769297D02*
X2785779Y1768255D01*
X2781072Y1771690D02*
X2784136Y1769297D01*
X2778343Y1774459D02*
X2781072Y1771690D01*
X2775994Y1777558D02*
X2778343Y1774459D01*
X2774066Y1780935D02*
X2775994Y1777558D01*
X2772592Y1784532D02*
X2774066Y1780935D01*
X2771595Y1788290D02*
X2772592Y1784532D01*
X2771092Y1792146D02*
X2771595Y1788290D01*
X2771028Y1794090D02*
X2771092Y1792146D01*
X2771028Y1794090D02*
Y1872420D01*
Y1874386D01*
X2770515Y1878285D02*
X2771028Y1874386D01*
X2769497Y1882084D02*
X2770515Y1878285D01*
X2767992Y1885717D02*
X2769497Y1882084D01*
X2766026Y1889123D02*
X2767992Y1885717D01*
X2763632Y1892243D02*
X2766026Y1889123D01*
X2760851Y1895023D02*
X2763632Y1892243D01*
X2757731Y1897417D02*
X2760851Y1895023D01*
X2754326Y1899384D02*
X2757731Y1897417D01*
X2750692Y1900889D02*
X2754326Y1899384D01*
X2746894Y1901907D02*
X2750692Y1900889D01*
X2742995Y1902420D02*
X2746894Y1901907D01*
X2741029Y1902420D02*
X2742995D01*
X121028D02*
X2741029D01*
X119062D02*
X121028D01*
X115163Y1901907D02*
X119062Y1902420D01*
X111365Y1900889D02*
X115163Y1901907D01*
X107731Y1899384D02*
X111365Y1900889D01*
X104326Y1897417D02*
X107731Y1899384D01*
X101206Y1895023D02*
X104326Y1897417D01*
X98425Y1892243D02*
X101206Y1895023D01*
X96031Y1889123D02*
X98425Y1892243D01*
X94065Y1885717D02*
X96031Y1889123D01*
X92560Y1882084D02*
X94065Y1885717D01*
X91542Y1878285D02*
X92560Y1882084D01*
X91028Y1874386D02*
X91542Y1878285D01*
X91028Y1872420D02*
Y1874386D01*
Y1794090D02*
Y1872420D01*
X90965Y1792146D02*
X91028Y1794090D01*
X90463Y1788290D02*
X90965Y1792146D01*
X89465Y1784532D02*
X90463Y1788290D01*
X87991Y1780935D02*
X89465Y1784532D01*
X86063Y1777558D02*
X87991Y1780935D01*
X83714Y1774459D02*
X86063Y1777558D01*
X80985Y1771690D02*
X83714Y1774459D01*
X77920Y1769297D02*
X80985Y1771690D01*
X76279Y1768255D02*
X77920Y1769297D01*
X74616Y1767274D02*
X76279Y1768255D01*
X71571Y1764902D02*
X74616Y1767274D01*
X68855Y1762159D02*
X71571Y1764902D01*
X66513Y1759091D02*
X68855Y1762159D01*
X65548Y1757420D02*
X66513Y1759091D01*
X64511Y1755753D02*
X65548Y1757420D01*
X62122Y1752639D02*
X64511Y1755753D01*
X59347Y1749865D02*
X62122Y1752639D01*
X56234Y1747476D02*
X59347Y1749865D01*
X52836Y1745514D02*
X56234Y1747476D01*
X49210Y1744012D02*
X52836Y1745514D01*
X45420Y1742996D02*
X49210Y1744012D01*
X41529Y1742484D02*
X45420Y1742996D01*
X39567Y1742420D02*
X41529Y1742484D01*
X31028Y1742420D02*
X39567D01*
X29062D02*
X31028D01*
X25163Y1741907D02*
X29062Y1742420D01*
X21365Y1740889D02*
X25163Y1741907D01*
X17731Y1739384D02*
X21365Y1740889D01*
X14325Y1737417D02*
X17731Y1739384D01*
X11206Y1735023D02*
X14325Y1737417D01*
X8425Y1732243D02*
X11206Y1735023D01*
X6031Y1729123D02*
X8425Y1732243D01*
X4065Y1725717D02*
X6031Y1729123D01*
X2560Y1722084D02*
X4065Y1725717D01*
X1542Y1718285D02*
X2560Y1722084D01*
X1028Y1714386D02*
X1542Y1718285D01*
X1028Y1712420D02*
Y1714386D01*
Y192420D02*
Y1712420D01*
Y190454D02*
Y192420D01*
Y190454D02*
X1542Y186555D01*
X2560Y182756D01*
X4065Y179123D01*
X6031Y175717D01*
X8425Y172597D01*
X11206Y169816D01*
X14325Y167422D01*
X17731Y165456D01*
X21365Y163951D01*
X25163Y162933D01*
X29062Y162420D01*
X31028Y162420D01*
X39567D01*
X41529Y162356D01*
X45420Y161844D01*
X49210Y160828D01*
X52836Y159326D01*
X56234Y157364D01*
X59347Y154975D01*
X62122Y152200D01*
X64511Y149087D01*
X65548Y147420D01*
X66513Y145749D01*
X68855Y142681D01*
X71571Y139938D01*
X74616Y137566D01*
X76279Y136585D01*
X77920Y135543D01*
X80985Y133150D01*
X83714Y130381D01*
X86063Y127282D01*
X87991Y123905D01*
X89465Y120308D01*
X90463Y116550D01*
X90965Y112694D01*
X91028Y110750D01*
X91028Y32420D01*
Y30454D02*
Y32420D01*
Y30454D02*
X91542Y26555D01*
X92560Y22756D01*
X94065Y19123D01*
X96031Y15717D01*
X98425Y12597D01*
X101206Y9816D01*
X104326Y7423D01*
X107731Y5456D01*
X111365Y3951D01*
X115163Y2933D01*
X119062Y2420D01*
X121028Y2420D01*
X2741029D01*
X2742995D01*
X2746894Y2933D01*
X2750692Y3951D01*
X2754326Y5456D01*
X2757731Y7423D01*
X2760851Y9816D01*
X2763632Y12597D01*
X2766026Y15717D01*
X2767992Y19123D01*
X2769497Y22756D01*
X2770515Y26555D01*
X2771028Y30454D01*
Y32420D01*
Y110750D01*
X2771092Y112694D01*
X2771595Y116550D01*
X2772592Y120308D01*
X2774066Y123905D01*
X2775994Y127282D01*
X2778343Y130381D01*
X2781072Y133150D01*
X2784136Y135543D01*
X2785779Y136585D01*
X2787440Y137566D01*
X2790486Y139938D01*
X2793202Y142681D01*
X2795544Y145749D01*
X2796509Y147420D01*
X2797546Y149087D01*
X2799935Y152200D01*
X2802710Y154975D01*
X2805823Y157364D01*
X2809221Y159326D01*
X2812847Y160828D01*
X2816637Y161844D01*
X2820528Y162356D01*
X2822490Y162420D01*
X2831029D01*
X2832995D01*
X2836894Y162933D01*
X2840692Y163951D01*
X2844326Y165456D01*
X2847731Y167422D01*
X2850851Y169816D01*
X2853632Y172597D01*
X2856026Y175717D01*
X2857993Y179123D01*
X2859497Y182756D01*
X2860515Y186555D01*
X2861029Y190454D01*
Y192420D01*
Y1712420D01*
Y1714386D01*
X2860515Y1718285D02*
X2861029Y1714386D01*
X2859497Y1722084D02*
X2860515Y1718285D01*
X2857993Y1725717D02*
X2859497Y1722084D01*
X2856026Y1729123D02*
X2857993Y1725717D01*
X2853632Y1732243D02*
X2856026Y1729123D01*
X2850851Y1735023D02*
X2853632Y1732243D01*
X2847731Y1737417D02*
X2850851Y1735023D01*
X2844326Y1739384D02*
X2847731Y1737417D01*
X2840692Y1740889D02*
X2844326Y1739384D01*
X2836894Y1741907D02*
X2840692Y1740889D01*
X2832995Y1742420D02*
X2836894Y1741907D01*
X2831029Y1742420D02*
X2832995D01*
X2822490D02*
X2831029D01*
X2820528Y1742484D02*
X2822490Y1742420D01*
X2816637Y1742996D02*
X2820528Y1742484D01*
X2812847Y1744012D02*
X2816637Y1742996D01*
X2809221Y1745514D02*
X2812847Y1744012D01*
X2805823Y1747476D02*
X2809221Y1745514D01*
X2802710Y1749865D02*
X2805823Y1747476D01*
X2799935Y1752639D02*
X2802710Y1749865D01*
X2797546Y1755753D02*
X2799935Y1752639D01*
X2796509Y1757420D02*
X2797546Y1755753D01*
X2795544Y1759091D02*
X2796509Y1757420D01*
X2793202Y1762159D02*
X2795544Y1759091D01*
X2790486Y1764902D02*
X2793202Y1762159D01*
X2787440Y1767274D02*
X2790486Y1764902D01*
X2785779Y1768255D02*
X2787440Y1767274D01*
X2784136Y1769297D02*
X2785779Y1768255D01*
X2781072Y1771690D02*
X2784136Y1769297D01*
X2778343Y1774459D02*
X2781072Y1771690D01*
X2775994Y1777558D02*
X2778343Y1774459D01*
X2774066Y1780935D02*
X2775994Y1777558D01*
X2772592Y1784532D02*
X2774066Y1780935D01*
X2771595Y1788290D02*
X2772592Y1784532D01*
X2771092Y1792146D02*
X2771595Y1788290D01*
X2771028Y1794090D02*
X2771092Y1792146D01*
X2771028Y1794090D02*
Y1872420D01*
Y1874386D01*
X2770515Y1878285D02*
X2771028Y1874386D01*
X2769497Y1882084D02*
X2770515Y1878285D01*
X2767992Y1885717D02*
X2769497Y1882084D01*
X2766026Y1889123D02*
X2767992Y1885717D01*
X2763632Y1892243D02*
X2766026Y1889123D01*
X2760851Y1895023D02*
X2763632Y1892243D01*
X2757731Y1897417D02*
X2760851Y1895023D01*
X2754326Y1899384D02*
X2757731Y1897417D01*
X2750692Y1900889D02*
X2754326Y1899384D01*
X2746894Y1901907D02*
X2750692Y1900889D01*
X2742995Y1902420D02*
X2746894Y1901907D01*
X2741029Y1902420D02*
X2742995D01*
X121028D02*
X2741029D01*
X119062D02*
X121028D01*
X115163Y1901907D02*
X119062Y1902420D01*
X111365Y1900889D02*
X115163Y1901907D01*
X107731Y1899384D02*
X111365Y1900889D01*
X104326Y1897417D02*
X107731Y1899384D01*
X101206Y1895023D02*
X104326Y1897417D01*
X98425Y1892243D02*
X101206Y1895023D01*
X96031Y1889123D02*
X98425Y1892243D01*
X94065Y1885717D02*
X96031Y1889123D01*
X92560Y1882084D02*
X94065Y1885717D01*
X91542Y1878285D02*
X92560Y1882084D01*
X91028Y1874386D02*
X91542Y1878285D01*
X91028Y1872420D02*
Y1874386D01*
Y1794090D02*
Y1872420D01*
X90965Y1792146D02*
X91028Y1794090D01*
X90463Y1788290D02*
X90965Y1792146D01*
X89465Y1784532D02*
X90463Y1788290D01*
X87991Y1780935D02*
X89465Y1784532D01*
X86063Y1777558D02*
X87991Y1780935D01*
X83714Y1774459D02*
X86063Y1777558D01*
X80985Y1771690D02*
X83714Y1774459D01*
X77920Y1769297D02*
X80985Y1771690D01*
X76279Y1768255D02*
X77920Y1769297D01*
X74616Y1767274D02*
X76279Y1768255D01*
X71571Y1764902D02*
X74616Y1767274D01*
X68855Y1762159D02*
X71571Y1764902D01*
X66513Y1759091D02*
X68855Y1762159D01*
X65548Y1757420D02*
X66513Y1759091D01*
X64511Y1755753D02*
X65548Y1757420D01*
X62122Y1752639D02*
X64511Y1755753D01*
X59347Y1749865D02*
X62122Y1752639D01*
X56234Y1747476D02*
X59347Y1749865D01*
X52836Y1745514D02*
X56234Y1747476D01*
X49210Y1744012D02*
X52836Y1745514D01*
X45420Y1742996D02*
X49210Y1744012D01*
X41529Y1742484D02*
X45420Y1742996D01*
X39567Y1742420D02*
X41529Y1742484D01*
X31028Y1742420D02*
X39567D01*
X29062D02*
X31028D01*
X25163Y1741907D02*
X29062Y1742420D01*
X21365Y1740889D02*
X25163Y1741907D01*
X17731Y1739384D02*
X21365Y1740889D01*
X14325Y1737417D02*
X17731Y1739384D01*
X11206Y1735023D02*
X14325Y1737417D01*
X8425Y1732243D02*
X11206Y1735023D01*
X6031Y1729123D02*
X8425Y1732243D01*
X4065Y1725717D02*
X6031Y1729123D01*
X2560Y1722084D02*
X4065Y1725717D01*
X1542Y1718285D02*
X2560Y1722084D01*
X1028Y1714386D02*
X1542Y1718285D01*
X1028Y1712420D02*
Y1714386D01*
Y192420D02*
Y1712420D01*
Y190454D02*
Y192420D01*
Y190454D02*
X1542Y186555D01*
X2560Y182756D01*
X4065Y179123D01*
X6031Y175717D01*
X8425Y172597D01*
X11206Y169816D01*
X14325Y167422D01*
X17731Y165456D01*
X21365Y163951D01*
X25163Y162933D01*
X29062Y162420D01*
X31028Y162420D01*
X39567D01*
X41529Y162356D01*
X45420Y161844D01*
X49210Y160828D01*
X52836Y159326D01*
X56234Y157364D01*
X59347Y154975D01*
X62122Y152200D01*
X64511Y149087D01*
X65548Y147420D01*
X66513Y145749D01*
X68855Y142681D01*
X71571Y139938D01*
X74616Y137566D01*
X76279Y136585D01*
X77920Y135543D01*
X80985Y133150D01*
X83714Y130381D01*
X86063Y127282D01*
X87991Y123905D01*
X89465Y120308D01*
X90463Y116550D01*
X90965Y112694D01*
X91028Y110750D01*
X91028Y32420D01*
Y30454D02*
Y32420D01*
Y30454D02*
X91542Y26555D01*
X92560Y22756D01*
X94065Y19123D01*
X96031Y15717D01*
X98425Y12597D01*
X101206Y9816D01*
X104326Y7423D01*
X107731Y5456D01*
X111365Y3951D01*
X115163Y2933D01*
X119062Y2420D01*
X121028Y2420D01*
X2741029D01*
X2742995D01*
X2746894Y2933D01*
X2750692Y3951D01*
X2754326Y5456D01*
X2757731Y7423D01*
X2760851Y9816D01*
X2763632Y12597D01*
X2766026Y15717D01*
X2767992Y19123D01*
X2769497Y22756D01*
X2770515Y26555D01*
X2771028Y30454D01*
Y32420D01*
Y110750D01*
X2771092Y112694D01*
X2771595Y116550D01*
X2772592Y120308D01*
X2774066Y123905D01*
X2775994Y127282D01*
X2778343Y130381D01*
X2781072Y133150D01*
X2784136Y135543D01*
X2785779Y136585D01*
X2787440Y137566D01*
X2790486Y139938D01*
X2793202Y142681D01*
X2795544Y145749D01*
X2796509Y147420D01*
X2797546Y149087D01*
X2799935Y152200D01*
X2802710Y154975D01*
X2805823Y157364D01*
X2809221Y159326D01*
X2812847Y160828D01*
X2816637Y161844D01*
X2820528Y162356D01*
X2822490Y162420D01*
X2831029D01*
X2832995D02*
X2836894Y162933D01*
X2840692Y163951D01*
X2844326Y165456D01*
X2847731Y167422D01*
X2850851Y169816D01*
X2853632Y172597D01*
X2856026Y175717D01*
X2857993Y179123D01*
X2859497Y182756D01*
X2860515Y186555D01*
X2861029Y190454D01*
Y192420D01*
Y1712420D01*
Y1714386D01*
X2860515Y1718285D02*
X2861029Y1714386D01*
X2859497Y1722084D02*
X2860515Y1718285D01*
X2857993Y1725717D02*
X2859497Y1722084D01*
X2856026Y1729123D02*
X2857993Y1725717D01*
X2853632Y1732243D02*
X2856026Y1729123D01*
X2850851Y1735023D02*
X2853632Y1732243D01*
X2847731Y1737417D02*
X2850851Y1735023D01*
X2844326Y1739384D02*
X2847731Y1737417D01*
X2840692Y1740889D02*
X2844326Y1739384D01*
X2836894Y1741907D02*
X2840692Y1740889D01*
X2832995Y1742420D02*
X2836894Y1741907D01*
X2831029Y1742420D02*
X2832995D01*
X2822490D02*
X2831029D01*
X2820528Y1742484D02*
X2822490Y1742420D01*
X2816637Y1742996D02*
X2820528Y1742484D01*
X2812847Y1744012D02*
X2816637Y1742996D01*
X2809221Y1745514D02*
X2812847Y1744012D01*
X2805823Y1747476D02*
X2809221Y1745514D01*
X2802710Y1749865D02*
X2805823Y1747476D01*
X2799935Y1752639D02*
X2802710Y1749865D01*
X2797546Y1755753D02*
X2799935Y1752639D01*
X2796509Y1757420D02*
X2797546Y1755753D01*
X2795544Y1759091D02*
X2796509Y1757420D01*
X2793202Y1762159D02*
X2795544Y1759091D01*
X2790486Y1764902D02*
X2793202Y1762159D01*
X2787440Y1767274D02*
X2790486Y1764902D01*
X2785779Y1768255D02*
X2787440Y1767274D01*
X2784136Y1769297D02*
X2785779Y1768255D01*
X2781072Y1771690D02*
X2784136Y1769297D01*
X2778343Y1774459D02*
X2781072Y1771690D01*
X2775994Y1777558D02*
X2778343Y1774459D01*
X2774066Y1780935D02*
X2775994Y1777558D01*
X2772592Y1784532D02*
X2774066Y1780935D01*
X2771595Y1788290D02*
X2772592Y1784532D01*
X2771092Y1792146D02*
X2771595Y1788290D01*
X2771028Y1794090D02*
X2771092Y1792146D01*
X2771028Y1794090D02*
Y1872420D01*
Y1874386D01*
X2770515Y1878285D02*
X2771028Y1874386D01*
X2769497Y1882084D02*
X2770515Y1878285D01*
X2767992Y1885717D02*
X2769497Y1882084D01*
X2766026Y1889123D02*
X2767992Y1885717D01*
X2763632Y1892243D02*
X2766026Y1889123D01*
X2760851Y1895023D02*
X2763632Y1892243D01*
X2757731Y1897417D02*
X2760851Y1895023D01*
X2754326Y1899384D02*
X2757731Y1897417D01*
X2750692Y1900889D02*
X2754326Y1899384D01*
X2746894Y1901907D02*
X2750692Y1900889D01*
X2742995Y1902420D02*
X2746894Y1901907D01*
X2741029Y1902420D02*
X2742995D01*
X121028D02*
X2741029D01*
X119062D02*
X121028D01*
X115163Y1901907D02*
X119062Y1902420D01*
X111365Y1900889D02*
X115163Y1901907D01*
X107731Y1899384D02*
X111365Y1900889D01*
X104326Y1897417D02*
X107731Y1899384D01*
X101206Y1895023D02*
X104326Y1897417D01*
X98425Y1892243D02*
X101206Y1895023D01*
X96031Y1889123D02*
X98425Y1892243D01*
X94065Y1885717D02*
X96031Y1889123D01*
X92560Y1882084D02*
X94065Y1885717D01*
X91542Y1878285D02*
X92560Y1882084D01*
X91028Y1874386D02*
X91542Y1878285D01*
X91028Y1872420D02*
Y1874386D01*
Y1794090D02*
Y1872420D01*
X90965Y1792146D02*
X91028Y1794090D01*
X90463Y1788290D02*
X90965Y1792146D01*
X89465Y1784532D02*
X90463Y1788290D01*
X87991Y1780935D02*
X89465Y1784532D01*
X86063Y1777558D02*
X87991Y1780935D01*
X83714Y1774459D02*
X86063Y1777558D01*
X80985Y1771690D02*
X83714Y1774459D01*
X77920Y1769297D02*
X80985Y1771690D01*
X76279Y1768255D02*
X77920Y1769297D01*
X74616Y1767274D02*
X76279Y1768255D01*
X71571Y1764902D02*
X74616Y1767274D01*
X68855Y1762159D02*
X71571Y1764902D01*
X66513Y1759091D02*
X68855Y1762159D01*
X65548Y1757420D02*
X66513Y1759091D01*
X64511Y1755753D02*
X65548Y1757420D01*
X62122Y1752639D02*
X64511Y1755753D01*
X59347Y1749865D02*
X62122Y1752639D01*
X56234Y1747476D02*
X59347Y1749865D01*
X52836Y1745514D02*
X56234Y1747476D01*
X49210Y1744012D02*
X52836Y1745514D01*
X45420Y1742996D02*
X49210Y1744012D01*
X41529Y1742484D02*
X45420Y1742996D01*
X39567Y1742420D02*
X41529Y1742484D01*
X31028Y1742420D02*
X39567D01*
X29062D02*
X31028D01*
X25163Y1741907D02*
X29062Y1742420D01*
X21365Y1740889D02*
X25163Y1741907D01*
X17731Y1739384D02*
X21365Y1740889D01*
X14325Y1737417D02*
X17731Y1739384D01*
X11206Y1735023D02*
X14325Y1737417D01*
X8425Y1732243D02*
X11206Y1735023D01*
X6031Y1729123D02*
X8425Y1732243D01*
X4065Y1725717D02*
X6031Y1729123D01*
X2560Y1722084D02*
X4065Y1725717D01*
X1542Y1718285D02*
X2560Y1722084D01*
X1028Y1714386D02*
X1542Y1718285D01*
X1028Y1712420D02*
Y1714386D01*
Y192420D02*
Y1712420D01*
Y190454D02*
Y192420D01*
Y190454D02*
X1542Y186555D01*
X2560Y182756D01*
X4065Y179123D01*
X6031Y175717D01*
X8425Y172597D01*
X11206Y169816D01*
X14325Y167422D01*
X17731Y165456D01*
X21365Y163951D01*
X25163Y162933D01*
X29062Y162420D01*
X31028Y162420D01*
X39567D01*
X41529Y162356D01*
X45420Y161844D01*
X49210Y160828D01*
X52836Y159326D01*
X56234Y157364D01*
X59347Y154975D01*
X62122Y152200D01*
X64511Y149087D01*
X65548Y147420D01*
X66513Y145749D01*
X68855Y142681D01*
X71571Y139938D01*
X74616Y137566D01*
X76279Y136585D01*
X77920Y135543D01*
X80985Y133150D01*
X83714Y130381D01*
X86063Y127282D01*
X87991Y123905D01*
X89465Y120308D01*
X90463Y116550D01*
X90965Y112694D01*
X91028Y110750D01*
X91028Y32420D01*
Y30454D02*
Y32420D01*
Y30454D02*
X91542Y26555D01*
X92560Y22756D01*
X94065Y19123D01*
X96031Y15717D01*
X98425Y12597D01*
X101206Y9816D01*
X104326Y7423D01*
X107731Y5456D01*
X111365Y3951D01*
X115163Y2933D01*
X119062Y2420D01*
X121028Y2420D01*
X2741029D01*
X2742995D01*
X2746894Y2933D01*
X2750692Y3951D01*
X2754326Y5456D01*
X2757731Y7423D01*
X2760851Y9816D01*
X2763632Y12597D01*
X2766026Y15717D01*
X2767992Y19123D01*
X2769497Y22756D01*
X2770515Y26555D01*
X2771028Y30454D01*
Y32420D01*
Y110750D01*
X2771092Y112694D01*
X2771595Y116550D01*
X2772592Y120308D01*
X2774066Y123905D01*
X2775994Y127282D01*
X2778343Y130381D01*
X2781072Y133150D01*
X2784136Y135543D01*
X2785779Y136585D01*
X2787440Y137566D01*
X2790486Y139938D01*
X2793202Y142681D01*
X2795544Y145749D01*
X2796509Y147420D01*
X2797546Y149087D01*
X2799935Y152200D01*
X2802710Y154975D01*
X2805823Y157364D01*
X2809221Y159326D01*
X2812847Y160828D01*
X2816637Y161844D01*
X2820528Y162356D01*
X2822490Y162420D01*
X2831029D01*
X2832995D01*
X2836894Y162933D01*
X2840692Y163951D01*
X2844326Y165456D01*
X2847731Y167422D01*
X2850851Y169816D01*
X2853632Y172597D01*
X2856026Y175717D01*
X2857993Y179123D01*
X2859497Y182756D01*
X2860515Y186555D01*
X2861029Y190454D01*
Y192420D01*
Y1712420D01*
Y1714386D01*
X2860515Y1718285D02*
X2861029Y1714386D01*
X2859497Y1722084D02*
X2860515Y1718285D01*
X2857993Y1725717D02*
X2859497Y1722084D01*
X2856026Y1729123D02*
X2857993Y1725717D01*
X2853632Y1732243D02*
X2856026Y1729123D01*
X2850851Y1735023D02*
X2853632Y1732243D01*
X2847731Y1737417D02*
X2850851Y1735023D01*
X2844326Y1739384D02*
X2847731Y1737417D01*
X2840692Y1740889D02*
X2844326Y1739384D01*
X2836894Y1741907D02*
X2840692Y1740889D01*
X2832995Y1742420D02*
X2836894Y1741907D01*
X2831029Y1742420D02*
X2832995D01*
X2822490D02*
X2831029D01*
X2820528Y1742484D02*
X2822490Y1742420D01*
X2816637Y1742996D02*
X2820528Y1742484D01*
X2812847Y1744012D02*
X2816637Y1742996D01*
X2809221Y1745514D02*
X2812847Y1744012D01*
X2805823Y1747476D02*
X2809221Y1745514D01*
X2802710Y1749865D02*
X2805823Y1747476D01*
X2799935Y1752639D02*
X2802710Y1749865D01*
X2797546Y1755753D02*
X2799935Y1752639D01*
X2796509Y1757420D02*
X2797546Y1755753D01*
X2795544Y1759091D02*
X2796509Y1757420D01*
X2793202Y1762159D02*
X2795544Y1759091D01*
X2790486Y1764902D02*
X2793202Y1762159D01*
X2787440Y1767274D02*
X2790486Y1764902D01*
X2785779Y1768255D02*
X2787440Y1767274D01*
X2784136Y1769297D02*
X2785779Y1768255D01*
X2781072Y1771690D02*
X2784136Y1769297D01*
X2778343Y1774459D02*
X2781072Y1771690D01*
X2775994Y1777558D02*
X2778343Y1774459D01*
X2774066Y1780935D02*
X2775994Y1777558D01*
X2772592Y1784532D02*
X2774066Y1780935D01*
X2771595Y1788290D02*
X2772592Y1784532D01*
X2771092Y1792146D02*
X2771595Y1788290D01*
X2771028Y1794090D02*
X2771092Y1792146D01*
X2771028Y1794090D02*
Y1872420D01*
Y1874386D01*
X2770515Y1878285D02*
X2771028Y1874386D01*
X2769497Y1882084D02*
X2770515Y1878285D01*
X2767992Y1885717D02*
X2769497Y1882084D01*
X2766026Y1889123D02*
X2767992Y1885717D01*
X2763632Y1892243D02*
X2766026Y1889123D01*
X2760851Y1895023D02*
X2763632Y1892243D01*
X2757731Y1897417D02*
X2760851Y1895023D01*
X2754326Y1899384D02*
X2757731Y1897417D01*
X2750692Y1900889D02*
X2754326Y1899384D01*
X2746894Y1901907D02*
X2750692Y1900889D01*
X2742995Y1902420D02*
X2746894Y1901907D01*
X2741029Y1902420D02*
X2742995D01*
X121028D02*
X2741029D01*
X119062D02*
X121028D01*
X115163Y1901907D02*
X119062Y1902420D01*
X111365Y1900889D02*
X115163Y1901907D01*
X107731Y1899384D02*
X111365Y1900889D01*
X104326Y1897417D02*
X107731Y1899384D01*
X101206Y1895023D02*
X104326Y1897417D01*
X98425Y1892243D02*
X101206Y1895023D01*
X96031Y1889123D02*
X98425Y1892243D01*
X94065Y1885717D02*
X96031Y1889123D01*
X92560Y1882084D02*
X94065Y1885717D01*
X91542Y1878285D02*
X92560Y1882084D01*
X91028Y1874386D02*
X91542Y1878285D01*
X91028Y1872420D02*
Y1874386D01*
Y1794090D02*
Y1872420D01*
X90965Y1792146D02*
X91028Y1794090D01*
X90463Y1788290D02*
X90965Y1792146D01*
X89465Y1784532D02*
X90463Y1788290D01*
X87991Y1780935D02*
X89465Y1784532D01*
X86063Y1777558D02*
X87991Y1780935D01*
X83714Y1774459D02*
X86063Y1777558D01*
X80985Y1771690D02*
X83714Y1774459D01*
X77920Y1769297D02*
X80985Y1771690D01*
X76279Y1768255D02*
X77920Y1769297D01*
X74616Y1767274D02*
X76279Y1768255D01*
X71571Y1764902D02*
X74616Y1767274D01*
X68855Y1762159D02*
X71571Y1764902D01*
X66513Y1759091D02*
X68855Y1762159D01*
X65548Y1757420D02*
X66513Y1759091D01*
X64511Y1755753D02*
X65548Y1757420D01*
X62122Y1752639D02*
X64511Y1755753D01*
X59347Y1749865D02*
X62122Y1752639D01*
X56234Y1747476D02*
X59347Y1749865D01*
X52836Y1745514D02*
X56234Y1747476D01*
X49210Y1744012D02*
X52836Y1745514D01*
X45420Y1742996D02*
X49210Y1744012D01*
X41529Y1742484D02*
X45420Y1742996D01*
X39567Y1742420D02*
X41529Y1742484D01*
X31028Y1742420D02*
X39567D01*
X29062D02*
X31028D01*
X25163Y1741907D02*
X29062Y1742420D01*
X21365Y1740889D02*
X25163Y1741907D01*
X17731Y1739384D02*
X21365Y1740889D01*
X14325Y1737417D02*
X17731Y1739384D01*
X11206Y1735023D02*
X14325Y1737417D01*
X8425Y1732243D02*
X11206Y1735023D01*
X6031Y1729123D02*
X8425Y1732243D01*
X4065Y1725717D02*
X6031Y1729123D01*
X2560Y1722084D02*
X4065Y1725717D01*
X1542Y1718285D02*
X2560Y1722084D01*
X1028Y1714386D02*
X1542Y1718285D01*
X1028Y1712420D02*
Y1714386D01*
Y192420D02*
Y1712420D01*
Y190454D02*
Y192420D01*
Y190454D02*
X1542Y186555D01*
X2560Y182756D01*
X4065Y179123D01*
X6031Y175717D01*
X8425Y172597D01*
X11206Y169816D01*
X14325Y167422D01*
X17731Y165456D01*
X21365Y163951D01*
X25163Y162933D01*
X29062Y162420D01*
X31028Y162420D01*
X39567D01*
X41529Y162356D01*
X45420Y161844D01*
X49210Y160828D01*
X52836Y159326D01*
X56234Y157364D01*
X59347Y154975D01*
X62122Y152200D01*
X64511Y149087D01*
X65548Y147420D01*
X66513Y145749D01*
X68855Y142681D01*
X71571Y139938D01*
X74616Y137566D01*
X76279Y136585D01*
X77920Y135543D01*
X80985Y133150D01*
X83714Y130381D01*
X86063Y127282D01*
X87991Y123905D01*
X89465Y120308D01*
X90463Y116550D01*
X90965Y112694D01*
X91028Y110750D01*
X91028Y32420D01*
Y30454D02*
Y32420D01*
Y30454D02*
X91542Y26555D01*
X92560Y22756D01*
X94065Y19123D01*
X96031Y15717D01*
X98425Y12597D01*
X101206Y9816D01*
X104326Y7423D01*
X107731Y5456D01*
X111365Y3951D01*
X115163Y2933D01*
X119062Y2420D01*
X121028Y2420D01*
X2741029D01*
X2742995D01*
X2746894Y2933D01*
X2750692Y3951D01*
X2754326Y5456D01*
X2757731Y7423D01*
X2760851Y9816D01*
X2763632Y12597D01*
X2766026Y15717D01*
X2767992Y19123D01*
X2769497Y22756D01*
X2770515Y26555D01*
X2771028Y30454D01*
Y32420D01*
Y110750D01*
X2771092Y112694D01*
X2771595Y116550D01*
X2772592Y120308D01*
X2774066Y123905D01*
X2775994Y127282D01*
X2778343Y130381D01*
X2781072Y133150D01*
X2784136Y135543D01*
X2785779Y136585D01*
X2787440Y137566D01*
X2790486Y139938D01*
X2793202Y142681D01*
X2795544Y145749D01*
X2796509Y147420D01*
X2797546Y149087D01*
X2799935Y152200D01*
X2802710Y154975D01*
X2805823Y157364D01*
X2809221Y159326D01*
X2812847Y160828D01*
X2816637Y161844D01*
X2820528Y162356D01*
X2822490Y162420D01*
X2831029D01*
X2832995D01*
X2836894Y162933D01*
X2840692Y163951D01*
X2844326Y165456D01*
X2847731Y167422D01*
X2850851Y169816D01*
X2853632Y172597D01*
X2856026Y175717D01*
X2857993Y179123D01*
X2859497Y182756D01*
X2860515Y186555D01*
X2861029Y190454D01*
Y192420D01*
Y1712420D01*
Y1714386D01*
X2860515Y1718285D02*
X2861029Y1714386D01*
X2859497Y1722084D02*
X2860515Y1718285D01*
X2857993Y1725717D02*
X2859497Y1722084D01*
X2856026Y1729123D02*
X2857993Y1725717D01*
X2853632Y1732243D02*
X2856026Y1729123D01*
X2850851Y1735023D02*
X2853632Y1732243D01*
X2847731Y1737417D02*
X2850851Y1735023D01*
X2844326Y1739384D02*
X2847731Y1737417D01*
X2840692Y1740889D02*
X2844326Y1739384D01*
X2836894Y1741907D02*
X2840692Y1740889D01*
X2832995Y1742420D02*
X2836894Y1741907D01*
X2831029Y1742420D02*
X2832995D01*
X2822490D02*
X2831029D01*
X2820528Y1742484D02*
X2822490Y1742420D01*
X2816637Y1742996D02*
X2820528Y1742484D01*
X2812847Y1744012D02*
X2816637Y1742996D01*
X2809221Y1745514D02*
X2812847Y1744012D01*
X2805823Y1747476D02*
X2809221Y1745514D01*
X2802710Y1749865D02*
X2805823Y1747476D01*
X2799935Y1752639D02*
X2802710Y1749865D01*
X2797546Y1755753D02*
X2799935Y1752639D01*
X2796509Y1757420D02*
X2797546Y1755753D01*
X2795544Y1759091D02*
X2796509Y1757420D01*
X2793202Y1762159D02*
X2795544Y1759091D01*
X2790486Y1764902D02*
X2793202Y1762159D01*
X2787440Y1767274D02*
X2790486Y1764902D01*
X2785779Y1768255D02*
X2787440Y1767274D01*
X2784136Y1769297D02*
X2785779Y1768255D01*
X2781072Y1771690D02*
X2784136Y1769297D01*
X2778343Y1774459D02*
X2781072Y1771690D01*
X2775994Y1777558D02*
X2778343Y1774459D01*
X2774066Y1780935D02*
X2775994Y1777558D01*
X2772592Y1784532D02*
X2774066Y1780935D01*
X2771595Y1788290D02*
X2772592Y1784532D01*
X2771092Y1792146D02*
X2771595Y1788290D01*
X2771028Y1794090D02*
X2771092Y1792146D01*
X2771028Y1794090D02*
Y1872420D01*
Y1874386D01*
X2770515Y1878285D02*
X2771028Y1874386D01*
X2769497Y1882084D02*
X2770515Y1878285D01*
X2767992Y1885717D02*
X2769497Y1882084D01*
X2766026Y1889123D02*
X2767992Y1885717D01*
X2763632Y1892243D02*
X2766026Y1889123D01*
X2760851Y1895023D02*
X2763632Y1892243D01*
X2757731Y1897417D02*
X2760851Y1895023D01*
X2754326Y1899384D02*
X2757731Y1897417D01*
X2750692Y1900889D02*
X2754326Y1899384D01*
X2746894Y1901907D02*
X2750692Y1900889D01*
X2742995Y1902420D02*
X2746894Y1901907D01*
X2741029Y1902420D02*
X2742995D01*
X121028D02*
X2741029D01*
X119062D02*
X121028D01*
X115163Y1901907D02*
X119062Y1902420D01*
X111365Y1900889D02*
X115163Y1901907D01*
X107731Y1899384D02*
X111365Y1900889D01*
X104326Y1897417D02*
X107731Y1899384D01*
X101206Y1895023D02*
X104326Y1897417D01*
X98425Y1892243D02*
X101206Y1895023D01*
X96031Y1889123D02*
X98425Y1892243D01*
X94065Y1885717D02*
X96031Y1889123D01*
X92560Y1882084D02*
X94065Y1885717D01*
X91542Y1878285D02*
X92560Y1882084D01*
X91028Y1874386D02*
X91542Y1878285D01*
X91028Y1872420D02*
Y1874386D01*
Y1794090D02*
Y1872420D01*
X90965Y1792146D02*
X91028Y1794090D01*
X90463Y1788290D02*
X90965Y1792146D01*
X89465Y1784532D02*
X90463Y1788290D01*
X87991Y1780935D02*
X89465Y1784532D01*
X86063Y1777558D02*
X87991Y1780935D01*
X83714Y1774459D02*
X86063Y1777558D01*
X80985Y1771690D02*
X83714Y1774459D01*
X77920Y1769297D02*
X80985Y1771690D01*
X76279Y1768255D02*
X77920Y1769297D01*
X74616Y1767274D02*
X76279Y1768255D01*
X71571Y1764902D02*
X74616Y1767274D01*
X68855Y1762159D02*
X71571Y1764902D01*
X66513Y1759091D02*
X68855Y1762159D01*
X65548Y1757420D02*
X66513Y1759091D01*
X64511Y1755753D02*
X65548Y1757420D01*
X62122Y1752639D02*
X64511Y1755753D01*
X59347Y1749865D02*
X62122Y1752639D01*
X56234Y1747476D02*
X59347Y1749865D01*
X52836Y1745514D02*
X56234Y1747476D01*
X49210Y1744012D02*
X52836Y1745514D01*
X45420Y1742996D02*
X49210Y1744012D01*
X41529Y1742484D02*
X45420Y1742996D01*
X39567Y1742420D02*
X41529Y1742484D01*
X31028Y1742420D02*
X39567D01*
X29062D02*
X31028D01*
X25163Y1741907D02*
X29062Y1742420D01*
X21365Y1740889D02*
X25163Y1741907D01*
X17731Y1739384D02*
X21365Y1740889D01*
X14325Y1737417D02*
X17731Y1739384D01*
X11206Y1735023D02*
X14325Y1737417D01*
X8425Y1732243D02*
X11206Y1735023D01*
X6031Y1729123D02*
X8425Y1732243D01*
X4065Y1725717D02*
X6031Y1729123D01*
X2560Y1722084D02*
X4065Y1725717D01*
X1542Y1718285D02*
X2560Y1722084D01*
X1028Y1714386D02*
X1542Y1718285D01*
X1028Y1712420D02*
Y1714386D01*
Y192420D02*
Y1712420D01*
Y190454D02*
Y192420D01*
Y190454D02*
X1542Y186555D01*
X2560Y182756D01*
X4065Y179123D01*
X6031Y175717D01*
X8425Y172597D01*
X11206Y169816D01*
X14325Y167422D01*
X17731Y165456D01*
X21365Y163951D01*
X25163Y162933D01*
X29062Y162420D01*
X31028Y162420D01*
X39567D01*
X41529Y162356D01*
X45420Y161844D01*
X49210Y160828D01*
X52836Y159326D01*
X56234Y157364D01*
X59347Y154975D01*
X62122Y152200D01*
X64511Y149087D01*
X65548Y147420D01*
X66513Y145749D01*
X68855Y142681D01*
X71571Y139938D01*
X74616Y137566D01*
X76279Y136585D01*
X77920Y135543D01*
X80985Y133150D01*
X83714Y130381D01*
X86063Y127282D01*
X87991Y123905D01*
X89465Y120308D01*
X90463Y116550D01*
X90965Y112694D01*
X91028Y110750D01*
X91028Y32420D01*
Y30454D02*
Y32420D01*
Y30454D02*
X91542Y26555D01*
X92560Y22756D01*
X94065Y19123D01*
X96031Y15717D01*
X98425Y12597D01*
X101206Y9816D01*
X104326Y7423D01*
X107731Y5456D01*
X111365Y3951D01*
X115163Y2933D01*
X119062Y2420D01*
X121028Y2420D01*
X2741029D01*
X2742995D01*
X2746894Y2933D01*
X2750692Y3951D01*
X2754326Y5456D01*
X2757731Y7423D01*
X2760851Y9816D01*
X2763632Y12597D01*
X2766026Y15717D01*
X2767992Y19123D01*
X2769497Y22756D01*
X2770515Y26555D01*
X2771028Y30454D01*
Y32420D01*
Y110750D01*
X2771092Y112694D01*
X2771595Y116550D01*
X2772592Y120308D01*
X2774066Y123905D01*
X2775994Y127282D01*
X2778343Y130381D01*
X2781072Y133150D01*
X2784136Y135543D01*
X2785779Y136585D01*
X2787440Y137566D01*
X2790486Y139938D01*
X2793202Y142681D01*
X2795544Y145749D01*
X2796509Y147420D01*
X2797546Y149087D01*
X2799935Y152200D01*
X2802710Y154975D01*
X2805823Y157364D01*
X2809221Y159326D01*
X2812847Y160828D01*
X2816637Y161844D01*
X2820528Y162356D01*
X2822490Y162420D01*
X2831029D01*
X2832995D01*
X2836894Y162933D01*
X2840692Y163951D01*
X2844326Y165456D01*
X2847731Y167422D01*
X2850851Y169816D01*
X2853632Y172597D01*
X2856026Y175717D01*
X2857993Y179123D01*
X2859497Y182756D01*
X2860515Y186555D01*
X2861029Y190454D01*
Y192420D01*
Y1712420D01*
Y1714386D01*
X2860515Y1718285D02*
X2861029Y1714386D01*
X2859497Y1722084D02*
X2860515Y1718285D01*
X2857993Y1725717D02*
X2859497Y1722084D01*
X2856026Y1729123D02*
X2857993Y1725717D01*
X2853632Y1732243D02*
X2856026Y1729123D01*
X2850851Y1735023D02*
X2853632Y1732243D01*
X2847731Y1737417D02*
X2850851Y1735023D01*
X2844326Y1739384D02*
X2847731Y1737417D01*
X2840692Y1740889D02*
X2844326Y1739384D01*
X2836894Y1741907D02*
X2840692Y1740889D01*
X2832995Y1742420D02*
X2836894Y1741907D01*
X2831029Y1742420D02*
X2832995D01*
X2822490D02*
X2831029D01*
X2820528Y1742484D02*
X2822490Y1742420D01*
X2816637Y1742996D02*
X2820528Y1742484D01*
X2812847Y1744012D02*
X2816637Y1742996D01*
X2809221Y1745514D02*
X2812847Y1744012D01*
X2805823Y1747476D02*
X2809221Y1745514D01*
X2802710Y1749865D02*
X2805823Y1747476D01*
X2799935Y1752639D02*
X2802710Y1749865D01*
X2797546Y1755753D02*
X2799935Y1752639D01*
X2796509Y1757420D02*
X2797546Y1755753D01*
X2795544Y1759091D02*
X2796509Y1757420D01*
X2793202Y1762159D02*
X2795544Y1759091D01*
X2790486Y1764902D02*
X2793202Y1762159D01*
X2787440Y1767274D02*
X2790486Y1764902D01*
X2785779Y1768255D02*
X2787440Y1767274D01*
X2784136Y1769297D02*
X2785779Y1768255D01*
X2781072Y1771690D02*
X2784136Y1769297D01*
X2778343Y1774459D02*
X2781072Y1771690D01*
X2775994Y1777558D02*
X2778343Y1774459D01*
X2774066Y1780935D02*
X2775994Y1777558D01*
X2772592Y1784532D02*
X2774066Y1780935D01*
X2771595Y1788290D02*
X2772592Y1784532D01*
X2771092Y1792146D02*
X2771595Y1788290D01*
X2771028Y1794090D02*
X2771092Y1792146D01*
X2771028Y1794090D02*
Y1872420D01*
Y1874386D01*
X2770515Y1878285D02*
X2771028Y1874386D01*
X2769497Y1882084D02*
X2770515Y1878285D01*
X2767992Y1885717D02*
X2769497Y1882084D01*
X2766026Y1889123D02*
X2767992Y1885717D01*
X2763632Y1892243D02*
X2766026Y1889123D01*
X2760851Y1895023D02*
X2763632Y1892243D01*
X2757731Y1897417D02*
X2760851Y1895023D01*
X2754326Y1899384D02*
X2757731Y1897417D01*
X2750692Y1900889D02*
X2754326Y1899384D01*
X2746894Y1901907D02*
X2750692Y1900889D01*
X2742995Y1902420D02*
X2746894Y1901907D01*
X2741029Y1902420D02*
X2742995D01*
X121028D02*
X2741029D01*
X119062D02*
X121028D01*
X115163Y1901907D02*
X119062Y1902420D01*
X111365Y1900889D02*
X115163Y1901907D01*
X107731Y1899384D02*
X111365Y1900889D01*
X104326Y1897417D02*
X107731Y1899384D01*
X101206Y1895023D02*
X104326Y1897417D01*
X98425Y1892243D02*
X101206Y1895023D01*
X96031Y1889123D02*
X98425Y1892243D01*
X94065Y1885717D02*
X96031Y1889123D01*
X92560Y1882084D02*
X94065Y1885717D01*
X91542Y1878285D02*
X92560Y1882084D01*
X91028Y1874386D02*
X91542Y1878285D01*
X91028Y1872420D02*
Y1874386D01*
Y1794090D02*
Y1872420D01*
X90965Y1792146D02*
X91028Y1794090D01*
X90463Y1788290D02*
X90965Y1792146D01*
X89465Y1784532D02*
X90463Y1788290D01*
X87991Y1780935D02*
X89465Y1784532D01*
X86063Y1777558D02*
X87991Y1780935D01*
X83714Y1774459D02*
X86063Y1777558D01*
X80985Y1771690D02*
X83714Y1774459D01*
X77920Y1769297D02*
X80985Y1771690D01*
X76279Y1768255D02*
X77920Y1769297D01*
X74616Y1767274D02*
X76279Y1768255D01*
X71571Y1764902D02*
X74616Y1767274D01*
X68855Y1762159D02*
X71571Y1764902D01*
X66513Y1759091D02*
X68855Y1762159D01*
X65548Y1757420D02*
X66513Y1759091D01*
X64511Y1755753D02*
X65548Y1757420D01*
X62122Y1752639D02*
X64511Y1755753D01*
X59347Y1749865D02*
X62122Y1752639D01*
X56234Y1747476D02*
X59347Y1749865D01*
X52836Y1745514D02*
X56234Y1747476D01*
X49210Y1744012D02*
X52836Y1745514D01*
X45420Y1742996D02*
X49210Y1744012D01*
X41529Y1742484D02*
X45420Y1742996D01*
X39567Y1742420D02*
X41529Y1742484D01*
X31028Y1742420D02*
X39567D01*
X29062D02*
X31028D01*
X25163Y1741907D02*
X29062Y1742420D01*
X21365Y1740889D02*
X25163Y1741907D01*
X17731Y1739384D02*
X21365Y1740889D01*
X14325Y1737417D02*
X17731Y1739384D01*
X11206Y1735023D02*
X14325Y1737417D01*
X8425Y1732243D02*
X11206Y1735023D01*
X6031Y1729123D02*
X8425Y1732243D01*
X4065Y1725717D02*
X6031Y1729123D01*
X2560Y1722084D02*
X4065Y1725717D01*
X1542Y1718285D02*
X2560Y1722084D01*
X1028Y1714386D02*
X1542Y1718285D01*
X1028Y1712420D02*
Y1714386D01*
Y192420D02*
Y1712420D01*
Y190454D02*
Y192420D01*
Y190454D02*
X1542Y186555D01*
X2560Y182756D01*
X4065Y179123D01*
X6031Y175717D01*
X8425Y172597D01*
X11206Y169816D01*
X14325Y167422D01*
X17731Y165456D01*
X21365Y163951D01*
X25163Y162933D01*
X29062Y162420D01*
X31028Y162420D01*
X39567D01*
X41529Y162356D01*
X45420Y161844D01*
X49210Y160828D01*
X52836Y159326D01*
X56234Y157364D01*
X59347Y154975D01*
X62122Y152200D01*
X64511Y149087D01*
X65548Y147420D01*
X66513Y145749D01*
X68855Y142681D01*
X71571Y139938D01*
X74616Y137566D01*
X76279Y136585D01*
X77920Y135543D01*
X80985Y133150D01*
X83714Y130381D01*
X86063Y127282D01*
X87991Y123905D01*
X89465Y120308D01*
X90463Y116550D01*
X90965Y112694D01*
X91028Y110750D01*
X91028Y32420D01*
Y30454D02*
Y32420D01*
Y30454D02*
X91542Y26555D01*
X92560Y22756D01*
X94065Y19123D01*
X96031Y15717D01*
X98425Y12597D01*
X101206Y9816D01*
X104326Y7423D01*
X107731Y5456D01*
X111365Y3951D01*
X115163Y2933D01*
X119062Y2420D01*
X121028Y2420D01*
X2741029D01*
X2742995D01*
X2746894Y2933D01*
X2750692Y3951D01*
X2754326Y5456D01*
X2757731Y7423D01*
X2760851Y9816D01*
X2763632Y12597D01*
X2766026Y15717D01*
X2767992Y19123D01*
X2769497Y22756D01*
X2770515Y26555D01*
X2771028Y30454D01*
Y32420D01*
Y110750D01*
X2771092Y112694D01*
X2771595Y116550D01*
X2772592Y120308D01*
X2774066Y123905D01*
X2775994Y127282D01*
X2778343Y130381D01*
X2781072Y133150D01*
X2784136Y135543D01*
X2785779Y136585D01*
X2787440Y137566D01*
X2790486Y139938D01*
X2793202Y142681D01*
X2795544Y145749D01*
X2796509Y147420D01*
X2797546Y149087D01*
X2799935Y152200D01*
X2802710Y154975D01*
X2805823Y157364D01*
X2809221Y159326D01*
X2812847Y160828D01*
X2816637Y161844D01*
X2820528Y162356D01*
X2822490Y162420D01*
X2831029D01*
X2832995D02*
X2836894Y162933D01*
X2840692Y163951D01*
X2844326Y165456D01*
X2847731Y167422D01*
X2850851Y169816D01*
X2853632Y172597D01*
X2856026Y175717D01*
X2857993Y179123D01*
X2859497Y182756D01*
X2860515Y186555D01*
X2861029Y190454D01*
Y192420D01*
Y1712420D01*
Y1714386D01*
X2860515Y1718285D02*
X2861029Y1714386D01*
X2859497Y1722084D02*
X2860515Y1718285D01*
X2857993Y1725717D02*
X2859497Y1722084D01*
X2856026Y1729123D02*
X2857993Y1725717D01*
X2853632Y1732243D02*
X2856026Y1729123D01*
X2850851Y1735023D02*
X2853632Y1732243D01*
X2847731Y1737417D02*
X2850851Y1735023D01*
X2844326Y1739384D02*
X2847731Y1737417D01*
X2840692Y1740889D02*
X2844326Y1739384D01*
X2836894Y1741907D02*
X2840692Y1740889D01*
X2832995Y1742420D02*
X2836894Y1741907D01*
X2831029Y1742420D02*
X2832995D01*
X2822490D02*
X2831029D01*
X2820528Y1742484D02*
X2822490Y1742420D01*
X2816637Y1742996D02*
X2820528Y1742484D01*
X2812847Y1744012D02*
X2816637Y1742996D01*
X2809221Y1745514D02*
X2812847Y1744012D01*
X2805823Y1747476D02*
X2809221Y1745514D01*
X2802710Y1749865D02*
X2805823Y1747476D01*
X2799935Y1752639D02*
X2802710Y1749865D01*
X2797546Y1755753D02*
X2799935Y1752639D01*
X2796509Y1757420D02*
X2797546Y1755753D01*
X2795544Y1759091D02*
X2796509Y1757420D01*
X2793202Y1762159D02*
X2795544Y1759091D01*
X2790486Y1764902D02*
X2793202Y1762159D01*
X2787440Y1767274D02*
X2790486Y1764902D01*
X2785779Y1768255D02*
X2787440Y1767274D01*
X2784136Y1769297D02*
X2785779Y1768255D01*
X2781072Y1771690D02*
X2784136Y1769297D01*
X2778343Y1774459D02*
X2781072Y1771690D01*
X2775994Y1777558D02*
X2778343Y1774459D01*
X2774066Y1780935D02*
X2775994Y1777558D01*
X2772592Y1784532D02*
X2774066Y1780935D01*
X2771595Y1788290D02*
X2772592Y1784532D01*
X2771092Y1792146D02*
X2771595Y1788290D01*
X2771028Y1794090D02*
X2771092Y1792146D01*
X2771028Y1794090D02*
Y1872420D01*
Y1874386D01*
X2770515Y1878285D02*
X2771028Y1874386D01*
X2769497Y1882084D02*
X2770515Y1878285D01*
X2767992Y1885717D02*
X2769497Y1882084D01*
X2766026Y1889123D02*
X2767992Y1885717D01*
X2763632Y1892243D02*
X2766026Y1889123D01*
X2760851Y1895023D02*
X2763632Y1892243D01*
X2757731Y1897417D02*
X2760851Y1895023D01*
X2754326Y1899384D02*
X2757731Y1897417D01*
X2750692Y1900889D02*
X2754326Y1899384D01*
X2746894Y1901907D02*
X2750692Y1900889D01*
X2742995Y1902420D02*
X2746894Y1901907D01*
X2741029Y1902420D02*
X2742995D01*
X121028D02*
X2741029D01*
X119062D02*
X121028D01*
X115163Y1901907D02*
X119062Y1902420D01*
X111365Y1900889D02*
X115163Y1901907D01*
X107731Y1899384D02*
X111365Y1900889D01*
X104326Y1897417D02*
X107731Y1899384D01*
X101206Y1895023D02*
X104326Y1897417D01*
X98425Y1892243D02*
X101206Y1895023D01*
X96031Y1889123D02*
X98425Y1892243D01*
X94065Y1885717D02*
X96031Y1889123D01*
X92560Y1882084D02*
X94065Y1885717D01*
X91542Y1878285D02*
X92560Y1882084D01*
X91028Y1874386D02*
X91542Y1878285D01*
X91028Y1872420D02*
Y1874386D01*
Y1794090D02*
Y1872420D01*
X90965Y1792146D02*
X91028Y1794090D01*
X90463Y1788290D02*
X90965Y1792146D01*
X89465Y1784532D02*
X90463Y1788290D01*
X87991Y1780935D02*
X89465Y1784532D01*
X86063Y1777558D02*
X87991Y1780935D01*
X83714Y1774459D02*
X86063Y1777558D01*
X80985Y1771690D02*
X83714Y1774459D01*
X77920Y1769297D02*
X80985Y1771690D01*
X76279Y1768255D02*
X77920Y1769297D01*
X74616Y1767274D02*
X76279Y1768255D01*
X71571Y1764902D02*
X74616Y1767274D01*
X68855Y1762159D02*
X71571Y1764902D01*
X66513Y1759091D02*
X68855Y1762159D01*
X65548Y1757420D02*
X66513Y1759091D01*
X64511Y1755753D02*
X65548Y1757420D01*
X62122Y1752639D02*
X64511Y1755753D01*
X59347Y1749865D02*
X62122Y1752639D01*
X56234Y1747476D02*
X59347Y1749865D01*
X52836Y1745514D02*
X56234Y1747476D01*
X49210Y1744012D02*
X52836Y1745514D01*
X45420Y1742996D02*
X49210Y1744012D01*
X41529Y1742484D02*
X45420Y1742996D01*
X39567Y1742420D02*
X41529Y1742484D01*
X31028Y1742420D02*
X39567D01*
X29062D02*
X31028D01*
X25163Y1741907D02*
X29062Y1742420D01*
X21365Y1740889D02*
X25163Y1741907D01*
X17731Y1739384D02*
X21365Y1740889D01*
X14325Y1737417D02*
X17731Y1739384D01*
X11206Y1735023D02*
X14325Y1737417D01*
X8425Y1732243D02*
X11206Y1735023D01*
X6031Y1729123D02*
X8425Y1732243D01*
X4065Y1725717D02*
X6031Y1729123D01*
X2560Y1722084D02*
X4065Y1725717D01*
X1542Y1718285D02*
X2560Y1722084D01*
X1028Y1714386D02*
X1542Y1718285D01*
X1028Y1712420D02*
Y1714386D01*
Y192420D02*
Y1712420D01*
Y190454D02*
Y192420D01*
Y190454D02*
X1542Y186555D01*
X2560Y182756D01*
X4065Y179123D01*
X6031Y175717D01*
X8425Y172597D01*
X11206Y169816D01*
X14325Y167422D01*
X17731Y165456D01*
X21365Y163951D01*
X25163Y162933D01*
X29062Y162420D01*
X31028Y162420D01*
X39567D01*
X41529Y162356D01*
X45420Y161844D01*
X49210Y160828D01*
X52836Y159326D01*
X56234Y157364D01*
X59347Y154975D01*
X62122Y152200D01*
X64511Y149087D01*
X65548Y147420D01*
X66513Y145749D01*
X68855Y142681D01*
X71571Y139938D01*
X74616Y137566D01*
X76279Y136585D01*
M02*
