G04*
G04 #@! TF.GenerationSoftware,Altium Limited,Altium Designer,20.1.10 (176)*
G04*
G04 Layer_Physical_Order=4*
G04 Layer_Color=16711680*
%FSLAX44Y44*%
%MOMM*%
G71*
G04*
G04 #@! TF.SameCoordinates,9A07C0F8-2EC5-444E-B81E-C5A403CEBA23*
G04*
G04*
G04 #@! TF.FilePolarity,Positive*
G04*
G01*
G75*
%ADD10C,0.2000*%
%ADD12C,0.2500*%
%ADD19C,1.2000*%
%ADD20C,1.2000*%
%ADD68R,0.8000X1.3000*%
%ADD73R,1.3000X0.8000*%
%ADD89R,2.0000X2.8000*%
%ADD95C,0.5000*%
%ADD96C,0.3000*%
%ADD99C,1.0000*%
%ADD100C,1.6000*%
%ADD101R,1.6000X1.6000*%
%ADD102C,1.5000*%
%ADD103R,1.5000X1.5000*%
%ADD104C,1.5000*%
%ADD105R,1.5000X1.5000*%
%ADD106C,5.0000*%
%ADD107R,1.6000X1.6000*%
G04:AMPARAMS|DCode=108|XSize=1.524mm|YSize=1.524mm|CornerRadius=0.381mm|HoleSize=0mm|Usage=FLASHONLY|Rotation=180.000|XOffset=0mm|YOffset=0mm|HoleType=Round|Shape=RoundedRectangle|*
%AMROUNDEDRECTD108*
21,1,1.5240,0.7620,0,0,180.0*
21,1,0.7620,1.5240,0,0,180.0*
1,1,0.7620,-0.3810,0.3810*
1,1,0.7620,0.3810,0.3810*
1,1,0.7620,0.3810,-0.3810*
1,1,0.7620,-0.3810,-0.3810*
%
%ADD108ROUNDEDRECTD108*%
%ADD109C,1.5240*%
%ADD110C,3.3160*%
%ADD111C,1.4080*%
%ADD112R,1.4080X1.4080*%
%ADD113C,0.6000*%
%ADD114C,1.3000*%
%ADD115C,4.5000*%
%ADD135R,0.4100X1.5700*%
%ADD136R,1.5700X0.4100*%
D10*
X2703750Y351000D02*
X2719500D01*
X2727250Y358750D01*
X2626000Y549000D02*
Y578688D01*
Y549000D02*
X2626250Y548750D01*
X2625000Y547500D02*
X2626250Y548750D01*
X2626000Y578688D02*
Y579000D01*
X2567750Y557750D02*
X2576750Y566750D01*
X2492750Y468750D02*
X2494500Y467000D01*
X2635187Y569813D02*
Y578688D01*
Y569813D02*
X2644000Y561000D01*
X2650750Y564750D02*
X2768000D01*
X2816500Y613250D01*
X2532750Y565250D02*
X2532750Y565250D01*
X2532750Y565250D02*
Y571250D01*
X2527500Y576500D02*
X2532750Y571250D01*
X2463500Y552500D02*
X2487500Y576500D01*
X2527500D01*
X2720455Y371906D02*
Y374154D01*
X2720049Y371500D02*
X2720455Y371906D01*
X2705250Y371500D02*
X2720049D01*
X2720455Y374154D02*
X2721220Y374920D01*
X2703750Y370000D02*
X2705250Y371500D01*
X2659750Y1760500D02*
X2681500D01*
X2681750Y1760250D01*
X2474750Y465000D02*
X2475000D01*
X2477000Y467000D02*
X2491250D01*
X2475000Y465000D02*
X2477000Y467000D01*
X2659500Y316582D02*
Y318332D01*
X2656500Y312500D02*
Y313582D01*
X2659500Y316582D01*
Y318332D02*
X2662250Y321082D01*
X2519500Y512000D02*
Y526000D01*
X2519500Y512000D02*
X2519500Y512000D01*
X2502000Y526000D02*
X2519500D01*
X2589000Y549250D02*
Y564250D01*
X2567750Y547000D02*
Y557750D01*
X2661250Y293750D02*
X2661500Y293500D01*
X2798844Y244244D02*
X2800000Y245400D01*
X2798844Y218844D02*
X2800000Y220000D01*
X2604500Y197750D02*
X2620500D01*
X2474735Y427250D02*
X2477985Y430500D01*
X2491250D01*
X2478735Y411500D02*
X2491250D01*
X2474735Y415500D02*
X2478735Y411500D01*
X2589000Y564250D02*
Y566750D01*
X2703750Y460750D02*
X2714500D01*
X2720750Y467000D02*
Y467000D01*
X2714500Y460750D02*
X2720750Y467000D01*
X2703750Y479750D02*
X2704500Y479000D01*
X2720750D01*
X2722250Y479750D02*
X2723000Y479000D01*
X2644000Y547500D02*
Y561000D01*
X2614000Y332500D02*
Y366515D01*
X2612000Y368515D02*
X2614000Y366515D01*
X2612000Y368515D02*
Y369598D01*
X2703750Y416750D02*
X2717668D01*
X2702500D02*
X2703750D01*
X2586750Y547000D02*
X2589000Y549250D01*
X2662250Y321082D02*
Y331280D01*
X2578750Y332780D02*
Y355000D01*
X2703750Y435750D02*
X2714000D01*
X2717668Y416750D02*
X2719668Y418750D01*
X2720750D01*
X2714000Y435750D02*
X2720750Y429000D01*
X2561750Y1692328D02*
X2569922Y1700500D01*
X2561750Y1688500D02*
Y1692328D01*
X2569922Y1700500D02*
X2584150D01*
X2568750Y1653250D02*
X2573000Y1649000D01*
X65548Y147420D02*
G03*
X76279Y136585I25981J15000D01*
G01*
Y1768255D02*
G03*
X65548Y1757420I15250J-25835D01*
G01*
Y147420D02*
G03*
X39567Y162420I-25981J-15000D01*
G01*
Y1742420D02*
G03*
X65548Y1757420I0J30000D01*
G01*
X91028Y110750D02*
G03*
X76279Y136585I-30000J-0D01*
G01*
Y1768255D02*
G03*
X91028Y1794090I-15250J25835D01*
G01*
X1028Y192420D02*
G03*
X31028Y162420I30000J0D01*
G01*
Y1742420D02*
G03*
X1028Y1712420I0J-30000D01*
G01*
X91028Y32420D02*
G03*
X121028Y2420I30000J0D01*
G01*
Y1902420D02*
G03*
X91028Y1872420I0J-30000D01*
G01*
X2741029Y2420D02*
G03*
X2771028Y32420I0J30000D01*
G01*
X2785779Y136585D02*
G03*
X2771028Y110750I15250J-25835D01*
G01*
X2785779Y136585D02*
G03*
X2796509Y147420I-15250J25835D01*
G01*
X2822490Y162420D02*
G03*
X2796509Y147420I0J-30000D01*
G01*
X2831029Y162420D02*
G03*
X2861029Y192420I0J30000D01*
G01*
Y1712420D02*
G03*
X2831029Y1742420I-30000J0D01*
G01*
X2796509Y1757420D02*
G03*
X2822490Y1742420I25981J15000D01*
G01*
X2796509Y1757420D02*
G03*
X2785779Y1768255I-25981J-15000D01*
G01*
X2771028Y1794090D02*
G03*
X2785779Y1768255I30000J0D01*
G01*
X2771028Y1872420D02*
G03*
X2741029Y1902420I-30000J0D01*
G01*
X2771028Y32420D02*
Y110750D01*
X31028Y1742420D02*
X39567D01*
X31028Y162420D02*
X39567D01*
X91028Y1794090D02*
Y1872420D01*
Y32420D02*
Y110750D01*
X1028Y192420D02*
Y1712420D01*
X121028Y2420D02*
X2741029D01*
X2822490Y162420D02*
X2831029D01*
X2861029Y190228D02*
Y1712420D01*
X2822490Y1742420D02*
X2831029D01*
X2771028Y1794090D02*
Y1872420D01*
X121028Y1902420D02*
X2741029D01*
D12*
X2507375Y889110D02*
X2518000Y878485D01*
X2495640Y889110D02*
X2507375D01*
X2491250Y893500D02*
X2495640Y889110D01*
X2504890Y883110D02*
X2512000Y876000D01*
X2491250Y878720D02*
X2495640Y883110D01*
X2504890D01*
X237500Y1689500D02*
X237750Y1689750D01*
X267250D02*
X267500Y1690000D01*
X2657654Y1456029D02*
Y1482059D01*
X2656611Y1454962D02*
X2657654Y1456029D01*
X2655284Y1482183D02*
X2657654Y1482059D01*
X2653154Y1453530D02*
X2656611Y1454962D01*
X2654220Y1482238D02*
X2655284Y1482183D01*
X2650467Y1482833D02*
X2654220Y1482238D01*
X2650050Y1482530D02*
X2650467Y1482833D01*
X2667102Y1454582D02*
X2668154Y1453530D01*
X2664498Y1454582D02*
X2667102D01*
X2662154Y1456926D02*
Y1493266D01*
Y1456926D02*
X2664498Y1454582D01*
X2660689Y1494730D02*
X2662154Y1493266D01*
X2650050Y1495530D02*
X2650850Y1494730D01*
X2660689D01*
X2655234Y1255652D02*
X2657604Y1255529D01*
Y1229499D02*
Y1255529D01*
X2656561Y1228432D02*
X2657604Y1229499D01*
X2650417Y1256303D02*
X2654170Y1255708D01*
X2655234Y1255652D01*
X2650000Y1256000D02*
X2650417Y1256303D01*
X2653104Y1227000D02*
X2656561Y1228432D01*
X2662104Y1230396D02*
X2664448Y1228052D01*
X2667052D02*
X2668104Y1227000D01*
X2664448Y1228052D02*
X2667052D01*
X2650000Y1269000D02*
X2650800Y1268200D01*
X2660640D02*
X2662104Y1266736D01*
Y1230396D02*
Y1266736D01*
X2650800Y1268200D02*
X2660640D01*
X2495640Y1119110D02*
X2507375D01*
X2520700Y1074300D02*
Y1082296D01*
X2518000Y1084996D02*
X2520700Y1082296D01*
Y1074300D02*
X2521500Y1073500D01*
X2491250Y1123500D02*
X2495640Y1119110D01*
X2518000Y1084996D02*
Y1108485D01*
X2507375Y1119110D02*
X2518000Y1108485D01*
X2495640Y1113110D02*
X2504890D01*
X2512000Y1106000D01*
X2491250Y1108720D02*
X2495640Y1113110D01*
X2512000Y1084996D02*
Y1106000D01*
X2509300Y1082296D02*
X2512000Y1084996D01*
X2508500Y1073500D02*
X2509300Y1074300D01*
Y1082296D01*
X2502800Y1007304D02*
X2505500Y1004604D01*
Y1001215D02*
Y1004604D01*
X2502530Y998244D02*
X2505500Y1001215D01*
X2502800Y1007304D02*
Y1015300D01*
X2502000Y1016100D02*
X2502800Y1015300D01*
X2502530Y997000D02*
Y998244D01*
X2511500Y1002533D02*
X2517033Y997000D01*
X2514200Y1007304D02*
Y1015300D01*
X2515000Y1016100D01*
X2511500Y1002533D02*
Y1004604D01*
X2514200Y1007304D01*
X2517033Y997000D02*
X2517530D01*
X2655234Y1025652D02*
X2657604Y1025529D01*
Y999499D02*
Y1025529D01*
X2656561Y998432D02*
X2657604Y999499D01*
X2650417Y1026303D02*
X2654170Y1025708D01*
X2655234Y1025652D01*
X2650000Y1026000D02*
X2650417Y1026303D01*
X2653104Y997000D02*
X2656561Y998432D01*
X2664448Y998052D02*
X2667052D01*
X2662104Y1000396D02*
X2664448Y998052D01*
X2650000Y1039000D02*
X2650800Y1038200D01*
X2660640D02*
X2662104Y1036736D01*
Y1000396D02*
Y1036736D01*
X2650800Y1038200D02*
X2660640D01*
X2667052Y998052D02*
X2668104Y997000D01*
X2591800Y1044700D02*
X2592600Y1045500D01*
X2580379Y1044700D02*
X2591800D01*
X2581215Y1000965D02*
Y1003125D01*
X2570000Y1014340D02*
Y1034321D01*
X2580379Y1044700D01*
X2570000Y1014340D02*
X2581215Y1003125D01*
X2577250Y997000D02*
X2581215Y1000965D01*
X2591800Y1033300D02*
X2592600Y1032500D01*
X2577465Y1033300D02*
X2591800D01*
X2576000Y1031835D02*
X2577465Y1033300D01*
X2576000Y1016825D02*
Y1031835D01*
X2587214Y1002036D02*
Y1005610D01*
X2576000Y1016825D02*
X2587214Y1005610D01*
Y1002036D02*
X2592250Y997000D01*
X2616200Y1644197D02*
Y1691500D01*
X2610200Y1697500D02*
X2616200Y1691500D01*
X2595646Y1697500D02*
X2610200D01*
X2593346Y1695200D02*
X2595646Y1697500D01*
X2587750Y1695200D02*
X2593346D01*
X2662104Y770396D02*
Y806736D01*
X2664448Y768052D02*
X2667052D01*
X2662104Y770396D02*
X2664448Y768052D01*
X2667052D02*
X2668104Y767000D01*
X2576000Y786825D02*
X2587214Y775610D01*
X2577250Y767000D02*
X2581215Y770965D01*
X2570000Y784340D02*
X2581215Y773125D01*
X2587214Y772036D02*
Y775610D01*
Y772036D02*
X2592250Y767000D01*
X2581215Y770965D02*
Y773125D01*
X2576000Y1261835D02*
X2577465Y1263300D01*
X2591800D01*
X2576000Y1246825D02*
Y1261835D01*
X2570000Y1264321D02*
X2580379Y1274700D01*
X2570000Y1244340D02*
Y1264321D01*
X2580379Y1274700D02*
X2591800D01*
Y803300D02*
X2592600Y802500D01*
X2577465Y803300D02*
X2591800D01*
X2576000Y786825D02*
Y801835D01*
X2577465Y803300D01*
X2591800Y814700D02*
X2592600Y815500D01*
X2580379Y814700D02*
X2591800D01*
X2570000Y804321D02*
X2580379Y814700D01*
X2570000Y784340D02*
Y804321D01*
X2502800Y777304D02*
X2505500Y774604D01*
Y771215D02*
Y774604D01*
X2502530Y768244D02*
X2505500Y771215D01*
X2502800Y777304D02*
Y785300D01*
X2502000Y786100D02*
X2502800Y785300D01*
X2502530Y767000D02*
Y768244D01*
X2517033Y767000D02*
X2517530D01*
X2514200Y785300D02*
X2515000Y786100D01*
X2514200Y777304D02*
Y785300D01*
X2511500Y772533D02*
Y774604D01*
Y772533D02*
X2517033Y767000D01*
X2511500Y774604D02*
X2514200Y777304D01*
X2512000Y854996D02*
Y876000D01*
X2509300Y852296D02*
X2512000Y854996D01*
X2509300Y844300D02*
Y852296D01*
X2508500Y843500D02*
X2509300Y844300D01*
X2520700D02*
Y852296D01*
X2518000Y854996D02*
X2520700Y852296D01*
Y844300D02*
X2521500Y843500D01*
X2518000Y854996D02*
Y878485D01*
X2591800Y1274700D02*
X2592600Y1275500D01*
X2581215Y1230965D02*
Y1233125D01*
X2570000Y1244340D02*
X2581215Y1233125D01*
X2577250Y1227000D02*
X2581215Y1230965D01*
X2591800Y1263300D02*
X2592600Y1262500D01*
X2587214Y1232036D02*
X2592250Y1227000D01*
X2587214Y1232036D02*
Y1235610D01*
X2576000Y1246825D02*
X2587214Y1235610D01*
X2502800Y1237304D02*
X2505500Y1234604D01*
Y1231215D02*
Y1234604D01*
X2502530Y1228244D02*
X2505500Y1231215D01*
X2502800Y1237304D02*
Y1245300D01*
X2502000Y1246100D02*
X2502800Y1245300D01*
X2502530Y1227000D02*
Y1228244D01*
X2517033Y1227000D02*
X2517530D01*
X2514200Y1237304D02*
Y1245300D01*
X2515000Y1246100D01*
X2511500Y1232533D02*
Y1234604D01*
X2514200Y1237304D01*
X2511500Y1232533D02*
X2517033Y1227000D01*
X2660640Y808200D02*
X2662104Y806736D01*
X2650000Y809000D02*
X2650800Y808200D01*
X2660640D01*
X2655234Y795652D02*
X2657604Y795529D01*
X2654170Y795708D02*
X2655234Y795652D01*
X2657604Y769499D02*
Y795529D01*
X2656561Y768432D02*
X2657604Y769499D01*
X2650417Y796303D02*
X2654170Y795708D01*
X2650000Y796000D02*
X2650417Y796303D01*
X2653104Y767000D02*
X2656561Y768432D01*
X2504890Y1343110D02*
X2512000Y1336000D01*
X2491250Y1338720D02*
X2495640Y1343110D01*
X2504890D01*
X2508500Y1303500D02*
X2509300Y1304300D01*
Y1312296D01*
X2512000Y1314996D01*
Y1336000D01*
X2520700Y1304300D02*
X2521500Y1303500D01*
X2520700Y1304300D02*
Y1312296D01*
X2518000Y1314996D02*
X2520700Y1312296D01*
X2518000Y1314996D02*
Y1338485D01*
X2507375Y1349110D02*
X2518000Y1338485D01*
X2495640Y1349110D02*
X2507375D01*
X2491250Y1353500D02*
X2495640Y1349110D01*
X2591850Y1489830D02*
X2592650Y1489030D01*
X2577515Y1489830D02*
X2591850D01*
X2587264Y1458566D02*
Y1462140D01*
X2576050Y1473355D02*
Y1488366D01*
X2577515Y1489830D01*
X2576050Y1473355D02*
X2587264Y1462140D01*
Y1458566D02*
X2592300Y1453530D01*
X2591850Y1501230D02*
X2592650Y1502030D01*
X2580429Y1501230D02*
X2591850D01*
X2581265Y1457495D02*
Y1459655D01*
X2577300Y1453530D02*
X2581265Y1457495D01*
X2570050Y1470870D02*
Y1490851D01*
X2580429Y1501230D01*
X2570050Y1470870D02*
X2581265Y1459655D01*
X2507425Y1575640D02*
X2518050Y1565015D01*
X2495690Y1575640D02*
X2507425D01*
X2518050Y1541526D02*
X2520750Y1538826D01*
X2518050Y1541526D02*
Y1565015D01*
X2520750Y1530830D02*
Y1538826D01*
Y1530830D02*
X2521550Y1530030D01*
X2491300Y1580030D02*
X2495690Y1575640D01*
X2512050Y1541526D02*
Y1562530D01*
X2504940Y1569640D02*
X2512050Y1562530D01*
X2509350Y1538826D02*
X2512050Y1541526D01*
X2495690Y1569640D02*
X2504940D01*
X2509350Y1530830D02*
Y1538826D01*
X2508550Y1530030D02*
X2509350Y1530830D01*
X2491300Y1565250D02*
X2495690Y1569640D01*
X2502850Y1463834D02*
X2505550Y1461134D01*
Y1457745D02*
Y1461134D01*
X2502580Y1454774D02*
X2505550Y1457745D01*
X2502050Y1472630D02*
X2502850Y1471830D01*
Y1463834D02*
Y1471830D01*
X2502580Y1453530D02*
Y1454774D01*
X2517083Y1453530D02*
X2517580D01*
X2514250Y1463834D02*
Y1471830D01*
X2515050Y1472630D01*
X2511550Y1459063D02*
Y1461134D01*
X2514250Y1463834D01*
X2511550Y1459063D02*
X2517083Y1453530D01*
X2525950Y1712700D02*
X2526750Y1713500D01*
X2517954Y1712700D02*
X2525950D01*
X2491000Y1713500D02*
X2491307D01*
X2515254Y1710000D02*
X2517954Y1712700D01*
X2491307Y1713500D02*
X2494807Y1710000D01*
X2515254D01*
X2514661Y1704592D02*
X2517954Y1701300D01*
X2494214Y1704592D02*
X2514661D01*
X2525950Y1701300D02*
X2526750Y1700500D01*
X2517954Y1701300D02*
X2525950D01*
X2491307Y1701685D02*
X2494214Y1704592D01*
X2491000Y1701685D02*
X2491307D01*
X2612685Y1703500D02*
X2622200Y1693985D01*
X2595646Y1703500D02*
X2612685D01*
X2593346Y1705800D02*
X2595646Y1703500D01*
X2587750Y1705800D02*
X2593346D01*
X2622200Y1644197D02*
Y1693985D01*
X2584150Y1707000D02*
X2584950Y1706200D01*
X2584150Y1694000D02*
X2584950Y1694800D01*
D19*
X91028Y110750D02*
G03*
X76279Y136585I-30000J-0D01*
G01*
X91028Y32420D02*
G03*
X121028Y2420I30000J0D01*
G01*
X2741029D02*
G03*
X2771028Y32420I0J30000D01*
G01*
X2785779Y136585D02*
G03*
X2771028Y110750I15250J-25835D01*
G01*
X2785779Y136585D02*
G03*
X2796509Y147420I-15250J25835D01*
G01*
X2822490Y162420D02*
G03*
X2796509Y147420I0J-30000D01*
G01*
X2832995Y162420D02*
G03*
X2860803Y190228I0J27808D01*
G01*
X2861029Y1712420D02*
G03*
X2831029Y1742420I-30000J0D01*
G01*
X2796509Y1757420D02*
G03*
X2822490Y1742420I25981J15000D01*
G01*
X2796509Y1757420D02*
G03*
X2785779Y1768255I-25981J-15000D01*
G01*
X2771028Y1794090D02*
G03*
X2785779Y1768255I30000J0D01*
G01*
X2771028Y1872420D02*
G03*
X2741029Y1902420I-30000J0D01*
G01*
X121028D02*
G03*
X91028Y1872420I0J-30000D01*
G01*
X76279Y1768255D02*
G03*
X91028Y1794090I-15250J25835D01*
G01*
X76279Y1768255D02*
G03*
X65548Y1757420I15250J-25835D01*
G01*
X39567Y1742420D02*
G03*
X65548Y1757420I0J30000D01*
G01*
X31028Y1742420D02*
G03*
X1028Y1712420I0J-30000D01*
G01*
Y192420D02*
G03*
X31028Y162420I30000J0D01*
G01*
X65548Y147420D02*
G03*
X39567Y162420I-25981J-15000D01*
G01*
X65548Y147420D02*
G03*
X76279Y136585I25981J15000D01*
G01*
X91028Y110750D02*
G03*
X76279Y136585I-30000J-0D01*
G01*
X91028Y32420D02*
G03*
X121028Y2420I30000J0D01*
G01*
X2741029D02*
G03*
X2771028Y32420I0J30000D01*
G01*
X2785779Y136585D02*
G03*
X2771028Y110750I15250J-25835D01*
G01*
X2785779Y136585D02*
G03*
X2796509Y147420I-15250J25835D01*
G01*
X2822490Y162420D02*
G03*
X2796509Y147420I0J-30000D01*
G01*
X2831029Y162420D02*
G03*
X2861029Y192420I0J30000D01*
G01*
Y1712420D02*
G03*
X2831029Y1742420I-30000J0D01*
G01*
X2796509Y1757420D02*
G03*
X2822490Y1742420I25981J15000D01*
G01*
X2796509Y1757420D02*
G03*
X2785779Y1768255I-25981J-15000D01*
G01*
X2771028Y1794090D02*
G03*
X2785779Y1768255I30000J0D01*
G01*
X2771028Y1872420D02*
G03*
X2741029Y1902420I-30000J0D01*
G01*
X121028D02*
G03*
X91028Y1872420I0J-30000D01*
G01*
X76279Y1768255D02*
G03*
X91028Y1794090I-15250J25835D01*
G01*
X76279Y1768255D02*
G03*
X65548Y1757420I15250J-25835D01*
G01*
X39567Y1742420D02*
G03*
X65548Y1757420I0J30000D01*
G01*
X31028Y1742420D02*
G03*
X1028Y1712420I0J-30000D01*
G01*
Y192420D02*
G03*
X31028Y162420I30000J0D01*
G01*
X65548Y147420D02*
G03*
X39567Y162420I-25981J-15000D01*
G01*
X65548Y147420D02*
G03*
X76279Y136585I25981J15000D01*
G01*
X91028Y110750D02*
G03*
X76279Y136585I-30000J-0D01*
G01*
X91028Y32420D02*
G03*
X121028Y2420I30000J0D01*
G01*
X2741029D02*
G03*
X2771028Y32420I0J30000D01*
G01*
X2785779Y136585D02*
G03*
X2771028Y110750I15250J-25835D01*
G01*
X2785779Y136585D02*
G03*
X2796509Y147420I-15250J25835D01*
G01*
X2822490Y162420D02*
G03*
X2796509Y147420I0J-30000D01*
G01*
X2831029Y162420D02*
G03*
X2861029Y192420I0J30000D01*
G01*
Y1712420D02*
G03*
X2831029Y1742420I-30000J0D01*
G01*
X2796509Y1757420D02*
G03*
X2822490Y1742420I25981J15000D01*
G01*
X2796509Y1757420D02*
G03*
X2785779Y1768255I-25981J-15000D01*
G01*
X2771028Y1794090D02*
G03*
X2785779Y1768255I30000J0D01*
G01*
X2771028Y1872420D02*
G03*
X2741029Y1902420I-30000J0D01*
G01*
X121028D02*
G03*
X91028Y1872420I0J-30000D01*
G01*
X76279Y1768255D02*
G03*
X91028Y1794090I-15250J25835D01*
G01*
X76279Y1768255D02*
G03*
X65548Y1757420I15250J-25835D01*
G01*
X39567Y1742420D02*
G03*
X65548Y1757420I0J30000D01*
G01*
X31028Y1742420D02*
G03*
X1028Y1712420I0J-30000D01*
G01*
Y192420D02*
G03*
X31028Y162420I30000J0D01*
G01*
X65548Y147420D02*
G03*
X39567Y162420I-25981J-15000D01*
G01*
X65548Y147420D02*
G03*
X76279Y136585I25981J15000D01*
G01*
Y136585D02*
X77920Y135543D01*
X80985Y133150D01*
X83714Y130381D01*
X86063Y127282D01*
X87991Y123905D01*
X89465Y120308D01*
X90463Y116550D01*
X90965Y112694D01*
X91028Y110750D01*
X91028Y32420D01*
Y30454D02*
Y32420D01*
Y30454D02*
X91542Y26555D01*
X92560Y22756D01*
X94065Y19123D01*
X96031Y15717D01*
X98425Y12597D01*
X101206Y9816D01*
X104326Y7423D01*
X107731Y5456D01*
X111365Y3951D01*
X115163Y2933D01*
X119062Y2420D01*
X121028Y2420D01*
X2741029D01*
X2742995D01*
X2746894Y2933D01*
X2750692Y3951D01*
X2754326Y5456D01*
X2757731Y7423D01*
X2760851Y9816D01*
X2763632Y12597D01*
X2766026Y15717D01*
X2767992Y19123D01*
X2769497Y22756D01*
X2770515Y26555D01*
X2771028Y30454D01*
Y32420D01*
Y110750D01*
X2771092Y112694D01*
X2771595Y116550D01*
X2772592Y120308D01*
X2774066Y123905D01*
X2775994Y127282D01*
X2778343Y130381D01*
X2781072Y133150D01*
X2784136Y135543D01*
X2785779Y136585D01*
X2787440Y137566D01*
X2790486Y139938D01*
X2793202Y142681D01*
X2795544Y145749D01*
X2796509Y147420D01*
X2797546Y149087D01*
X2799935Y152200D01*
X2802710Y154975D01*
X2805823Y157364D01*
X2809221Y159326D01*
X2812847Y160828D01*
X2816637Y161844D01*
X2820528Y162356D01*
X2822490Y162420D01*
X2831029D01*
X2832995D01*
X2836894Y162933D01*
X2840692Y163951D01*
X2844326Y165456D01*
X2847731Y167422D01*
X2850851Y169816D01*
X2853632Y172597D01*
X2856026Y175717D01*
X2857993Y179123D01*
X2859497Y182756D01*
X2860515Y186555D01*
X2861029Y190454D01*
Y192420D01*
Y1712420D01*
Y1714386D01*
X2860515Y1718285D02*
X2861029Y1714386D01*
X2859497Y1722084D02*
X2860515Y1718285D01*
X2857993Y1725717D02*
X2859497Y1722084D01*
X2856026Y1729123D02*
X2857993Y1725717D01*
X2853632Y1732243D02*
X2856026Y1729123D01*
X2850851Y1735023D02*
X2853632Y1732243D01*
X2847731Y1737417D02*
X2850851Y1735023D01*
X2844326Y1739384D02*
X2847731Y1737417D01*
X2840692Y1740889D02*
X2844326Y1739384D01*
X2836894Y1741907D02*
X2840692Y1740889D01*
X2832995Y1742420D02*
X2836894Y1741907D01*
X2831029Y1742420D02*
X2832995D01*
X2822490D02*
X2831029D01*
X2820528Y1742484D02*
X2822490Y1742420D01*
X2816637Y1742996D02*
X2820528Y1742484D01*
X2812847Y1744012D02*
X2816637Y1742996D01*
X2809221Y1745514D02*
X2812847Y1744012D01*
X2805823Y1747476D02*
X2809221Y1745514D01*
X2802710Y1749865D02*
X2805823Y1747476D01*
X2799935Y1752639D02*
X2802710Y1749865D01*
X2797546Y1755753D02*
X2799935Y1752639D01*
X2796509Y1757420D02*
X2797546Y1755753D01*
X2795544Y1759091D02*
X2796509Y1757420D01*
X2793202Y1762159D02*
X2795544Y1759091D01*
X2790486Y1764902D02*
X2793202Y1762159D01*
X2787440Y1767274D02*
X2790486Y1764902D01*
X2785779Y1768255D02*
X2787440Y1767274D01*
X2784136Y1769297D02*
X2785779Y1768255D01*
X2781072Y1771690D02*
X2784136Y1769297D01*
X2778343Y1774459D02*
X2781072Y1771690D01*
X2775994Y1777558D02*
X2778343Y1774459D01*
X2774066Y1780935D02*
X2775994Y1777558D01*
X2772592Y1784532D02*
X2774066Y1780935D01*
X2771595Y1788290D02*
X2772592Y1784532D01*
X2771092Y1792146D02*
X2771595Y1788290D01*
X2771028Y1794090D02*
X2771092Y1792146D01*
X2771028Y1794090D02*
Y1872420D01*
Y1874386D01*
X2770515Y1878285D02*
X2771028Y1874386D01*
X2769497Y1882084D02*
X2770515Y1878285D01*
X2767992Y1885717D02*
X2769497Y1882084D01*
X2766026Y1889123D02*
X2767992Y1885717D01*
X2763632Y1892243D02*
X2766026Y1889123D01*
X2760851Y1895023D02*
X2763632Y1892243D01*
X2757731Y1897417D02*
X2760851Y1895023D01*
X2754326Y1899384D02*
X2757731Y1897417D01*
X2750692Y1900889D02*
X2754326Y1899384D01*
X2746894Y1901907D02*
X2750692Y1900889D01*
X2742995Y1902420D02*
X2746894Y1901907D01*
X2741029Y1902420D02*
X2742995D01*
X121028D02*
X2741029D01*
X119062D02*
X121028D01*
X115163Y1901907D02*
X119062Y1902420D01*
X111365Y1900889D02*
X115163Y1901907D01*
X107731Y1899384D02*
X111365Y1900889D01*
X104326Y1897417D02*
X107731Y1899384D01*
X101206Y1895023D02*
X104326Y1897417D01*
X98425Y1892243D02*
X101206Y1895023D01*
X96031Y1889123D02*
X98425Y1892243D01*
X94065Y1885717D02*
X96031Y1889123D01*
X92560Y1882084D02*
X94065Y1885717D01*
X91542Y1878285D02*
X92560Y1882084D01*
X91028Y1874386D02*
X91542Y1878285D01*
X91028Y1872420D02*
Y1874386D01*
Y1794090D02*
Y1872420D01*
X90965Y1792146D02*
X91028Y1794090D01*
X90463Y1788290D02*
X90965Y1792146D01*
X89465Y1784532D02*
X90463Y1788290D01*
X87991Y1780935D02*
X89465Y1784532D01*
X86063Y1777558D02*
X87991Y1780935D01*
X83714Y1774459D02*
X86063Y1777558D01*
X80985Y1771690D02*
X83714Y1774459D01*
X77920Y1769297D02*
X80985Y1771690D01*
X76279Y1768255D02*
X77920Y1769297D01*
X74616Y1767274D02*
X76279Y1768255D01*
X71571Y1764902D02*
X74616Y1767274D01*
X68855Y1762159D02*
X71571Y1764902D01*
X66513Y1759091D02*
X68855Y1762159D01*
X65548Y1757420D02*
X66513Y1759091D01*
X64511Y1755753D02*
X65548Y1757420D01*
X62122Y1752639D02*
X64511Y1755753D01*
X59347Y1749865D02*
X62122Y1752639D01*
X56234Y1747476D02*
X59347Y1749865D01*
X52836Y1745514D02*
X56234Y1747476D01*
X49210Y1744012D02*
X52836Y1745514D01*
X45420Y1742996D02*
X49210Y1744012D01*
X41529Y1742484D02*
X45420Y1742996D01*
X39567Y1742420D02*
X41529Y1742484D01*
X31028Y1742420D02*
X39567D01*
X29062D02*
X31028D01*
X25163Y1741907D02*
X29062Y1742420D01*
X21365Y1740889D02*
X25163Y1741907D01*
X17731Y1739384D02*
X21365Y1740889D01*
X14325Y1737417D02*
X17731Y1739384D01*
X11206Y1735023D02*
X14325Y1737417D01*
X8425Y1732243D02*
X11206Y1735023D01*
X6031Y1729123D02*
X8425Y1732243D01*
X4065Y1725717D02*
X6031Y1729123D01*
X2560Y1722084D02*
X4065Y1725717D01*
X1542Y1718285D02*
X2560Y1722084D01*
X1028Y1714386D02*
X1542Y1718285D01*
X1028Y1712420D02*
Y1714386D01*
Y192420D02*
Y1712420D01*
Y190454D02*
Y192420D01*
Y190454D02*
X1542Y186555D01*
X2560Y182756D01*
X4065Y179123D01*
X6031Y175717D01*
X8425Y172597D01*
X11206Y169816D01*
X14325Y167422D01*
X17731Y165456D01*
X21365Y163951D01*
X25163Y162933D01*
X29062Y162420D01*
X31028Y162420D01*
X39567D01*
X41529Y162356D01*
X45420Y161844D01*
X49210Y160828D01*
X52836Y159326D01*
X56234Y157364D01*
X59347Y154975D01*
X62122Y152200D01*
X64511Y149087D01*
X65548Y147420D01*
X66513Y145749D01*
X68855Y142681D01*
X71571Y139938D01*
X74616Y137566D01*
X76279Y136585D01*
X91028Y32420D02*
Y110750D01*
X121028Y2420D02*
X2741029D01*
X2771028Y32420D02*
Y110750D01*
X2796509Y147420D02*
X2796509Y147420D01*
X2822490Y162420D02*
Y162420D01*
Y162420D02*
X2831029D01*
X2861029Y192420D02*
Y1712420D01*
X2822490Y1742420D02*
X2831029D01*
X2822490Y1742420D02*
Y1742420D01*
X2796509Y1757420D02*
X2796509Y1757420D01*
X2771028Y1794090D02*
Y1872420D01*
X121028Y1902420D02*
X2741029D01*
X91028Y1794090D02*
Y1872420D01*
X31028Y1742420D02*
X39567D01*
X1028Y192420D02*
Y1712420D01*
X31028Y162420D02*
X39567D01*
X91028Y32420D02*
Y110750D01*
X121028Y2420D02*
X2741029D01*
X2771028Y32420D02*
Y110750D01*
X2796509Y147420D02*
X2796509Y147420D01*
X2822490Y162420D02*
Y162420D01*
Y162420D02*
X2831029D01*
X2861029Y192420D02*
Y1712420D01*
X2822490Y1742420D02*
X2831029D01*
X2822490Y1742420D02*
Y1742420D01*
X2796509Y1757420D02*
X2796509Y1757420D01*
X2771028Y1794090D02*
Y1872420D01*
X121028Y1902420D02*
X2741029D01*
X91028Y1794090D02*
Y1872420D01*
X31028Y1742420D02*
X39567D01*
X1028Y192420D02*
Y1712420D01*
X31028Y162420D02*
X39567D01*
X91028Y32420D02*
Y110750D01*
X121028Y2420D02*
X2741029D01*
X2771028Y32420D02*
Y110750D01*
X2796509Y147420D02*
X2796509Y147420D01*
X2822490Y162420D02*
Y162420D01*
Y162420D02*
X2831029D01*
X2861029Y192420D02*
Y1712420D01*
X2822490Y1742420D02*
X2831029D01*
X2822490Y1742420D02*
Y1742420D01*
X2796509Y1757420D02*
X2796509Y1757420D01*
X2771028Y1794090D02*
Y1872420D01*
X121028Y1902420D02*
X2741029D01*
X91028Y1794090D02*
Y1872420D01*
X31028Y1742420D02*
X39567D01*
X1028Y192420D02*
Y1712420D01*
X31028Y162420D02*
X39567D01*
D20*
X76279Y136585D02*
X77920Y135543D01*
X80985Y133150D01*
X83714Y130381D01*
X86063Y127282D01*
X87991Y123905D01*
X89465Y120308D01*
X90463Y116550D01*
X90965Y112694D01*
X91028Y110750D01*
X91028Y32420D01*
Y30454D02*
Y32420D01*
Y30454D02*
X91542Y26555D01*
X92560Y22756D01*
X94065Y19123D01*
X96031Y15717D01*
X98425Y12597D01*
X101206Y9816D01*
X104326Y7423D01*
X107731Y5456D01*
X111365Y3951D01*
X115163Y2933D01*
X119062Y2420D01*
X121028Y2420D01*
X2741029D01*
X2742995D01*
X2746894Y2933D01*
X2750692Y3951D01*
X2754326Y5456D01*
X2757731Y7423D01*
X2760851Y9816D01*
X2763632Y12597D01*
X2766026Y15717D01*
X2767992Y19123D01*
X2769497Y22756D01*
X2770515Y26555D01*
X2771028Y30454D01*
Y32420D01*
Y110750D01*
X2771092Y112694D01*
X2771595Y116550D01*
X2772592Y120308D01*
X2774066Y123905D01*
X2775994Y127282D01*
X2778343Y130381D01*
X2781072Y133150D01*
X2784136Y135543D01*
X2785779Y136585D01*
X2787440Y137566D01*
X2790486Y139938D01*
X2793202Y142681D01*
X2795544Y145749D01*
X2796509Y147420D01*
X2797546Y149087D01*
X2799935Y152200D01*
X2802710Y154975D01*
X2805823Y157364D01*
X2809221Y159326D01*
X2812847Y160828D01*
X2816637Y161844D01*
X2820528Y162356D01*
X2822490Y162420D01*
X2831029D01*
X2832995D01*
X2836894Y162933D01*
X2840692Y163951D01*
X2844326Y165456D01*
X2847731Y167422D01*
X2850851Y169816D01*
X2853632Y172597D01*
X2856026Y175717D01*
X2857993Y179123D01*
X2859497Y182756D01*
X2860515Y186555D01*
X2861029Y190454D01*
Y192420D01*
Y1712420D01*
Y1714386D01*
X2860515Y1718285D02*
X2861029Y1714386D01*
X2859497Y1722084D02*
X2860515Y1718285D01*
X2857993Y1725717D02*
X2859497Y1722084D01*
X2856026Y1729123D02*
X2857993Y1725717D01*
X2853632Y1732243D02*
X2856026Y1729123D01*
X2850851Y1735023D02*
X2853632Y1732243D01*
X2847731Y1737417D02*
X2850851Y1735023D01*
X2844326Y1739384D02*
X2847731Y1737417D01*
X2840692Y1740889D02*
X2844326Y1739384D01*
X2836894Y1741907D02*
X2840692Y1740889D01*
X2832995Y1742420D02*
X2836894Y1741907D01*
X2831029Y1742420D02*
X2832995D01*
X2822490D02*
X2831029D01*
X2820528Y1742484D02*
X2822490Y1742420D01*
X2816637Y1742996D02*
X2820528Y1742484D01*
X2812847Y1744012D02*
X2816637Y1742996D01*
X2809221Y1745514D02*
X2812847Y1744012D01*
X2805823Y1747476D02*
X2809221Y1745514D01*
X2802710Y1749865D02*
X2805823Y1747476D01*
X2799935Y1752639D02*
X2802710Y1749865D01*
X2797546Y1755753D02*
X2799935Y1752639D01*
X2796509Y1757420D02*
X2797546Y1755753D01*
X2795544Y1759091D02*
X2796509Y1757420D01*
X2793202Y1762159D02*
X2795544Y1759091D01*
X2790486Y1764902D02*
X2793202Y1762159D01*
X2787440Y1767274D02*
X2790486Y1764902D01*
X2785779Y1768255D02*
X2787440Y1767274D01*
X2784136Y1769297D02*
X2785779Y1768255D01*
X2781072Y1771690D02*
X2784136Y1769297D01*
X2778343Y1774459D02*
X2781072Y1771690D01*
X2775994Y1777558D02*
X2778343Y1774459D01*
X2774066Y1780935D02*
X2775994Y1777558D01*
X2772592Y1784532D02*
X2774066Y1780935D01*
X2771595Y1788290D02*
X2772592Y1784532D01*
X2771092Y1792146D02*
X2771595Y1788290D01*
X2771028Y1794090D02*
X2771092Y1792146D01*
X2771028Y1794090D02*
Y1872420D01*
Y1874386D01*
X2770515Y1878285D02*
X2771028Y1874386D01*
X2769497Y1882084D02*
X2770515Y1878285D01*
X2767992Y1885717D02*
X2769497Y1882084D01*
X2766026Y1889123D02*
X2767992Y1885717D01*
X2763632Y1892243D02*
X2766026Y1889123D01*
X2760851Y1895023D02*
X2763632Y1892243D01*
X2757731Y1897417D02*
X2760851Y1895023D01*
X2754326Y1899384D02*
X2757731Y1897417D01*
X2750692Y1900889D02*
X2754326Y1899384D01*
X2746894Y1901907D02*
X2750692Y1900889D01*
X2742995Y1902420D02*
X2746894Y1901907D01*
X2741029Y1902420D02*
X2742995D01*
X121028D02*
X2741029D01*
X119062D02*
X121028D01*
X115163Y1901907D02*
X119062Y1902420D01*
X111365Y1900889D02*
X115163Y1901907D01*
X107731Y1899384D02*
X111365Y1900889D01*
X104326Y1897417D02*
X107731Y1899384D01*
X101206Y1895023D02*
X104326Y1897417D01*
X98425Y1892243D02*
X101206Y1895023D01*
X96031Y1889123D02*
X98425Y1892243D01*
X94065Y1885717D02*
X96031Y1889123D01*
X92560Y1882084D02*
X94065Y1885717D01*
X91542Y1878285D02*
X92560Y1882084D01*
X91028Y1874386D02*
X91542Y1878285D01*
X91028Y1872420D02*
Y1874386D01*
Y1794090D02*
Y1872420D01*
X90965Y1792146D02*
X91028Y1794090D01*
X90463Y1788290D02*
X90965Y1792146D01*
X89465Y1784532D02*
X90463Y1788290D01*
X87991Y1780935D02*
X89465Y1784532D01*
X86063Y1777558D02*
X87991Y1780935D01*
X83714Y1774459D02*
X86063Y1777558D01*
X80985Y1771690D02*
X83714Y1774459D01*
X77920Y1769297D02*
X80985Y1771690D01*
X76279Y1768255D02*
X77920Y1769297D01*
X74616Y1767274D02*
X76279Y1768255D01*
X71571Y1764902D02*
X74616Y1767274D01*
X68855Y1762159D02*
X71571Y1764902D01*
X66513Y1759091D02*
X68855Y1762159D01*
X65548Y1757420D02*
X66513Y1759091D01*
X64511Y1755753D02*
X65548Y1757420D01*
X62122Y1752639D02*
X64511Y1755753D01*
X59347Y1749865D02*
X62122Y1752639D01*
X56234Y1747476D02*
X59347Y1749865D01*
X52836Y1745514D02*
X56234Y1747476D01*
X49210Y1744012D02*
X52836Y1745514D01*
X45420Y1742996D02*
X49210Y1744012D01*
X41529Y1742484D02*
X45420Y1742996D01*
X39567Y1742420D02*
X41529Y1742484D01*
X31028Y1742420D02*
X39567D01*
X29062D02*
X31028D01*
X25163Y1741907D02*
X29062Y1742420D01*
X21365Y1740889D02*
X25163Y1741907D01*
X17731Y1739384D02*
X21365Y1740889D01*
X14325Y1737417D02*
X17731Y1739384D01*
X11206Y1735023D02*
X14325Y1737417D01*
X8425Y1732243D02*
X11206Y1735023D01*
X6031Y1729123D02*
X8425Y1732243D01*
X4065Y1725717D02*
X6031Y1729123D01*
X2560Y1722084D02*
X4065Y1725717D01*
X1542Y1718285D02*
X2560Y1722084D01*
X1028Y1714386D02*
X1542Y1718285D01*
X1028Y1712420D02*
Y1714386D01*
Y192420D02*
Y1712420D01*
Y190454D02*
Y192420D01*
Y190454D02*
X1542Y186555D01*
X2560Y182756D01*
X4065Y179123D01*
X6031Y175717D01*
X8425Y172597D01*
X11206Y169816D01*
X14325Y167422D01*
X17731Y165456D01*
X21365Y163951D01*
X25163Y162933D01*
X29062Y162420D01*
X31028Y162420D01*
X39567D01*
X41529Y162356D01*
X45420Y161844D01*
X49210Y160828D01*
X52836Y159326D01*
X56234Y157364D01*
X59347Y154975D01*
X62122Y152200D01*
X64511Y149087D01*
X65548Y147420D01*
X66513Y145749D01*
X68855Y142681D01*
X71571Y139938D01*
X74616Y137566D01*
X76279Y136585D01*
X77920Y135543D01*
X80985Y133150D01*
X83714Y130381D01*
X86063Y127282D01*
X87991Y123905D01*
X89465Y120308D01*
X90463Y116550D01*
X90965Y112694D01*
X91028Y110750D01*
X91028Y32420D01*
Y30454D02*
Y32420D01*
Y30454D02*
X91542Y26555D01*
X92560Y22756D01*
X94065Y19123D01*
X96031Y15717D01*
X98425Y12597D01*
X101206Y9816D01*
X104326Y7423D01*
X107731Y5456D01*
X111365Y3951D01*
X115163Y2933D01*
X119062Y2420D01*
X121028Y2420D01*
X2741029D01*
X2742995D01*
X2746894Y2933D01*
X2750692Y3951D01*
X2754326Y5456D01*
X2757731Y7423D01*
X2760851Y9816D01*
X2763632Y12597D01*
X2766026Y15717D01*
X2767992Y19123D01*
X2769497Y22756D01*
X2770515Y26555D01*
X2771028Y30454D01*
Y32420D01*
Y110750D01*
X2771092Y112694D01*
X2771595Y116550D01*
X2772592Y120308D01*
X2774066Y123905D01*
X2775994Y127282D01*
X2778343Y130381D01*
X2781072Y133150D01*
X2784136Y135543D01*
X2785779Y136585D01*
X2787440Y137566D01*
X2790486Y139938D01*
X2793202Y142681D01*
X2795544Y145749D01*
X2796509Y147420D01*
X2797546Y149087D01*
X2799935Y152200D01*
X2802710Y154975D01*
X2805823Y157364D01*
X2809221Y159326D01*
X2812847Y160828D01*
X2816637Y161844D01*
X2820528Y162356D01*
X2822490Y162420D01*
X2831029D01*
X2832995D01*
X2836894Y162933D01*
X2840692Y163951D01*
X2844326Y165456D01*
X2847731Y167422D01*
X2850851Y169816D01*
X2853632Y172597D01*
X2856026Y175717D01*
X2857993Y179123D01*
X2859497Y182756D01*
X2860515Y186555D01*
X2861029Y190454D01*
Y192420D01*
Y1712420D01*
Y1714386D01*
X2860515Y1718285D02*
X2861029Y1714386D01*
X2859497Y1722084D02*
X2860515Y1718285D01*
X2857993Y1725717D02*
X2859497Y1722084D01*
X2856026Y1729123D02*
X2857993Y1725717D01*
X2853632Y1732243D02*
X2856026Y1729123D01*
X2850851Y1735023D02*
X2853632Y1732243D01*
X2847731Y1737417D02*
X2850851Y1735023D01*
X2844326Y1739384D02*
X2847731Y1737417D01*
X2840692Y1740889D02*
X2844326Y1739384D01*
X2836894Y1741907D02*
X2840692Y1740889D01*
X2832995Y1742420D02*
X2836894Y1741907D01*
X2831029Y1742420D02*
X2832995D01*
X2822490D02*
X2831029D01*
X2820528Y1742484D02*
X2822490Y1742420D01*
X2816637Y1742996D02*
X2820528Y1742484D01*
X2812847Y1744012D02*
X2816637Y1742996D01*
X2809221Y1745514D02*
X2812847Y1744012D01*
X2805823Y1747476D02*
X2809221Y1745514D01*
X2802710Y1749865D02*
X2805823Y1747476D01*
X2799935Y1752639D02*
X2802710Y1749865D01*
X2797546Y1755753D02*
X2799935Y1752639D01*
X2796509Y1757420D02*
X2797546Y1755753D01*
X2795544Y1759091D02*
X2796509Y1757420D01*
X2793202Y1762159D02*
X2795544Y1759091D01*
X2790486Y1764902D02*
X2793202Y1762159D01*
X2787440Y1767274D02*
X2790486Y1764902D01*
X2785779Y1768255D02*
X2787440Y1767274D01*
X2784136Y1769297D02*
X2785779Y1768255D01*
X2781072Y1771690D02*
X2784136Y1769297D01*
X2778343Y1774459D02*
X2781072Y1771690D01*
X2775994Y1777558D02*
X2778343Y1774459D01*
X2774066Y1780935D02*
X2775994Y1777558D01*
X2772592Y1784532D02*
X2774066Y1780935D01*
X2771595Y1788290D02*
X2772592Y1784532D01*
X2771092Y1792146D02*
X2771595Y1788290D01*
X2771028Y1794090D02*
X2771092Y1792146D01*
X2771028Y1794090D02*
Y1872420D01*
Y1874386D01*
X2770515Y1878285D02*
X2771028Y1874386D01*
X2769497Y1882084D02*
X2770515Y1878285D01*
X2767992Y1885717D02*
X2769497Y1882084D01*
X2766026Y1889123D02*
X2767992Y1885717D01*
X2763632Y1892243D02*
X2766026Y1889123D01*
X2760851Y1895023D02*
X2763632Y1892243D01*
X2757731Y1897417D02*
X2760851Y1895023D01*
X2754326Y1899384D02*
X2757731Y1897417D01*
X2750692Y1900889D02*
X2754326Y1899384D01*
X2746894Y1901907D02*
X2750692Y1900889D01*
X2742995Y1902420D02*
X2746894Y1901907D01*
X2741029Y1902420D02*
X2742995D01*
X121028D02*
X2741029D01*
X119062D02*
X121028D01*
X115163Y1901907D02*
X119062Y1902420D01*
X111365Y1900889D02*
X115163Y1901907D01*
X107731Y1899384D02*
X111365Y1900889D01*
X104326Y1897417D02*
X107731Y1899384D01*
X101206Y1895023D02*
X104326Y1897417D01*
X98425Y1892243D02*
X101206Y1895023D01*
X96031Y1889123D02*
X98425Y1892243D01*
X94065Y1885717D02*
X96031Y1889123D01*
X92560Y1882084D02*
X94065Y1885717D01*
X91542Y1878285D02*
X92560Y1882084D01*
X91028Y1874386D02*
X91542Y1878285D01*
X91028Y1872420D02*
Y1874386D01*
Y1794090D02*
Y1872420D01*
X90965Y1792146D02*
X91028Y1794090D01*
X90463Y1788290D02*
X90965Y1792146D01*
X89465Y1784532D02*
X90463Y1788290D01*
X87991Y1780935D02*
X89465Y1784532D01*
X86063Y1777558D02*
X87991Y1780935D01*
X83714Y1774459D02*
X86063Y1777558D01*
X80985Y1771690D02*
X83714Y1774459D01*
X77920Y1769297D02*
X80985Y1771690D01*
X76279Y1768255D02*
X77920Y1769297D01*
X74616Y1767274D02*
X76279Y1768255D01*
X71571Y1764902D02*
X74616Y1767274D01*
X68855Y1762159D02*
X71571Y1764902D01*
X66513Y1759091D02*
X68855Y1762159D01*
X65548Y1757420D02*
X66513Y1759091D01*
X64511Y1755753D02*
X65548Y1757420D01*
X62122Y1752639D02*
X64511Y1755753D01*
X59347Y1749865D02*
X62122Y1752639D01*
X56234Y1747476D02*
X59347Y1749865D01*
X52836Y1745514D02*
X56234Y1747476D01*
X49210Y1744012D02*
X52836Y1745514D01*
X45420Y1742996D02*
X49210Y1744012D01*
X41529Y1742484D02*
X45420Y1742996D01*
X39567Y1742420D02*
X41529Y1742484D01*
X31028Y1742420D02*
X39567D01*
X29062D02*
X31028D01*
X25163Y1741907D02*
X29062Y1742420D01*
X21365Y1740889D02*
X25163Y1741907D01*
X17731Y1739384D02*
X21365Y1740889D01*
X14325Y1737417D02*
X17731Y1739384D01*
X11206Y1735023D02*
X14325Y1737417D01*
X8425Y1732243D02*
X11206Y1735023D01*
X6031Y1729123D02*
X8425Y1732243D01*
X4065Y1725717D02*
X6031Y1729123D01*
X2560Y1722084D02*
X4065Y1725717D01*
X1542Y1718285D02*
X2560Y1722084D01*
X1028Y1714386D02*
X1542Y1718285D01*
X1028Y1712420D02*
Y1714386D01*
Y192420D02*
Y1712420D01*
Y190454D02*
Y192420D01*
Y190454D02*
X1542Y186555D01*
X2560Y182756D01*
X4065Y179123D01*
X6031Y175717D01*
X8425Y172597D01*
X11206Y169816D01*
X14325Y167422D01*
X17731Y165456D01*
X21365Y163951D01*
X25163Y162933D01*
X29062Y162420D01*
X31028Y162420D01*
X39567D01*
X41529Y162356D01*
X45420Y161844D01*
X49210Y160828D01*
X52836Y159326D01*
X56234Y157364D01*
X59347Y154975D01*
X62122Y152200D01*
X64511Y149087D01*
X65548Y147420D01*
X66513Y145749D01*
X68855Y142681D01*
X71571Y139938D01*
X74616Y137566D01*
X76279Y136585D01*
X77920Y135543D01*
X80985Y133150D01*
X83714Y130381D01*
X86063Y127282D01*
X87991Y123905D01*
X89465Y120308D01*
X90463Y116550D01*
X90965Y112694D01*
X91028Y110750D01*
X91028Y32420D01*
Y30454D02*
Y32420D01*
Y30454D02*
X91542Y26555D01*
X92560Y22756D01*
X94065Y19123D01*
X96031Y15717D01*
X98425Y12597D01*
X101206Y9816D01*
X104326Y7423D01*
X107731Y5456D01*
X111365Y3951D01*
X115163Y2933D01*
X119062Y2420D01*
X121028Y2420D01*
X2741029D01*
X2742995D01*
X2746894Y2933D01*
X2750692Y3951D01*
X2754326Y5456D01*
X2757731Y7423D01*
X2760851Y9816D01*
X2763632Y12597D01*
X2766026Y15717D01*
X2767992Y19123D01*
X2769497Y22756D01*
X2770515Y26555D01*
X2771028Y30454D01*
Y32420D01*
Y110750D01*
X2771092Y112694D01*
X2771595Y116550D01*
X2772592Y120308D01*
X2774066Y123905D01*
X2775994Y127282D01*
X2778343Y130381D01*
X2781072Y133150D01*
X2784136Y135543D01*
X2785779Y136585D01*
X2787440Y137566D01*
X2790486Y139938D01*
X2793202Y142681D01*
X2795544Y145749D01*
X2796509Y147420D01*
X2797546Y149087D01*
X2799935Y152200D01*
X2802710Y154975D01*
X2805823Y157364D01*
X2809221Y159326D01*
X2812847Y160828D01*
X2816637Y161844D01*
X2820528Y162356D01*
X2822490Y162420D01*
X2831029D01*
X2832995D01*
X2836894Y162933D01*
X2840692Y163951D01*
X2844326Y165456D01*
X2847731Y167422D01*
X2850851Y169816D01*
X2853632Y172597D01*
X2856026Y175717D01*
X2857993Y179123D01*
X2859497Y182756D01*
X2860515Y186555D01*
X2861029Y190454D01*
Y192420D01*
Y1712420D01*
Y1714386D01*
X2860515Y1718285D02*
X2861029Y1714386D01*
X2859497Y1722084D02*
X2860515Y1718285D01*
X2857993Y1725717D02*
X2859497Y1722084D01*
X2856026Y1729123D02*
X2857993Y1725717D01*
X2853632Y1732243D02*
X2856026Y1729123D01*
X2850851Y1735023D02*
X2853632Y1732243D01*
X2847731Y1737417D02*
X2850851Y1735023D01*
X2844326Y1739384D02*
X2847731Y1737417D01*
X2840692Y1740889D02*
X2844326Y1739384D01*
X2836894Y1741907D02*
X2840692Y1740889D01*
X2832995Y1742420D02*
X2836894Y1741907D01*
X2831029Y1742420D02*
X2832995D01*
X2822490D02*
X2831029D01*
X2820528Y1742484D02*
X2822490Y1742420D01*
X2816637Y1742996D02*
X2820528Y1742484D01*
X2812847Y1744012D02*
X2816637Y1742996D01*
X2809221Y1745514D02*
X2812847Y1744012D01*
X2805823Y1747476D02*
X2809221Y1745514D01*
X2802710Y1749865D02*
X2805823Y1747476D01*
X2799935Y1752639D02*
X2802710Y1749865D01*
X2797546Y1755753D02*
X2799935Y1752639D01*
X2796509Y1757420D02*
X2797546Y1755753D01*
X2795544Y1759091D02*
X2796509Y1757420D01*
X2793202Y1762159D02*
X2795544Y1759091D01*
X2790486Y1764902D02*
X2793202Y1762159D01*
X2787440Y1767274D02*
X2790486Y1764902D01*
X2785779Y1768255D02*
X2787440Y1767274D01*
X2784136Y1769297D02*
X2785779Y1768255D01*
X2781072Y1771690D02*
X2784136Y1769297D01*
X2778343Y1774459D02*
X2781072Y1771690D01*
X2775994Y1777558D02*
X2778343Y1774459D01*
X2774066Y1780935D02*
X2775994Y1777558D01*
X2772592Y1784532D02*
X2774066Y1780935D01*
X2771595Y1788290D02*
X2772592Y1784532D01*
X2771092Y1792146D02*
X2771595Y1788290D01*
X2771028Y1794090D02*
X2771092Y1792146D01*
X2771028Y1794090D02*
Y1872420D01*
Y1874386D01*
X2770515Y1878285D02*
X2771028Y1874386D01*
X2769497Y1882084D02*
X2770515Y1878285D01*
X2767992Y1885717D02*
X2769497Y1882084D01*
X2766026Y1889123D02*
X2767992Y1885717D01*
X2763632Y1892243D02*
X2766026Y1889123D01*
X2760851Y1895023D02*
X2763632Y1892243D01*
X2757731Y1897417D02*
X2760851Y1895023D01*
X2754326Y1899384D02*
X2757731Y1897417D01*
X2750692Y1900889D02*
X2754326Y1899384D01*
X2746894Y1901907D02*
X2750692Y1900889D01*
X2742995Y1902420D02*
X2746894Y1901907D01*
X2741029Y1902420D02*
X2742995D01*
X121028D02*
X2741029D01*
X119062D02*
X121028D01*
X115163Y1901907D02*
X119062Y1902420D01*
X111365Y1900889D02*
X115163Y1901907D01*
X107731Y1899384D02*
X111365Y1900889D01*
X104326Y1897417D02*
X107731Y1899384D01*
X101206Y1895023D02*
X104326Y1897417D01*
X98425Y1892243D02*
X101206Y1895023D01*
X96031Y1889123D02*
X98425Y1892243D01*
X94065Y1885717D02*
X96031Y1889123D01*
X92560Y1882084D02*
X94065Y1885717D01*
X91542Y1878285D02*
X92560Y1882084D01*
X91028Y1874386D02*
X91542Y1878285D01*
X91028Y1872420D02*
Y1874386D01*
Y1794090D02*
Y1872420D01*
X90965Y1792146D02*
X91028Y1794090D01*
X90463Y1788290D02*
X90965Y1792146D01*
X89465Y1784532D02*
X90463Y1788290D01*
X87991Y1780935D02*
X89465Y1784532D01*
X86063Y1777558D02*
X87991Y1780935D01*
X83714Y1774459D02*
X86063Y1777558D01*
X80985Y1771690D02*
X83714Y1774459D01*
X77920Y1769297D02*
X80985Y1771690D01*
X76279Y1768255D02*
X77920Y1769297D01*
X74616Y1767274D02*
X76279Y1768255D01*
X71571Y1764902D02*
X74616Y1767274D01*
X68855Y1762159D02*
X71571Y1764902D01*
X66513Y1759091D02*
X68855Y1762159D01*
X65548Y1757420D02*
X66513Y1759091D01*
X64511Y1755753D02*
X65548Y1757420D01*
X62122Y1752639D02*
X64511Y1755753D01*
X59347Y1749865D02*
X62122Y1752639D01*
X56234Y1747476D02*
X59347Y1749865D01*
X52836Y1745514D02*
X56234Y1747476D01*
X49210Y1744012D02*
X52836Y1745514D01*
X45420Y1742996D02*
X49210Y1744012D01*
X41529Y1742484D02*
X45420Y1742996D01*
X39567Y1742420D02*
X41529Y1742484D01*
X31028Y1742420D02*
X39567D01*
X29062D02*
X31028D01*
X25163Y1741907D02*
X29062Y1742420D01*
X21365Y1740889D02*
X25163Y1741907D01*
X17731Y1739384D02*
X21365Y1740889D01*
X14325Y1737417D02*
X17731Y1739384D01*
X11206Y1735023D02*
X14325Y1737417D01*
X8425Y1732243D02*
X11206Y1735023D01*
X6031Y1729123D02*
X8425Y1732243D01*
X4065Y1725717D02*
X6031Y1729123D01*
X2560Y1722084D02*
X4065Y1725717D01*
X1542Y1718285D02*
X2560Y1722084D01*
X1028Y1714386D02*
X1542Y1718285D01*
X1028Y1712420D02*
Y1714386D01*
Y192420D02*
Y1712420D01*
Y190454D02*
Y192420D01*
Y190454D02*
X1542Y186555D01*
X2560Y182756D01*
X4065Y179123D01*
X6031Y175717D01*
X8425Y172597D01*
X11206Y169816D01*
X14325Y167422D01*
X17731Y165456D01*
X21365Y163951D01*
X25163Y162933D01*
X29062Y162420D01*
X31028Y162420D01*
X39567D01*
X41529Y162356D01*
X45420Y161844D01*
X49210Y160828D01*
X52836Y159326D01*
X56234Y157364D01*
X59347Y154975D01*
X62122Y152200D01*
X64511Y149087D01*
X65548Y147420D01*
X66513Y145749D01*
X68855Y142681D01*
X71571Y139938D01*
X74616Y137566D01*
X76279Y136585D01*
X77920Y135543D01*
X80985Y133150D01*
X83714Y130381D01*
X86063Y127282D01*
X87991Y123905D01*
X89465Y120308D01*
X90463Y116550D01*
X90965Y112694D01*
X91028Y110750D01*
X91028Y32420D01*
Y30454D02*
Y32420D01*
Y30454D02*
X91542Y26555D01*
X92560Y22756D01*
X94065Y19123D01*
X96031Y15717D01*
X98425Y12597D01*
X101206Y9816D01*
X104326Y7423D01*
X107731Y5456D01*
X111365Y3951D01*
X115163Y2933D01*
X119062Y2420D01*
X121028Y2420D01*
X2741029D01*
X2742995D01*
X2746894Y2933D01*
X2750692Y3951D01*
X2754326Y5456D01*
X2757731Y7423D01*
X2760851Y9816D01*
X2763632Y12597D01*
X2766026Y15717D01*
X2767992Y19123D01*
X2769497Y22756D01*
X2770515Y26555D01*
X2771028Y30454D01*
Y32420D01*
Y110750D01*
X2771092Y112694D01*
X2771595Y116550D01*
X2772592Y120308D01*
X2774066Y123905D01*
X2775994Y127282D01*
X2778343Y130381D01*
X2781072Y133150D01*
X2784136Y135543D01*
X2785779Y136585D01*
X2787440Y137566D01*
X2790486Y139938D01*
X2793202Y142681D01*
X2795544Y145749D01*
X2796509Y147420D01*
X2797546Y149087D01*
X2799935Y152200D01*
X2802710Y154975D01*
X2805823Y157364D01*
X2809221Y159326D01*
X2812847Y160828D01*
X2816637Y161844D01*
X2820528Y162356D01*
X2822490Y162420D01*
X2831029D01*
X2832995D02*
X2836894Y162933D01*
X2840692Y163951D01*
X2844326Y165456D01*
X2847731Y167422D01*
X2850851Y169816D01*
X2853632Y172597D01*
X2856026Y175717D01*
X2857993Y179123D01*
X2859497Y182756D01*
X2860515Y186555D01*
X2861029Y190454D01*
Y192420D01*
Y1712420D01*
Y1714386D01*
X2860515Y1718285D02*
X2861029Y1714386D01*
X2859497Y1722084D02*
X2860515Y1718285D01*
X2857993Y1725717D02*
X2859497Y1722084D01*
X2856026Y1729123D02*
X2857993Y1725717D01*
X2853632Y1732243D02*
X2856026Y1729123D01*
X2850851Y1735023D02*
X2853632Y1732243D01*
X2847731Y1737417D02*
X2850851Y1735023D01*
X2844326Y1739384D02*
X2847731Y1737417D01*
X2840692Y1740889D02*
X2844326Y1739384D01*
X2836894Y1741907D02*
X2840692Y1740889D01*
X2832995Y1742420D02*
X2836894Y1741907D01*
X2831029Y1742420D02*
X2832995D01*
X2822490D02*
X2831029D01*
X2820528Y1742484D02*
X2822490Y1742420D01*
X2816637Y1742996D02*
X2820528Y1742484D01*
X2812847Y1744012D02*
X2816637Y1742996D01*
X2809221Y1745514D02*
X2812847Y1744012D01*
X2805823Y1747476D02*
X2809221Y1745514D01*
X2802710Y1749865D02*
X2805823Y1747476D01*
X2799935Y1752639D02*
X2802710Y1749865D01*
X2797546Y1755753D02*
X2799935Y1752639D01*
X2796509Y1757420D02*
X2797546Y1755753D01*
X2795544Y1759091D02*
X2796509Y1757420D01*
X2793202Y1762159D02*
X2795544Y1759091D01*
X2790486Y1764902D02*
X2793202Y1762159D01*
X2787440Y1767274D02*
X2790486Y1764902D01*
X2785779Y1768255D02*
X2787440Y1767274D01*
X2784136Y1769297D02*
X2785779Y1768255D01*
X2781072Y1771690D02*
X2784136Y1769297D01*
X2778343Y1774459D02*
X2781072Y1771690D01*
X2775994Y1777558D02*
X2778343Y1774459D01*
X2774066Y1780935D02*
X2775994Y1777558D01*
X2772592Y1784532D02*
X2774066Y1780935D01*
X2771595Y1788290D02*
X2772592Y1784532D01*
X2771092Y1792146D02*
X2771595Y1788290D01*
X2771028Y1794090D02*
X2771092Y1792146D01*
X2771028Y1794090D02*
Y1872420D01*
Y1874386D01*
X2770515Y1878285D02*
X2771028Y1874386D01*
X2769497Y1882084D02*
X2770515Y1878285D01*
X2767992Y1885717D02*
X2769497Y1882084D01*
X2766026Y1889123D02*
X2767992Y1885717D01*
X2763632Y1892243D02*
X2766026Y1889123D01*
X2760851Y1895023D02*
X2763632Y1892243D01*
X2757731Y1897417D02*
X2760851Y1895023D01*
X2754326Y1899384D02*
X2757731Y1897417D01*
X2750692Y1900889D02*
X2754326Y1899384D01*
X2746894Y1901907D02*
X2750692Y1900889D01*
X2742995Y1902420D02*
X2746894Y1901907D01*
X2741029Y1902420D02*
X2742995D01*
X121028D02*
X2741029D01*
X119062D02*
X121028D01*
X115163Y1901907D02*
X119062Y1902420D01*
X111365Y1900889D02*
X115163Y1901907D01*
X107731Y1899384D02*
X111365Y1900889D01*
X104326Y1897417D02*
X107731Y1899384D01*
X101206Y1895023D02*
X104326Y1897417D01*
X98425Y1892243D02*
X101206Y1895023D01*
X96031Y1889123D02*
X98425Y1892243D01*
X94065Y1885717D02*
X96031Y1889123D01*
X92560Y1882084D02*
X94065Y1885717D01*
X91542Y1878285D02*
X92560Y1882084D01*
X91028Y1874386D02*
X91542Y1878285D01*
X91028Y1872420D02*
Y1874386D01*
Y1794090D02*
Y1872420D01*
X90965Y1792146D02*
X91028Y1794090D01*
X90463Y1788290D02*
X90965Y1792146D01*
X89465Y1784532D02*
X90463Y1788290D01*
X87991Y1780935D02*
X89465Y1784532D01*
X86063Y1777558D02*
X87991Y1780935D01*
X83714Y1774459D02*
X86063Y1777558D01*
X80985Y1771690D02*
X83714Y1774459D01*
X77920Y1769297D02*
X80985Y1771690D01*
X76279Y1768255D02*
X77920Y1769297D01*
X74616Y1767274D02*
X76279Y1768255D01*
X71571Y1764902D02*
X74616Y1767274D01*
X68855Y1762159D02*
X71571Y1764902D01*
X66513Y1759091D02*
X68855Y1762159D01*
X65548Y1757420D02*
X66513Y1759091D01*
X64511Y1755753D02*
X65548Y1757420D01*
X62122Y1752639D02*
X64511Y1755753D01*
X59347Y1749865D02*
X62122Y1752639D01*
X56234Y1747476D02*
X59347Y1749865D01*
X52836Y1745514D02*
X56234Y1747476D01*
X49210Y1744012D02*
X52836Y1745514D01*
X45420Y1742996D02*
X49210Y1744012D01*
X41529Y1742484D02*
X45420Y1742996D01*
X39567Y1742420D02*
X41529Y1742484D01*
X31028Y1742420D02*
X39567D01*
X29062D02*
X31028D01*
X25163Y1741907D02*
X29062Y1742420D01*
X21365Y1740889D02*
X25163Y1741907D01*
X17731Y1739384D02*
X21365Y1740889D01*
X14325Y1737417D02*
X17731Y1739384D01*
X11206Y1735023D02*
X14325Y1737417D01*
X8425Y1732243D02*
X11206Y1735023D01*
X6031Y1729123D02*
X8425Y1732243D01*
X4065Y1725717D02*
X6031Y1729123D01*
X2560Y1722084D02*
X4065Y1725717D01*
X1542Y1718285D02*
X2560Y1722084D01*
X1028Y1714386D02*
X1542Y1718285D01*
X1028Y1712420D02*
Y1714386D01*
Y192420D02*
Y1712420D01*
Y190454D02*
Y192420D01*
Y190454D02*
X1542Y186555D01*
X2560Y182756D01*
X4065Y179123D01*
X6031Y175717D01*
X8425Y172597D01*
X11206Y169816D01*
X14325Y167422D01*
X17731Y165456D01*
X21365Y163951D01*
X25163Y162933D01*
X29062Y162420D01*
X31028Y162420D01*
X39567D01*
X41529Y162356D01*
X45420Y161844D01*
X49210Y160828D01*
X52836Y159326D01*
X56234Y157364D01*
X59347Y154975D01*
X62122Y152200D01*
X64511Y149087D01*
X65548Y147420D01*
X66513Y145749D01*
X68855Y142681D01*
X71571Y139938D01*
X74616Y137566D01*
X76279Y136585D01*
D68*
X2567750Y547000D02*
D03*
X2586750D02*
D03*
X2585500Y197750D02*
D03*
X2604500D02*
D03*
X2440000Y617500D02*
D03*
X2459000D02*
D03*
X2580676Y1757750D02*
D03*
X2599676D02*
D03*
X2699354Y1089470D02*
D03*
X2718354D02*
D03*
X2717354Y1139470D02*
D03*
X2698354D02*
D03*
X2698404Y1596000D02*
D03*
X2717404D02*
D03*
X2718404Y1546000D02*
D03*
X2699404D02*
D03*
X2644000Y547500D02*
D03*
X2625000D02*
D03*
X2511250Y1757750D02*
D03*
X2530250D02*
D03*
X2565013D02*
D03*
X2546013D02*
D03*
X2647250Y332500D02*
D03*
X2628250D02*
D03*
X2595000D02*
D03*
X2614000D02*
D03*
X2595000Y315000D02*
D03*
X2614000D02*
D03*
X2698354Y909470D02*
D03*
X2717354D02*
D03*
X2718354Y859470D02*
D03*
X2699354D02*
D03*
X2698354Y1369470D02*
D03*
X2717354D02*
D03*
X2718354Y1319470D02*
D03*
X2699354D02*
D03*
D73*
X2491250Y467000D02*
D03*
Y486000D02*
D03*
Y411500D02*
D03*
Y430500D02*
D03*
Y353750D02*
D03*
Y372750D02*
D03*
X2703750Y370000D02*
D03*
Y351000D02*
D03*
X2515000Y664000D02*
D03*
Y645000D02*
D03*
X2605000Y1083500D02*
D03*
Y1102500D02*
D03*
Y1134500D02*
D03*
Y1115500D02*
D03*
X2605050Y1572030D02*
D03*
Y1591030D02*
D03*
Y1559030D02*
D03*
Y1540030D02*
D03*
X2662250Y350280D02*
D03*
Y331280D02*
D03*
X2605000Y885500D02*
D03*
Y904500D02*
D03*
Y1345500D02*
D03*
Y1364500D02*
D03*
X2659750Y1760500D02*
D03*
Y1779500D02*
D03*
X2519500Y526000D02*
D03*
Y545000D02*
D03*
X2502000Y526000D02*
D03*
Y545000D02*
D03*
X2703750Y499750D02*
D03*
Y518750D02*
D03*
Y416750D02*
D03*
Y435750D02*
D03*
X2578750Y332780D02*
D03*
Y313780D02*
D03*
X2703750Y460750D02*
D03*
Y479750D02*
D03*
X2721250Y499750D02*
D03*
Y518750D02*
D03*
X2605000Y872500D02*
D03*
Y853500D02*
D03*
Y1332500D02*
D03*
Y1313500D02*
D03*
D89*
X2536170Y1649000D02*
D03*
X2573000D02*
D03*
D95*
X337000Y322500D02*
X543000D01*
X202750D02*
X337000D01*
X2364500Y386000D02*
X2388750D01*
X2309000Y441500D02*
X2364500Y386000D01*
X161750Y389500D02*
Y512000D01*
X2696374Y1546530D02*
X2699404Y1543500D01*
X2696324Y1320000D02*
X2699354Y1316970D01*
X2696324Y1090000D02*
X2699354Y1086970D01*
X2696324Y860000D02*
X2699354Y856970D01*
X2745083Y909470D02*
X2745583Y909970D01*
X2717354Y909470D02*
X2745083D01*
X2745583Y909970D02*
X2745854D01*
X2604543Y824165D02*
Y853043D01*
X2605000Y853500D01*
X2717404Y1596000D02*
X2745904D01*
X2746154D01*
X144500Y380750D02*
X202750Y322500D01*
X543000D02*
X644000Y423500D01*
X209500Y341750D02*
X357750D01*
X471500D01*
X535250D01*
X635000Y441500D02*
X2309000D01*
X2416750Y308000D02*
X2537250D01*
X2301250Y423500D02*
X2416750Y308000D01*
X644000Y423500D02*
X2301250D01*
X161750Y389500D02*
X209500Y341750D01*
X144500Y380750D02*
Y508500D01*
X535250Y341750D02*
X635000Y441500D01*
X2667550Y1546530D02*
X2696374D01*
X2604593Y1539573D02*
X2605050Y1540030D01*
X2604593Y1510695D02*
Y1539573D01*
X2667500Y860000D02*
X2696324D01*
X2717354Y1139470D02*
X2745854D01*
X2746104D01*
X2667500Y1090000D02*
X2696324D01*
X2604543Y1083043D02*
X2605000Y1083500D01*
X2604543Y1054165D02*
Y1083043D01*
X2717354Y1369470D02*
X2745854D01*
X2746104D01*
X2667500Y1320000D02*
X2696324D01*
X2604543Y1313043D02*
X2605000Y1313500D01*
X2604543Y1284165D02*
Y1313043D01*
X2573000Y1649000D02*
Y1677250D01*
X2561750Y1688500D02*
X2573000Y1677250D01*
X2584150Y1726400D02*
X2584250Y1726500D01*
D96*
X2529170Y1642000D02*
X2536170Y1649000D01*
X2516000Y1642000D02*
X2529170D01*
X500000Y424000D02*
X501750Y425750D01*
X424250Y424000D02*
X500000D01*
X409000Y408750D02*
X424250Y424000D01*
X2515000Y664000D02*
X2516995Y665995D01*
X2537205D01*
X2539200Y667990D01*
X2430000Y617500D02*
X2440000D01*
X2425000Y622500D02*
Y655492D01*
Y622500D02*
X2430000Y617500D01*
X2425000Y655492D02*
X2437500Y667992D01*
X2488300Y642592D02*
X2489504Y643796D01*
X2513796D01*
X2515000Y645000D01*
X2459000Y617500D02*
Y642592D01*
X2462900D01*
X2734750Y499750D02*
X2735000Y500000D01*
X2721250Y499750D02*
X2734750D01*
X2515000Y823550D02*
X2520926Y817624D01*
Y815574D02*
X2521500Y815000D01*
X2520926Y815574D02*
Y817624D01*
X2490500Y1303500D02*
X2502000D01*
X2490500Y1303500D02*
X2490500Y1303500D01*
X2605050Y1560574D02*
X2618506D01*
X2605000Y1334044D02*
X2618456D01*
X2605000Y1104044D02*
X2618456D01*
X2605000Y874044D02*
X2618456D01*
X2477050Y1534030D02*
X2502050D01*
X2477000Y1077500D02*
X2502000D01*
X2477000Y847500D02*
X2502000D01*
X2772500Y718500D02*
Y852000D01*
X2632500Y694500D02*
X2748500D01*
X2772500Y718500D01*
X2673500Y879000D02*
X2745500D01*
X2772500Y852000D01*
X2615750Y677750D02*
X2632500Y694500D01*
X2543500Y1009000D02*
Y1082500D01*
Y1009000D02*
X2673500Y879000D01*
X2543500Y1082500D02*
X2569250Y1108250D01*
X2666264Y910970D02*
X2667076D01*
X2668576Y909470D01*
X2698354D01*
X2718354Y859470D02*
X2745854D01*
X2615750Y577690D02*
Y677750D01*
X2619628Y573000D02*
Y573812D01*
X2615750Y577690D02*
X2619628Y573812D01*
X2608000Y570750D02*
X2614500Y564250D01*
X2564500Y720750D02*
X2608000Y677250D01*
X2573500Y687500D02*
X2603000Y658000D01*
X2608000Y570750D02*
Y677250D01*
X2603000Y388364D02*
Y658000D01*
X2472500Y687500D02*
X2573500D01*
X2564500Y720750D02*
Y873500D01*
X2573750Y882750D01*
X2603000Y388364D02*
X2621500Y369864D01*
X2581257Y301000D02*
X2594750D01*
X2562750Y1557000D02*
X2582000Y1576250D01*
X2562750Y1452500D02*
Y1557000D01*
X2577000Y1188750D02*
X2791500D01*
X2556250Y1209500D02*
Y1317000D01*
Y1209500D02*
X2577000Y1188750D01*
X2556250Y1317000D02*
X2582000Y1342750D01*
X2791500Y1188750D02*
X2809500Y1170750D01*
Y617500D02*
Y1170750D01*
X2765000Y573000D02*
X2809500Y617500D01*
X2643859Y573000D02*
X2765000D01*
X2816500Y613250D02*
Y1408000D01*
X2585000Y1430250D02*
X2794250D01*
X2816500Y1408000D01*
X2562750Y1452500D02*
X2585000Y1430250D01*
X2519500Y545000D02*
X2520000D01*
X2522500Y547500D01*
Y565250D01*
X2715714Y360250D02*
X2720886Y365422D01*
X2673250Y360250D02*
X2715714D01*
X2720886Y365422D02*
X2720915D01*
X2764792Y409300D01*
X2779363D02*
X2788438Y400225D01*
Y383962D02*
Y400225D01*
X2764792Y409300D02*
X2779363D01*
X2788438Y383962D02*
X2800000Y372400D01*
Y372400D02*
Y372400D01*
X2759750Y305250D02*
Y382950D01*
X2774600Y397800D01*
X2748000Y293500D02*
X2759750Y305250D01*
X2659625Y1779625D02*
X2659750Y1779500D01*
X2638375Y1779625D02*
X2659625D01*
X2638250Y1779750D02*
X2638375Y1779625D01*
X2530250Y1757750D02*
X2546013D01*
X2495750Y1757500D02*
X2511000D01*
X2449935Y437935D02*
X2454250Y442250D01*
Y459750D02*
X2474750Y480250D01*
X2454250Y442250D02*
Y459750D01*
X2437110Y437935D02*
X2449935D01*
X2491250Y486000D02*
X2509000D01*
X2515000Y466250D02*
Y480000D01*
X2509000Y486000D02*
X2515000Y480000D01*
X2437110Y475935D02*
X2456185D01*
X2474500Y494250D01*
X2735243Y269500D02*
X2739000Y273257D01*
X2663000Y269500D02*
X2735243D01*
X2654750Y282750D02*
X2777414D01*
X2657350Y287750D02*
X2749886D01*
X2642500Y302600D02*
X2657350Y287750D01*
X2635000Y302500D02*
X2654750Y282750D01*
X2642500Y302600D02*
Y312500D01*
X2749886Y287750D02*
X2769837Y307700D01*
X2777414Y282750D02*
X2788438Y293775D01*
X2491250Y340500D02*
Y353750D01*
X2605050Y1560574D02*
Y1572030D01*
X2624875Y1489030D02*
X2650050D01*
X2618375Y1482530D02*
X2624875Y1489030D01*
X2592650Y1482530D02*
X2618375D01*
X2625050Y1502030D02*
X2650050D01*
X2617050Y1494030D02*
X2625050Y1502030D01*
X2616500Y1494580D02*
X2617050Y1494030D01*
X2593600Y1494580D02*
X2616500D01*
X2592650Y1495530D02*
X2593600Y1494580D01*
X2665904Y1596000D02*
X2698404D01*
X2718404Y1546000D02*
X2745904D01*
X2605050Y1559030D02*
Y1560574D01*
X2502050Y1530030D02*
Y1534030D01*
X2508550Y1472630D02*
Y1495030D01*
X2502050Y1501530D02*
Y1530030D01*
Y1501530D02*
X2508550Y1495030D01*
X2515050Y1510080D02*
X2520976Y1504154D01*
Y1502104D02*
Y1504154D01*
X2515050Y1510080D02*
Y1530030D01*
X2520976Y1502104D02*
X2521550Y1501530D01*
Y1472630D02*
Y1501530D01*
X2605000Y874044D02*
Y885500D01*
X2502000Y843500D02*
Y847500D01*
X2508500Y786100D02*
Y808500D01*
X2502000Y815000D02*
X2508500Y808500D01*
X2502000Y815000D02*
Y843500D01*
X2515000Y823550D02*
Y843500D01*
X2521500Y786100D02*
Y815000D01*
X2624825Y802500D02*
X2650000D01*
X2618325Y796000D02*
X2624825Y802500D01*
X2592600Y796000D02*
X2618325D01*
X2625000Y815500D02*
X2650000D01*
X2617000Y807500D02*
X2625000Y815500D01*
X2593550Y808050D02*
X2616450D01*
X2617000Y807500D01*
X2592600Y809000D02*
X2593550Y808050D01*
X2605000Y872500D02*
Y874044D01*
Y1104044D02*
Y1115500D01*
X2718354Y1089470D02*
X2745854D01*
X2665854Y1139470D02*
X2698354D01*
X2502000Y1073500D02*
Y1077500D01*
X2508500Y1016100D02*
Y1038500D01*
X2502000Y1045000D02*
X2508500Y1038500D01*
X2502000Y1045000D02*
Y1073500D01*
X2515000Y1053550D02*
X2520926Y1047624D01*
Y1045574D02*
Y1047624D01*
X2515000Y1053550D02*
Y1073500D01*
X2521500Y1016100D02*
Y1045000D01*
X2520926Y1045574D02*
X2521500Y1045000D01*
X2624825Y1032500D02*
X2650000D01*
X2618325Y1026000D02*
X2624825Y1032500D01*
X2592600Y1026000D02*
X2618325D01*
X2625000Y1045500D02*
X2650000D01*
X2617000Y1037500D02*
X2625000Y1045500D01*
X2593550Y1038050D02*
X2616450D01*
X2617000Y1037500D01*
X2592600Y1039000D02*
X2593550Y1038050D01*
X2605000Y1102500D02*
Y1104044D01*
Y1334044D02*
Y1345500D01*
X2624825Y1262500D02*
X2650000D01*
X2618325Y1256000D02*
X2624825Y1262500D01*
X2592600Y1256000D02*
X2618325D01*
X2625000Y1275500D02*
X2650000D01*
X2617000Y1267500D02*
X2625000Y1275500D01*
X2616450Y1268050D02*
X2617000Y1267500D01*
X2592600Y1269000D02*
X2593550Y1268050D01*
X2616450D01*
X2665854Y1369470D02*
X2698354D01*
X2718354Y1319470D02*
X2745854D01*
X2605000Y1332500D02*
Y1334044D01*
X2502000Y1275000D02*
X2508500Y1268500D01*
Y1246100D02*
Y1268500D01*
X2502000Y1275000D02*
Y1303500D01*
X2515000Y1283550D02*
X2520926Y1277624D01*
X2515000Y1283550D02*
Y1303500D01*
X2520926Y1275574D02*
Y1277624D01*
X2521500Y1246100D02*
Y1275000D01*
X2520926Y1275574D02*
X2521500Y1275000D01*
X2502000Y545000D02*
Y565250D01*
X2647250Y352250D02*
X2647500Y352500D01*
X2648074Y351926D01*
X2660604D01*
X2662250Y350280D01*
X2647250Y332500D02*
Y352250D01*
X2555000Y276500D02*
Y347500D01*
X2627750Y203750D02*
X2783750D01*
X2555000Y276500D02*
X2627750Y203750D01*
X2560000Y280750D02*
X2608177Y232573D01*
X2560000Y280750D02*
Y354500D01*
X2608177Y232573D02*
X2787173D01*
X2798844Y244244D02*
X2798844D01*
X2787173Y232573D02*
X2798844Y244244D01*
Y218844D02*
X2798844D01*
X2783750Y203750D02*
X2798844Y218844D01*
X2661500Y293500D02*
X2748000D01*
X2652500Y302500D02*
X2652500D01*
X2661500Y293500D01*
X2788438Y293775D02*
Y310038D01*
X2800000Y321600D01*
X2788438Y335438D02*
X2800000Y347000D01*
X2788438Y319174D02*
Y335438D01*
X2776964Y307700D02*
X2788438Y319174D01*
X2769837Y307700D02*
X2776964D01*
X2569500Y197750D02*
X2585500D01*
X2594750Y302500D02*
Y314750D01*
Y301000D02*
Y302500D01*
X2628000Y312500D02*
Y332500D01*
X2628250D02*
Y335000D01*
X2621500Y339257D02*
Y369864D01*
X2625750Y337500D02*
X2628250Y335000D01*
X2623257Y337500D02*
X2625750D01*
X2621500Y339257D02*
X2623257Y337500D01*
X2578750Y313780D02*
X2579500Y313030D01*
Y302757D02*
Y313030D01*
Y302757D02*
X2581257Y301000D01*
X2547500Y355000D02*
X2555000Y347500D01*
X2703750Y499750D02*
X2721250D01*
Y518750D02*
X2722000Y519500D01*
Y528750D01*
X2689857Y518750D02*
X2703750D01*
X2684857Y523750D02*
X2689857Y518750D01*
X2684250Y523750D02*
X2684857D01*
X2511000Y1757500D02*
X2511250Y1757750D01*
X2600250Y1759250D02*
Y1779750D01*
X2599676Y1758676D02*
X2600250Y1759250D01*
X2565250Y1757750D02*
X2579750D01*
X2565250Y1758000D02*
Y1775688D01*
X2562000Y1778938D02*
X2565250Y1775688D01*
X2562000Y1778938D02*
Y1779750D01*
X2546250Y1758000D02*
Y1775688D01*
X2549500Y1778938D01*
Y1779750D01*
X2594750Y314750D02*
X2595000Y315000D01*
X2491250Y372750D02*
X2491250Y372750D01*
X2509250D01*
X2526750Y1680750D02*
Y1694000D01*
X2539000D02*
X2541300Y1696300D01*
X2526750Y1694000D02*
X2539000D01*
X2541300Y1696300D02*
Y1704440D01*
X2526750Y1707000D02*
X2538740D01*
X2541300Y1704440D01*
X2584150Y1713500D02*
Y1726400D01*
X2507300Y1833000D02*
X2507400Y1833100D01*
X2595000Y315000D02*
Y332500D01*
X2614000Y315000D02*
X2616500Y312500D01*
X2628000D01*
X2462900Y667992D02*
X2463735Y668827D01*
Y678735D01*
X2472500Y687500D01*
D99*
X237750Y1689750D02*
X267250D01*
X132500Y1690000D02*
X132750Y1689750D01*
X162250D01*
X162500Y1689500D01*
D100*
X1985190Y530800D02*
D03*
X2010590D02*
D03*
X1985190Y505400D02*
D03*
X1985100Y1825600D02*
D03*
X2010500Y1876400D02*
D03*
X1985100D02*
D03*
X2010500Y1851000D02*
D03*
X1985100D02*
D03*
X2010500Y1825600D02*
D03*
X1985100Y1749400D02*
D03*
X2010500Y1774800D02*
D03*
X1985100D02*
D03*
X2010500Y1800200D02*
D03*
X1985100D02*
D03*
Y1267500D02*
D03*
X2010500D02*
D03*
X1985100Y1242100D02*
D03*
X2010500D02*
D03*
X1985100Y1216700D02*
D03*
X2010500Y1292900D02*
D03*
X1985100Y1318300D02*
D03*
X2010500D02*
D03*
X1985100Y1343700D02*
D03*
X2010500D02*
D03*
X1985100Y1292900D02*
D03*
X2145190Y505400D02*
D03*
X2170590Y530800D02*
D03*
X2145190D02*
D03*
X2145100Y1800200D02*
D03*
X2170500D02*
D03*
X2145100Y1774800D02*
D03*
X2170500D02*
D03*
X2145100Y1749400D02*
D03*
X2170500Y1825600D02*
D03*
X2145100Y1851000D02*
D03*
X2170500D02*
D03*
X2145100Y1876400D02*
D03*
X2170500D02*
D03*
X2145100Y1825600D02*
D03*
Y1292900D02*
D03*
X2170500Y1343700D02*
D03*
X2145100D02*
D03*
X2170500Y1318300D02*
D03*
X2145100D02*
D03*
X2170500Y1292900D02*
D03*
X2145100Y1216700D02*
D03*
X2170500Y1242100D02*
D03*
X2145100D02*
D03*
X2170500Y1267500D02*
D03*
X2145100D02*
D03*
X2305190Y530800D02*
D03*
X2330590D02*
D03*
X2305190Y505400D02*
D03*
X2305100Y1825600D02*
D03*
X2330500Y1876400D02*
D03*
X2305100D02*
D03*
X2330500Y1851000D02*
D03*
X2305100D02*
D03*
X2330500Y1825600D02*
D03*
X2305100Y1749400D02*
D03*
X2330500Y1774800D02*
D03*
X2305100D02*
D03*
X2330500Y1800200D02*
D03*
X2305100D02*
D03*
Y1267500D02*
D03*
X2330500D02*
D03*
X2305100Y1242100D02*
D03*
X2330500D02*
D03*
X2305100Y1216700D02*
D03*
X2330500Y1292900D02*
D03*
X2305100Y1318300D02*
D03*
X2330500D02*
D03*
X2305100Y1343700D02*
D03*
X2330500D02*
D03*
X2305100Y1292900D02*
D03*
X497500Y700500D02*
D03*
X362500D02*
D03*
X392500D02*
D03*
X467500D02*
D03*
X2437500Y642592D02*
D03*
Y667992D02*
D03*
X2462900Y642592D02*
D03*
Y667992D02*
D03*
X2488300Y642592D02*
D03*
X2412100D02*
D03*
Y667992D02*
D03*
X2564600Y642590D02*
D03*
X2539200Y667990D02*
D03*
Y642590D02*
D03*
X705190Y530800D02*
D03*
X730590D02*
D03*
X705190Y505400D02*
D03*
X865190D02*
D03*
X890590Y530800D02*
D03*
X865190D02*
D03*
X1025190D02*
D03*
X1050590D02*
D03*
X1025190Y505400D02*
D03*
X1185190D02*
D03*
X1210590Y530800D02*
D03*
X1185190D02*
D03*
X1345190D02*
D03*
X1370590D02*
D03*
X1345190Y505400D02*
D03*
X1505190D02*
D03*
X1530590Y530800D02*
D03*
X1505190D02*
D03*
X1665190D02*
D03*
X1690590D02*
D03*
X1665190Y505400D02*
D03*
X1825190D02*
D03*
X1850590Y530800D02*
D03*
X1825190D02*
D03*
X705100Y1292900D02*
D03*
X730500Y1343700D02*
D03*
X705100D02*
D03*
X730500Y1318300D02*
D03*
X705100D02*
D03*
X730500Y1292900D02*
D03*
X705100Y1216700D02*
D03*
X730500Y1242100D02*
D03*
X705100D02*
D03*
X730500Y1267500D02*
D03*
X705100D02*
D03*
X865100D02*
D03*
X890500D02*
D03*
X865100Y1242100D02*
D03*
X890500D02*
D03*
X865100Y1216700D02*
D03*
X890500Y1292900D02*
D03*
X865100Y1318300D02*
D03*
X890500D02*
D03*
X865100Y1343700D02*
D03*
X890500D02*
D03*
X865100Y1292900D02*
D03*
X1025100D02*
D03*
X1050500Y1343700D02*
D03*
X1025100D02*
D03*
X1050500Y1318300D02*
D03*
X1025100D02*
D03*
X1050500Y1292900D02*
D03*
X1025100Y1216700D02*
D03*
X1050500Y1242100D02*
D03*
X1025100D02*
D03*
X1050500Y1267500D02*
D03*
X1025100D02*
D03*
X1345100D02*
D03*
X1370500D02*
D03*
X1345100Y1242100D02*
D03*
X1370500D02*
D03*
X1345100Y1216700D02*
D03*
X1370500Y1292900D02*
D03*
X1345100Y1318300D02*
D03*
X1370500D02*
D03*
X1345100Y1343700D02*
D03*
X1370500D02*
D03*
X1345100Y1292900D02*
D03*
X1505100D02*
D03*
X1530500Y1343700D02*
D03*
X1505100D02*
D03*
X1530500Y1318300D02*
D03*
X1505100D02*
D03*
X1530500Y1292900D02*
D03*
X1505100Y1216700D02*
D03*
X1530500Y1242100D02*
D03*
X1505100D02*
D03*
X1530500Y1267500D02*
D03*
X1505100D02*
D03*
X1665100D02*
D03*
X1690500D02*
D03*
X1665100Y1242100D02*
D03*
X1690500D02*
D03*
X1665100Y1216700D02*
D03*
X1690500Y1292900D02*
D03*
X1665100Y1318300D02*
D03*
X1690500D02*
D03*
X1665100Y1343700D02*
D03*
X1690500D02*
D03*
X1665100Y1292900D02*
D03*
X1825100D02*
D03*
X1850500Y1343700D02*
D03*
X1825100D02*
D03*
X1850500Y1318300D02*
D03*
X1825100D02*
D03*
X1850500Y1292900D02*
D03*
X1825100Y1216700D02*
D03*
X1850500Y1242100D02*
D03*
X1825100D02*
D03*
X1850500Y1267500D02*
D03*
X1825100D02*
D03*
X705100Y1825600D02*
D03*
X730500Y1876400D02*
D03*
X705100D02*
D03*
X730500Y1851000D02*
D03*
X705100D02*
D03*
X730500Y1825600D02*
D03*
X705100Y1749400D02*
D03*
X730500Y1774800D02*
D03*
X705100D02*
D03*
X730500Y1800200D02*
D03*
X705100D02*
D03*
X865100D02*
D03*
X890500D02*
D03*
X865100Y1774800D02*
D03*
X890500D02*
D03*
X865100Y1749400D02*
D03*
X890500Y1825600D02*
D03*
X865100Y1851000D02*
D03*
X890500D02*
D03*
X865100Y1876400D02*
D03*
X890500D02*
D03*
X865100Y1825600D02*
D03*
X1025100D02*
D03*
X1050500Y1876400D02*
D03*
X1025100D02*
D03*
X1050500Y1851000D02*
D03*
X1025100D02*
D03*
X1050500Y1825600D02*
D03*
X1025100Y1749400D02*
D03*
X1050500Y1774800D02*
D03*
X1025100D02*
D03*
X1050500Y1800200D02*
D03*
X1025100D02*
D03*
X1185100D02*
D03*
X1210500D02*
D03*
X1185100Y1774800D02*
D03*
X1210500D02*
D03*
X1185100Y1749400D02*
D03*
X1210500Y1825600D02*
D03*
X1185100Y1851000D02*
D03*
X1210500D02*
D03*
X1185100Y1876400D02*
D03*
X1210500D02*
D03*
X1185100Y1825600D02*
D03*
X1345100D02*
D03*
X1370500Y1876400D02*
D03*
X1345100D02*
D03*
X1370500Y1851000D02*
D03*
X1345100D02*
D03*
X1370500Y1825600D02*
D03*
X1345100Y1749400D02*
D03*
X1370500Y1774800D02*
D03*
X1345100D02*
D03*
X1370500Y1800200D02*
D03*
X1345100D02*
D03*
X1505100D02*
D03*
X1530500D02*
D03*
X1505100Y1774800D02*
D03*
X1530500D02*
D03*
X1505100Y1749400D02*
D03*
X1530500Y1825600D02*
D03*
X1505100Y1851000D02*
D03*
X1530500D02*
D03*
X1505100Y1876400D02*
D03*
X1530500D02*
D03*
X1505100Y1825600D02*
D03*
X1665100D02*
D03*
X1690500Y1876400D02*
D03*
X1665100D02*
D03*
X1690500Y1851000D02*
D03*
X1665100D02*
D03*
X1690500Y1825600D02*
D03*
X1665100Y1749400D02*
D03*
X1690500Y1774800D02*
D03*
X1665100D02*
D03*
X1690500Y1800200D02*
D03*
X1665100D02*
D03*
X1825100D02*
D03*
X1850500D02*
D03*
X1825100Y1774800D02*
D03*
X1850500D02*
D03*
X1825100Y1749400D02*
D03*
X1850500Y1825600D02*
D03*
X1825100Y1851000D02*
D03*
X1850500D02*
D03*
X1825100Y1876400D02*
D03*
X1850500D02*
D03*
X1825100Y1825600D02*
D03*
X1185100Y1267500D02*
D03*
X1210500D02*
D03*
X1185100Y1242100D02*
D03*
X1210500D02*
D03*
X1185100Y1216700D02*
D03*
X1210500Y1292900D02*
D03*
X1185100Y1318300D02*
D03*
X1210500D02*
D03*
X1185100Y1343700D02*
D03*
X1210500D02*
D03*
X1185100Y1292900D02*
D03*
X2774600Y220000D02*
D03*
X2800000D02*
D03*
Y296200D02*
D03*
X2774600Y245400D02*
D03*
X2800000D02*
D03*
X2774600Y270800D02*
D03*
X2800000D02*
D03*
X2774600Y296200D02*
D03*
X2800000Y372400D02*
D03*
X2774600Y321600D02*
D03*
X2800000D02*
D03*
X2774600Y347000D02*
D03*
X2800000D02*
D03*
X2774600Y372400D02*
D03*
X2800000Y448600D02*
D03*
X2774600Y423200D02*
D03*
X2800000D02*
D03*
X2774600Y397800D02*
D03*
X2800000D02*
D03*
D101*
X2010590Y505400D02*
D03*
X2010500Y1749400D02*
D03*
Y1216700D02*
D03*
X2170590Y505400D02*
D03*
X2170500Y1749400D02*
D03*
Y1216700D02*
D03*
X2330590Y505400D02*
D03*
X2330500Y1749400D02*
D03*
Y1216700D02*
D03*
X730590Y505400D02*
D03*
X890590D02*
D03*
X1050590D02*
D03*
X1210590D02*
D03*
X1370590D02*
D03*
X1530590D02*
D03*
X1690590D02*
D03*
X1850590D02*
D03*
X730500Y1216700D02*
D03*
X890500D02*
D03*
X1050500D02*
D03*
X1370500D02*
D03*
X1530500D02*
D03*
X1690500D02*
D03*
X1850500D02*
D03*
X730500Y1749400D02*
D03*
X890500D02*
D03*
X1050500D02*
D03*
X1210500D02*
D03*
X1370500D02*
D03*
X1530500D02*
D03*
X1690500D02*
D03*
X1850500D02*
D03*
X1210500Y1216700D02*
D03*
X2774600Y448600D02*
D03*
D102*
X162500Y1739500D02*
D03*
D103*
Y1689500D02*
D03*
D104*
X267500Y1690000D02*
D03*
X237500Y1689500D02*
D03*
D105*
X132500Y1690000D02*
D03*
X162500Y1689500D02*
D03*
D106*
X87500Y1547000D02*
D03*
X534500Y844000D02*
D03*
X87500D02*
D03*
X534500Y1547000D02*
D03*
D107*
X2488300Y667992D02*
D03*
X2564600Y667990D02*
D03*
D108*
X2437110Y437935D02*
D03*
Y475935D02*
D03*
D109*
X2411710Y437935D02*
D03*
Y475935D02*
D03*
D110*
X2459600Y1860000D02*
D03*
X2580000D02*
D03*
D111*
X2507300Y1833000D02*
D03*
X2532300D02*
D03*
Y1813000D02*
D03*
D112*
X2507300D02*
D03*
D113*
X480000Y314750D02*
D03*
X366250Y314250D02*
D03*
X450750Y322500D02*
D03*
X2388750Y386000D02*
D03*
X174426Y512000D02*
D03*
X161750D02*
D03*
X2516000Y1642000D02*
D03*
X385000Y427000D02*
D03*
X2460500Y912750D02*
D03*
X2491250Y893500D02*
D03*
X428000Y543000D02*
D03*
X2653154Y1453530D02*
D03*
X2668154D02*
D03*
X2653104Y1227000D02*
D03*
X2668104D02*
D03*
X2491250Y1123500D02*
D03*
Y1108720D02*
D03*
X2502530Y997000D02*
D03*
X2517530D02*
D03*
X2653104D02*
D03*
X2668104D02*
D03*
X2577250D02*
D03*
X2592250D02*
D03*
X2255000Y145000D02*
D03*
X2247500Y480000D02*
D03*
X2095000Y145000D02*
D03*
X2087500Y480000D02*
D03*
X2002500Y150000D02*
D03*
X1935000Y145000D02*
D03*
X1927500Y480000D02*
D03*
X1842500Y150000D02*
D03*
X1775000Y145000D02*
D03*
X1767500Y480000D02*
D03*
X1682500Y150000D02*
D03*
X1615000Y145000D02*
D03*
X1607500Y480000D02*
D03*
X1522500Y150000D02*
D03*
X1455000Y145000D02*
D03*
X1447500Y480000D02*
D03*
X1362500Y150000D02*
D03*
X1295000Y145000D02*
D03*
X1287500Y480000D02*
D03*
X1202500Y150000D02*
D03*
X1135000Y145000D02*
D03*
X1127500Y480000D02*
D03*
X1042500Y150000D02*
D03*
X975000Y145000D02*
D03*
X967500Y480000D02*
D03*
X882500Y150000D02*
D03*
X815000Y145000D02*
D03*
X807500Y480000D02*
D03*
X2322500Y150000D02*
D03*
X2162500D02*
D03*
X133750Y626250D02*
D03*
X647500Y480000D02*
D03*
X2735000Y500000D02*
D03*
X2521500Y815000D02*
D03*
X2521550Y1501530D02*
D03*
X2536340Y1097160D02*
D03*
Y1327160D02*
D03*
X2521500Y1275000D02*
D03*
X2463250Y1137500D02*
D03*
X2490500Y1303500D02*
D03*
X2614200Y1641250D02*
D03*
X2618456Y874044D02*
D03*
X2569250Y1108250D02*
D03*
X2666264Y910970D02*
D03*
X2745854Y909970D02*
D03*
X2572870Y1053974D02*
D03*
X2536444Y1129398D02*
D03*
X2668104Y767000D02*
D03*
X2745854Y859470D02*
D03*
X2626000Y578688D02*
D03*
X2573750Y882750D02*
D03*
X2577250Y767000D02*
D03*
X2604543Y824165D02*
D03*
X2614500Y564250D02*
D03*
X2643859Y573000D02*
D03*
X2619628D02*
D03*
X2635187Y578688D02*
D03*
X2582000Y1576250D02*
D03*
Y1342750D02*
D03*
X2572348Y1364787D02*
D03*
X2572398Y1591317D02*
D03*
X2618506Y1560574D02*
D03*
Y1586690D02*
D03*
X2745904Y1596000D02*
D03*
X2650750Y564250D02*
D03*
X2592250Y767000D02*
D03*
X2502530D02*
D03*
X2517530D02*
D03*
X2491250Y878720D02*
D03*
X2577250Y1227000D02*
D03*
X2592250D02*
D03*
X2502530D02*
D03*
X2517530D02*
D03*
X2653104Y767000D02*
D03*
X2648868Y1081118D02*
D03*
X2463500Y552500D02*
D03*
X2502000Y565250D02*
D03*
X2491250Y1338720D02*
D03*
Y1353500D02*
D03*
X2727250Y358750D02*
D03*
X2721220Y374920D02*
D03*
X2673250Y360250D02*
D03*
X2739000Y177750D02*
D03*
X2681750Y1760250D02*
D03*
X2638250Y1779750D02*
D03*
X337000Y322500D02*
D03*
X357750Y341750D02*
D03*
X471500D02*
D03*
X2474750Y465000D02*
D03*
X2515000Y466250D02*
D03*
X2474750Y480250D02*
D03*
Y494250D02*
D03*
X2656500Y312500D02*
D03*
X2663000Y269500D02*
D03*
X2696000Y73500D02*
D03*
Y129000D02*
D03*
X2741750Y128500D02*
D03*
Y73500D02*
D03*
X2739000Y275500D02*
D03*
Y247500D02*
D03*
Y212500D02*
D03*
X2529250Y351750D02*
D03*
X2537250Y308000D02*
D03*
X2491250Y339750D02*
D03*
X144500Y508500D02*
D03*
X331250Y364750D02*
D03*
X133750Y535250D02*
D03*
X331250Y382000D02*
D03*
X2628000Y312500D02*
D03*
X2594750Y302500D02*
D03*
X2720750Y467000D02*
D03*
X2474735Y427250D02*
D03*
X2720750Y429000D02*
D03*
X2547500Y355000D02*
D03*
X2720750Y418750D02*
D03*
X2684250Y523750D02*
D03*
X2612000Y369598D02*
D03*
X2589000Y564250D02*
D03*
X2635000Y302500D02*
D03*
X2722000Y528750D02*
D03*
X2576750Y564250D02*
D03*
X2652500Y302500D02*
D03*
X2642500Y312500D02*
D03*
X2578750Y355000D02*
D03*
X2720750Y479000D02*
D03*
X2474735Y415500D02*
D03*
X2560000Y354500D02*
D03*
X2414000Y376000D02*
D03*
X2376125Y438000D02*
D03*
X547494Y454514D02*
D03*
X501500Y373250D02*
D03*
X422000Y615250D02*
D03*
X418500Y640000D02*
D03*
X438500Y574000D02*
D03*
X481250Y453750D02*
D03*
X469500Y434000D02*
D03*
X501750Y425750D02*
D03*
X409000Y408750D02*
D03*
X387500Y373500D02*
D03*
X260000Y544500D02*
D03*
X207250Y580250D02*
D03*
X188250Y544500D02*
D03*
X470750Y510000D02*
D03*
Y518250D02*
D03*
Y501750D02*
D03*
X2477050Y1610904D02*
D03*
X2618375Y1482530D02*
D03*
X2592300Y1453530D02*
D03*
X2617050Y1494030D02*
D03*
X2577300Y1453530D02*
D03*
X2665904Y1596000D02*
D03*
X2667550Y1546530D02*
D03*
X2745904Y1546000D02*
D03*
X2605050Y1591030D02*
D03*
X2536494Y1585928D02*
D03*
X2536390Y1553690D02*
D03*
X2572920Y1510504D02*
D03*
X2604593Y1510695D02*
D03*
X2648918Y1537648D02*
D03*
X2491300Y1580030D02*
D03*
Y1565250D02*
D03*
X2477050Y1534030D02*
D03*
X2502580Y1453530D02*
D03*
X2517580D02*
D03*
X2491000Y1713500D02*
D03*
Y1701685D02*
D03*
X2667500Y860000D02*
D03*
X2477000Y847500D02*
D03*
X2618325Y796000D02*
D03*
X2617000Y807500D02*
D03*
X2648868Y851118D02*
D03*
X2572870Y823974D02*
D03*
X2536340Y867160D02*
D03*
X2536444Y899398D02*
D03*
X2605000Y904500D02*
D03*
X2745854Y1139470D02*
D03*
X2667500Y1090000D02*
D03*
X2745854Y1089470D02*
D03*
X2665854Y1139470D02*
D03*
X2477000Y1077500D02*
D03*
X2521500Y1045000D02*
D03*
X2618325Y1026000D02*
D03*
X2617000Y1037500D02*
D03*
X2618456Y1130160D02*
D03*
Y1104044D02*
D03*
X2604543Y1054165D02*
D03*
X2572348Y1134787D02*
D03*
X2605000Y1134500D02*
D03*
X2618325Y1256000D02*
D03*
X2617000Y1267500D02*
D03*
X2665854Y1369470D02*
D03*
X2745854D02*
D03*
X2667500Y1320000D02*
D03*
X2745854Y1319470D02*
D03*
X2605000Y1364500D02*
D03*
X2536444Y1359398D02*
D03*
X2572870Y1283974D02*
D03*
X2604543Y1284165D02*
D03*
X2648868Y1311118D02*
D03*
X2618456Y1334044D02*
D03*
Y1360160D02*
D03*
X2532750Y565250D02*
D03*
X2522500D02*
D03*
X2512250D02*
D03*
X2519500Y512000D02*
D03*
X722500Y150000D02*
D03*
X655000Y145000D02*
D03*
X2647500Y352500D02*
D03*
X2620500Y197750D02*
D03*
X2495750Y1757500D02*
D03*
X2600250Y1779750D02*
D03*
X2624200Y1641250D02*
D03*
X2657500Y1662500D02*
D03*
X2561750Y1688500D02*
D03*
X2509250Y372750D02*
D03*
X2569500Y197750D02*
D03*
X2477000Y1668000D02*
D03*
Y1746000D02*
D03*
X2562000Y1779750D02*
D03*
X2549500D02*
D03*
X2526750Y1680750D02*
D03*
X2692331Y1861021D02*
D03*
X2692500Y1782500D02*
D03*
X2573250Y1641000D02*
D03*
X2584250Y1726500D02*
D03*
D114*
X436000Y435000D02*
D03*
X397000Y441000D02*
D03*
X2336000Y232000D02*
D03*
X2314500Y364050D02*
D03*
X2280000D02*
D03*
Y334500D02*
D03*
X2244500Y364050D02*
D03*
X2176000Y232000D02*
D03*
X2154500Y364050D02*
D03*
X2120000D02*
D03*
Y334500D02*
D03*
X2084500Y364050D02*
D03*
X2016000Y232000D02*
D03*
X1994500Y364050D02*
D03*
X1960000D02*
D03*
Y334500D02*
D03*
X1924500Y364050D02*
D03*
X1856000Y232000D02*
D03*
X1834500Y364050D02*
D03*
X1800000D02*
D03*
Y334500D02*
D03*
X1764500Y364050D02*
D03*
X1696000Y232000D02*
D03*
X1674500Y364050D02*
D03*
X1640000D02*
D03*
Y334500D02*
D03*
X1604500Y364050D02*
D03*
X1536000Y232000D02*
D03*
X1514500Y364050D02*
D03*
X1480000D02*
D03*
Y334500D02*
D03*
X1444500Y364050D02*
D03*
X1376000Y232000D02*
D03*
X1354500Y364050D02*
D03*
X1320000D02*
D03*
Y334500D02*
D03*
X1284500Y364050D02*
D03*
X1216000Y232000D02*
D03*
X1194500Y364050D02*
D03*
X1160000D02*
D03*
Y334500D02*
D03*
X1124500Y364050D02*
D03*
X1056000Y232000D02*
D03*
X1034500Y364050D02*
D03*
X1000000D02*
D03*
Y334500D02*
D03*
X964500Y364050D02*
D03*
X874500D02*
D03*
X840000D02*
D03*
Y334500D02*
D03*
X804500Y364050D02*
D03*
X896000Y232000D02*
D03*
X736000D02*
D03*
X680000Y334500D02*
D03*
X644500Y364050D02*
D03*
X680000D02*
D03*
X714500D02*
D03*
X260000Y639500D02*
D03*
X2379250Y1800200D02*
D03*
D115*
X2133929Y859514D02*
D03*
X2770528Y1742420D02*
D03*
Y162420D02*
D03*
X1877529D02*
D03*
X984529Y1832420D02*
D03*
X91528Y1742420D02*
D03*
X126028Y249420D02*
D03*
X91528Y162420D02*
D03*
D135*
X2521500Y843500D02*
D03*
X2515000D02*
D03*
X2508500D02*
D03*
X2502000D02*
D03*
Y786100D02*
D03*
X2508500D02*
D03*
X2515000D02*
D03*
X2521500D02*
D03*
Y1016100D02*
D03*
X2515000D02*
D03*
X2508500D02*
D03*
X2502000D02*
D03*
Y1073500D02*
D03*
X2508500D02*
D03*
X2515000D02*
D03*
X2521500D02*
D03*
Y1303500D02*
D03*
X2515000D02*
D03*
X2508500D02*
D03*
X2502000D02*
D03*
Y1246100D02*
D03*
X2508500D02*
D03*
X2515000D02*
D03*
X2521500D02*
D03*
X2521550Y1472630D02*
D03*
X2515050D02*
D03*
X2508550D02*
D03*
X2502050D02*
D03*
Y1530030D02*
D03*
X2508550D02*
D03*
X2515050D02*
D03*
X2521550D02*
D03*
D136*
X2592600Y1045500D02*
D03*
Y1039000D02*
D03*
Y1032500D02*
D03*
Y1026000D02*
D03*
X2650000D02*
D03*
Y1032500D02*
D03*
Y1039000D02*
D03*
Y1045500D02*
D03*
X2650050Y1502030D02*
D03*
Y1495530D02*
D03*
Y1489030D02*
D03*
Y1482530D02*
D03*
X2592650D02*
D03*
Y1489030D02*
D03*
Y1495530D02*
D03*
Y1502030D02*
D03*
X2526750Y1694000D02*
D03*
Y1700500D02*
D03*
Y1707000D02*
D03*
Y1713500D02*
D03*
X2584150D02*
D03*
Y1707000D02*
D03*
Y1700500D02*
D03*
Y1694000D02*
D03*
X2650000Y815500D02*
D03*
Y809000D02*
D03*
Y802500D02*
D03*
Y796000D02*
D03*
X2592600D02*
D03*
Y802500D02*
D03*
Y809000D02*
D03*
Y815500D02*
D03*
X2650000Y1275500D02*
D03*
Y1269000D02*
D03*
Y1262500D02*
D03*
Y1256000D02*
D03*
X2592600D02*
D03*
Y1262500D02*
D03*
Y1269000D02*
D03*
Y1275500D02*
D03*
M02*
