G04*
G04 #@! TF.GenerationSoftware,Altium Limited,Altium Designer,20.1.10 (176)*
G04*
G04 Layer_Color=32896*
%FSLAX44Y44*%
%MOMM*%
G71*
G04*
G04 #@! TF.SameCoordinates,9A07C0F8-2EC5-444E-B81E-C5A403CEBA23*
G04*
G04*
G04 #@! TF.FilePolarity,Positive*
G04*
G01*
G75*
%ADD10C,0.2000*%
%ADD11C,0.2540*%
%ADD15C,0.1270*%
%ADD16C,0.1500*%
%ADD17C,0.0500*%
%ADD19C,1.2000*%
%ADD20C,1.2000*%
D10*
X2526600Y770400D02*
G03*
X2526600Y770400I-1000J0D01*
G01*
Y1000400D02*
G03*
X2526600Y1000400I-1000J0D01*
G01*
Y1230400D02*
G03*
X2526600Y1230400I-1000J0D01*
G01*
X2526650Y1456930D02*
G03*
X2526650Y1456930I-1000J0D01*
G01*
X2666700Y1049600D02*
G03*
X2666700Y1049600I-1000J0D01*
G01*
X2666750Y1506130D02*
G03*
X2666750Y1506130I-1000J0D01*
G01*
X2512050Y1689900D02*
G03*
X2512050Y1689900I-1000J0D01*
G01*
X2666700Y819600D02*
G03*
X2666700Y819600I-1000J0D01*
G01*
Y1279600D02*
G03*
X2666700Y1279600I-1000J0D01*
G01*
X2523470Y1632000D02*
Y1666000D01*
X2537440D01*
X2523470Y1632000D02*
X2537440D01*
X2585700D02*
Y1666000D01*
X2571730Y1632000D02*
X2585700D01*
X2571730Y1666000D02*
X2585700D01*
X65548Y147420D02*
G03*
X76279Y136585I25981J15000D01*
G01*
Y1768255D02*
G03*
X65548Y1757420I15250J-25835D01*
G01*
Y147420D02*
G03*
X39567Y162420I-25981J-15000D01*
G01*
Y1742420D02*
G03*
X65548Y1757420I0J30000D01*
G01*
X91028Y110750D02*
G03*
X76279Y136585I-30000J-0D01*
G01*
Y1768255D02*
G03*
X91028Y1794090I-15250J25835D01*
G01*
X1028Y192420D02*
G03*
X31028Y162420I30000J0D01*
G01*
Y1742420D02*
G03*
X1028Y1712420I0J-30000D01*
G01*
X91028Y32420D02*
G03*
X121028Y2420I30000J0D01*
G01*
Y1902420D02*
G03*
X91028Y1872420I0J-30000D01*
G01*
X2741029Y2420D02*
G03*
X2771028Y32420I0J30000D01*
G01*
X2785779Y136585D02*
G03*
X2771028Y110750I15250J-25835D01*
G01*
X2785779Y136585D02*
G03*
X2796509Y147420I-15250J25835D01*
G01*
X2822490Y162420D02*
G03*
X2796509Y147420I0J-30000D01*
G01*
X2831029Y162420D02*
G03*
X2861029Y192420I0J30000D01*
G01*
Y1712420D02*
G03*
X2831029Y1742420I-30000J0D01*
G01*
X2796509Y1757420D02*
G03*
X2822490Y1742420I25981J15000D01*
G01*
X2796509Y1757420D02*
G03*
X2785779Y1768255I-25981J-15000D01*
G01*
X2771028Y1794090D02*
G03*
X2785779Y1768255I30000J0D01*
G01*
X2771028Y1872420D02*
G03*
X2741029Y1902420I-30000J0D01*
G01*
X2771028Y32420D02*
Y110750D01*
X31028Y1742420D02*
X39567D01*
X31028Y162420D02*
X39567D01*
X91028Y1794090D02*
Y1872420D01*
Y32420D02*
Y110750D01*
X1028Y192420D02*
Y1712420D01*
X121028Y2420D02*
X2741029D01*
X2822490Y162420D02*
X2831029D01*
X2861029Y190228D02*
Y1712420D01*
X2822490Y1742420D02*
X2831029D01*
X2771028Y1794090D02*
Y1872420D01*
X121028Y1902420D02*
X2741029D01*
D11*
X2548870Y1636300D02*
Y1661700D01*
X2537813Y679883D02*
Y695117D01*
X2530196D01*
X2527657Y692578D01*
Y687500D01*
X2530196Y684961D01*
X2537813D01*
X2532735D02*
X2527657Y679883D01*
X2512422Y695117D02*
X2522578D01*
Y687500D01*
X2517500Y690039D01*
X2514961D01*
X2512422Y687500D01*
Y682422D01*
X2514961Y679883D01*
X2520039D01*
X2522578Y682422D01*
X2497186Y695117D02*
X2502265Y692578D01*
X2507343Y687500D01*
Y682422D01*
X2504804Y679883D01*
X2499726D01*
X2497186Y682422D01*
Y684961D01*
X2499726Y687500D01*
X2507343D01*
X2469313Y632383D02*
Y647617D01*
X2461696D01*
X2459157Y645078D01*
Y640000D01*
X2461696Y637461D01*
X2469313D01*
X2464235D02*
X2459157Y632383D01*
X2443922Y647617D02*
X2454078D01*
Y640000D01*
X2449000Y642539D01*
X2446461D01*
X2443922Y640000D01*
Y634922D01*
X2446461Y632383D01*
X2451539D01*
X2454078Y634922D01*
X2428687Y647617D02*
X2438843D01*
Y640000D01*
X2433765Y642539D01*
X2431226D01*
X2428687Y640000D01*
Y634922D01*
X2431226Y632383D01*
X2436304D01*
X2438843Y634922D01*
X2467235Y425078D02*
X2469774Y427617D01*
X2474853D01*
X2477392Y425078D01*
Y414922D01*
X2474853Y412383D01*
X2469774D01*
X2467235Y414922D01*
X2462157Y412383D02*
X2457078D01*
X2459617D01*
Y427617D01*
X2462157Y425078D01*
X2449461Y412383D02*
X2444382D01*
X2446922D01*
Y427617D01*
X2449461Y425078D01*
X2436765Y414922D02*
X2434226Y412383D01*
X2429147D01*
X2426608Y414922D01*
Y425078D01*
X2429147Y427617D01*
X2434226D01*
X2436765Y425078D01*
Y422539D01*
X2434226Y420000D01*
X2426608D01*
X2467235Y481013D02*
X2469774Y483553D01*
X2474853D01*
X2477392Y481013D01*
Y470857D01*
X2474853Y468317D01*
X2469774D01*
X2467235Y470857D01*
X2462157Y468317D02*
X2457078D01*
X2459617D01*
Y483553D01*
X2462157Y481013D01*
X2449461Y468317D02*
X2444382D01*
X2446922D01*
Y483553D01*
X2449461Y481013D01*
X2436765D02*
X2434226Y483553D01*
X2429147D01*
X2426608Y481013D01*
Y478474D01*
X2429147Y475935D01*
X2426608Y473396D01*
Y470857D01*
X2429147Y468317D01*
X2434226D01*
X2436765Y470857D01*
Y473396D01*
X2434226Y475935D01*
X2436765Y478474D01*
Y481013D01*
X2434226Y475935D02*
X2429147D01*
X2590000Y1786078D02*
X2592539Y1788618D01*
X2597617D01*
X2600157Y1786078D01*
Y1775922D01*
X2597617Y1773383D01*
X2592539D01*
X2590000Y1775922D01*
X2584922Y1773383D02*
X2579843D01*
X2582383D01*
Y1788618D01*
X2584922Y1786078D01*
X2748078Y499843D02*
X2750617Y497304D01*
Y492226D01*
X2748078Y489687D01*
X2737922D01*
X2735382Y492226D01*
Y497304D01*
X2737922Y499843D01*
X2735382Y515078D02*
Y504922D01*
X2745539Y515078D01*
X2748078D01*
X2750617Y512539D01*
Y507461D01*
X2748078Y504922D01*
X2735382Y527774D02*
X2750617D01*
X2743000Y520157D01*
Y530313D01*
X2643078Y357843D02*
X2645617Y355304D01*
Y350226D01*
X2643078Y347687D01*
X2632922D01*
X2630382Y350226D01*
Y355304D01*
X2632922Y357843D01*
X2630382Y373078D02*
Y362922D01*
X2640539Y373078D01*
X2643078D01*
X2645617Y370539D01*
Y365461D01*
X2643078Y362922D01*
Y378157D02*
X2645617Y380696D01*
Y385774D01*
X2643078Y388313D01*
X2640539D01*
X2638000Y385774D01*
Y383235D01*
Y385774D01*
X2635461Y388313D01*
X2632922D01*
X2630382Y385774D01*
Y380696D01*
X2632922Y378157D01*
X2748887Y403078D02*
X2751426Y405617D01*
X2756505D01*
X2759044Y403078D01*
Y392922D01*
X2756505Y390382D01*
X2751426D01*
X2748887Y392922D01*
X2733652Y390382D02*
X2743809D01*
X2733652Y400539D01*
Y403078D01*
X2736191Y405617D01*
X2741270D01*
X2743809Y403078D01*
X2718417Y390382D02*
X2728574D01*
X2718417Y400539D01*
Y403078D01*
X2720956Y405617D01*
X2726035D01*
X2728574Y403078D01*
X2474922Y547617D02*
X2472382Y550157D01*
Y555235D01*
X2474922Y557774D01*
X2485078D01*
X2487617Y555235D01*
Y550157D01*
X2485078Y547617D01*
X2487617Y532382D02*
Y542539D01*
X2477461Y532382D01*
X2474922D01*
X2472382Y534922D01*
Y540000D01*
X2474922Y542539D01*
X2487617Y527304D02*
Y522226D01*
Y524765D01*
X2472382D01*
X2474922Y527304D01*
X2650809Y576158D02*
X2653348Y578697D01*
X2658427D01*
X2660966Y576158D01*
Y566001D01*
X2658427Y563462D01*
X2653348D01*
X2650809Y566001D01*
X2635574Y563462D02*
X2645731D01*
X2635574Y573619D01*
Y576158D01*
X2638113Y578697D01*
X2643192D01*
X2645731Y576158D01*
X2630496D02*
X2627957Y578697D01*
X2622878D01*
X2620339Y576158D01*
Y566001D01*
X2622878Y563462D01*
X2627957D01*
X2630496Y566001D01*
Y576158D01*
X2602887Y226078D02*
X2605426Y228617D01*
X2610504D01*
X2613044Y226078D01*
Y215922D01*
X2610504Y213382D01*
X2605426D01*
X2602887Y215922D01*
X2597809Y213382D02*
X2592730D01*
X2595269D01*
Y228617D01*
X2597809Y226078D01*
X2585113Y215922D02*
X2582574Y213382D01*
X2577495D01*
X2574956Y215922D01*
Y226078D01*
X2577495Y228617D01*
X2582574D01*
X2585113Y226078D01*
Y223539D01*
X2582574Y221000D01*
X2574956D01*
X2748887Y432078D02*
X2751426Y434618D01*
X2756505D01*
X2759044Y432078D01*
Y421922D01*
X2756505Y419383D01*
X2751426D01*
X2748887Y421922D01*
X2743809Y419383D02*
X2738730D01*
X2741270D01*
Y434618D01*
X2743809Y432078D01*
X2731113D02*
X2728574Y434618D01*
X2723495D01*
X2720956Y432078D01*
Y429539D01*
X2723495Y427000D01*
X2720956Y424461D01*
Y421922D01*
X2723495Y419383D01*
X2728574D01*
X2731113Y421922D01*
Y424461D01*
X2728574Y427000D01*
X2731113Y429539D01*
Y432078D01*
X2728574Y427000D02*
X2723495D01*
X2748887Y367078D02*
X2751426Y369618D01*
X2756505D01*
X2759044Y367078D01*
Y356922D01*
X2756505Y354383D01*
X2751426D01*
X2748887Y356922D01*
X2743809Y354383D02*
X2738730D01*
X2741270D01*
Y369618D01*
X2743809Y367078D01*
X2731113Y369618D02*
X2720956D01*
Y367078D01*
X2731113Y356922D01*
Y354383D01*
X2585887Y576158D02*
X2588426Y578697D01*
X2593505D01*
X2596044Y576158D01*
Y566001D01*
X2593505Y563462D01*
X2588426D01*
X2585887Y566001D01*
X2580809Y563462D02*
X2575730D01*
X2578270D01*
Y578697D01*
X2580809Y576158D01*
X2557956Y578697D02*
X2563034Y576158D01*
X2568113Y571079D01*
Y566001D01*
X2565574Y563462D01*
X2560495D01*
X2557956Y566001D01*
Y568540D01*
X2560495Y571079D01*
X2568113D01*
X2687079Y337113D02*
X2689618Y334574D01*
Y329495D01*
X2687079Y326956D01*
X2676922D01*
X2674383Y329495D01*
Y334574D01*
X2676922Y337113D01*
X2674383Y342191D02*
Y347270D01*
Y344730D01*
X2689618D01*
X2687079Y342191D01*
X2689618Y365044D02*
Y354887D01*
X2682000D01*
X2684539Y359965D01*
Y362505D01*
X2682000Y365044D01*
X2676922D01*
X2674383Y362505D01*
Y357426D01*
X2676922Y354887D01*
X2561078Y319113D02*
X2563618Y316574D01*
Y311495D01*
X2561078Y308956D01*
X2550922D01*
X2548383Y311495D01*
Y316574D01*
X2550922Y319113D01*
X2548383Y324191D02*
Y329270D01*
Y326730D01*
X2563618D01*
X2561078Y324191D01*
X2548383Y344505D02*
X2563618D01*
X2556000Y336887D01*
Y347044D01*
X2748887Y475078D02*
X2751426Y477617D01*
X2756505D01*
X2759044Y475078D01*
Y464922D01*
X2756505Y462383D01*
X2751426D01*
X2748887Y464922D01*
X2743809Y462383D02*
X2738730D01*
X2741270D01*
Y477617D01*
X2743809Y475078D01*
X2731113D02*
X2728574Y477617D01*
X2723495D01*
X2720956Y475078D01*
Y472539D01*
X2723495Y470000D01*
X2726035D01*
X2723495D01*
X2720956Y467461D01*
Y464922D01*
X2723495Y462383D01*
X2728574D01*
X2731113Y464922D01*
X2535922Y547617D02*
X2533382Y550157D01*
Y555235D01*
X2535922Y557774D01*
X2546078D01*
X2548618Y555235D01*
Y550157D01*
X2546078Y547617D01*
X2548618Y542539D02*
Y537461D01*
Y540000D01*
X2533382D01*
X2535922Y542539D01*
X2548618Y519687D02*
Y529843D01*
X2538461Y519687D01*
X2535922D01*
X2533382Y522226D01*
Y527304D01*
X2535922Y529843D01*
X2655922Y1734887D02*
X2653383Y1737426D01*
Y1742505D01*
X2655922Y1745044D01*
X2666078D01*
X2668618Y1742505D01*
Y1737426D01*
X2666078Y1734887D01*
X2668618Y1729809D02*
Y1724730D01*
Y1727269D01*
X2653383D01*
X2655922Y1729809D01*
Y1717113D02*
X2653383Y1714574D01*
Y1709495D01*
X2655922Y1706956D01*
X2666078D01*
X2668618Y1709495D01*
Y1714574D01*
X2666078Y1717113D01*
X2655922D01*
X2485539Y1764078D02*
X2488078Y1766617D01*
X2493157D01*
X2495696Y1764078D01*
Y1753922D01*
X2493157Y1751382D01*
X2488078D01*
X2485539Y1753922D01*
X2480461D02*
X2477922Y1751382D01*
X2472843D01*
X2470304Y1753922D01*
Y1764078D01*
X2472843Y1766617D01*
X2477922D01*
X2480461Y1764078D01*
Y1761539D01*
X2477922Y1759000D01*
X2470304D01*
X2566696Y1738618D02*
Y1725922D01*
X2564157Y1723383D01*
X2559078D01*
X2556539Y1725922D01*
Y1738618D01*
X2551461Y1736078D02*
X2548922Y1738618D01*
X2543843D01*
X2541304Y1736078D01*
Y1733539D01*
X2543843Y1731000D01*
X2546382D01*
X2543843D01*
X2541304Y1728461D01*
Y1725922D01*
X2543843Y1723383D01*
X2548922D01*
X2551461Y1725922D01*
X2479235Y1509617D02*
Y1496922D01*
X2476696Y1494382D01*
X2471617D01*
X2469078Y1496922D01*
Y1509617D01*
X2453843Y1494382D02*
X2464000D01*
X2453843Y1504539D01*
Y1507078D01*
X2456382Y1509617D01*
X2461461D01*
X2464000Y1507078D01*
X2448765Y1494382D02*
X2443687D01*
X2446226D01*
Y1509617D01*
X2448765Y1507078D01*
X2556536Y1786078D02*
X2559075Y1788618D01*
X2564154D01*
X2566693Y1786078D01*
Y1775922D01*
X2564154Y1773383D01*
X2559075D01*
X2556536Y1775922D01*
X2541301Y1788618D02*
X2551458D01*
Y1781000D01*
X2546380Y1783539D01*
X2543840D01*
X2541301Y1781000D01*
Y1775922D01*
X2543840Y1773383D01*
X2548919D01*
X2551458Y1775922D01*
X2597383Y347687D02*
X2612617D01*
Y355304D01*
X2610078Y357843D01*
X2605000D01*
X2602461Y355304D01*
Y347687D01*
Y352765D02*
X2597383Y357843D01*
Y373078D02*
Y362922D01*
X2607539Y373078D01*
X2610078D01*
X2612617Y370539D01*
Y365461D01*
X2610078Y362922D01*
X2612617Y388313D02*
X2610078Y383235D01*
X2605000Y378157D01*
X2599922D01*
X2597383Y380696D01*
Y385774D01*
X2599922Y388313D01*
X2602461D01*
X2605000Y385774D01*
Y378157D01*
X2640073Y1530169D02*
Y1517473D01*
X2637533Y1514933D01*
X2632455D01*
X2629916Y1517473D01*
Y1530169D01*
X2614681Y1514933D02*
X2624837D01*
X2614681Y1525090D01*
Y1527629D01*
X2617220Y1530169D01*
X2622298D01*
X2624837Y1527629D01*
X2609602D02*
X2607063Y1530169D01*
X2601985D01*
X2599445Y1527629D01*
Y1517473D01*
X2601985Y1514933D01*
X2607063D01*
X2609602Y1517473D01*
Y1527629D01*
X2640073Y841758D02*
Y829062D01*
X2637533Y826523D01*
X2632455D01*
X2629916Y829062D01*
Y841758D01*
X2614681Y826523D02*
X2624837D01*
X2614681Y836679D01*
Y839218D01*
X2617220Y841758D01*
X2622298D01*
X2624837Y839218D01*
X2609602Y829062D02*
X2607063Y826523D01*
X2601985D01*
X2599445Y829062D01*
Y839218D01*
X2601985Y841758D01*
X2607063D01*
X2609602Y839218D01*
Y836679D01*
X2607063Y834140D01*
X2599445D01*
X2640073Y1070618D02*
Y1057922D01*
X2637533Y1055383D01*
X2632455D01*
X2629916Y1057922D01*
Y1070618D01*
X2614681Y1055383D02*
X2624837D01*
X2614681Y1065539D01*
Y1068078D01*
X2617220Y1070618D01*
X2622298D01*
X2624837Y1068078D01*
X2599445Y1070618D02*
X2604524Y1068078D01*
X2609602Y1063000D01*
Y1057922D01*
X2607063Y1055383D01*
X2601985D01*
X2599445Y1057922D01*
Y1060461D01*
X2601985Y1063000D01*
X2609602D01*
X2640073Y1302617D02*
Y1289922D01*
X2637533Y1287383D01*
X2632455D01*
X2629916Y1289922D01*
Y1302617D01*
X2614681Y1287383D02*
X2624837D01*
X2614681Y1297539D01*
Y1300078D01*
X2617220Y1302617D01*
X2622298D01*
X2624837Y1300078D01*
X2609602D02*
X2607063Y1302617D01*
X2601985D01*
X2599445Y1300078D01*
Y1297539D01*
X2601985Y1295000D01*
X2604524D01*
X2601985D01*
X2599445Y1292461D01*
Y1289922D01*
X2601985Y1287383D01*
X2607063D01*
X2609602Y1289922D01*
X2484313Y821618D02*
Y808922D01*
X2481774Y806383D01*
X2476696D01*
X2474157Y808922D01*
Y821618D01*
X2469078Y819078D02*
X2466539Y821618D01*
X2461461D01*
X2458922Y819078D01*
Y816539D01*
X2461461Y814000D01*
X2464000D01*
X2461461D01*
X2458922Y811461D01*
Y808922D01*
X2461461Y806383D01*
X2466539D01*
X2469078Y808922D01*
X2453843Y819078D02*
X2451304Y821618D01*
X2446226D01*
X2443687Y819078D01*
Y808922D01*
X2446226Y806383D01*
X2451304D01*
X2453843Y808922D01*
Y819078D01*
X2484313Y1054617D02*
Y1041922D01*
X2481774Y1039382D01*
X2476696D01*
X2474157Y1041922D01*
Y1054617D01*
X2458922Y1039382D02*
X2469078D01*
X2458922Y1049539D01*
Y1052078D01*
X2461461Y1054617D01*
X2466539D01*
X2469078Y1052078D01*
X2453843Y1054617D02*
X2443687D01*
Y1052078D01*
X2453843Y1041922D01*
Y1039382D01*
X2484313Y1285618D02*
Y1272922D01*
X2481774Y1270383D01*
X2476696D01*
X2474157Y1272922D01*
Y1285618D01*
X2458922Y1270383D02*
X2469078D01*
X2458922Y1280539D01*
Y1283078D01*
X2461461Y1285618D01*
X2466539D01*
X2469078Y1283078D01*
X2446226Y1270383D02*
Y1285618D01*
X2453843Y1278000D01*
X2443687D01*
X2597383Y259687D02*
X2612617D01*
Y267304D01*
X2610078Y269843D01*
X2605000D01*
X2602461Y267304D01*
Y259687D01*
Y264765D02*
X2597383Y269843D01*
Y285078D02*
Y274922D01*
X2607539Y285078D01*
X2610078D01*
X2612617Y282539D01*
Y277461D01*
X2610078Y274922D01*
X2612617Y290157D02*
Y300313D01*
X2610078D01*
X2599922Y290157D01*
X2597383D01*
X2716957Y1530108D02*
X2719496Y1532648D01*
X2724574D01*
X2727113Y1530108D01*
Y1519952D01*
X2724574Y1517413D01*
X2719496D01*
X2716957Y1519952D01*
X2704261Y1517413D02*
Y1532648D01*
X2711878Y1525030D01*
X2701721D01*
X2696643Y1519952D02*
X2694104Y1517413D01*
X2689026D01*
X2686487Y1519952D01*
Y1530108D01*
X2689026Y1532648D01*
X2694104D01*
X2696643Y1530108D01*
Y1527569D01*
X2694104Y1525030D01*
X2686487D01*
X2711828Y843578D02*
X2714367Y846117D01*
X2719446D01*
X2721985Y843578D01*
Y833422D01*
X2719446Y830882D01*
X2714367D01*
X2711828Y833422D01*
X2696593Y846117D02*
X2701671Y843578D01*
X2706750Y838500D01*
Y833422D01*
X2704211Y830882D01*
X2699132D01*
X2696593Y833422D01*
Y835961D01*
X2699132Y838500D01*
X2706750D01*
X2691515Y830882D02*
X2686436D01*
X2688976D01*
Y846117D01*
X2691515Y843578D01*
X2716907Y1073578D02*
X2719446Y1076117D01*
X2724524D01*
X2727063Y1073578D01*
Y1063422D01*
X2724524Y1060882D01*
X2719446D01*
X2716907Y1063422D01*
X2701671Y1076117D02*
X2711828D01*
Y1068500D01*
X2706750Y1071039D01*
X2704211D01*
X2701671Y1068500D01*
Y1063422D01*
X2704211Y1060882D01*
X2709289D01*
X2711828Y1063422D01*
X2696593Y1076117D02*
X2686436D01*
Y1073578D01*
X2696593Y1063422D01*
Y1060882D01*
X2716907Y1303578D02*
X2719446Y1306118D01*
X2724524D01*
X2727063Y1303578D01*
Y1293422D01*
X2724524Y1290883D01*
X2719446D01*
X2716907Y1293422D01*
X2701671Y1306118D02*
X2711828D01*
Y1298500D01*
X2706750Y1301039D01*
X2704211D01*
X2701671Y1298500D01*
Y1293422D01*
X2704211Y1290883D01*
X2709289D01*
X2711828Y1293422D01*
X2696593Y1303578D02*
X2694054Y1306118D01*
X2688976D01*
X2686436Y1303578D01*
Y1301039D01*
X2688976Y1298500D01*
X2691515D01*
X2688976D01*
X2686436Y1295961D01*
Y1293422D01*
X2688976Y1290883D01*
X2694054D01*
X2696593Y1293422D01*
X2716957Y1621358D02*
X2719496Y1623898D01*
X2724574D01*
X2727113Y1621358D01*
Y1611202D01*
X2724574Y1608663D01*
X2719496D01*
X2716957Y1611202D01*
X2704261Y1608663D02*
Y1623898D01*
X2711878Y1616280D01*
X2701721D01*
X2686487Y1623898D02*
X2691565Y1621358D01*
X2696643Y1616280D01*
Y1611202D01*
X2694104Y1608663D01*
X2689026D01*
X2686487Y1611202D01*
Y1613741D01*
X2689026Y1616280D01*
X2696643D01*
X2716907Y934828D02*
X2719446Y937367D01*
X2724524D01*
X2727063Y934828D01*
Y924672D01*
X2724524Y922132D01*
X2719446D01*
X2716907Y924672D01*
X2701671Y937367D02*
X2711828D01*
Y929750D01*
X2706750Y932289D01*
X2704211D01*
X2701671Y929750D01*
Y924672D01*
X2704211Y922132D01*
X2709289D01*
X2711828Y924672D01*
X2696593Y934828D02*
X2694054Y937367D01*
X2688976D01*
X2686436Y934828D01*
Y932289D01*
X2688976Y929750D01*
X2686436Y927211D01*
Y924672D01*
X2688976Y922132D01*
X2694054D01*
X2696593Y924672D01*
Y927211D01*
X2694054Y929750D01*
X2696593Y932289D01*
Y934828D01*
X2694054Y929750D02*
X2688976D01*
X2716907Y1164828D02*
X2719446Y1167367D01*
X2724524D01*
X2727063Y1164828D01*
Y1154672D01*
X2724524Y1152132D01*
X2719446D01*
X2716907Y1154672D01*
X2701671Y1167367D02*
X2711828D01*
Y1159750D01*
X2706750Y1162289D01*
X2704211D01*
X2701671Y1159750D01*
Y1154672D01*
X2704211Y1152132D01*
X2709289D01*
X2711828Y1154672D01*
X2688976Y1152132D02*
Y1167367D01*
X2696593Y1159750D01*
X2686436D01*
X2716907Y1394828D02*
X2719446Y1397368D01*
X2724524D01*
X2727063Y1394828D01*
Y1384672D01*
X2724524Y1382133D01*
X2719446D01*
X2716907Y1384672D01*
X2701671Y1397368D02*
X2711828D01*
Y1389750D01*
X2706750Y1392289D01*
X2704211D01*
X2701671Y1389750D01*
Y1384672D01*
X2704211Y1382133D01*
X2709289D01*
X2711828Y1384672D01*
X2696593Y1394828D02*
X2694054Y1397368D01*
X2688976D01*
X2686436Y1394828D01*
Y1384672D01*
X2688976Y1382133D01*
X2694054D01*
X2696593Y1384672D01*
Y1394828D01*
X2648707Y1554858D02*
X2651246Y1557398D01*
X2656324D01*
X2658864Y1554858D01*
Y1544702D01*
X2656324Y1542162D01*
X2651246D01*
X2648707Y1544702D01*
X2636011Y1542162D02*
Y1557398D01*
X2643629Y1549780D01*
X2633472D01*
X2628393Y1554858D02*
X2625854Y1557398D01*
X2620776D01*
X2618237Y1554858D01*
Y1552319D01*
X2620776Y1549780D01*
X2618237Y1547241D01*
Y1544702D01*
X2620776Y1542162D01*
X2625854D01*
X2628393Y1544702D01*
Y1547241D01*
X2625854Y1549780D01*
X2628393Y1552319D01*
Y1554858D01*
X2625854Y1549780D02*
X2620776D01*
X2648657Y868328D02*
X2651196Y870867D01*
X2656274D01*
X2658813Y868328D01*
Y858172D01*
X2656274Y855632D01*
X2651196D01*
X2648657Y858172D01*
X2633422Y870867D02*
X2638500Y868328D01*
X2643578Y863250D01*
Y858172D01*
X2641039Y855632D01*
X2635961D01*
X2633422Y858172D01*
Y860711D01*
X2635961Y863250D01*
X2643578D01*
X2628343Y868328D02*
X2625804Y870867D01*
X2620726D01*
X2618187Y868328D01*
Y858172D01*
X2620726Y855632D01*
X2625804D01*
X2628343Y858172D01*
Y868328D01*
X2648657Y1098328D02*
X2651196Y1100867D01*
X2656274D01*
X2658813Y1098328D01*
Y1088172D01*
X2656274Y1085632D01*
X2651196D01*
X2648657Y1088172D01*
X2633422Y1100867D02*
X2643578D01*
Y1093250D01*
X2638500Y1095789D01*
X2635961D01*
X2633422Y1093250D01*
Y1088172D01*
X2635961Y1085632D01*
X2641039D01*
X2643578Y1088172D01*
X2618187Y1100867D02*
X2623265Y1098328D01*
X2628343Y1093250D01*
Y1088172D01*
X2625804Y1085632D01*
X2620726D01*
X2618187Y1088172D01*
Y1090711D01*
X2620726Y1093250D01*
X2628343D01*
X2648657Y1328328D02*
X2651196Y1330867D01*
X2656274D01*
X2658813Y1328328D01*
Y1318172D01*
X2656274Y1315632D01*
X2651196D01*
X2648657Y1318172D01*
X2633422Y1330867D02*
X2643578D01*
Y1323250D01*
X2638500Y1325789D01*
X2635961D01*
X2633422Y1323250D01*
Y1318172D01*
X2635961Y1315632D01*
X2641039D01*
X2643578Y1318172D01*
X2618187Y1315632D02*
X2628343D01*
X2618187Y1325789D01*
Y1328328D01*
X2620726Y1330867D01*
X2625804D01*
X2628343Y1328328D01*
X2648707Y1585858D02*
X2651246Y1588398D01*
X2656324D01*
X2658864Y1585858D01*
Y1575702D01*
X2656324Y1573163D01*
X2651246D01*
X2648707Y1575702D01*
X2636011Y1573163D02*
Y1588398D01*
X2643629Y1580780D01*
X2633472D01*
X2628393Y1588398D02*
X2618237D01*
Y1585858D01*
X2628393Y1575702D01*
Y1573163D01*
X2648657Y899328D02*
X2651196Y901868D01*
X2656274D01*
X2658813Y899328D01*
Y889172D01*
X2656274Y886633D01*
X2651196D01*
X2648657Y889172D01*
X2633422Y901868D02*
X2643578D01*
Y894250D01*
X2638500Y896789D01*
X2635961D01*
X2633422Y894250D01*
Y889172D01*
X2635961Y886633D01*
X2641039D01*
X2643578Y889172D01*
X2628343D02*
X2625804Y886633D01*
X2620726D01*
X2618187Y889172D01*
Y899328D01*
X2620726Y901868D01*
X2625804D01*
X2628343Y899328D01*
Y896789D01*
X2625804Y894250D01*
X2618187D01*
X2648657Y1129328D02*
X2651196Y1131868D01*
X2656274D01*
X2658813Y1129328D01*
Y1119172D01*
X2656274Y1116633D01*
X2651196D01*
X2648657Y1119172D01*
X2633422Y1131868D02*
X2643578D01*
Y1124250D01*
X2638500Y1126789D01*
X2635961D01*
X2633422Y1124250D01*
Y1119172D01*
X2635961Y1116633D01*
X2641039D01*
X2643578Y1119172D01*
X2618187Y1131868D02*
X2628343D01*
Y1124250D01*
X2623265Y1126789D01*
X2620726D01*
X2618187Y1124250D01*
Y1119172D01*
X2620726Y1116633D01*
X2625804D01*
X2628343Y1119172D01*
X2643578Y1359328D02*
X2646118Y1361868D01*
X2651196D01*
X2653735Y1359328D01*
Y1349172D01*
X2651196Y1346633D01*
X2646118D01*
X2643578Y1349172D01*
X2628343Y1361868D02*
X2638500D01*
Y1354250D01*
X2633422Y1356789D01*
X2630882D01*
X2628343Y1354250D01*
Y1349172D01*
X2630882Y1346633D01*
X2635961D01*
X2638500Y1349172D01*
X2623265Y1346633D02*
X2618187D01*
X2620726D01*
Y1361868D01*
X2623265Y1359328D01*
X2467235Y368078D02*
X2469774Y370617D01*
X2474853D01*
X2477392Y368078D01*
Y357922D01*
X2474853Y355382D01*
X2469774D01*
X2467235Y357922D01*
X2462157Y355382D02*
X2457078D01*
X2459617D01*
Y370617D01*
X2462157Y368078D01*
X2449461Y355382D02*
X2444382D01*
X2446922D01*
Y370617D01*
X2449461Y368078D01*
X2503539Y1655078D02*
X2506078Y1657617D01*
X2511157D01*
X2513696Y1655078D01*
Y1644922D01*
X2511157Y1642383D01*
X2506078D01*
X2503539Y1644922D01*
X2488304Y1657617D02*
X2493383Y1655078D01*
X2498461Y1650000D01*
Y1644922D01*
X2495922Y1642383D01*
X2490843D01*
X2488304Y1644922D01*
Y1647461D01*
X2490843Y1650000D01*
X2498461D01*
D15*
X2496750Y792800D02*
Y836800D01*
X2526750Y792800D02*
Y836800D01*
Y1022800D02*
Y1066800D01*
X2496750Y1022800D02*
Y1066800D01*
Y1252800D02*
Y1296800D01*
X2526750Y1252800D02*
Y1296800D01*
X2526800Y1479330D02*
Y1523330D01*
X2496800Y1479330D02*
Y1523330D01*
X2599300Y1020750D02*
X2643300D01*
X2599300Y1050750D02*
X2643300D01*
X2599350Y1507280D02*
X2643350D01*
X2599350Y1477280D02*
X2643350D01*
X2533450Y1688750D02*
X2577450D01*
X2533450Y1718750D02*
X2577450D01*
X2599300Y820750D02*
X2643300D01*
X2599300Y790750D02*
X2643300D01*
X2599300Y1280750D02*
X2643300D01*
X2599300Y1250750D02*
X2643300D01*
D16*
X2593100Y540650D02*
Y553350D01*
X2561350Y540650D02*
Y553350D01*
X2574050Y554620D02*
X2580400D01*
X2574050Y539380D02*
X2580400D01*
X2484900Y492350D02*
X2497600D01*
X2484900Y460600D02*
X2497600D01*
X2483630Y473300D02*
Y479650D01*
X2498870Y473300D02*
Y479650D01*
X2484900Y436850D02*
X2497600D01*
X2484900Y405100D02*
X2497600D01*
X2483630Y417800D02*
Y424150D01*
X2498870Y417800D02*
Y424150D01*
X2484900Y379100D02*
X2497600D01*
X2484900Y347350D02*
X2497600D01*
X2483630Y360050D02*
Y366400D01*
X2498870Y360050D02*
Y366400D01*
X2610850Y191400D02*
Y204100D01*
X2579100Y191400D02*
Y204100D01*
X2591800Y205370D02*
X2598150D01*
X2591800Y190130D02*
X2598150D01*
X2697400Y344650D02*
X2710100D01*
X2697400Y376400D02*
X2710100D01*
X2711370Y357350D02*
Y363700D01*
X2696130Y357350D02*
Y363700D01*
X2465350Y611150D02*
Y623850D01*
X2433600Y611150D02*
Y623850D01*
X2446300Y625120D02*
X2452650D01*
X2446300Y609880D02*
X2452650D01*
X2508650Y638650D02*
X2521350D01*
X2508650Y670400D02*
X2521350D01*
X2522620Y651350D02*
Y657700D01*
X2507380Y651350D02*
Y657700D01*
X2587026Y1765370D02*
X2593376D01*
X2587026Y1750130D02*
X2593376D01*
X2606076Y1751400D02*
Y1764100D01*
X2574326Y1751400D02*
Y1764100D01*
X2724704Y1083120D02*
Y1095820D01*
X2692954Y1083120D02*
Y1095820D01*
X2705654Y1097090D02*
X2712004D01*
X2705654Y1081850D02*
X2712004D01*
X2692004Y1133120D02*
Y1145820D01*
X2723754Y1133120D02*
Y1145820D01*
X2704704Y1131850D02*
X2711054D01*
X2704704Y1147090D02*
X2711054D01*
X2598650Y1108850D02*
X2611350D01*
X2598650Y1077100D02*
X2611350D01*
X2597380Y1089800D02*
Y1096150D01*
X2612620Y1089800D02*
Y1096150D01*
X2598650Y1109150D02*
X2611350D01*
X2598650Y1140900D02*
X2611350D01*
X2612620Y1121850D02*
Y1128200D01*
X2597380Y1121850D02*
Y1128200D01*
X2597430Y1578380D02*
Y1584730D01*
X2612670Y1578380D02*
Y1584730D01*
X2598700Y1597430D02*
X2611400D01*
X2598700Y1565680D02*
X2611400D01*
X2612670Y1546330D02*
Y1552680D01*
X2597430Y1546330D02*
Y1552680D01*
X2598700Y1533630D02*
X2611400D01*
X2598700Y1565380D02*
X2611400D01*
X2704754Y1603620D02*
X2711104D01*
X2704754Y1588380D02*
X2711104D01*
X2723804Y1589650D02*
Y1602350D01*
X2692054Y1589650D02*
Y1602350D01*
X2705704Y1538380D02*
X2712054D01*
X2705704Y1553620D02*
X2712054D01*
X2693004Y1539650D02*
Y1552350D01*
X2724754Y1539650D02*
Y1552350D01*
X2669870Y337580D02*
Y343930D01*
X2654630Y337580D02*
Y343930D01*
X2655900Y324880D02*
X2668600D01*
X2655900Y356630D02*
X2668600D01*
X2631300Y539880D02*
X2637650D01*
X2631300Y555120D02*
X2637650D01*
X2618600Y541150D02*
Y553850D01*
X2650350Y541150D02*
Y553850D01*
X2597380Y891850D02*
Y898200D01*
X2612620Y891850D02*
Y898200D01*
X2598650Y910900D02*
X2611350D01*
X2598650Y879150D02*
X2611350D01*
X2597380Y1351850D02*
Y1358200D01*
X2612620Y1351850D02*
Y1358200D01*
X2598650Y1370900D02*
X2611350D01*
X2598650Y1339150D02*
X2611350D01*
X2652130Y1766850D02*
Y1773200D01*
X2667370Y1766850D02*
Y1773200D01*
X2653400Y1785900D02*
X2666100D01*
X2653400Y1754150D02*
X2666100D01*
X2517600Y1765370D02*
X2523950D01*
X2517600Y1750130D02*
X2523950D01*
X2536650Y1751400D02*
Y1764100D01*
X2504900Y1751400D02*
Y1764100D01*
X2511880Y532350D02*
Y538700D01*
X2527120Y532350D02*
Y538700D01*
X2513150Y551400D02*
X2525850D01*
X2513150Y519650D02*
X2525850D01*
X2494380Y532350D02*
Y538700D01*
X2509620Y532350D02*
Y538700D01*
X2495650Y551400D02*
X2508350D01*
X2495650Y519650D02*
X2508350D01*
X2696130Y506100D02*
Y512450D01*
X2711370Y506100D02*
Y512450D01*
X2697400Y525150D02*
X2710100D01*
X2697400Y493400D02*
X2710100D01*
X2696130Y423100D02*
Y429450D01*
X2711370Y423100D02*
Y429450D01*
X2697400Y442150D02*
X2710100D01*
X2697400Y410400D02*
X2710100D01*
X2586370Y320080D02*
Y326430D01*
X2571130Y320080D02*
Y326430D01*
X2572400Y307380D02*
X2585100D01*
X2572400Y339130D02*
X2585100D01*
X2696130Y467100D02*
Y473450D01*
X2711370Y467100D02*
Y473450D01*
X2697400Y486150D02*
X2710100D01*
X2697400Y454400D02*
X2710100D01*
X2713630Y506100D02*
Y512450D01*
X2728870Y506100D02*
Y512450D01*
X2714900Y525150D02*
X2727600D01*
X2714900Y493400D02*
X2727600D01*
X2552313Y1750130D02*
X2558663D01*
X2552313Y1765370D02*
X2558663D01*
X2539613Y1751400D02*
Y1764100D01*
X2571363Y1751400D02*
Y1764100D01*
X2634550Y324880D02*
X2640900D01*
X2634550Y340120D02*
X2640900D01*
X2621850Y326150D02*
Y338850D01*
X2653600Y326150D02*
Y338850D01*
X2601350Y340120D02*
X2607700D01*
X2601350Y324880D02*
X2607700D01*
X2620400Y326150D02*
Y338850D01*
X2588650Y326150D02*
Y338850D01*
X2620350Y308650D02*
Y321350D01*
X2588600Y308650D02*
Y321350D01*
X2601300Y322620D02*
X2607650D01*
X2601300Y307380D02*
X2607650D01*
X2612620Y859800D02*
Y866150D01*
X2597380Y859800D02*
Y866150D01*
X2598650Y847100D02*
X2611350D01*
X2598650Y878850D02*
X2611350D01*
X2704704Y917090D02*
X2711054D01*
X2704704Y901850D02*
X2711054D01*
X2723754Y903120D02*
Y915820D01*
X2692004Y903120D02*
Y915820D01*
X2705654Y851850D02*
X2712004D01*
X2705654Y867090D02*
X2712004D01*
X2692954Y853120D02*
Y865820D01*
X2724704Y853120D02*
Y865820D01*
X2612620Y1319800D02*
Y1326150D01*
X2597380Y1319800D02*
Y1326150D01*
X2598650Y1307100D02*
X2611350D01*
X2598650Y1338850D02*
X2611350D01*
X2704704Y1377090D02*
X2711054D01*
X2704704Y1361850D02*
X2711054D01*
X2723754Y1363120D02*
Y1375820D01*
X2692004Y1363120D02*
Y1375820D01*
X2705654Y1311850D02*
X2712004D01*
X2705654Y1327090D02*
X2712004D01*
X2692954Y1313120D02*
Y1325820D01*
X2724704Y1313120D02*
Y1325820D01*
D17*
X262792Y1787470D02*
X263808D01*
X262538Y1787724D02*
X263554D01*
X261776Y1788994D02*
X262792D01*
X261776Y1789248D02*
X262792D01*
X262030Y1788486D02*
X263300D01*
X262030Y1788740D02*
X263046D01*
X261522Y1808806D02*
X263808D01*
X261522Y1809060D02*
X263808D01*
X261522Y1809314D02*
X263808D01*
X261522Y1809568D02*
X263808D01*
X261522Y1809822D02*
X263808D01*
X276254Y1737432D02*
X279302D01*
X278286Y1735400D02*
X281334D01*
X279556Y1735146D02*
X280318D01*
X277270Y1736162D02*
X282604D01*
X277524Y1735908D02*
X282350D01*
X277778Y1735654D02*
X281842D01*
X276254Y1737178D02*
X283366D01*
X276508Y1736924D02*
X283366D01*
X276762Y1736670D02*
X283112D01*
X280318Y1737432D02*
X283620D01*
X277016Y1736416D02*
X282858D01*
X277778Y1742766D02*
X282096D01*
X278286Y1743020D02*
X281588D01*
X279048Y1743274D02*
X280826D01*
X281334Y1740480D02*
X283874D01*
X281080Y1740734D02*
X283874D01*
X280572Y1740988D02*
X283620D01*
X276762Y1742004D02*
X282858D01*
X276254Y1741242D02*
X283620D01*
X276508Y1741496D02*
X283366D01*
X276762Y1741750D02*
X283112D01*
X281080Y1737686D02*
X283620D01*
X281334Y1737940D02*
X283874D01*
X276000Y1738194D02*
X278286D01*
X275746Y1738448D02*
X278286D01*
X275746Y1738702D02*
X278032D01*
X275746Y1738956D02*
X278032D01*
X275746Y1739210D02*
X278032D01*
X275746Y1739464D02*
X278032D01*
X275746Y1739718D02*
X278032D01*
X275746Y1739972D02*
X278032D01*
X276000Y1740226D02*
X278286D01*
X276000Y1740480D02*
X278540D01*
X276000Y1740734D02*
X278794D01*
X276254Y1740988D02*
X279302D01*
X276000Y1737686D02*
X278794D01*
X276000Y1737940D02*
X278540D01*
X277016Y1742258D02*
X282604D01*
X277524Y1742512D02*
X282350D01*
X265078Y1783406D02*
X266348D01*
X265078Y1783660D02*
X266094D01*
X265078Y1785692D02*
X266094D01*
X265332Y1785946D02*
X266348D01*
X265332Y1786200D02*
X266348D01*
X265586Y1786454D02*
X266602D01*
X265586Y1786708D02*
X266856D01*
X265840Y1786962D02*
X266856D01*
X266094Y1787216D02*
X267110D01*
X266094Y1787470D02*
X267110D01*
X264824Y1783914D02*
X265840D01*
X264824Y1784168D02*
X265840D01*
X264570Y1784422D02*
X265586D01*
X266348Y1787724D02*
X267364D01*
X281080Y1783406D02*
X281842D01*
X281080Y1783660D02*
X281842D01*
X272952Y1783406D02*
X273968D01*
X272952Y1783660D02*
X273968D01*
X276254Y1783406D02*
X277270D01*
X276254Y1783660D02*
X277270D01*
X281080Y1783914D02*
X281842D01*
X281080Y1784168D02*
X281842D01*
X281080Y1784422D02*
X281842D01*
X281080Y1784676D02*
X281842D01*
X281080Y1784930D02*
X281842D01*
X281080Y1785184D02*
X281842D01*
X281080Y1786200D02*
X281842D01*
X281080Y1786454D02*
X281842D01*
X281080Y1786708D02*
X281842D01*
X281080Y1786962D02*
X281842D01*
X281080Y1787216D02*
X281842D01*
X281080Y1787470D02*
X281842D01*
X281080Y1787724D02*
X281842D01*
X276254Y1785438D02*
X281842D01*
X276254Y1785692D02*
X281842D01*
X276254Y1785946D02*
X281842D01*
X272952Y1785438D02*
X273968D01*
X272952Y1785692D02*
X273968D01*
X272952Y1785946D02*
X273968D01*
X272952Y1786200D02*
X273968D01*
X272952Y1786454D02*
X273968D01*
X272952Y1786708D02*
X273968D01*
X272952Y1786962D02*
X273968D01*
X272952Y1787216D02*
X273968D01*
X272952Y1787470D02*
X273968D01*
X272952Y1783914D02*
X273968D01*
X272952Y1784168D02*
X273968D01*
X272952Y1784422D02*
X273968D01*
X272952Y1784676D02*
X273968D01*
X272952Y1784930D02*
X273968D01*
X272952Y1785184D02*
X273968D01*
X272952Y1787724D02*
X273968D01*
X276254Y1784676D02*
X277270D01*
X276254Y1784930D02*
X277270D01*
X276254Y1785184D02*
X277270D01*
X276254Y1786200D02*
X277270D01*
X276254Y1786454D02*
X277270D01*
X276254Y1786708D02*
X277270D01*
X276254Y1786962D02*
X277270D01*
X276254Y1787216D02*
X277270D01*
X276254Y1787470D02*
X277270D01*
X276254Y1787724D02*
X277270D01*
X276254Y1783914D02*
X277270D01*
X276254Y1784168D02*
X277270D01*
X276254Y1784422D02*
X277270D01*
X266094Y1781882D02*
X267110D01*
X265840Y1782136D02*
X266856D01*
X265840Y1782390D02*
X266856D01*
X265586Y1782644D02*
X266602D01*
X281080Y1781882D02*
X281842D01*
X281080Y1782136D02*
X281842D01*
X281080Y1782390D02*
X281842D01*
X281080Y1782644D02*
X281842D01*
X272952Y1781882D02*
X273968D01*
X272952Y1782136D02*
X273968D01*
X272952Y1782390D02*
X273968D01*
X272952Y1782644D02*
X273968D01*
X276254Y1781882D02*
X277270D01*
X276254Y1782136D02*
X277270D01*
X276254Y1782390D02*
X277270D01*
X276254Y1782644D02*
X277270D01*
X265586Y1782898D02*
X266602D01*
X265332Y1783152D02*
X266348D01*
X281080Y1782898D02*
X281842D01*
X281080Y1783152D02*
X281842D01*
X272952Y1782898D02*
X273968D01*
X272952Y1783152D02*
X273968D01*
X276254Y1782898D02*
X277270D01*
X276254Y1783152D02*
X277270D01*
X264824Y1805250D02*
X266602D01*
Y1807536D02*
X269396D01*
X266856Y1807790D02*
X269650D01*
X267110Y1808044D02*
X269650D01*
X266856Y1788486D02*
X267872D01*
X266856Y1788740D02*
X267872D01*
X267110Y1788994D02*
X268126D01*
X267110Y1789248D02*
X268380D01*
X281080Y1788486D02*
X281842D01*
X281080Y1788740D02*
X281842D01*
X281080Y1788994D02*
X281842D01*
X281080Y1789248D02*
X281842D01*
X272952Y1788486D02*
X273968D01*
X276254D02*
X277270D01*
X276254Y1788740D02*
X277270D01*
X276254Y1788994D02*
X277270D01*
X276254Y1789248D02*
X277270D01*
X269142Y1788740D02*
X273968D01*
X269142Y1788994D02*
X273968D01*
X269142Y1789248D02*
X273968D01*
X265586Y1813378D02*
X265840D01*
X267110Y1810584D02*
X269650D01*
X266856Y1810838D02*
X269650D01*
X266094Y1811092D02*
X269396D01*
X287938Y1738194D02*
X290224D01*
X287938Y1738448D02*
X290224D01*
X287938Y1739718D02*
X290224D01*
X287938Y1739972D02*
X290224D01*
X287938Y1740226D02*
X290224D01*
X287938Y1738702D02*
X290224D01*
X287938Y1738956D02*
X290224D01*
X287938Y1739210D02*
X290224D01*
X287938Y1739464D02*
X290224D01*
X300892Y1738194D02*
X303178D01*
X300892Y1738448D02*
X303178D01*
X300892Y1738702D02*
X303178D01*
X300892Y1738956D02*
X303178D01*
X300892Y1739210D02*
X303178D01*
X300892Y1739464D02*
X303178D01*
X300892Y1739718D02*
X303178D01*
X300892Y1739972D02*
X303178D01*
X300892Y1740226D02*
X303178D01*
X296574Y1738194D02*
X298860D01*
X296574Y1738448D02*
X298860D01*
X296574Y1738702D02*
X298860D01*
X296574Y1738956D02*
X298860D01*
X296574Y1739210D02*
X298860D01*
X296574Y1739464D02*
X298860D01*
X296574Y1739718D02*
X298860D01*
X296574Y1739972D02*
X298860D01*
X296574Y1740226D02*
X298860D01*
X292256Y1738194D02*
X294542D01*
X292256Y1738448D02*
X294542D01*
X292256Y1739718D02*
X294542D01*
X292256Y1739972D02*
X294542D01*
X292256Y1740226D02*
X294542D01*
X292256Y1738702D02*
X294542D01*
X292256Y1738956D02*
X294542D01*
X292256Y1739210D02*
X294542D01*
X292256Y1739464D02*
X294542D01*
X287430Y1767404D02*
X292002D01*
X288192Y1767150D02*
X291240D01*
X286160Y1775532D02*
X286414D01*
X285906Y1775786D02*
X286668D01*
X285652Y1776040D02*
X286922D01*
X285398Y1776294D02*
X287430D01*
X285144Y1776548D02*
X287684D01*
X285398Y1776802D02*
X288446D01*
X285398Y1768928D02*
X288192D01*
X285398Y1769182D02*
X287684D01*
X285398Y1769436D02*
X287176D01*
X285652Y1769690D02*
X286922D01*
X285906Y1769944D02*
X286668D01*
X286160Y1770198D02*
X286414D01*
X287684Y1778326D02*
X292002D01*
X288446Y1778580D02*
X290986D01*
X299368Y1776802D02*
X302416D01*
X293780Y1773754D02*
X295558D01*
X293780Y1774008D02*
X295558D01*
X298098Y1773754D02*
X299876D01*
X298098Y1774008D02*
X299876D01*
X293018Y1775278D02*
X295050D01*
X293018Y1775532D02*
X295050D01*
X293526Y1774262D02*
X295558D01*
X293526Y1774516D02*
X295304D01*
X293272Y1774770D02*
X295304D01*
X293272Y1775024D02*
X295304D01*
X298098Y1774262D02*
X299876D01*
X298098Y1774516D02*
X300130D01*
X298352Y1774770D02*
X300130D01*
X298352Y1775024D02*
X300384D01*
X298352Y1775278D02*
X300384D01*
X298606Y1775532D02*
X300638D01*
X298606Y1775786D02*
X300892D01*
X298860Y1776040D02*
X301146D01*
X299114Y1776294D02*
X301400D01*
X299368Y1776548D02*
X301908D01*
X293526Y1770960D02*
X295304D01*
X293526Y1771214D02*
X295304D01*
X293526Y1771468D02*
X295558D01*
X293780Y1771722D02*
X295558D01*
X293780Y1771976D02*
X295558D01*
X293780Y1772230D02*
X295558D01*
X293780Y1772484D02*
X295558D01*
X293780Y1772738D02*
X295558D01*
X293780Y1772992D02*
X295558D01*
X293780Y1773246D02*
X295558D01*
X293780Y1773500D02*
X295558D01*
X297844Y1772738D02*
X299622D01*
X297844Y1772992D02*
X299622D01*
X297844Y1773246D02*
X299622D01*
X297844Y1773500D02*
X299876D01*
X298098Y1771722D02*
X299876D01*
X298098Y1771976D02*
X299876D01*
X297844Y1772230D02*
X299876D01*
X297844Y1772484D02*
X299622D01*
X298098Y1770960D02*
X300130D01*
X298098Y1771214D02*
X300130D01*
X298098Y1771468D02*
X299876D01*
X299622Y1768674D02*
X303686D01*
X299368Y1768928D02*
X302416D01*
X293018Y1770198D02*
X295050D01*
X293272Y1770452D02*
X295050D01*
X299114Y1769182D02*
X301908D01*
X299114Y1769436D02*
X301400D01*
X298860Y1769690D02*
X301146D01*
X298606Y1769944D02*
X300892D01*
X298606Y1770198D02*
X300638D01*
X298352Y1770452D02*
X300384D01*
X293272Y1770706D02*
X295304D01*
X298352D02*
X300384D01*
X292002Y1776294D02*
X294542D01*
X291748Y1776548D02*
X294288D01*
X290986Y1776802D02*
X294034D01*
X292764Y1775786D02*
X294796D01*
X292510Y1776040D02*
X294796D01*
X291240Y1768928D02*
X294034D01*
X291748Y1769182D02*
X294288D01*
X292256Y1769436D02*
X294542D01*
X292510Y1769690D02*
X294796D01*
X292764Y1769944D02*
X294796D01*
X285652Y1777056D02*
X293780D01*
X285906Y1777310D02*
X293526D01*
X286160Y1777564D02*
X293272D01*
X286668Y1777818D02*
X292764D01*
X286922Y1778072D02*
X292510D01*
X286160Y1768166D02*
X293272D01*
X285906Y1768420D02*
X293526D01*
X285652Y1768674D02*
X293780D01*
X289970Y1794074D02*
X292256D01*
X289970Y1794328D02*
X292256D01*
X289970Y1794582D02*
X292256D01*
X289970Y1794836D02*
X292256D01*
X289970Y1795090D02*
X292256D01*
X289970Y1795344D02*
X292256D01*
X293018Y1798646D02*
X295304D01*
X295558Y1795852D02*
X298098D01*
X295304Y1796106D02*
X297844D01*
X295050Y1796360D02*
X297844D01*
X295050Y1793058D02*
X297844D01*
X295304Y1793312D02*
X297844D01*
X291494Y1797884D02*
X296574D01*
X291748Y1798138D02*
X296320D01*
X290478Y1796614D02*
X297844D01*
X290478Y1796868D02*
X297590D01*
X290732Y1797122D02*
X297336D01*
X290986Y1797376D02*
X297082D01*
X291240Y1797630D02*
X297082D01*
X289970Y1795598D02*
X292510D01*
X290224Y1795852D02*
X292510D01*
X290224Y1796106D02*
X292764D01*
X290224Y1796360D02*
X293272D01*
X291748Y1791280D02*
X296320D01*
X291494Y1791534D02*
X296828D01*
X291240Y1791788D02*
X297082D01*
X290986Y1792042D02*
X297336D01*
X290732Y1792296D02*
X297336D01*
X290478Y1792550D02*
X297590D01*
X290478Y1792804D02*
X297844D01*
X290224Y1793058D02*
X293018D01*
X290224Y1793312D02*
X292764D01*
X290224Y1793566D02*
X292510D01*
X289970Y1793820D02*
X292510D01*
X292256Y1798392D02*
X295812D01*
X292764Y1790772D02*
X295304D01*
X292256Y1791026D02*
X296066D01*
X309274Y1738448D02*
X311560D01*
X309274Y1738194D02*
X311560D01*
X309274Y1738702D02*
X311560D01*
X309274Y1738956D02*
X311560D01*
X309274Y1739210D02*
X311560D01*
X309274Y1739464D02*
X311560D01*
X309274Y1739718D02*
X311560D01*
X309274Y1739972D02*
X311560D01*
X309274Y1740226D02*
X311560D01*
X322228Y1738448D02*
X324260D01*
X322228Y1738194D02*
X324260D01*
X322228Y1738702D02*
X324260D01*
X322228Y1738956D02*
X324260D01*
X322228Y1739210D02*
X324260D01*
X322228Y1739464D02*
X324260D01*
X322228Y1739718D02*
X324260D01*
X322228Y1739972D02*
X324260D01*
X322228Y1740226D02*
X324260D01*
X313592Y1738194D02*
X315878D01*
X313592Y1738448D02*
X315878D01*
X317910D02*
X320196D01*
X317910Y1738194D02*
X320196D01*
X313592Y1738702D02*
X315878D01*
X313592Y1738956D02*
X315878D01*
X313592Y1739210D02*
X315878D01*
X313592Y1739464D02*
X315878D01*
X313592Y1739718D02*
X315878D01*
X313592Y1739972D02*
X315878D01*
X313592Y1740226D02*
X315878D01*
X317910Y1738702D02*
X320196D01*
X317910Y1738956D02*
X320196D01*
X317910Y1739210D02*
X320196D01*
X317910Y1739464D02*
X320196D01*
X317910Y1739718D02*
X320196D01*
X317910Y1739972D02*
X320196D01*
X317910Y1740226D02*
X320196D01*
X318672Y1763086D02*
X320958D01*
X318672Y1763340D02*
X320958D01*
X322736Y1767150D02*
X324514D01*
X322736Y1767404D02*
X324514D01*
X318418Y1763594D02*
X320958D01*
X318418Y1763848D02*
X320704D01*
X318418Y1764102D02*
X320704D01*
X318418Y1764356D02*
X320704D01*
X318164Y1764610D02*
X320704D01*
X320196Y1758514D02*
X322736D01*
X320196Y1758768D02*
X322482D01*
X319942Y1759022D02*
X322482D01*
X321720Y1755466D02*
X324260D01*
X321466Y1755720D02*
X324006D01*
X321466Y1755974D02*
X323752D01*
X321212Y1756228D02*
X323752D01*
X321212Y1756482D02*
X323498D01*
X320958Y1756736D02*
X323498D01*
X320958Y1756990D02*
X323244D01*
X320704Y1757244D02*
X323244D01*
X320704Y1757498D02*
X323244D01*
X320450Y1757752D02*
X322990D01*
X320450Y1758006D02*
X322990D01*
X320450Y1758260D02*
X322736D01*
X322228Y1754196D02*
X324768D01*
X322228Y1754450D02*
X324768D01*
X321974Y1754704D02*
X324514D01*
X321974Y1754958D02*
X324514D01*
X321720Y1755212D02*
X324260D01*
X319942Y1759276D02*
X322228D01*
X319942Y1759530D02*
X322228D01*
X319688Y1759784D02*
X322228D01*
X319688Y1760038D02*
X321974D01*
X319434Y1760292D02*
X321974D01*
X319434Y1760546D02*
X321974D01*
X319434Y1760800D02*
X321720D01*
X319180Y1761054D02*
X321720D01*
X319180Y1761308D02*
X321466D01*
X319180Y1761562D02*
X321466D01*
X318926Y1761816D02*
X321466D01*
X318926Y1762070D02*
X321212D01*
X318926Y1762324D02*
X321212D01*
X312576Y1767150D02*
X314354D01*
X312576Y1767404D02*
X314354D01*
X318926Y1762578D02*
X321212D01*
X318672Y1762832D02*
X320958D01*
X318164Y1783406D02*
X320450D01*
X318164Y1783660D02*
X320450D01*
X318164Y1783914D02*
X320450D01*
X318164Y1784168D02*
X320704D01*
X318418Y1784422D02*
X320704D01*
X318418Y1784676D02*
X320704D01*
X318418Y1784930D02*
X320704D01*
X318418Y1785184D02*
X320958D01*
X318672Y1785438D02*
X320958D01*
X318672Y1785692D02*
X320958D01*
X318672Y1785946D02*
X321212D01*
X318926Y1786200D02*
X321212D01*
X318926Y1786454D02*
X321212D01*
X318926Y1786708D02*
X321212D01*
X319180Y1786962D02*
X321466D01*
X319180Y1787216D02*
X321466D01*
X319180Y1787470D02*
X321720D01*
X319180Y1787724D02*
X321720D01*
X307750Y1773754D02*
X309528D01*
X307750Y1774008D02*
X309528D01*
X307750Y1774262D02*
X309528D01*
X307496Y1774516D02*
X309528D01*
X307496Y1774770D02*
X309274D01*
X307242Y1775024D02*
X309274D01*
X307242Y1775278D02*
X309274D01*
X306988Y1775532D02*
X309020D01*
X306734Y1775786D02*
X308766D01*
X306480Y1776040D02*
X308766D01*
X306226Y1776294D02*
X308512D01*
X305718Y1776548D02*
X308258D01*
X305210Y1776802D02*
X308004D01*
Y1773246D02*
X309528D01*
X307750Y1773500D02*
X309528D01*
X307750Y1771722D02*
X309528D01*
X307750Y1771976D02*
X309528D01*
X307750Y1772230D02*
X309528D01*
X308004Y1772484D02*
X309528D01*
X307496Y1770960D02*
X309274D01*
X307750Y1771214D02*
X309528D01*
X307750Y1771468D02*
X309528D01*
X305210Y1768928D02*
X308258D01*
X305718Y1769182D02*
X308258D01*
X306226Y1769436D02*
X308512D01*
X306480Y1769690D02*
X308766D01*
X306734Y1769944D02*
X309020D01*
X306988Y1770198D02*
X309020D01*
X307242Y1770452D02*
X309274D01*
X308004Y1772738D02*
X309782D01*
X308004Y1772992D02*
X309782D01*
X307496Y1770706D02*
X309274D01*
X322736Y1773754D02*
X324514D01*
X322736Y1774008D02*
X324514D01*
X322736Y1774770D02*
X324514D01*
X322736Y1775024D02*
X324514D01*
X320450Y1775278D02*
X322482D01*
X322736D02*
X324514D01*
X320704Y1775532D02*
X322482D01*
X322736D02*
X324514D01*
X320958Y1775786D02*
X324514D01*
X321212Y1776040D02*
X324514D01*
X321466Y1776294D02*
X324514D01*
X321720Y1776548D02*
X324514D01*
X321720Y1776802D02*
X324514D01*
X321974Y1777056D02*
X324514D01*
X322228Y1777310D02*
X324514D01*
X322482Y1777564D02*
X324514D01*
X322736Y1777818D02*
X324514D01*
X322736Y1774262D02*
X324514D01*
X322736Y1774516D02*
X324514D01*
X322736Y1771722D02*
X324514D01*
X322736Y1771976D02*
X324514D01*
X322736Y1772230D02*
X324514D01*
X322736Y1772484D02*
X324514D01*
X322736Y1772738D02*
X324514D01*
X322736Y1772992D02*
X324514D01*
X322736Y1773246D02*
X324514D01*
X322736Y1773500D02*
X324514D01*
X322736Y1770960D02*
X324514D01*
X322736Y1771214D02*
X324514D01*
X322736Y1771468D02*
X324514D01*
X319180Y1773754D02*
X320958D01*
X319434Y1774008D02*
X321212D01*
X316132Y1773754D02*
X317910D01*
X315878Y1774008D02*
X317656D01*
X314608Y1775278D02*
X316640D01*
X314608Y1775532D02*
X316386D01*
X317656Y1780866D02*
X319942D01*
X317656Y1781120D02*
X319942D01*
X317656Y1781374D02*
X319942D01*
X317656Y1781628D02*
X319942D01*
X317910Y1781882D02*
X320196D01*
X317910Y1782136D02*
X320196D01*
X317910Y1782390D02*
X320196D01*
X317910Y1782644D02*
X320196D01*
X319942Y1774770D02*
X321974D01*
X320196Y1775024D02*
X322228D01*
X319688Y1774262D02*
X321466D01*
X319688Y1774516D02*
X321720D01*
X315116Y1774770D02*
X317148D01*
X314862Y1775024D02*
X316894D01*
X315624Y1774262D02*
X317402D01*
X315370Y1774516D02*
X317402D01*
X317910Y1771722D02*
X319180D01*
X317656Y1771976D02*
X319434D01*
X318672Y1773246D02*
X320704D01*
X318926Y1773500D02*
X320704D01*
X318418Y1770960D02*
X318672D01*
X318164Y1771214D02*
X318926D01*
X318164Y1771468D02*
X318926D01*
X317402Y1772230D02*
X319688D01*
X317148Y1772484D02*
X319942D01*
X316894Y1772738D02*
X320196D01*
X316640Y1772992D02*
X320450D01*
X316386Y1773246D02*
X318418D01*
X316386Y1773500D02*
X318164D01*
X322990Y1778072D02*
X324514D01*
X323244Y1778326D02*
X324514D01*
X322736Y1768166D02*
X324514D01*
X322736Y1768420D02*
X324514D01*
X322736Y1768674D02*
X324514D01*
X322736Y1768928D02*
X324514D01*
X322736Y1769182D02*
X324514D01*
X322736Y1769436D02*
X324514D01*
X322736Y1769690D02*
X324514D01*
X322736Y1769944D02*
X324514D01*
X322736Y1770198D02*
X324514D01*
X322736Y1770452D02*
X324514D01*
X322736Y1770706D02*
X324514D01*
X312576Y1773754D02*
X314354D01*
X312576Y1774008D02*
X314354D01*
X312576Y1774262D02*
X314354D01*
X312576Y1774516D02*
X314354D01*
X312576Y1775786D02*
X316132D01*
X312576Y1776040D02*
X315878D01*
X312576Y1776294D02*
X315624D01*
X312576Y1776548D02*
X315624D01*
X312576Y1777310D02*
X314862D01*
X312576Y1777564D02*
X314608D01*
X312576Y1777818D02*
X314354D01*
X312576Y1774770D02*
X314354D01*
X312576Y1775024D02*
X314354D01*
X312576Y1775278D02*
X314354D01*
X312576Y1775532D02*
X314354D01*
X312576Y1776802D02*
X315370D01*
X312576Y1777056D02*
X315116D01*
X312576Y1778072D02*
X314100D01*
X312576Y1778326D02*
X313846D01*
X312576Y1772738D02*
X314354D01*
X312576Y1772992D02*
X314354D01*
X312576Y1773246D02*
X314354D01*
X312576Y1773500D02*
X314354D01*
X312576Y1771722D02*
X314354D01*
X312576Y1771976D02*
X314354D01*
X312576Y1772230D02*
X314354D01*
X312576Y1772484D02*
X314354D01*
X312576Y1770960D02*
X314354D01*
X312576Y1771214D02*
X314354D01*
X312576Y1771468D02*
X314354D01*
X312576Y1768166D02*
X314354D01*
X312576Y1768420D02*
X314354D01*
X312576Y1768674D02*
X314354D01*
X312576Y1768928D02*
X314354D01*
X312576Y1769182D02*
X314354D01*
X312576Y1769436D02*
X314354D01*
X312576Y1769690D02*
X314354D01*
X312576Y1769944D02*
X314354D01*
X312576Y1770198D02*
X314354D01*
X312576Y1770452D02*
X314354D01*
X312576Y1770706D02*
X314354D01*
X317910Y1782898D02*
X320196D01*
X318164Y1783152D02*
X320450D01*
X320958Y1792042D02*
X323498D01*
X321212Y1792296D02*
X323752D01*
X321212Y1792550D02*
X323752D01*
X321466Y1792804D02*
X324006D01*
X321466Y1793058D02*
X324006D01*
X321720Y1793312D02*
X324260D01*
X320704Y1791280D02*
X323244D01*
X320704Y1791534D02*
X323244D01*
X320958Y1791788D02*
X323498D01*
X319942Y1789502D02*
X322482D01*
X319942Y1789756D02*
X322482D01*
X320196Y1790010D02*
X322482D01*
X320196Y1790264D02*
X322736D01*
X320450Y1790518D02*
X322736D01*
X320450Y1790772D02*
X322990D01*
X319688Y1788486D02*
X321974D01*
X319688Y1788740D02*
X321974D01*
X319688Y1788994D02*
X322228D01*
X319942Y1789248D02*
X322228D01*
X320450Y1791026D02*
X322990D01*
X338992Y1737432D02*
X340516D01*
X339500Y1737178D02*
X340516D01*
X340008Y1736924D02*
X340262D01*
X343310Y1735400D02*
X344580D01*
X344072Y1735146D02*
X344326D01*
X342802Y1737432D02*
X344580D01*
X342802Y1737178D02*
X345088D01*
X342548Y1736924D02*
X345088D01*
X342548Y1736670D02*
X345088D01*
X342548Y1736416D02*
X344834D01*
X342294Y1736162D02*
X344834D01*
X342294Y1735908D02*
X344834D01*
X342802Y1735654D02*
X344580D01*
X329340Y1744798D02*
X329594D01*
X329086Y1745052D02*
X329848D01*
X332388Y1744544D02*
X332896D01*
X328070Y1746068D02*
X330864D01*
X328070Y1746322D02*
X330864D01*
X328324Y1746576D02*
X330610D01*
X328578Y1746830D02*
X330356D01*
X328832Y1747084D02*
X330102D01*
X328832Y1745306D02*
X330102D01*
X328578Y1745560D02*
X330356D01*
X328324Y1745814D02*
X330610D01*
X326292Y1738448D02*
X328578D01*
X326292Y1738194D02*
X328578D01*
X326292Y1738702D02*
X328578D01*
X326292Y1738956D02*
X328578D01*
X326292Y1739210D02*
X328578D01*
X326292Y1739464D02*
X328578D01*
X326292Y1739718D02*
X328578D01*
X326292Y1739972D02*
X328578D01*
X326292Y1740226D02*
X328578D01*
X330610Y1738194D02*
X332896D01*
X330610Y1738448D02*
X332896D01*
X330610Y1738702D02*
X332896D01*
X330610Y1738956D02*
X332896D01*
X330610Y1739210D02*
X332896D01*
X330610Y1739464D02*
X332896D01*
X330610Y1739718D02*
X332896D01*
X330610Y1739972D02*
X332896D01*
X330610Y1740226D02*
X332896D01*
X332642Y1741750D02*
X332896D01*
X343056Y1737940D02*
X343310D01*
X343056Y1737686D02*
X343818D01*
X338484Y1738194D02*
X341024D01*
X338484Y1738448D02*
X341024D01*
X334928Y1739972D02*
X336960D01*
X334674Y1740226D02*
X337214D01*
X334674Y1740480D02*
X337468D01*
X334928Y1740734D02*
X337468D01*
X334928Y1740988D02*
X337468D01*
X338738Y1738702D02*
X341278D01*
X338738Y1738956D02*
X341024D01*
X338992Y1739210D02*
X340516D01*
X339246Y1739464D02*
X340008D01*
X339246Y1739718D02*
X339754D01*
X335690Y1739464D02*
X336706D01*
X335436Y1739718D02*
X336960D01*
X335182Y1741242D02*
X337214D01*
X335436Y1741496D02*
X336706D01*
X335436Y1741750D02*
X336452D01*
X335690Y1742004D02*
X335944D01*
X336198Y1739210D02*
X336452D01*
X338484Y1737686D02*
X340770D01*
X338230Y1737940D02*
X340770D01*
X331372Y1742766D02*
X333658D01*
X331118Y1743020D02*
X333912D01*
X331118Y1743274D02*
X334166D01*
X331372Y1743528D02*
X333912D01*
X331626Y1743782D02*
X333658D01*
X331880Y1744036D02*
X333404D01*
X332134Y1744290D02*
X333150D01*
X332388Y1742004D02*
X333150D01*
X331880Y1742258D02*
X333404D01*
X331626Y1742512D02*
X333658D01*
X326292Y1748100D02*
X326800D01*
X326038Y1748354D02*
X327054D01*
X326038Y1748608D02*
X327308D01*
X325784Y1748862D02*
X327816D01*
X325530Y1749116D02*
X328070D01*
X341024Y1751656D02*
X345088D01*
X340770Y1751910D02*
X344580D01*
X340516Y1752164D02*
X344326D01*
X340262Y1752418D02*
X343818D01*
X340008Y1752672D02*
X343564D01*
X339754Y1752926D02*
X343056D01*
X339500Y1753180D02*
X342802D01*
X338992Y1753434D02*
X342548D01*
X338738Y1753688D02*
X342294D01*
X334674Y1758768D02*
X337468D01*
X334928Y1758514D02*
X337722D01*
X334674Y1759022D02*
X337214D01*
X334420Y1759276D02*
X336960D01*
X334166Y1759530D02*
X336960D01*
X334166Y1759784D02*
X336706D01*
X333912Y1760038D02*
X336706D01*
X333912Y1760292D02*
X336452D01*
X333658Y1760546D02*
X336198D01*
X333658Y1760800D02*
X336198D01*
X338484Y1753942D02*
X341786D01*
X338230Y1754196D02*
X341532D01*
X338230Y1754450D02*
X341278D01*
X337976Y1754704D02*
X341024D01*
X335944Y1756990D02*
X338738D01*
X335690Y1757244D02*
X338484D01*
X335690Y1757498D02*
X338484D01*
X335436Y1757752D02*
X338230D01*
X335182Y1758006D02*
X337976D01*
X335182Y1758260D02*
X337722D01*
Y1754958D02*
X340770D01*
X337468Y1755212D02*
X340516D01*
X337214Y1755466D02*
X340262D01*
X336960Y1755720D02*
X340008D01*
X336706Y1755974D02*
X339754D01*
X336452Y1756228D02*
X339500D01*
X336452Y1756482D02*
X339246D01*
X336198Y1756736D02*
X338992D01*
X332388Y1763086D02*
X334928D01*
X332388Y1763340D02*
X334928D01*
X332388Y1763594D02*
X334674D01*
X332134Y1763848D02*
X334674D01*
X332134Y1764102D02*
X334420D01*
X331880Y1764356D02*
X334420D01*
X331880Y1764610D02*
X334166D01*
X330356Y1767150D02*
X333404D01*
X329594Y1767404D02*
X334166D01*
X333404Y1761054D02*
X335944D01*
X333404Y1761308D02*
X335944D01*
X333150Y1761562D02*
X335690D01*
X333150Y1761816D02*
X335436D01*
X332896Y1762070D02*
X335436D01*
X332896Y1762324D02*
X335182D01*
X332642Y1762578D02*
X335182D01*
X332642Y1762832D02*
X334928D01*
X328324Y1775532D02*
X328578D01*
X328070Y1775786D02*
X328832D01*
X327816Y1776040D02*
X329086D01*
X327562Y1776294D02*
X329340D01*
X327308Y1776548D02*
X329848D01*
X327308Y1769182D02*
X329848D01*
X327562Y1769436D02*
X329340D01*
X327816Y1769690D02*
X329086D01*
X328070Y1769944D02*
X328578D01*
X327562Y1776802D02*
X330610D01*
X327562Y1768928D02*
X330356D01*
X335944Y1773754D02*
X337722D01*
X335690Y1774008D02*
X337722D01*
X334928Y1775532D02*
X336960D01*
X334928Y1775786D02*
X336960D01*
X334420Y1776040D02*
X336706D01*
X334166Y1776294D02*
X336706D01*
X333658Y1776548D02*
X336452D01*
X335690Y1774262D02*
X337468D01*
X335690Y1774516D02*
X337468D01*
X335436Y1774770D02*
X337468D01*
X335436Y1775024D02*
X337214D01*
X335182Y1775278D02*
X337214D01*
X335436Y1770960D02*
X337468D01*
X335690Y1771214D02*
X337468D01*
X335690Y1771468D02*
X337468D01*
X335690Y1771722D02*
X337722D01*
X335944Y1771976D02*
X337722D01*
X335944Y1772230D02*
X337722D01*
X335944Y1772484D02*
X337722D01*
X335944Y1772738D02*
X337722D01*
X335944Y1772992D02*
X337722D01*
X335944Y1773246D02*
X337722D01*
X335944Y1773500D02*
X337722D01*
X333912Y1769182D02*
X336452D01*
X334166Y1769436D02*
X336706D01*
X334674Y1769690D02*
X336706D01*
X334928Y1769944D02*
X336960D01*
X335182Y1770198D02*
X337214D01*
X335182Y1770452D02*
X337214D01*
X335436Y1770706D02*
X337468D01*
X331626Y1783406D02*
X333912D01*
X331626Y1783660D02*
X334166D01*
X332134Y1784930D02*
X334674D01*
X332388Y1785184D02*
X334674D01*
X332388Y1785438D02*
X334928D01*
X332388Y1785692D02*
X334928D01*
X332642Y1785946D02*
X335182D01*
X332642Y1786200D02*
X335182D01*
X331880Y1783914D02*
X334166D01*
X331880Y1784168D02*
X334420D01*
X331880Y1784422D02*
X334420D01*
X332134Y1784676D02*
X334420D01*
X333404Y1787470D02*
X335944D01*
X333404Y1787724D02*
X335944D01*
X332896Y1786454D02*
X335436D01*
X332896Y1786708D02*
X335436D01*
X333150Y1786962D02*
X335690D01*
X333150Y1787216D02*
X335690D01*
X330864Y1780866D02*
X333150D01*
X330864Y1781120D02*
X333404D01*
X331118Y1781374D02*
X333404D01*
X331118Y1781628D02*
X333404D01*
X331118Y1781882D02*
X333404D01*
X331372Y1782136D02*
X333658D01*
X331372Y1782390D02*
X333658D01*
X331372Y1782644D02*
X333658D01*
X333150Y1776802D02*
X336198D01*
X333404Y1768928D02*
X336198D01*
X327816Y1777056D02*
X335944D01*
X328070Y1777310D02*
X335690D01*
X328324Y1777564D02*
X335436D01*
X328578Y1777818D02*
X334928D01*
X329086Y1778072D02*
X334420D01*
X329594Y1778326D02*
X333912D01*
X330356Y1778580D02*
X333150D01*
X327816Y1768674D02*
X335944D01*
X328324Y1768166D02*
X335436D01*
X328070Y1768420D02*
X335690D01*
X331626Y1783152D02*
X333912D01*
X331372Y1782898D02*
X333912D01*
X329340Y1803980D02*
X332642D01*
X329086Y1803726D02*
X332134D01*
X329594Y1804234D02*
X332896D01*
X333658Y1807790D02*
X337468D01*
X333912Y1808044D02*
X337976D01*
X325530Y1799662D02*
X328324D01*
X325784Y1799916D02*
X328578D01*
X326038Y1800170D02*
X328832D01*
X326038Y1800424D02*
X329086D01*
X326292Y1800678D02*
X329340D01*
X326546Y1800932D02*
X329594D01*
X326800Y1801186D02*
X329594D01*
X327054Y1801440D02*
X329848D01*
X327308Y1801694D02*
X330102D01*
X327308Y1801948D02*
X330356D01*
X327562Y1802202D02*
X330610D01*
X327816Y1802456D02*
X330864D01*
X328070Y1802710D02*
X331118D01*
X328324Y1802964D02*
X331372D01*
X339500Y1795598D02*
X342802D01*
X339754Y1795852D02*
X343310D01*
X340008Y1796106D02*
X343564D01*
X340262Y1796360D02*
X343818D01*
X340516Y1796614D02*
X344326D01*
X340770Y1796868D02*
X344580D01*
X341278Y1797122D02*
X345088D01*
X337976Y1794074D02*
X341024D01*
X338230Y1794328D02*
X341278D01*
X338484Y1794582D02*
X341532D01*
X338738Y1794836D02*
X342040D01*
X338992Y1795090D02*
X342294D01*
X339246Y1795344D02*
X342548D01*
X335690Y1791280D02*
X338484D01*
X335690Y1791534D02*
X338738D01*
X335944Y1791788D02*
X338992D01*
X336198Y1792042D02*
X338992D01*
X336452Y1792296D02*
X339246D01*
X336706Y1792550D02*
X339500D01*
X336706Y1792804D02*
X339754D01*
X336960Y1793058D02*
X340008D01*
X337214Y1793312D02*
X340262D01*
X337468Y1793566D02*
X340516D01*
X337722Y1793820D02*
X340770D01*
X333912Y1788486D02*
X336452D01*
X333912Y1788740D02*
X336706D01*
X334166Y1788994D02*
X336706D01*
X334166Y1789248D02*
X336960D01*
X334420Y1789502D02*
X337214D01*
X334674Y1789756D02*
X337214D01*
X334674Y1790010D02*
X337468D01*
X334928Y1790264D02*
X337722D01*
X335182Y1790518D02*
X337722D01*
X335182Y1790772D02*
X337976D01*
X335436Y1791026D02*
X338230D01*
X332388Y1806774D02*
X335944D01*
X332642Y1807028D02*
X336452D01*
X331118Y1805758D02*
X334674D01*
X331372Y1806012D02*
X334928D01*
X331880Y1806266D02*
X335436D01*
X332134Y1806520D02*
X335690D01*
X330610Y1805250D02*
X333912D01*
X330864Y1805504D02*
X334420D01*
X332896Y1807282D02*
X336706D01*
X333404Y1807536D02*
X337214D01*
X329848Y1804488D02*
X333150D01*
X330102Y1804742D02*
X333404D01*
X330356Y1804996D02*
X333658D01*
X328578Y1803218D02*
X331626D01*
X328832Y1803472D02*
X331880D01*
X339500Y1811600D02*
X345088D01*
X338230Y1810838D02*
X343056D01*
X338738Y1811092D02*
X343818D01*
X337722Y1810584D02*
X342548D01*
X338992Y1811346D02*
X344326D01*
X347120Y1736416D02*
X347374D01*
X346866Y1736162D02*
X348136D01*
X360582Y1732606D02*
X362868D01*
X360582Y1732860D02*
X363122D01*
X360836Y1733114D02*
X363122D01*
X349914Y1732860D02*
X352200D01*
X349914Y1732606D02*
X352454D01*
X349914Y1733114D02*
X352200D01*
X350676Y1736924D02*
X353470D01*
X350930Y1737432D02*
X354232D01*
X350930Y1737178D02*
X353724D01*
X358804Y1737432D02*
X361852D01*
X359312Y1737178D02*
X362106D01*
X359566Y1736924D02*
X362360D01*
X359820Y1736670D02*
X362360D01*
X360074Y1736416D02*
X362614D01*
X360074Y1736162D02*
X362614D01*
X360328Y1735908D02*
X362614D01*
X360328Y1735654D02*
X362868D01*
X360582Y1735400D02*
X362868D01*
X360582Y1735146D02*
X362868D01*
X360582Y1734892D02*
X362868D01*
X360836Y1734638D02*
X363122D01*
X360836Y1734384D02*
X363122D01*
X360836Y1734130D02*
X363122D01*
X360836Y1733876D02*
X363122D01*
X360836Y1733622D02*
X363122D01*
X360836Y1733368D02*
X363122D01*
X350168Y1735400D02*
X352454D01*
X350168Y1735146D02*
X352454D01*
X349914Y1734892D02*
X352200D01*
X349914Y1734638D02*
X352200D01*
X349914Y1734384D02*
X352200D01*
X349914Y1734130D02*
X352200D01*
X349914Y1733876D02*
X352200D01*
X349914Y1733622D02*
X352200D01*
X349914Y1733368D02*
X352200D01*
X350676Y1736670D02*
X353216D01*
X350422Y1736416D02*
X352962D01*
X350422Y1736162D02*
X352962D01*
X350168Y1735908D02*
X352708D01*
X350168Y1735654D02*
X352708D01*
X351184Y1730066D02*
X354232D01*
X350676Y1730828D02*
X353470D01*
X350676Y1730574D02*
X353724D01*
X351438Y1729558D02*
X355756D01*
X352962Y1728288D02*
X360074D01*
X352708Y1728542D02*
X360328D01*
X352200Y1728796D02*
X360836D01*
X351946Y1729050D02*
X361090D01*
X351692Y1729304D02*
X361344D01*
X351184Y1729812D02*
X354994D01*
X353470Y1728034D02*
X359566D01*
X350930Y1730320D02*
X353978D01*
X358550Y1730066D02*
X361852D01*
X354486Y1727526D02*
X358550D01*
X357280Y1729558D02*
X361598D01*
X358042Y1729812D02*
X361598D01*
X353978Y1727780D02*
X359058D01*
X359566Y1730828D02*
X362360D01*
X359312Y1730574D02*
X362106D01*
X359058Y1730320D02*
X362106D01*
X360328Y1731844D02*
X362868D01*
X360328Y1731590D02*
X362614D01*
X360074Y1731336D02*
X362614D01*
X359820Y1731082D02*
X362360D01*
X350168Y1731844D02*
X352708D01*
X350422Y1731590D02*
X352708D01*
X350422Y1731336D02*
X352962D01*
X350422Y1731082D02*
X353216D01*
X360582Y1732352D02*
X362868D01*
X360582Y1732098D02*
X362868D01*
X350168Y1732352D02*
X352454D01*
X350168Y1732098D02*
X352454D01*
X363884Y1732860D02*
X365408D01*
X346866Y1735908D02*
X349152D01*
X346866Y1735654D02*
X349152D01*
X346612Y1735400D02*
X349152D01*
X346612Y1735146D02*
X349152D01*
X346612Y1734892D02*
X348898D01*
X346612Y1734638D02*
X348898D01*
X346358Y1734384D02*
X348898D01*
X347120Y1734130D02*
X348898D01*
X347882Y1733876D02*
X348644D01*
X353978Y1745814D02*
X364646D01*
X355502Y1745560D02*
X363122D01*
X354232Y1739972D02*
X358804D01*
X354994Y1740226D02*
X358042D01*
X358550Y1737686D02*
X361852D01*
X357788Y1737940D02*
X361598D01*
X351692Y1738194D02*
X361344D01*
X351946Y1738448D02*
X361090D01*
X352200Y1738702D02*
X360836D01*
X352454Y1738956D02*
X360582D01*
X352708Y1739210D02*
X360328D01*
X351438Y1737940D02*
X355248D01*
X351184Y1737686D02*
X354486D01*
X353216Y1739464D02*
X359820D01*
X353470Y1739718D02*
X359312D01*
X346866Y1763086D02*
X350168D01*
X346612Y1763340D02*
X349660D01*
X346358Y1763594D02*
X349406D01*
X346104Y1763848D02*
X349152D01*
X346104Y1764102D02*
X348898D01*
X345850Y1764356D02*
X348644D01*
X363122Y1767150D02*
X365154D01*
X363122Y1767404D02*
X365154D01*
X348644Y1761308D02*
X352962D01*
X348390Y1761562D02*
X352454D01*
X348136Y1761816D02*
X351946D01*
X347882Y1762070D02*
X351438D01*
X347628Y1762324D02*
X351184D01*
X346358Y1748354D02*
X352708D01*
X345850Y1748608D02*
X351946D01*
X354486Y1758260D02*
X363884D01*
X356772Y1757752D02*
X361598D01*
X355502Y1758006D02*
X362868D01*
X352200Y1767150D02*
X354486D01*
X352454Y1767404D02*
X354486D01*
X350422Y1760038D02*
X356772D01*
X350168Y1760292D02*
X355502D01*
X349660Y1760546D02*
X354740D01*
X349406Y1760800D02*
X353978D01*
X349152Y1761054D02*
X353470D01*
X347374Y1747846D02*
X355502D01*
X346866Y1748100D02*
X353978D01*
X352962Y1758768D02*
X365408D01*
X353724Y1758514D02*
X364646D01*
X347374Y1762578D02*
X350676D01*
X347120Y1762832D02*
X350422D01*
X345850Y1784422D02*
X348644D01*
X346104Y1784676D02*
X348898D01*
X346104Y1784930D02*
X349152D01*
X346358Y1785184D02*
X349406D01*
X346612Y1785438D02*
X349660D01*
X346866Y1785692D02*
X350168D01*
X348644Y1787470D02*
X352962D01*
X347120Y1785946D02*
X350422D01*
X347374Y1786200D02*
X350676D01*
X347628Y1786454D02*
X351184D01*
X347882Y1786708D02*
X351438D01*
X348136Y1786962D02*
X351946D01*
X348390Y1787216D02*
X352454D01*
X363122Y1773754D02*
X365154D01*
X363122Y1774008D02*
X365154D01*
X363122Y1778834D02*
X365154D01*
X363122Y1779088D02*
X365154D01*
X363122Y1780104D02*
X365154D01*
X363122Y1780358D02*
X365154D01*
X363122Y1780612D02*
X365154D01*
X363122Y1780866D02*
X365154D01*
X363122Y1781120D02*
X365154D01*
X363122Y1781374D02*
X365154D01*
X363122Y1781628D02*
X365154D01*
X363122Y1781882D02*
X365154D01*
X363122Y1782136D02*
X365154D01*
X363122Y1782390D02*
X365154D01*
X363122Y1782644D02*
X365154D01*
X363122Y1779342D02*
X365154D01*
X363122Y1779596D02*
X365154D01*
X363122Y1779850D02*
X365154D01*
X363122Y1774262D02*
X365154D01*
X358296Y1775278D02*
X365154D01*
X363122Y1776294D02*
X365154D01*
X363122Y1776548D02*
X365154D01*
X363122Y1776802D02*
X365154D01*
X363122Y1777056D02*
X365154D01*
X363122Y1777310D02*
X365154D01*
X363122Y1777564D02*
X365154D01*
X363122Y1777818D02*
X365154D01*
X363122Y1778072D02*
X365154D01*
X363122Y1778326D02*
X365154D01*
X363122Y1778580D02*
X365154D01*
X357026Y1774516D02*
X365154D01*
X357534Y1774770D02*
X365154D01*
X357788Y1775024D02*
X365154D01*
X357788Y1775532D02*
X365154D01*
X357534Y1775786D02*
X365154D01*
X357280Y1776040D02*
X365154D01*
X363122Y1772992D02*
X365154D01*
X363122Y1773246D02*
X365154D01*
X363122Y1773500D02*
X365154D01*
X363122Y1771722D02*
X365154D01*
X363122Y1771976D02*
X365154D01*
X363122Y1772230D02*
X365154D01*
X363122Y1772484D02*
X365154D01*
X363122Y1772738D02*
X365154D01*
X363122Y1770960D02*
X365154D01*
X363122Y1771214D02*
X365154D01*
X363122Y1771468D02*
X365154D01*
X356518Y1773754D02*
X358804D01*
X356772Y1774008D02*
X359058D01*
X355248Y1779088D02*
X357280D01*
X355502Y1778834D02*
X357534D01*
X354994Y1779342D02*
X357280D01*
X354994Y1779596D02*
X357026D01*
X354740Y1779850D02*
X356772D01*
X354486Y1780104D02*
X356772D01*
X354486Y1780358D02*
X356518D01*
X354232Y1780612D02*
X356264D01*
X353978Y1780866D02*
X356264D01*
X353978Y1781120D02*
X356010D01*
X355756Y1778326D02*
X357788D01*
X355502Y1778580D02*
X357788D01*
X356264Y1777564D02*
X358296D01*
X356010Y1777818D02*
X358296D01*
X356010Y1778072D02*
X358042D01*
X357026Y1774262D02*
X359820D01*
X357280Y1776294D02*
X359820D01*
X357026Y1776548D02*
X359312D01*
X356772Y1776802D02*
X359058D01*
X356518Y1777056D02*
X358804D01*
X356518Y1777310D02*
X358550D01*
X354740Y1770960D02*
X356772D01*
X354994Y1771214D02*
X357026D01*
X354994Y1771468D02*
X357280D01*
X355248Y1771722D02*
X357280D01*
X355248Y1771976D02*
X357534D01*
X355502Y1772230D02*
X357534D01*
X355756Y1772484D02*
X357788D01*
X355756Y1772738D02*
X358042D01*
X356010Y1772992D02*
X358296D01*
X356264Y1773246D02*
X358296D01*
X356264Y1773500D02*
X358550D01*
X363122Y1768166D02*
X365154D01*
X363122Y1768420D02*
X365154D01*
X363122Y1768674D02*
X365154D01*
X363122Y1768928D02*
X365154D01*
X363122Y1769182D02*
X365154D01*
X363122Y1769436D02*
X365154D01*
X363122Y1769690D02*
X365154D01*
X363122Y1769944D02*
X365154D01*
X363122Y1770198D02*
X365154D01*
X363122Y1770452D02*
X365154D01*
X353978Y1769944D02*
X356264D01*
X354232Y1770198D02*
X356264D01*
X353978Y1769690D02*
X356010D01*
X354486Y1770452D02*
X356518D01*
X363122Y1770706D02*
X365154D01*
X354486D02*
X356772D01*
X349152Y1787724D02*
X353470D01*
X352962Y1782644D02*
X354994D01*
X353724Y1781374D02*
X356010D01*
X353470Y1781628D02*
X355756D01*
X353470Y1781882D02*
X355502D01*
X353216Y1782136D02*
X355502D01*
X353216Y1782390D02*
X355248D01*
X352962Y1768166D02*
X354994D01*
X352962Y1768420D02*
X355248D01*
X353216Y1768674D02*
X355502D01*
X353470Y1768928D02*
X355502D01*
X353470Y1769182D02*
X355756D01*
X353724Y1769436D02*
X355756D01*
X363122Y1782898D02*
X365154D01*
X352708D02*
X354994D01*
X349152Y1799408D02*
X349660D01*
X345850Y1800170D02*
X347120D01*
X346358Y1800424D02*
X347120D01*
X349152Y1799662D02*
X350422D01*
X348898Y1799916D02*
X351184D01*
X348898Y1800170D02*
X351184D01*
X348898Y1800424D02*
X351184D01*
X348644Y1800678D02*
X351184D01*
X348644Y1800932D02*
X350930D01*
X348390Y1801186D02*
X350930D01*
X348644Y1801440D02*
X350930D01*
X349152Y1801694D02*
X350676D01*
X349914Y1801948D02*
X350676D01*
X362868Y1800932D02*
X363630D01*
X361598Y1801186D02*
X363630D01*
X361598Y1801440D02*
X363884D01*
X361598Y1801694D02*
X363884D01*
X361598Y1801948D02*
X363884D01*
X361598Y1802202D02*
X363884D01*
X361598Y1802456D02*
X363884D01*
X361598Y1802710D02*
X363884D01*
X361598Y1802964D02*
X364138D01*
X357280Y1801186D02*
X359312D01*
X357280Y1801440D02*
X359566D01*
X357280Y1801694D02*
X359566D01*
X357280Y1801948D02*
X359566D01*
X357280Y1802202D02*
X359566D01*
X357280Y1802456D02*
X359566D01*
X357280Y1802710D02*
X359566D01*
X357280Y1802964D02*
X359566D01*
X354486Y1790518D02*
X363884D01*
X355502Y1790772D02*
X362868D01*
X357026Y1791026D02*
X361598D01*
X352962Y1801186D02*
X355248D01*
X352962Y1801440D02*
X355248D01*
X352962Y1801694D02*
X355248D01*
X352962Y1801948D02*
X355248D01*
X352708Y1802202D02*
X355248D01*
X352708Y1802456D02*
X355248D01*
X352708Y1802710D02*
X355248D01*
X353216Y1800932D02*
X355502D01*
X353724Y1802964D02*
X354994D01*
X353216Y1800678D02*
X353978D01*
X350676Y1788740D02*
X357026D01*
X350168Y1788486D02*
X355756D01*
X352962Y1790010D02*
X365408D01*
X353724Y1790264D02*
X364646D01*
X361598Y1803218D02*
X363122D01*
X358550Y1803472D02*
X359566D01*
X357280Y1803218D02*
X359566D01*
X354232Y1816172D02*
X364392D01*
X357026Y1816426D02*
X361344D01*
X373790Y1737432D02*
X374044D01*
X373028Y1737178D02*
X374298D01*
X372266Y1736924D02*
X374298D01*
X372012Y1736670D02*
X374298D01*
X372012Y1736416D02*
X374552D01*
X372266Y1736162D02*
X374552D01*
X372266Y1735908D02*
X374806D01*
X372266Y1735654D02*
X374806D01*
X372520Y1735400D02*
X374806D01*
X372520Y1735146D02*
X374044D01*
X376330Y1737432D02*
X378870D01*
X376330Y1737178D02*
X378616D01*
X376838Y1736416D02*
X377092D01*
X376584Y1736924D02*
X378108D01*
X376584Y1736670D02*
X377600D01*
X372520Y1734892D02*
X373536D01*
X368202Y1734130D02*
X370742D01*
X368964Y1735908D02*
X370234D01*
X367948Y1735654D02*
X370234D01*
X367948Y1735400D02*
X370234D01*
X367948Y1735146D02*
X370488D01*
X368202Y1734892D02*
X370488D01*
X368202Y1734638D02*
X370488D01*
X368202Y1734384D02*
X370488D01*
X368202Y1733876D02*
X370234D01*
X368456Y1733622D02*
X369218D01*
X383442Y1743020D02*
X385728D01*
X383696Y1743274D02*
X385474D01*
X384204Y1743528D02*
X385220D01*
X384458Y1743782D02*
X385220D01*
X384712Y1744036D02*
X384966D01*
X383696Y1742004D02*
X385728D01*
X380648Y1738448D02*
X380902D01*
X376076Y1738194D02*
X378616D01*
X376076Y1738448D02*
X378362D01*
X380648Y1738702D02*
X381156D01*
X380394Y1738956D02*
X381664D01*
X380394Y1739210D02*
X381918D01*
X380140Y1739464D02*
X382426D01*
X379886Y1739718D02*
X382680D01*
X379886Y1739972D02*
X382426D01*
X379632Y1740226D02*
X382426D01*
X379886Y1740480D02*
X382172D01*
X380140Y1740734D02*
X381918D01*
X380648Y1740988D02*
X381918D01*
X380902Y1741242D02*
X381664D01*
X376584Y1738702D02*
X378108D01*
X377092Y1738956D02*
X378108D01*
X377600Y1739210D02*
X377854D01*
X376076Y1737686D02*
X378870D01*
X376076Y1737940D02*
X378616D01*
X384204Y1741242D02*
X384966D01*
X383950Y1741496D02*
X385220D01*
X383950Y1741750D02*
X385474D01*
X368456Y1763086D02*
X371758D01*
X368710Y1763340D02*
X371758D01*
X370234Y1764864D02*
X373028D01*
X370488Y1765118D02*
X373282D01*
X370742Y1765372D02*
X373282D01*
X370742Y1765626D02*
X373536D01*
X368964Y1763594D02*
X372012D01*
X369218Y1763848D02*
X372266D01*
X369472Y1764102D02*
X372520D01*
X369726Y1764356D02*
X372774D01*
X369980Y1764610D02*
X372774D01*
X383950Y1764102D02*
X385220D01*
X384204Y1764356D02*
X384712D01*
X366170Y1761562D02*
X369980D01*
X366678Y1761816D02*
X370234D01*
X372774Y1748862D02*
X373028D01*
X372774Y1749116D02*
X373536D01*
X366932Y1762070D02*
X370742D01*
X367440Y1762324D02*
X370996D01*
X366678Y1748608D02*
X371504D01*
X367440Y1748862D02*
X371250D01*
X368202Y1749116D02*
X371250D01*
X368964Y1749370D02*
X370996D01*
X369472Y1749624D02*
X370996D01*
X370234Y1749878D02*
X370742D01*
X381918Y1758514D02*
X383696D01*
X381410Y1758768D02*
X383696D01*
X381156Y1759022D02*
X383950D01*
X381410Y1759276D02*
X383950D01*
X381410Y1759530D02*
X384204D01*
X381664Y1759784D02*
X383950D01*
X381918Y1760038D02*
X383696D01*
Y1762324D02*
X385728D01*
X382172Y1758260D02*
X383442D01*
X375822Y1753434D02*
X377854D01*
X376330Y1753688D02*
X377600D01*
X381918Y1760292D02*
X383188D01*
X382172Y1760546D02*
X382680D01*
X382934Y1757752D02*
X383188D01*
X382426Y1758006D02*
X383188D01*
X379886Y1754450D02*
X380394D01*
X379632Y1754704D02*
X380648D01*
X379378Y1754958D02*
X380902D01*
X379124Y1755212D02*
X381156D01*
X378870Y1755466D02*
X381156D01*
X378616Y1755720D02*
X381410D01*
X378616Y1755974D02*
X381664D01*
X378870Y1756228D02*
X381410D01*
X379124Y1756482D02*
X381156D01*
X379378Y1756736D02*
X380648D01*
X379632Y1756990D02*
X380394D01*
X379886Y1757244D02*
X380140D01*
X376584Y1753942D02*
X377346D01*
X376838Y1754196D02*
X377346D01*
X375568Y1753180D02*
X378108D01*
X375568Y1752672D02*
X378616D01*
X375568Y1752926D02*
X378362D01*
X376584Y1751402D02*
X377092D01*
X376330Y1751656D02*
X377346D01*
X376330Y1751910D02*
X377600D01*
X376076Y1752164D02*
X377854D01*
X375822Y1752418D02*
X378108D01*
X385220Y1761562D02*
X385474D01*
X384712Y1761816D02*
X385474D01*
X384204Y1762070D02*
X385474D01*
X371250Y1766134D02*
X373790D01*
X371504Y1766388D02*
X374044D01*
X371504Y1766642D02*
X374044D01*
X371758Y1766896D02*
X374298D01*
X371758Y1767150D02*
X374298D01*
X372012Y1767404D02*
X374552D01*
X370996Y1765880D02*
X373790D01*
X373028Y1751402D02*
X374044D01*
X373282Y1751656D02*
X373790D01*
X372012Y1750640D02*
X374552D01*
X372012Y1750894D02*
X374298D01*
X372520Y1751148D02*
X374298D01*
X372520Y1749370D02*
X374044D01*
X372520Y1749624D02*
X374298D01*
X372266Y1749878D02*
X374806D01*
X372266Y1750132D02*
X374806D01*
X372012Y1750386D02*
X374806D01*
X367694Y1762578D02*
X371250D01*
X368202Y1762832D02*
X371504D01*
X383188Y1762578D02*
X385728D01*
X366932Y1786708D02*
X370488D01*
X366424Y1786962D02*
X370234D01*
X366170Y1787216D02*
X369980D01*
X370742Y1783406D02*
X373282D01*
X370488Y1783660D02*
X373282D01*
X370234Y1783914D02*
X373028D01*
X369980Y1784168D02*
X372774D01*
X369726Y1784422D02*
X372774D01*
X369472Y1784676D02*
X372520D01*
X369218Y1784930D02*
X372266D01*
X368964Y1785184D02*
X372012D01*
X368710Y1785438D02*
X371758D01*
X368456Y1785692D02*
X371504D01*
X367948Y1785946D02*
X371504D01*
X367694Y1786200D02*
X371250D01*
X367440Y1786454D02*
X370996D01*
X382934Y1786962D02*
X383696D01*
X382680Y1787216D02*
X384204D01*
X382680Y1787470D02*
X384712D01*
X382426Y1787724D02*
X385220D01*
X373028Y1778834D02*
X375314D01*
X373028Y1779088D02*
X375314D01*
X373028Y1779342D02*
X375314D01*
X372774Y1779596D02*
X375314D01*
X373282Y1777818D02*
X375568D01*
X373282Y1778072D02*
X375568D01*
X373282Y1778326D02*
X375568D01*
X373282Y1778580D02*
X375568D01*
X372520Y1780104D02*
X375060D01*
X372520Y1780358D02*
X374806D01*
X372266Y1780612D02*
X374806D01*
X372266Y1780866D02*
X374806D01*
X372266Y1781120D02*
X374552D01*
X372012Y1781374D02*
X374552D01*
X371758Y1781628D02*
X374298D01*
X371758Y1781882D02*
X374298D01*
X371504Y1782136D02*
X374044D01*
X371504Y1782390D02*
X374044D01*
X371250Y1782644D02*
X373790D01*
X372774Y1779850D02*
X375060D01*
X373282Y1770960D02*
X375568D01*
X373790Y1773754D02*
X376076D01*
X373790Y1774008D02*
X376076D01*
X373790Y1774262D02*
X376076D01*
X373790Y1774516D02*
X376076D01*
X373790Y1774770D02*
X376076D01*
X373790Y1775024D02*
X376076D01*
X373790Y1775278D02*
X376076D01*
X373790Y1775532D02*
X376076D01*
X373790Y1775786D02*
X376076D01*
X373790Y1776040D02*
X375822D01*
X373536Y1776294D02*
X375822D01*
X373536Y1776548D02*
X375822D01*
X373536Y1776802D02*
X375822D01*
X373536Y1777056D02*
X375822D01*
X373536Y1777310D02*
X375822D01*
X373536Y1777564D02*
X375822D01*
X373790Y1772992D02*
X376076D01*
X373790Y1773246D02*
X376076D01*
X373790Y1773500D02*
X376076D01*
X373536Y1771722D02*
X375822D01*
X373536Y1771976D02*
X375822D01*
X373536Y1772230D02*
X375822D01*
X373536Y1772484D02*
X375822D01*
X373790Y1772738D02*
X376076D01*
X373536Y1771214D02*
X375822D01*
X373536Y1771468D02*
X375822D01*
X372774Y1769182D02*
X375314D01*
X373028Y1769436D02*
X375314D01*
X373028Y1769690D02*
X375314D01*
X373028Y1769944D02*
X375314D01*
X373282Y1770198D02*
X375568D01*
X373282Y1770452D02*
X375568D01*
X372266Y1768166D02*
X374806D01*
X372520Y1768420D02*
X374806D01*
X372520Y1768674D02*
X375060D01*
X372774Y1768928D02*
X375060D01*
X373282Y1770706D02*
X375568D01*
X370742Y1783152D02*
X373536D01*
X384712Y1782898D02*
X384966D01*
X384712Y1783152D02*
X385728D01*
X370996Y1782898D02*
X373790D01*
X382426Y1806774D02*
X385728D01*
X382172Y1807028D02*
X385474D01*
X381664Y1807282D02*
X385220D01*
X381410Y1807536D02*
X384966D01*
X380902Y1807790D02*
X384458D01*
X380648Y1808044D02*
X384204D01*
X367440Y1799916D02*
X367694D01*
X366678Y1800170D02*
X367948D01*
X366170Y1802456D02*
X366932D01*
X371250Y1798392D02*
X371758D01*
X369472Y1799154D02*
X372012D01*
X369726Y1799408D02*
X372266D01*
X369726Y1799662D02*
X372266D01*
X369980Y1799916D02*
X372520D01*
X369980Y1800170D02*
X372520D01*
X369980Y1800424D02*
X372266D01*
X370234Y1800678D02*
X371758D01*
X370234Y1800932D02*
X371250D01*
X370234Y1798900D02*
X372012D01*
X370742Y1798646D02*
X371758D01*
X382426Y1794074D02*
X384712D01*
X382426Y1794328D02*
X384712D01*
X382426Y1794582D02*
X384712D01*
X382172Y1794836D02*
X384458D01*
X382172Y1795090D02*
X384458D01*
X381918Y1795344D02*
X384458D01*
X381664Y1795598D02*
X384204D01*
X381156Y1795852D02*
X384204D01*
X376330Y1796106D02*
X383950D01*
X376584Y1796360D02*
X383950D01*
X376584Y1796614D02*
X383696D01*
X376838Y1796868D02*
X383442D01*
X381664Y1792042D02*
X384204D01*
X381918Y1792296D02*
X384458D01*
X382172Y1792550D02*
X384458D01*
X382172Y1792804D02*
X384458D01*
X382426Y1793058D02*
X384712D01*
X382426Y1793312D02*
X384712D01*
X382426Y1793566D02*
X384712D01*
X382426Y1793820D02*
X384712D01*
X381156Y1791788D02*
X384204D01*
X376584Y1791280D02*
X383950D01*
X376330Y1791534D02*
X383950D01*
X375822Y1794074D02*
X377854D01*
X375822Y1794328D02*
X378108D01*
X374298Y1799154D02*
X374552D01*
Y1796360D02*
X375314D01*
X374298Y1796614D02*
X375568D01*
X378870Y1798138D02*
X381410D01*
X375822Y1794582D02*
X378108D01*
X375822Y1794836D02*
X378108D01*
X375822Y1795090D02*
X378362D01*
X376076Y1795344D02*
X378616D01*
X376076Y1795598D02*
X378870D01*
X376076Y1795852D02*
X379124D01*
X377092Y1797122D02*
X383188D01*
X377346Y1797376D02*
X382934D01*
X377854Y1797630D02*
X382680D01*
X378362Y1797884D02*
X382172D01*
X374298Y1798900D02*
X374806D01*
X375822Y1792804D02*
X378108D01*
X375822Y1793058D02*
X378108D01*
X375822Y1793312D02*
X378108D01*
X375822Y1793566D02*
X377854D01*
X375822Y1793820D02*
X377854D01*
X376076Y1792042D02*
X378870D01*
X376076Y1792296D02*
X378616D01*
X375822Y1792550D02*
X378362D01*
X376076Y1791788D02*
X379378D01*
X382172Y1788486D02*
X384712D01*
X382426Y1788740D02*
X384458D01*
X382680Y1788994D02*
X384458D01*
X383188Y1789248D02*
X384204D01*
X383696Y1789502D02*
X384204D01*
X376838Y1790772D02*
X383442D01*
X379124Y1789502D02*
X381410D01*
X378362Y1789756D02*
X382172D01*
X377854Y1790010D02*
X382426D01*
X377600Y1790264D02*
X382934D01*
X377092Y1790518D02*
X383188D01*
X376584Y1791026D02*
X383696D01*
X373282Y1797376D02*
X376076D01*
X374044Y1798646D02*
X375314D01*
X373790Y1796868D02*
X375568D01*
X373536Y1797122D02*
X375822D01*
X373536Y1797630D02*
X376330D01*
X373536Y1797884D02*
X376330D01*
X373790Y1798138D02*
X376076D01*
X374044Y1798392D02*
X375822D01*
X375568Y1810838D02*
X379886D01*
X374806Y1811092D02*
X379632D01*
X379378Y1808806D02*
X383188D01*
X378870Y1809060D02*
X382934D01*
X378616Y1809314D02*
X382426D01*
X376584Y1810330D02*
X380902D01*
X376076Y1810584D02*
X380394D01*
X378108Y1809568D02*
X382172D01*
X377600Y1809822D02*
X381664D01*
X377092Y1810076D02*
X381156D01*
X374298Y1811346D02*
X379124D01*
X371504Y1812362D02*
X377092D01*
X372774Y1811854D02*
X378108D01*
X372266Y1812108D02*
X377600D01*
X373536Y1811600D02*
X378616D01*
X370488Y1812616D02*
X376584D01*
X369726Y1812870D02*
X376076D01*
X368456Y1813124D02*
X375568D01*
X367440Y1813378D02*
X374806D01*
X366170Y1813632D02*
X374298D01*
X387760Y1744036D02*
X388014D01*
X387506Y1744290D02*
X388268D01*
X387252Y1744544D02*
X388522D01*
X386998Y1744798D02*
X388776D01*
X386744Y1745052D02*
X389030D01*
X386490Y1745306D02*
X389284D01*
X386490Y1745560D02*
X389284D01*
X386744Y1745814D02*
X389030D01*
X386998Y1746068D02*
X388776D01*
X387252Y1746322D02*
X388522D01*
X387506Y1746576D02*
X388268D01*
X387760Y1746830D02*
X388014D01*
X390808Y1747084D02*
X391062D01*
X386490Y1765880D02*
X386998D01*
X397666Y1763086D02*
X399698D01*
X397158Y1763340D02*
X399698D01*
X399190Y1767150D02*
X400460D01*
X397412Y1763594D02*
X399698D01*
X397412Y1763848D02*
X399698D01*
X397412Y1764102D02*
X399952D01*
X397666Y1764356D02*
X399952D01*
X397666Y1764610D02*
X399952D01*
X397666Y1764864D02*
X399952D01*
X397666Y1765118D02*
X398936D01*
X398174Y1767404D02*
X400460D01*
X392840Y1753434D02*
X393348D01*
X392586Y1753180D02*
X393856D01*
X393602Y1750640D02*
X393856D01*
X393094Y1750894D02*
X393856D01*
X390554Y1750132D02*
X390808D01*
X390046Y1747846D02*
X391570D01*
X389792Y1748100D02*
X391824D01*
X389284Y1748354D02*
X392078D01*
X389284Y1748608D02*
X392332D01*
X389538Y1748862D02*
X392332D01*
X389792Y1749116D02*
X392078D01*
X390046Y1749370D02*
X391824D01*
X390046Y1749624D02*
X391316D01*
X390300Y1749878D02*
X391062D01*
X396904Y1758768D02*
X398174D01*
X397666Y1758514D02*
X397920D01*
X395888Y1759276D02*
X398428D01*
X395888Y1759530D02*
X398428D01*
X394618Y1756482D02*
X396904D01*
X395888Y1754450D02*
X396142D01*
X395380Y1754704D02*
X396142D01*
X394872Y1754958D02*
X396396D01*
X394618Y1756736D02*
X396396D01*
X394872Y1756990D02*
X395888D01*
X396396Y1759022D02*
X398174D01*
X396142Y1759784D02*
X398428D01*
X396396Y1760800D02*
X398174D01*
X396650Y1761054D02*
X397412D01*
X396396Y1760546D02*
X398682D01*
X396142Y1760038D02*
X398682D01*
X396142Y1760292D02*
X398682D01*
X394872Y1757244D02*
X395380D01*
X392332Y1751402D02*
X394364D01*
X392078Y1751656D02*
X394364D01*
X391824Y1751910D02*
X394618D01*
X392078Y1752164D02*
X394618D01*
X392078Y1752418D02*
X394872D01*
X392332Y1752672D02*
X394618D01*
X392586Y1752926D02*
X394364D01*
X392840Y1751148D02*
X394110D01*
X394364Y1755974D02*
X396904D01*
X394364Y1756228D02*
X396904D01*
X394364Y1755212D02*
X396396D01*
X394110Y1755466D02*
X396650D01*
X394110Y1755720D02*
X396650D01*
X398428Y1762832D02*
X399444D01*
X397666Y1784168D02*
X398174D01*
X397666Y1784422D02*
X399190D01*
X397412Y1784676D02*
X399952D01*
X397412Y1784930D02*
X399698D01*
X397412Y1785184D02*
X399698D01*
X397412Y1785438D02*
X399698D01*
X397158Y1785692D02*
X399698D01*
X397158Y1785946D02*
X399444D01*
X397158Y1786200D02*
X399444D01*
X397920Y1786454D02*
X399444D01*
X398682Y1786708D02*
X399190D01*
X387252Y1781374D02*
X387506D01*
Y1770198D02*
X388014D01*
X399444Y1782390D02*
X400460D01*
X398428Y1780104D02*
X399952D01*
X398428Y1780358D02*
X400714D01*
X398428Y1780612D02*
X400714D01*
X398428Y1780866D02*
X400714D01*
X398174Y1781120D02*
X400714D01*
X398174Y1781374D02*
X400460D01*
X398174Y1781628D02*
X400460D01*
X398174Y1781882D02*
X400460D01*
X398174Y1782136D02*
X400460D01*
X398936Y1775786D02*
X401222D01*
X398682Y1776040D02*
X401222D01*
X398682Y1776294D02*
X400968D01*
X398682Y1776548D02*
X400968D01*
X398682Y1776802D02*
X400968D01*
X398682Y1777056D02*
X400968D01*
X398682Y1777310D02*
X400968D01*
X398682Y1777564D02*
X400968D01*
X398682Y1777818D02*
X400968D01*
X398936Y1773246D02*
X401222D01*
X398936Y1773500D02*
X401222D01*
X398936Y1771468D02*
X400968D01*
X398682Y1771976D02*
X400968D01*
X398682Y1772230D02*
X400968D01*
X398682Y1772484D02*
X400968D01*
X398682Y1772738D02*
X400968D01*
X398682Y1772992D02*
X401222D01*
X398682Y1771722D02*
X400968D01*
X398428Y1768166D02*
X400714D01*
X398428Y1768420D02*
X400714D01*
X398428Y1768674D02*
X400714D01*
X398428Y1768928D02*
X400714D01*
X398428Y1769182D02*
X400714D01*
X398428Y1769436D02*
X399190D01*
X387760Y1801948D02*
X390808D01*
X387506Y1802202D02*
X390554D01*
X387252Y1802456D02*
X390300D01*
X387252Y1802710D02*
X390046D01*
X386998Y1802964D02*
X389792D01*
X392332Y1796106D02*
X393348D01*
X392332Y1796360D02*
X393856D01*
X392586Y1795852D02*
X393094D01*
X391062Y1798138D02*
X393856D01*
X390808Y1798392D02*
X393602D01*
X390554Y1798646D02*
X393348D01*
X390554Y1798900D02*
X393348D01*
X390300Y1799154D02*
X393094D01*
X390046Y1799408D02*
X392840D01*
X389284Y1800424D02*
X392078D01*
X389030Y1800678D02*
X391824D01*
X388776Y1800932D02*
X391570D01*
X388522Y1801186D02*
X391570D01*
X388268Y1801440D02*
X391316D01*
X388014Y1801694D02*
X391062D01*
X389792Y1799662D02*
X392586D01*
X389538Y1799916D02*
X392586D01*
X389538Y1800170D02*
X392332D01*
X394872Y1794582D02*
X395888D01*
X395380Y1794836D02*
X395888D01*
X394618Y1792042D02*
X394872D01*
X394618Y1792296D02*
X395380D01*
X395888Y1789248D02*
X398428D01*
X395888Y1789502D02*
X398428D01*
X395888Y1789756D02*
X398174D01*
X395634Y1790010D02*
X398174D01*
X395888Y1790264D02*
X397920D01*
X396396Y1790518D02*
X397920D01*
X396396Y1788486D02*
X397412D01*
X396142Y1788740D02*
X398174D01*
X396142Y1788994D02*
X398428D01*
X397158Y1790772D02*
X397920D01*
X392078Y1796614D02*
X394364D01*
X391824Y1796868D02*
X394618D01*
X391824Y1797122D02*
X394364D01*
X391570Y1797376D02*
X394364D01*
X394110Y1794074D02*
X396396D01*
X394364Y1794328D02*
X396142D01*
X394110Y1793058D02*
X396904D01*
X394364Y1792550D02*
X395888D01*
X394364Y1792804D02*
X396396D01*
X394110Y1793312D02*
X396650D01*
X393856Y1793566D02*
X396650D01*
X393856Y1793820D02*
X396396D01*
X391316Y1797630D02*
X394110D01*
X391316Y1797884D02*
X394110D01*
X386744Y1803218D02*
X389538D01*
X386490Y1803472D02*
X389284D01*
X262538Y1787978D02*
X263554D01*
X262284Y1788232D02*
X263300D01*
X266348Y1787978D02*
X267618D01*
X266602Y1788232D02*
X267618D01*
X281080Y1787978D02*
X281842D01*
X281080Y1788232D02*
X281842D01*
X272952Y1787978D02*
X273968D01*
X272952Y1788232D02*
X273968D01*
X276254Y1787978D02*
X277270D01*
X276254Y1788232D02*
X277270D01*
X286922Y1767658D02*
X292510D01*
X286414Y1767912D02*
X293018D01*
X319434Y1787978D02*
X321720D01*
X319434Y1788232D02*
X321974D01*
X322736Y1767658D02*
X324514D01*
X322736Y1767912D02*
X324514D01*
X312576Y1767658D02*
X314354D01*
X312576Y1767912D02*
X314354D01*
X333658Y1787978D02*
X336198D01*
X333658Y1788232D02*
X336198D01*
X329086Y1747338D02*
X329848D01*
X329340Y1747592D02*
X329594D01*
X329086Y1767658D02*
X334674D01*
X328578Y1767912D02*
X335182D01*
X355756Y1727272D02*
X357280D01*
X363122Y1767658D02*
X365154D01*
X363122Y1767912D02*
X365154D01*
X349406Y1787978D02*
X353978D01*
X349660Y1788232D02*
X354740D01*
X352708Y1767912D02*
X354994D01*
X352708Y1767658D02*
X354740D01*
X347882Y1747592D02*
X359058D01*
X382426Y1787978D02*
X384966D01*
X382172Y1788232D02*
X384712D01*
X372012Y1767658D02*
X374552D01*
X372266Y1767912D02*
X374806D01*
X380140Y1808298D02*
X383950D01*
X379886Y1808552D02*
X383442D01*
X396396Y1788232D02*
X396904D01*
X398174Y1767658D02*
X400460D01*
X398174Y1767912D02*
X400714D01*
X390554Y1747338D02*
X391316D01*
X390300Y1747592D02*
X391316D01*
X281588Y1738194D02*
X285906D01*
X281588Y1738448D02*
X285906D01*
X281588Y1739972D02*
X285906D01*
X281588Y1740226D02*
X285906D01*
X281588Y1738702D02*
X285906D01*
X281842Y1738956D02*
X285906D01*
X281842Y1739210D02*
X285906D01*
X281842Y1739464D02*
X285906D01*
X281842Y1739718D02*
X285906D01*
X304956Y1738194D02*
X307242D01*
X304956Y1738448D02*
X307242D01*
X304956Y1738702D02*
X307242D01*
X304956Y1738956D02*
X307242D01*
X304956Y1739210D02*
X307242D01*
X304956Y1739464D02*
X307242D01*
X304956Y1739718D02*
X307242D01*
X304956Y1739972D02*
X307242D01*
X304956Y1740226D02*
X307242D01*
X302416Y1767150D02*
X305210D01*
X301400Y1767404D02*
X306226D01*
X322736Y1753434D02*
X325276D01*
X322482Y1753688D02*
X325276D01*
X322482Y1753942D02*
X325022D01*
X322736Y1753180D02*
X325530D01*
X324006Y1751402D02*
X326546D01*
X323752Y1751656D02*
X326546D01*
X323752Y1751910D02*
X326292D01*
X323498Y1752164D02*
X326038D01*
X323244Y1752418D02*
X326038D01*
X323244Y1752672D02*
X325784D01*
X322990Y1752926D02*
X325530D01*
X324514Y1750640D02*
X327308D01*
X324260Y1750894D02*
X327054D01*
X324006Y1751148D02*
X326800D01*
X325276Y1749370D02*
X328070D01*
X325276Y1749624D02*
X328070D01*
X325022Y1749878D02*
X327816D01*
X324768Y1750132D02*
X327562D01*
X324768Y1750386D02*
X327308D01*
X263808Y1785692D02*
X264824D01*
X263554Y1785946D02*
X264824D01*
X263554Y1786200D02*
X264570D01*
X263300Y1786454D02*
X264316D01*
X263300Y1786708D02*
X264316D01*
X263046Y1786962D02*
X264062D01*
X262792Y1787216D02*
X264062D01*
X264316Y1784676D02*
X265586D01*
X264316Y1784930D02*
X265840D01*
X264062Y1785184D02*
X265840D01*
X264062Y1785438D02*
X266094D01*
X300384Y1777564D02*
X307242D01*
X300638Y1777818D02*
X306988D01*
X301146Y1778072D02*
X306480D01*
X301654Y1778326D02*
X305972D01*
X302416Y1778580D02*
X305210D01*
X299622Y1777056D02*
X308004D01*
X300130Y1777310D02*
X307496D01*
X300384Y1768166D02*
X307242D01*
X299876Y1768420D02*
X307750D01*
X303940Y1768674D02*
X308004D01*
X261522Y1778834D02*
X281842D01*
X261522Y1779088D02*
X281842D01*
X261522Y1779342D02*
X281842D01*
X261522Y1779596D02*
X281842D01*
X261776Y1807790D02*
X264570D01*
X261776Y1808044D02*
X264316D01*
X262792Y1806266D02*
X268634D01*
X262538Y1806520D02*
X268888D01*
X262030Y1807536D02*
X264824D01*
X264062Y1805504D02*
X267364D01*
X263554Y1805758D02*
X267872D01*
X263300Y1806012D02*
X268126D01*
X262538Y1806774D02*
X269142D01*
X262284Y1807028D02*
X269142D01*
X262030Y1807282D02*
X269396D01*
X325276Y1799154D02*
X328070D01*
X325276Y1799408D02*
X328324D01*
X324768Y1798646D02*
X327562D01*
X325022Y1798900D02*
X327816D01*
X322990Y1795852D02*
X325530D01*
X323244Y1796106D02*
X325784D01*
X323244Y1796360D02*
X326038D01*
X323498Y1796614D02*
X326038D01*
X323752Y1796868D02*
X326292D01*
X323752Y1797122D02*
X326546D01*
X324006Y1797376D02*
X326800D01*
X324006Y1797630D02*
X326800D01*
X324260Y1797884D02*
X327054D01*
X324514Y1798138D02*
X327308D01*
X324768Y1798392D02*
X327308D01*
X295812Y1794074D02*
X324514D01*
X295812Y1794328D02*
X324768D01*
X296066Y1794582D02*
X324768D01*
X296066Y1794836D02*
X325022D01*
X295812Y1795090D02*
X325276D01*
X295812Y1795344D02*
X325276D01*
X295812Y1795598D02*
X325530D01*
X295558Y1793566D02*
X324260D01*
X295812Y1793820D02*
X324514D01*
X263046Y1812362D02*
X268380D01*
X263300Y1812616D02*
X268126D01*
X263808Y1812870D02*
X267618D01*
X264316Y1813124D02*
X267110D01*
X262538Y1811854D02*
X268888D01*
X262792Y1812108D02*
X268634D01*
X261776Y1810076D02*
X264062D01*
X261776Y1810330D02*
X264062D01*
X261776Y1810584D02*
X264316D01*
X262030Y1810838D02*
X264570D01*
X262030Y1811092D02*
X265332D01*
X262284Y1811600D02*
X269142D01*
X262284Y1811346D02*
X269396D01*
X365154Y1735146D02*
X365916D01*
X363884Y1733114D02*
X366424D01*
X363630Y1734892D02*
X365916D01*
X363884Y1734638D02*
X366170D01*
X363884Y1734384D02*
X366170D01*
X363884Y1734130D02*
X366170D01*
X363884Y1733876D02*
X366170D01*
X363884Y1733622D02*
X366170D01*
X363884Y1733368D02*
X366170D01*
X383188Y1742766D02*
X385982D01*
X352708Y1746068D02*
X365916D01*
X351692Y1746322D02*
X366932D01*
X350676Y1746576D02*
X367694D01*
X349914Y1746830D02*
X368456D01*
X349152Y1747084D02*
X369218D01*
X383442Y1742258D02*
X386236D01*
X383188Y1742512D02*
X386236D01*
X343056Y1767404D02*
X347628D01*
X345596Y1764610D02*
X348390D01*
X343818Y1767150D02*
X346866D01*
X383442Y1763086D02*
X385982D01*
X383696Y1763340D02*
X386236D01*
X383696Y1763594D02*
X386236D01*
X383950Y1763848D02*
X385982D01*
X385728Y1766134D02*
X386998D01*
X384712Y1766388D02*
X387252D01*
X384966Y1766642D02*
X387252D01*
X384966Y1766896D02*
X387252D01*
X384966Y1767150D02*
X387506D01*
X385220Y1767404D02*
X387506D01*
X341532Y1751402D02*
X345342D01*
X342548Y1750640D02*
X346866D01*
X342040Y1750894D02*
X346358D01*
X341786Y1751148D02*
X345850D01*
X344834Y1749116D02*
X350168D01*
X344326Y1749370D02*
X349660D01*
X344072Y1749624D02*
X348898D01*
X343564Y1749878D02*
X348390D01*
X343310Y1750132D02*
X347882D01*
X345342Y1748862D02*
X351184D01*
X342802Y1750386D02*
X347374D01*
X361598Y1760038D02*
X367948D01*
X362868Y1760292D02*
X368456D01*
X363630Y1760546D02*
X368710D01*
X364392Y1760800D02*
X369218D01*
X365154Y1761054D02*
X369472D01*
X365662Y1761308D02*
X369726D01*
X363122Y1747846D02*
X370996D01*
X364646Y1748100D02*
X371758D01*
X365662Y1748354D02*
X371504D01*
X352454Y1759022D02*
X365916D01*
X351946Y1759276D02*
X366678D01*
X351438Y1759530D02*
X367186D01*
X350930Y1759784D02*
X367440D01*
X383442Y1762832D02*
X385982D01*
X345088Y1783406D02*
X347882D01*
X345342Y1783660D02*
X348136D01*
X345342Y1783914D02*
X348136D01*
X345596Y1784168D02*
X348390D01*
X365662Y1787470D02*
X369726D01*
X365154Y1787724D02*
X369472D01*
X384458Y1783406D02*
X386490D01*
X384458Y1783660D02*
X386744D01*
X384204Y1783914D02*
X386744D01*
X384204Y1784168D02*
X386744D01*
X384204Y1784422D02*
X386490D01*
X383950Y1784676D02*
X386490D01*
X384204Y1784930D02*
X386490D01*
X384712Y1785184D02*
X386236D01*
X385474Y1785438D02*
X386236D01*
X340262Y1776040D02*
X350168D01*
X340516Y1776294D02*
X349914D01*
X340770Y1776548D02*
X349914D01*
X341024Y1776802D02*
X349660D01*
X341278Y1777056D02*
X349406D01*
X341532Y1777310D02*
X349152D01*
X341786Y1777564D02*
X348644D01*
X342040Y1777818D02*
X348390D01*
X342548Y1778072D02*
X347882D01*
X343056Y1778326D02*
X347374D01*
X343818Y1780866D02*
X346104D01*
X343818Y1781120D02*
X346358D01*
X344072Y1781374D02*
X346612D01*
X344072Y1781628D02*
X346612D01*
X344326Y1781882D02*
X346866D01*
X344326Y1782136D02*
X346866D01*
X344580Y1782390D02*
X347120D01*
X344580Y1782644D02*
X347374D01*
X344072Y1778580D02*
X346612D01*
X341786Y1768166D02*
X348898D01*
X341532Y1768420D02*
X349152D01*
X341024Y1768674D02*
X349406D01*
X341024Y1768928D02*
X349660D01*
X340770Y1769182D02*
X349914D01*
X340516Y1769436D02*
X350168D01*
X340262Y1769690D02*
X350168D01*
X339500Y1773754D02*
X351184D01*
X339500Y1774008D02*
X351184D01*
X339500Y1774262D02*
X350930D01*
X339754Y1774516D02*
X350930D01*
X339754Y1774770D02*
X350930D01*
X339754Y1775024D02*
X350676D01*
X340008Y1775278D02*
X350676D01*
X340008Y1775532D02*
X350422D01*
X340262Y1775786D02*
X350422D01*
X339500Y1771722D02*
X351184D01*
X339500Y1771976D02*
X351184D01*
X339500Y1772230D02*
X351184D01*
X339500Y1772484D02*
X351184D01*
X339500Y1772738D02*
X351184D01*
X339500Y1772992D02*
X351184D01*
X339500Y1773246D02*
X351184D01*
X339500Y1773500D02*
X351184D01*
X339754Y1770960D02*
X350930D01*
X339754Y1771214D02*
X350930D01*
X339500Y1771468D02*
X350930D01*
X340262Y1769944D02*
X350422D01*
X340008Y1770198D02*
X350422D01*
X340008Y1770452D02*
X350676D01*
X339754Y1770706D02*
X350676D01*
X385728Y1778834D02*
X386236D01*
X385728Y1779088D02*
X387760D01*
X385474Y1779342D02*
X388014D01*
X385474Y1779596D02*
X387760D01*
X385474Y1779850D02*
X387760D01*
X385474Y1780104D02*
X387760D01*
X385474Y1780358D02*
X387760D01*
X385220Y1780612D02*
X387760D01*
X385220Y1780866D02*
X387506D01*
X386236Y1781120D02*
X387506D01*
X385982Y1774770D02*
X388268D01*
X385982Y1775024D02*
X388268D01*
X385982Y1775278D02*
X388268D01*
X385982Y1775532D02*
X388268D01*
X385982Y1775786D02*
X388268D01*
X385982Y1776040D02*
X388268D01*
X385982Y1776294D02*
X388268D01*
X385982Y1776548D02*
X388268D01*
X385982Y1776802D02*
X388268D01*
X385982Y1771722D02*
X388268D01*
X385982Y1771976D02*
X388268D01*
X385982Y1772230D02*
X388268D01*
X385982Y1772484D02*
X388268D01*
X385728Y1771214D02*
X388268D01*
X385982Y1771468D02*
X388268D01*
X385728Y1770960D02*
X388014D01*
X385220Y1768166D02*
X386998D01*
X385474Y1768420D02*
X385982D01*
X385728Y1770452D02*
X388014D01*
X385728Y1770706D02*
X388014D01*
X344834Y1783152D02*
X347628D01*
X344834Y1782898D02*
X347374D01*
X385982Y1803726D02*
X389030D01*
X385728Y1803980D02*
X388776D01*
X383696Y1805758D02*
X386998D01*
X383442Y1806012D02*
X386744D01*
X383188Y1806266D02*
X386490D01*
X382680Y1806520D02*
X386236D01*
X385474Y1804234D02*
X388522D01*
X385220Y1804488D02*
X388268D01*
X384966Y1804742D02*
X388014D01*
X384712Y1804996D02*
X387760D01*
X384458Y1805250D02*
X387506D01*
X384204Y1805504D02*
X387252D01*
X341532Y1797376D02*
X345596D01*
X341786Y1797630D02*
X345850D01*
X342294Y1797884D02*
X346358D01*
X342548Y1798138D02*
X346866D01*
X342802Y1798392D02*
X347374D01*
X344072Y1799154D02*
X347628D01*
X344580Y1799408D02*
X347628D01*
X345088Y1799662D02*
X347374D01*
X345342Y1799916D02*
X347374D01*
X343310Y1798646D02*
X347882D01*
X343818Y1798900D02*
X347628D01*
X365662Y1800424D02*
X367948D01*
X365662Y1800678D02*
X367948D01*
X365662Y1800932D02*
X368202D01*
X365662Y1801186D02*
X368202D01*
X365916Y1801440D02*
X368202D01*
X365916Y1801694D02*
X368202D01*
X365916Y1801948D02*
X368456D01*
X365916Y1802202D02*
X367694D01*
X362868Y1788486D02*
X368202D01*
X361598Y1788740D02*
X367948D01*
X350930Y1788994D02*
X367440D01*
X351438Y1789248D02*
X366932D01*
X351946Y1789502D02*
X366424D01*
X352454Y1789756D02*
X365916D01*
X341024Y1812362D02*
X347120D01*
X341532Y1812616D02*
X347882D01*
X342040Y1812870D02*
X348898D01*
X342802Y1813124D02*
X349914D01*
X340008Y1811854D02*
X345596D01*
X340516Y1812108D02*
X346358D01*
X343310Y1813378D02*
X350930D01*
X344072Y1813632D02*
X352200D01*
X361852Y1814140D02*
X373028D01*
X364392Y1813886D02*
X373536D01*
X345342Y1814140D02*
X356518D01*
X344580Y1813886D02*
X353978D01*
X350930Y1815664D02*
X367440D01*
X352454Y1815918D02*
X366170D01*
X346104Y1814394D02*
X372266D01*
X346866Y1814648D02*
X371504D01*
X348644Y1815156D02*
X369726D01*
X349660Y1815410D02*
X368710D01*
X347882Y1814902D02*
X370488D01*
X301146Y1767658D02*
X306480D01*
X300638Y1767912D02*
X306988D01*
X261776Y1808298D02*
X264062D01*
X261776Y1808552D02*
X264062D01*
X364392Y1787978D02*
X368964D01*
X363630Y1788232D02*
X368710D01*
X342548Y1767658D02*
X348136D01*
X342040Y1767912D02*
X348644D01*
X385220Y1767658D02*
X387506D01*
X385220Y1767912D02*
X387506D01*
X360582Y1747592D02*
X370488D01*
X348644Y1747338D02*
X369980D01*
X267618Y1808806D02*
X339246D01*
X267618Y1809060D02*
X339500D01*
X267618Y1809314D02*
X340008D01*
X267618Y1809568D02*
X340516D01*
X267618Y1809822D02*
X341024D01*
X267364Y1810076D02*
X341532D01*
X267364Y1810330D02*
X342040D01*
X267364Y1808298D02*
X338230D01*
X267364Y1808552D02*
X338738D01*
D19*
X91028Y110750D02*
G03*
X76279Y136585I-30000J-0D01*
G01*
X91028Y32420D02*
G03*
X121028Y2420I30000J0D01*
G01*
X2741029D02*
G03*
X2771028Y32420I0J30000D01*
G01*
X2785779Y136585D02*
G03*
X2771028Y110750I15250J-25835D01*
G01*
X2785779Y136585D02*
G03*
X2796509Y147420I-15250J25835D01*
G01*
X2822490Y162420D02*
G03*
X2796509Y147420I0J-30000D01*
G01*
X2832995Y162420D02*
G03*
X2860803Y190228I0J27808D01*
G01*
X2861029Y1712420D02*
G03*
X2831029Y1742420I-30000J0D01*
G01*
X2796509Y1757420D02*
G03*
X2822490Y1742420I25981J15000D01*
G01*
X2796509Y1757420D02*
G03*
X2785779Y1768255I-25981J-15000D01*
G01*
X2771028Y1794090D02*
G03*
X2785779Y1768255I30000J0D01*
G01*
X2771028Y1872420D02*
G03*
X2741029Y1902420I-30000J0D01*
G01*
X121028D02*
G03*
X91028Y1872420I0J-30000D01*
G01*
X76279Y1768255D02*
G03*
X91028Y1794090I-15250J25835D01*
G01*
X76279Y1768255D02*
G03*
X65548Y1757420I15250J-25835D01*
G01*
X39567Y1742420D02*
G03*
X65548Y1757420I0J30000D01*
G01*
X31028Y1742420D02*
G03*
X1028Y1712420I0J-30000D01*
G01*
Y192420D02*
G03*
X31028Y162420I30000J0D01*
G01*
X65548Y147420D02*
G03*
X39567Y162420I-25981J-15000D01*
G01*
X65548Y147420D02*
G03*
X76279Y136585I25981J15000D01*
G01*
X91028Y110750D02*
G03*
X76279Y136585I-30000J-0D01*
G01*
X91028Y32420D02*
G03*
X121028Y2420I30000J0D01*
G01*
X2741029D02*
G03*
X2771028Y32420I0J30000D01*
G01*
X2785779Y136585D02*
G03*
X2771028Y110750I15250J-25835D01*
G01*
X2785779Y136585D02*
G03*
X2796509Y147420I-15250J25835D01*
G01*
X2822490Y162420D02*
G03*
X2796509Y147420I0J-30000D01*
G01*
X2831029Y162420D02*
G03*
X2861029Y192420I0J30000D01*
G01*
Y1712420D02*
G03*
X2831029Y1742420I-30000J0D01*
G01*
X2796509Y1757420D02*
G03*
X2822490Y1742420I25981J15000D01*
G01*
X2796509Y1757420D02*
G03*
X2785779Y1768255I-25981J-15000D01*
G01*
X2771028Y1794090D02*
G03*
X2785779Y1768255I30000J0D01*
G01*
X2771028Y1872420D02*
G03*
X2741029Y1902420I-30000J0D01*
G01*
X121028D02*
G03*
X91028Y1872420I0J-30000D01*
G01*
X76279Y1768255D02*
G03*
X91028Y1794090I-15250J25835D01*
G01*
X76279Y1768255D02*
G03*
X65548Y1757420I15250J-25835D01*
G01*
X39567Y1742420D02*
G03*
X65548Y1757420I0J30000D01*
G01*
X31028Y1742420D02*
G03*
X1028Y1712420I0J-30000D01*
G01*
Y192420D02*
G03*
X31028Y162420I30000J0D01*
G01*
X65548Y147420D02*
G03*
X39567Y162420I-25981J-15000D01*
G01*
X65548Y147420D02*
G03*
X76279Y136585I25981J15000D01*
G01*
X91028Y110750D02*
G03*
X76279Y136585I-30000J-0D01*
G01*
X91028Y32420D02*
G03*
X121028Y2420I30000J0D01*
G01*
X2741029D02*
G03*
X2771028Y32420I0J30000D01*
G01*
X2785779Y136585D02*
G03*
X2771028Y110750I15250J-25835D01*
G01*
X2785779Y136585D02*
G03*
X2796509Y147420I-15250J25835D01*
G01*
X2822490Y162420D02*
G03*
X2796509Y147420I0J-30000D01*
G01*
X2831029Y162420D02*
G03*
X2861029Y192420I0J30000D01*
G01*
Y1712420D02*
G03*
X2831029Y1742420I-30000J0D01*
G01*
X2796509Y1757420D02*
G03*
X2822490Y1742420I25981J15000D01*
G01*
X2796509Y1757420D02*
G03*
X2785779Y1768255I-25981J-15000D01*
G01*
X2771028Y1794090D02*
G03*
X2785779Y1768255I30000J0D01*
G01*
X2771028Y1872420D02*
G03*
X2741029Y1902420I-30000J0D01*
G01*
X121028D02*
G03*
X91028Y1872420I0J-30000D01*
G01*
X76279Y1768255D02*
G03*
X91028Y1794090I-15250J25835D01*
G01*
X76279Y1768255D02*
G03*
X65548Y1757420I15250J-25835D01*
G01*
X39567Y1742420D02*
G03*
X65548Y1757420I0J30000D01*
G01*
X31028Y1742420D02*
G03*
X1028Y1712420I0J-30000D01*
G01*
Y192420D02*
G03*
X31028Y162420I30000J0D01*
G01*
X65548Y147420D02*
G03*
X39567Y162420I-25981J-15000D01*
G01*
X65548Y147420D02*
G03*
X76279Y136585I25981J15000D01*
G01*
Y136585D02*
X77920Y135543D01*
X80985Y133150D01*
X83714Y130381D01*
X86063Y127282D01*
X87991Y123905D01*
X89465Y120308D01*
X90463Y116550D01*
X90965Y112694D01*
X91028Y110750D01*
X91028Y32420D01*
Y30454D02*
Y32420D01*
Y30454D02*
X91542Y26555D01*
X92560Y22756D01*
X94065Y19123D01*
X96031Y15717D01*
X98425Y12597D01*
X101206Y9816D01*
X104326Y7423D01*
X107731Y5456D01*
X111365Y3951D01*
X115163Y2933D01*
X119062Y2420D01*
X121028Y2420D01*
X2741029D01*
X2742995D01*
X2746894Y2933D01*
X2750692Y3951D01*
X2754326Y5456D01*
X2757731Y7423D01*
X2760851Y9816D01*
X2763632Y12597D01*
X2766026Y15717D01*
X2767992Y19123D01*
X2769497Y22756D01*
X2770515Y26555D01*
X2771028Y30454D01*
Y32420D01*
Y110750D01*
X2771092Y112694D01*
X2771595Y116550D01*
X2772592Y120308D01*
X2774066Y123905D01*
X2775994Y127282D01*
X2778343Y130381D01*
X2781072Y133150D01*
X2784136Y135543D01*
X2785779Y136585D01*
X2787440Y137566D01*
X2790486Y139938D01*
X2793202Y142681D01*
X2795544Y145749D01*
X2796509Y147420D01*
X2797546Y149087D01*
X2799935Y152200D01*
X2802710Y154975D01*
X2805823Y157364D01*
X2809221Y159326D01*
X2812847Y160828D01*
X2816637Y161844D01*
X2820528Y162356D01*
X2822490Y162420D01*
X2831029D01*
X2832995D01*
X2836894Y162933D01*
X2840692Y163951D01*
X2844326Y165456D01*
X2847731Y167422D01*
X2850851Y169816D01*
X2853632Y172597D01*
X2856026Y175717D01*
X2857993Y179123D01*
X2859497Y182756D01*
X2860515Y186555D01*
X2861029Y190454D01*
Y192420D01*
Y1712420D01*
Y1714386D01*
X2860515Y1718285D02*
X2861029Y1714386D01*
X2859497Y1722084D02*
X2860515Y1718285D01*
X2857993Y1725717D02*
X2859497Y1722084D01*
X2856026Y1729123D02*
X2857993Y1725717D01*
X2853632Y1732243D02*
X2856026Y1729123D01*
X2850851Y1735023D02*
X2853632Y1732243D01*
X2847731Y1737417D02*
X2850851Y1735023D01*
X2844326Y1739384D02*
X2847731Y1737417D01*
X2840692Y1740889D02*
X2844326Y1739384D01*
X2836894Y1741907D02*
X2840692Y1740889D01*
X2832995Y1742420D02*
X2836894Y1741907D01*
X2831029Y1742420D02*
X2832995D01*
X2822490D02*
X2831029D01*
X2820528Y1742484D02*
X2822490Y1742420D01*
X2816637Y1742996D02*
X2820528Y1742484D01*
X2812847Y1744012D02*
X2816637Y1742996D01*
X2809221Y1745514D02*
X2812847Y1744012D01*
X2805823Y1747476D02*
X2809221Y1745514D01*
X2802710Y1749865D02*
X2805823Y1747476D01*
X2799935Y1752639D02*
X2802710Y1749865D01*
X2797546Y1755753D02*
X2799935Y1752639D01*
X2796509Y1757420D02*
X2797546Y1755753D01*
X2795544Y1759091D02*
X2796509Y1757420D01*
X2793202Y1762159D02*
X2795544Y1759091D01*
X2790486Y1764902D02*
X2793202Y1762159D01*
X2787440Y1767274D02*
X2790486Y1764902D01*
X2785779Y1768255D02*
X2787440Y1767274D01*
X2784136Y1769297D02*
X2785779Y1768255D01*
X2781072Y1771690D02*
X2784136Y1769297D01*
X2778343Y1774459D02*
X2781072Y1771690D01*
X2775994Y1777558D02*
X2778343Y1774459D01*
X2774066Y1780935D02*
X2775994Y1777558D01*
X2772592Y1784532D02*
X2774066Y1780935D01*
X2771595Y1788290D02*
X2772592Y1784532D01*
X2771092Y1792146D02*
X2771595Y1788290D01*
X2771028Y1794090D02*
X2771092Y1792146D01*
X2771028Y1794090D02*
Y1872420D01*
Y1874386D01*
X2770515Y1878285D02*
X2771028Y1874386D01*
X2769497Y1882084D02*
X2770515Y1878285D01*
X2767992Y1885717D02*
X2769497Y1882084D01*
X2766026Y1889123D02*
X2767992Y1885717D01*
X2763632Y1892243D02*
X2766026Y1889123D01*
X2760851Y1895023D02*
X2763632Y1892243D01*
X2757731Y1897417D02*
X2760851Y1895023D01*
X2754326Y1899384D02*
X2757731Y1897417D01*
X2750692Y1900889D02*
X2754326Y1899384D01*
X2746894Y1901907D02*
X2750692Y1900889D01*
X2742995Y1902420D02*
X2746894Y1901907D01*
X2741029Y1902420D02*
X2742995D01*
X121028D02*
X2741029D01*
X119062D02*
X121028D01*
X115163Y1901907D02*
X119062Y1902420D01*
X111365Y1900889D02*
X115163Y1901907D01*
X107731Y1899384D02*
X111365Y1900889D01*
X104326Y1897417D02*
X107731Y1899384D01*
X101206Y1895023D02*
X104326Y1897417D01*
X98425Y1892243D02*
X101206Y1895023D01*
X96031Y1889123D02*
X98425Y1892243D01*
X94065Y1885717D02*
X96031Y1889123D01*
X92560Y1882084D02*
X94065Y1885717D01*
X91542Y1878285D02*
X92560Y1882084D01*
X91028Y1874386D02*
X91542Y1878285D01*
X91028Y1872420D02*
Y1874386D01*
Y1794090D02*
Y1872420D01*
X90965Y1792146D02*
X91028Y1794090D01*
X90463Y1788290D02*
X90965Y1792146D01*
X89465Y1784532D02*
X90463Y1788290D01*
X87991Y1780935D02*
X89465Y1784532D01*
X86063Y1777558D02*
X87991Y1780935D01*
X83714Y1774459D02*
X86063Y1777558D01*
X80985Y1771690D02*
X83714Y1774459D01*
X77920Y1769297D02*
X80985Y1771690D01*
X76279Y1768255D02*
X77920Y1769297D01*
X74616Y1767274D02*
X76279Y1768255D01*
X71571Y1764902D02*
X74616Y1767274D01*
X68855Y1762159D02*
X71571Y1764902D01*
X66513Y1759091D02*
X68855Y1762159D01*
X65548Y1757420D02*
X66513Y1759091D01*
X64511Y1755753D02*
X65548Y1757420D01*
X62122Y1752639D02*
X64511Y1755753D01*
X59347Y1749865D02*
X62122Y1752639D01*
X56234Y1747476D02*
X59347Y1749865D01*
X52836Y1745514D02*
X56234Y1747476D01*
X49210Y1744012D02*
X52836Y1745514D01*
X45420Y1742996D02*
X49210Y1744012D01*
X41529Y1742484D02*
X45420Y1742996D01*
X39567Y1742420D02*
X41529Y1742484D01*
X31028Y1742420D02*
X39567D01*
X29062D02*
X31028D01*
X25163Y1741907D02*
X29062Y1742420D01*
X21365Y1740889D02*
X25163Y1741907D01*
X17731Y1739384D02*
X21365Y1740889D01*
X14325Y1737417D02*
X17731Y1739384D01*
X11206Y1735023D02*
X14325Y1737417D01*
X8425Y1732243D02*
X11206Y1735023D01*
X6031Y1729123D02*
X8425Y1732243D01*
X4065Y1725717D02*
X6031Y1729123D01*
X2560Y1722084D02*
X4065Y1725717D01*
X1542Y1718285D02*
X2560Y1722084D01*
X1028Y1714386D02*
X1542Y1718285D01*
X1028Y1712420D02*
Y1714386D01*
Y192420D02*
Y1712420D01*
Y190454D02*
Y192420D01*
Y190454D02*
X1542Y186555D01*
X2560Y182756D01*
X4065Y179123D01*
X6031Y175717D01*
X8425Y172597D01*
X11206Y169816D01*
X14325Y167422D01*
X17731Y165456D01*
X21365Y163951D01*
X25163Y162933D01*
X29062Y162420D01*
X31028Y162420D01*
X39567D01*
X41529Y162356D01*
X45420Y161844D01*
X49210Y160828D01*
X52836Y159326D01*
X56234Y157364D01*
X59347Y154975D01*
X62122Y152200D01*
X64511Y149087D01*
X65548Y147420D01*
X66513Y145749D01*
X68855Y142681D01*
X71571Y139938D01*
X74616Y137566D01*
X76279Y136585D01*
X91028Y32420D02*
Y110750D01*
X121028Y2420D02*
X2741029D01*
X2771028Y32420D02*
Y110750D01*
X2796509Y147420D02*
X2796509Y147420D01*
X2822490Y162420D02*
Y162420D01*
Y162420D02*
X2831029D01*
X2861029Y192420D02*
Y1712420D01*
X2822490Y1742420D02*
X2831029D01*
X2822490Y1742420D02*
Y1742420D01*
X2796509Y1757420D02*
X2796509Y1757420D01*
X2771028Y1794090D02*
Y1872420D01*
X121028Y1902420D02*
X2741029D01*
X91028Y1794090D02*
Y1872420D01*
X31028Y1742420D02*
X39567D01*
X1028Y192420D02*
Y1712420D01*
X31028Y162420D02*
X39567D01*
X91028Y32420D02*
Y110750D01*
X121028Y2420D02*
X2741029D01*
X2771028Y32420D02*
Y110750D01*
X2796509Y147420D02*
X2796509Y147420D01*
X2822490Y162420D02*
Y162420D01*
Y162420D02*
X2831029D01*
X2861029Y192420D02*
Y1712420D01*
X2822490Y1742420D02*
X2831029D01*
X2822490Y1742420D02*
Y1742420D01*
X2796509Y1757420D02*
X2796509Y1757420D01*
X2771028Y1794090D02*
Y1872420D01*
X121028Y1902420D02*
X2741029D01*
X91028Y1794090D02*
Y1872420D01*
X31028Y1742420D02*
X39567D01*
X1028Y192420D02*
Y1712420D01*
X31028Y162420D02*
X39567D01*
X91028Y32420D02*
Y110750D01*
X121028Y2420D02*
X2741029D01*
X2771028Y32420D02*
Y110750D01*
X2796509Y147420D02*
X2796509Y147420D01*
X2822490Y162420D02*
Y162420D01*
Y162420D02*
X2831029D01*
X2861029Y192420D02*
Y1712420D01*
X2822490Y1742420D02*
X2831029D01*
X2822490Y1742420D02*
Y1742420D01*
X2796509Y1757420D02*
X2796509Y1757420D01*
X2771028Y1794090D02*
Y1872420D01*
X121028Y1902420D02*
X2741029D01*
X91028Y1794090D02*
Y1872420D01*
X31028Y1742420D02*
X39567D01*
X1028Y192420D02*
Y1712420D01*
X31028Y162420D02*
X39567D01*
D20*
X76279Y136585D02*
X77920Y135543D01*
X80985Y133150D01*
X83714Y130381D01*
X86063Y127282D01*
X87991Y123905D01*
X89465Y120308D01*
X90463Y116550D01*
X90965Y112694D01*
X91028Y110750D01*
X91028Y32420D01*
Y30454D02*
Y32420D01*
Y30454D02*
X91542Y26555D01*
X92560Y22756D01*
X94065Y19123D01*
X96031Y15717D01*
X98425Y12597D01*
X101206Y9816D01*
X104326Y7423D01*
X107731Y5456D01*
X111365Y3951D01*
X115163Y2933D01*
X119062Y2420D01*
X121028Y2420D01*
X2741029D01*
X2742995D01*
X2746894Y2933D01*
X2750692Y3951D01*
X2754326Y5456D01*
X2757731Y7423D01*
X2760851Y9816D01*
X2763632Y12597D01*
X2766026Y15717D01*
X2767992Y19123D01*
X2769497Y22756D01*
X2770515Y26555D01*
X2771028Y30454D01*
Y32420D01*
Y110750D01*
X2771092Y112694D01*
X2771595Y116550D01*
X2772592Y120308D01*
X2774066Y123905D01*
X2775994Y127282D01*
X2778343Y130381D01*
X2781072Y133150D01*
X2784136Y135543D01*
X2785779Y136585D01*
X2787440Y137566D01*
X2790486Y139938D01*
X2793202Y142681D01*
X2795544Y145749D01*
X2796509Y147420D01*
X2797546Y149087D01*
X2799935Y152200D01*
X2802710Y154975D01*
X2805823Y157364D01*
X2809221Y159326D01*
X2812847Y160828D01*
X2816637Y161844D01*
X2820528Y162356D01*
X2822490Y162420D01*
X2831029D01*
X2832995D01*
X2836894Y162933D01*
X2840692Y163951D01*
X2844326Y165456D01*
X2847731Y167422D01*
X2850851Y169816D01*
X2853632Y172597D01*
X2856026Y175717D01*
X2857993Y179123D01*
X2859497Y182756D01*
X2860515Y186555D01*
X2861029Y190454D01*
Y192420D01*
Y1712420D01*
Y1714386D01*
X2860515Y1718285D02*
X2861029Y1714386D01*
X2859497Y1722084D02*
X2860515Y1718285D01*
X2857993Y1725717D02*
X2859497Y1722084D01*
X2856026Y1729123D02*
X2857993Y1725717D01*
X2853632Y1732243D02*
X2856026Y1729123D01*
X2850851Y1735023D02*
X2853632Y1732243D01*
X2847731Y1737417D02*
X2850851Y1735023D01*
X2844326Y1739384D02*
X2847731Y1737417D01*
X2840692Y1740889D02*
X2844326Y1739384D01*
X2836894Y1741907D02*
X2840692Y1740889D01*
X2832995Y1742420D02*
X2836894Y1741907D01*
X2831029Y1742420D02*
X2832995D01*
X2822490D02*
X2831029D01*
X2820528Y1742484D02*
X2822490Y1742420D01*
X2816637Y1742996D02*
X2820528Y1742484D01*
X2812847Y1744012D02*
X2816637Y1742996D01*
X2809221Y1745514D02*
X2812847Y1744012D01*
X2805823Y1747476D02*
X2809221Y1745514D01*
X2802710Y1749865D02*
X2805823Y1747476D01*
X2799935Y1752639D02*
X2802710Y1749865D01*
X2797546Y1755753D02*
X2799935Y1752639D01*
X2796509Y1757420D02*
X2797546Y1755753D01*
X2795544Y1759091D02*
X2796509Y1757420D01*
X2793202Y1762159D02*
X2795544Y1759091D01*
X2790486Y1764902D02*
X2793202Y1762159D01*
X2787440Y1767274D02*
X2790486Y1764902D01*
X2785779Y1768255D02*
X2787440Y1767274D01*
X2784136Y1769297D02*
X2785779Y1768255D01*
X2781072Y1771690D02*
X2784136Y1769297D01*
X2778343Y1774459D02*
X2781072Y1771690D01*
X2775994Y1777558D02*
X2778343Y1774459D01*
X2774066Y1780935D02*
X2775994Y1777558D01*
X2772592Y1784532D02*
X2774066Y1780935D01*
X2771595Y1788290D02*
X2772592Y1784532D01*
X2771092Y1792146D02*
X2771595Y1788290D01*
X2771028Y1794090D02*
X2771092Y1792146D01*
X2771028Y1794090D02*
Y1872420D01*
Y1874386D01*
X2770515Y1878285D02*
X2771028Y1874386D01*
X2769497Y1882084D02*
X2770515Y1878285D01*
X2767992Y1885717D02*
X2769497Y1882084D01*
X2766026Y1889123D02*
X2767992Y1885717D01*
X2763632Y1892243D02*
X2766026Y1889123D01*
X2760851Y1895023D02*
X2763632Y1892243D01*
X2757731Y1897417D02*
X2760851Y1895023D01*
X2754326Y1899384D02*
X2757731Y1897417D01*
X2750692Y1900889D02*
X2754326Y1899384D01*
X2746894Y1901907D02*
X2750692Y1900889D01*
X2742995Y1902420D02*
X2746894Y1901907D01*
X2741029Y1902420D02*
X2742995D01*
X121028D02*
X2741029D01*
X119062D02*
X121028D01*
X115163Y1901907D02*
X119062Y1902420D01*
X111365Y1900889D02*
X115163Y1901907D01*
X107731Y1899384D02*
X111365Y1900889D01*
X104326Y1897417D02*
X107731Y1899384D01*
X101206Y1895023D02*
X104326Y1897417D01*
X98425Y1892243D02*
X101206Y1895023D01*
X96031Y1889123D02*
X98425Y1892243D01*
X94065Y1885717D02*
X96031Y1889123D01*
X92560Y1882084D02*
X94065Y1885717D01*
X91542Y1878285D02*
X92560Y1882084D01*
X91028Y1874386D02*
X91542Y1878285D01*
X91028Y1872420D02*
Y1874386D01*
Y1794090D02*
Y1872420D01*
X90965Y1792146D02*
X91028Y1794090D01*
X90463Y1788290D02*
X90965Y1792146D01*
X89465Y1784532D02*
X90463Y1788290D01*
X87991Y1780935D02*
X89465Y1784532D01*
X86063Y1777558D02*
X87991Y1780935D01*
X83714Y1774459D02*
X86063Y1777558D01*
X80985Y1771690D02*
X83714Y1774459D01*
X77920Y1769297D02*
X80985Y1771690D01*
X76279Y1768255D02*
X77920Y1769297D01*
X74616Y1767274D02*
X76279Y1768255D01*
X71571Y1764902D02*
X74616Y1767274D01*
X68855Y1762159D02*
X71571Y1764902D01*
X66513Y1759091D02*
X68855Y1762159D01*
X65548Y1757420D02*
X66513Y1759091D01*
X64511Y1755753D02*
X65548Y1757420D01*
X62122Y1752639D02*
X64511Y1755753D01*
X59347Y1749865D02*
X62122Y1752639D01*
X56234Y1747476D02*
X59347Y1749865D01*
X52836Y1745514D02*
X56234Y1747476D01*
X49210Y1744012D02*
X52836Y1745514D01*
X45420Y1742996D02*
X49210Y1744012D01*
X41529Y1742484D02*
X45420Y1742996D01*
X39567Y1742420D02*
X41529Y1742484D01*
X31028Y1742420D02*
X39567D01*
X29062D02*
X31028D01*
X25163Y1741907D02*
X29062Y1742420D01*
X21365Y1740889D02*
X25163Y1741907D01*
X17731Y1739384D02*
X21365Y1740889D01*
X14325Y1737417D02*
X17731Y1739384D01*
X11206Y1735023D02*
X14325Y1737417D01*
X8425Y1732243D02*
X11206Y1735023D01*
X6031Y1729123D02*
X8425Y1732243D01*
X4065Y1725717D02*
X6031Y1729123D01*
X2560Y1722084D02*
X4065Y1725717D01*
X1542Y1718285D02*
X2560Y1722084D01*
X1028Y1714386D02*
X1542Y1718285D01*
X1028Y1712420D02*
Y1714386D01*
Y192420D02*
Y1712420D01*
Y190454D02*
Y192420D01*
Y190454D02*
X1542Y186555D01*
X2560Y182756D01*
X4065Y179123D01*
X6031Y175717D01*
X8425Y172597D01*
X11206Y169816D01*
X14325Y167422D01*
X17731Y165456D01*
X21365Y163951D01*
X25163Y162933D01*
X29062Y162420D01*
X31028Y162420D01*
X39567D01*
X41529Y162356D01*
X45420Y161844D01*
X49210Y160828D01*
X52836Y159326D01*
X56234Y157364D01*
X59347Y154975D01*
X62122Y152200D01*
X64511Y149087D01*
X65548Y147420D01*
X66513Y145749D01*
X68855Y142681D01*
X71571Y139938D01*
X74616Y137566D01*
X76279Y136585D01*
X77920Y135543D01*
X80985Y133150D01*
X83714Y130381D01*
X86063Y127282D01*
X87991Y123905D01*
X89465Y120308D01*
X90463Y116550D01*
X90965Y112694D01*
X91028Y110750D01*
X91028Y32420D01*
Y30454D02*
Y32420D01*
Y30454D02*
X91542Y26555D01*
X92560Y22756D01*
X94065Y19123D01*
X96031Y15717D01*
X98425Y12597D01*
X101206Y9816D01*
X104326Y7423D01*
X107731Y5456D01*
X111365Y3951D01*
X115163Y2933D01*
X119062Y2420D01*
X121028Y2420D01*
X2741029D01*
X2742995D01*
X2746894Y2933D01*
X2750692Y3951D01*
X2754326Y5456D01*
X2757731Y7423D01*
X2760851Y9816D01*
X2763632Y12597D01*
X2766026Y15717D01*
X2767992Y19123D01*
X2769497Y22756D01*
X2770515Y26555D01*
X2771028Y30454D01*
Y32420D01*
Y110750D01*
X2771092Y112694D01*
X2771595Y116550D01*
X2772592Y120308D01*
X2774066Y123905D01*
X2775994Y127282D01*
X2778343Y130381D01*
X2781072Y133150D01*
X2784136Y135543D01*
X2785779Y136585D01*
X2787440Y137566D01*
X2790486Y139938D01*
X2793202Y142681D01*
X2795544Y145749D01*
X2796509Y147420D01*
X2797546Y149087D01*
X2799935Y152200D01*
X2802710Y154975D01*
X2805823Y157364D01*
X2809221Y159326D01*
X2812847Y160828D01*
X2816637Y161844D01*
X2820528Y162356D01*
X2822490Y162420D01*
X2831029D01*
X2832995D01*
X2836894Y162933D01*
X2840692Y163951D01*
X2844326Y165456D01*
X2847731Y167422D01*
X2850851Y169816D01*
X2853632Y172597D01*
X2856026Y175717D01*
X2857993Y179123D01*
X2859497Y182756D01*
X2860515Y186555D01*
X2861029Y190454D01*
Y192420D01*
Y1712420D01*
Y1714386D01*
X2860515Y1718285D02*
X2861029Y1714386D01*
X2859497Y1722084D02*
X2860515Y1718285D01*
X2857993Y1725717D02*
X2859497Y1722084D01*
X2856026Y1729123D02*
X2857993Y1725717D01*
X2853632Y1732243D02*
X2856026Y1729123D01*
X2850851Y1735023D02*
X2853632Y1732243D01*
X2847731Y1737417D02*
X2850851Y1735023D01*
X2844326Y1739384D02*
X2847731Y1737417D01*
X2840692Y1740889D02*
X2844326Y1739384D01*
X2836894Y1741907D02*
X2840692Y1740889D01*
X2832995Y1742420D02*
X2836894Y1741907D01*
X2831029Y1742420D02*
X2832995D01*
X2822490D02*
X2831029D01*
X2820528Y1742484D02*
X2822490Y1742420D01*
X2816637Y1742996D02*
X2820528Y1742484D01*
X2812847Y1744012D02*
X2816637Y1742996D01*
X2809221Y1745514D02*
X2812847Y1744012D01*
X2805823Y1747476D02*
X2809221Y1745514D01*
X2802710Y1749865D02*
X2805823Y1747476D01*
X2799935Y1752639D02*
X2802710Y1749865D01*
X2797546Y1755753D02*
X2799935Y1752639D01*
X2796509Y1757420D02*
X2797546Y1755753D01*
X2795544Y1759091D02*
X2796509Y1757420D01*
X2793202Y1762159D02*
X2795544Y1759091D01*
X2790486Y1764902D02*
X2793202Y1762159D01*
X2787440Y1767274D02*
X2790486Y1764902D01*
X2785779Y1768255D02*
X2787440Y1767274D01*
X2784136Y1769297D02*
X2785779Y1768255D01*
X2781072Y1771690D02*
X2784136Y1769297D01*
X2778343Y1774459D02*
X2781072Y1771690D01*
X2775994Y1777558D02*
X2778343Y1774459D01*
X2774066Y1780935D02*
X2775994Y1777558D01*
X2772592Y1784532D02*
X2774066Y1780935D01*
X2771595Y1788290D02*
X2772592Y1784532D01*
X2771092Y1792146D02*
X2771595Y1788290D01*
X2771028Y1794090D02*
X2771092Y1792146D01*
X2771028Y1794090D02*
Y1872420D01*
Y1874386D01*
X2770515Y1878285D02*
X2771028Y1874386D01*
X2769497Y1882084D02*
X2770515Y1878285D01*
X2767992Y1885717D02*
X2769497Y1882084D01*
X2766026Y1889123D02*
X2767992Y1885717D01*
X2763632Y1892243D02*
X2766026Y1889123D01*
X2760851Y1895023D02*
X2763632Y1892243D01*
X2757731Y1897417D02*
X2760851Y1895023D01*
X2754326Y1899384D02*
X2757731Y1897417D01*
X2750692Y1900889D02*
X2754326Y1899384D01*
X2746894Y1901907D02*
X2750692Y1900889D01*
X2742995Y1902420D02*
X2746894Y1901907D01*
X2741029Y1902420D02*
X2742995D01*
X121028D02*
X2741029D01*
X119062D02*
X121028D01*
X115163Y1901907D02*
X119062Y1902420D01*
X111365Y1900889D02*
X115163Y1901907D01*
X107731Y1899384D02*
X111365Y1900889D01*
X104326Y1897417D02*
X107731Y1899384D01*
X101206Y1895023D02*
X104326Y1897417D01*
X98425Y1892243D02*
X101206Y1895023D01*
X96031Y1889123D02*
X98425Y1892243D01*
X94065Y1885717D02*
X96031Y1889123D01*
X92560Y1882084D02*
X94065Y1885717D01*
X91542Y1878285D02*
X92560Y1882084D01*
X91028Y1874386D02*
X91542Y1878285D01*
X91028Y1872420D02*
Y1874386D01*
Y1794090D02*
Y1872420D01*
X90965Y1792146D02*
X91028Y1794090D01*
X90463Y1788290D02*
X90965Y1792146D01*
X89465Y1784532D02*
X90463Y1788290D01*
X87991Y1780935D02*
X89465Y1784532D01*
X86063Y1777558D02*
X87991Y1780935D01*
X83714Y1774459D02*
X86063Y1777558D01*
X80985Y1771690D02*
X83714Y1774459D01*
X77920Y1769297D02*
X80985Y1771690D01*
X76279Y1768255D02*
X77920Y1769297D01*
X74616Y1767274D02*
X76279Y1768255D01*
X71571Y1764902D02*
X74616Y1767274D01*
X68855Y1762159D02*
X71571Y1764902D01*
X66513Y1759091D02*
X68855Y1762159D01*
X65548Y1757420D02*
X66513Y1759091D01*
X64511Y1755753D02*
X65548Y1757420D01*
X62122Y1752639D02*
X64511Y1755753D01*
X59347Y1749865D02*
X62122Y1752639D01*
X56234Y1747476D02*
X59347Y1749865D01*
X52836Y1745514D02*
X56234Y1747476D01*
X49210Y1744012D02*
X52836Y1745514D01*
X45420Y1742996D02*
X49210Y1744012D01*
X41529Y1742484D02*
X45420Y1742996D01*
X39567Y1742420D02*
X41529Y1742484D01*
X31028Y1742420D02*
X39567D01*
X29062D02*
X31028D01*
X25163Y1741907D02*
X29062Y1742420D01*
X21365Y1740889D02*
X25163Y1741907D01*
X17731Y1739384D02*
X21365Y1740889D01*
X14325Y1737417D02*
X17731Y1739384D01*
X11206Y1735023D02*
X14325Y1737417D01*
X8425Y1732243D02*
X11206Y1735023D01*
X6031Y1729123D02*
X8425Y1732243D01*
X4065Y1725717D02*
X6031Y1729123D01*
X2560Y1722084D02*
X4065Y1725717D01*
X1542Y1718285D02*
X2560Y1722084D01*
X1028Y1714386D02*
X1542Y1718285D01*
X1028Y1712420D02*
Y1714386D01*
Y192420D02*
Y1712420D01*
Y190454D02*
Y192420D01*
Y190454D02*
X1542Y186555D01*
X2560Y182756D01*
X4065Y179123D01*
X6031Y175717D01*
X8425Y172597D01*
X11206Y169816D01*
X14325Y167422D01*
X17731Y165456D01*
X21365Y163951D01*
X25163Y162933D01*
X29062Y162420D01*
X31028Y162420D01*
X39567D01*
X41529Y162356D01*
X45420Y161844D01*
X49210Y160828D01*
X52836Y159326D01*
X56234Y157364D01*
X59347Y154975D01*
X62122Y152200D01*
X64511Y149087D01*
X65548Y147420D01*
X66513Y145749D01*
X68855Y142681D01*
X71571Y139938D01*
X74616Y137566D01*
X76279Y136585D01*
X77920Y135543D01*
X80985Y133150D01*
X83714Y130381D01*
X86063Y127282D01*
X87991Y123905D01*
X89465Y120308D01*
X90463Y116550D01*
X90965Y112694D01*
X91028Y110750D01*
X91028Y32420D01*
Y30454D02*
Y32420D01*
Y30454D02*
X91542Y26555D01*
X92560Y22756D01*
X94065Y19123D01*
X96031Y15717D01*
X98425Y12597D01*
X101206Y9816D01*
X104326Y7423D01*
X107731Y5456D01*
X111365Y3951D01*
X115163Y2933D01*
X119062Y2420D01*
X121028Y2420D01*
X2741029D01*
X2742995D01*
X2746894Y2933D01*
X2750692Y3951D01*
X2754326Y5456D01*
X2757731Y7423D01*
X2760851Y9816D01*
X2763632Y12597D01*
X2766026Y15717D01*
X2767992Y19123D01*
X2769497Y22756D01*
X2770515Y26555D01*
X2771028Y30454D01*
Y32420D01*
Y110750D01*
X2771092Y112694D01*
X2771595Y116550D01*
X2772592Y120308D01*
X2774066Y123905D01*
X2775994Y127282D01*
X2778343Y130381D01*
X2781072Y133150D01*
X2784136Y135543D01*
X2785779Y136585D01*
X2787440Y137566D01*
X2790486Y139938D01*
X2793202Y142681D01*
X2795544Y145749D01*
X2796509Y147420D01*
X2797546Y149087D01*
X2799935Y152200D01*
X2802710Y154975D01*
X2805823Y157364D01*
X2809221Y159326D01*
X2812847Y160828D01*
X2816637Y161844D01*
X2820528Y162356D01*
X2822490Y162420D01*
X2831029D01*
X2832995D01*
X2836894Y162933D01*
X2840692Y163951D01*
X2844326Y165456D01*
X2847731Y167422D01*
X2850851Y169816D01*
X2853632Y172597D01*
X2856026Y175717D01*
X2857993Y179123D01*
X2859497Y182756D01*
X2860515Y186555D01*
X2861029Y190454D01*
Y192420D01*
Y1712420D01*
Y1714386D01*
X2860515Y1718285D02*
X2861029Y1714386D01*
X2859497Y1722084D02*
X2860515Y1718285D01*
X2857993Y1725717D02*
X2859497Y1722084D01*
X2856026Y1729123D02*
X2857993Y1725717D01*
X2853632Y1732243D02*
X2856026Y1729123D01*
X2850851Y1735023D02*
X2853632Y1732243D01*
X2847731Y1737417D02*
X2850851Y1735023D01*
X2844326Y1739384D02*
X2847731Y1737417D01*
X2840692Y1740889D02*
X2844326Y1739384D01*
X2836894Y1741907D02*
X2840692Y1740889D01*
X2832995Y1742420D02*
X2836894Y1741907D01*
X2831029Y1742420D02*
X2832995D01*
X2822490D02*
X2831029D01*
X2820528Y1742484D02*
X2822490Y1742420D01*
X2816637Y1742996D02*
X2820528Y1742484D01*
X2812847Y1744012D02*
X2816637Y1742996D01*
X2809221Y1745514D02*
X2812847Y1744012D01*
X2805823Y1747476D02*
X2809221Y1745514D01*
X2802710Y1749865D02*
X2805823Y1747476D01*
X2799935Y1752639D02*
X2802710Y1749865D01*
X2797546Y1755753D02*
X2799935Y1752639D01*
X2796509Y1757420D02*
X2797546Y1755753D01*
X2795544Y1759091D02*
X2796509Y1757420D01*
X2793202Y1762159D02*
X2795544Y1759091D01*
X2790486Y1764902D02*
X2793202Y1762159D01*
X2787440Y1767274D02*
X2790486Y1764902D01*
X2785779Y1768255D02*
X2787440Y1767274D01*
X2784136Y1769297D02*
X2785779Y1768255D01*
X2781072Y1771690D02*
X2784136Y1769297D01*
X2778343Y1774459D02*
X2781072Y1771690D01*
X2775994Y1777558D02*
X2778343Y1774459D01*
X2774066Y1780935D02*
X2775994Y1777558D01*
X2772592Y1784532D02*
X2774066Y1780935D01*
X2771595Y1788290D02*
X2772592Y1784532D01*
X2771092Y1792146D02*
X2771595Y1788290D01*
X2771028Y1794090D02*
X2771092Y1792146D01*
X2771028Y1794090D02*
Y1872420D01*
Y1874386D01*
X2770515Y1878285D02*
X2771028Y1874386D01*
X2769497Y1882084D02*
X2770515Y1878285D01*
X2767992Y1885717D02*
X2769497Y1882084D01*
X2766026Y1889123D02*
X2767992Y1885717D01*
X2763632Y1892243D02*
X2766026Y1889123D01*
X2760851Y1895023D02*
X2763632Y1892243D01*
X2757731Y1897417D02*
X2760851Y1895023D01*
X2754326Y1899384D02*
X2757731Y1897417D01*
X2750692Y1900889D02*
X2754326Y1899384D01*
X2746894Y1901907D02*
X2750692Y1900889D01*
X2742995Y1902420D02*
X2746894Y1901907D01*
X2741029Y1902420D02*
X2742995D01*
X121028D02*
X2741029D01*
X119062D02*
X121028D01*
X115163Y1901907D02*
X119062Y1902420D01*
X111365Y1900889D02*
X115163Y1901907D01*
X107731Y1899384D02*
X111365Y1900889D01*
X104326Y1897417D02*
X107731Y1899384D01*
X101206Y1895023D02*
X104326Y1897417D01*
X98425Y1892243D02*
X101206Y1895023D01*
X96031Y1889123D02*
X98425Y1892243D01*
X94065Y1885717D02*
X96031Y1889123D01*
X92560Y1882084D02*
X94065Y1885717D01*
X91542Y1878285D02*
X92560Y1882084D01*
X91028Y1874386D02*
X91542Y1878285D01*
X91028Y1872420D02*
Y1874386D01*
Y1794090D02*
Y1872420D01*
X90965Y1792146D02*
X91028Y1794090D01*
X90463Y1788290D02*
X90965Y1792146D01*
X89465Y1784532D02*
X90463Y1788290D01*
X87991Y1780935D02*
X89465Y1784532D01*
X86063Y1777558D02*
X87991Y1780935D01*
X83714Y1774459D02*
X86063Y1777558D01*
X80985Y1771690D02*
X83714Y1774459D01*
X77920Y1769297D02*
X80985Y1771690D01*
X76279Y1768255D02*
X77920Y1769297D01*
X74616Y1767274D02*
X76279Y1768255D01*
X71571Y1764902D02*
X74616Y1767274D01*
X68855Y1762159D02*
X71571Y1764902D01*
X66513Y1759091D02*
X68855Y1762159D01*
X65548Y1757420D02*
X66513Y1759091D01*
X64511Y1755753D02*
X65548Y1757420D01*
X62122Y1752639D02*
X64511Y1755753D01*
X59347Y1749865D02*
X62122Y1752639D01*
X56234Y1747476D02*
X59347Y1749865D01*
X52836Y1745514D02*
X56234Y1747476D01*
X49210Y1744012D02*
X52836Y1745514D01*
X45420Y1742996D02*
X49210Y1744012D01*
X41529Y1742484D02*
X45420Y1742996D01*
X39567Y1742420D02*
X41529Y1742484D01*
X31028Y1742420D02*
X39567D01*
X29062D02*
X31028D01*
X25163Y1741907D02*
X29062Y1742420D01*
X21365Y1740889D02*
X25163Y1741907D01*
X17731Y1739384D02*
X21365Y1740889D01*
X14325Y1737417D02*
X17731Y1739384D01*
X11206Y1735023D02*
X14325Y1737417D01*
X8425Y1732243D02*
X11206Y1735023D01*
X6031Y1729123D02*
X8425Y1732243D01*
X4065Y1725717D02*
X6031Y1729123D01*
X2560Y1722084D02*
X4065Y1725717D01*
X1542Y1718285D02*
X2560Y1722084D01*
X1028Y1714386D02*
X1542Y1718285D01*
X1028Y1712420D02*
Y1714386D01*
Y192420D02*
Y1712420D01*
Y190454D02*
Y192420D01*
Y190454D02*
X1542Y186555D01*
X2560Y182756D01*
X4065Y179123D01*
X6031Y175717D01*
X8425Y172597D01*
X11206Y169816D01*
X14325Y167422D01*
X17731Y165456D01*
X21365Y163951D01*
X25163Y162933D01*
X29062Y162420D01*
X31028Y162420D01*
X39567D01*
X41529Y162356D01*
X45420Y161844D01*
X49210Y160828D01*
X52836Y159326D01*
X56234Y157364D01*
X59347Y154975D01*
X62122Y152200D01*
X64511Y149087D01*
X65548Y147420D01*
X66513Y145749D01*
X68855Y142681D01*
X71571Y139938D01*
X74616Y137566D01*
X76279Y136585D01*
X77920Y135543D01*
X80985Y133150D01*
X83714Y130381D01*
X86063Y127282D01*
X87991Y123905D01*
X89465Y120308D01*
X90463Y116550D01*
X90965Y112694D01*
X91028Y110750D01*
X91028Y32420D01*
Y30454D02*
Y32420D01*
Y30454D02*
X91542Y26555D01*
X92560Y22756D01*
X94065Y19123D01*
X96031Y15717D01*
X98425Y12597D01*
X101206Y9816D01*
X104326Y7423D01*
X107731Y5456D01*
X111365Y3951D01*
X115163Y2933D01*
X119062Y2420D01*
X121028Y2420D01*
X2741029D01*
X2742995D01*
X2746894Y2933D01*
X2750692Y3951D01*
X2754326Y5456D01*
X2757731Y7423D01*
X2760851Y9816D01*
X2763632Y12597D01*
X2766026Y15717D01*
X2767992Y19123D01*
X2769497Y22756D01*
X2770515Y26555D01*
X2771028Y30454D01*
Y32420D01*
Y110750D01*
X2771092Y112694D01*
X2771595Y116550D01*
X2772592Y120308D01*
X2774066Y123905D01*
X2775994Y127282D01*
X2778343Y130381D01*
X2781072Y133150D01*
X2784136Y135543D01*
X2785779Y136585D01*
X2787440Y137566D01*
X2790486Y139938D01*
X2793202Y142681D01*
X2795544Y145749D01*
X2796509Y147420D01*
X2797546Y149087D01*
X2799935Y152200D01*
X2802710Y154975D01*
X2805823Y157364D01*
X2809221Y159326D01*
X2812847Y160828D01*
X2816637Y161844D01*
X2820528Y162356D01*
X2822490Y162420D01*
X2831029D01*
X2832995D02*
X2836894Y162933D01*
X2840692Y163951D01*
X2844326Y165456D01*
X2847731Y167422D01*
X2850851Y169816D01*
X2853632Y172597D01*
X2856026Y175717D01*
X2857993Y179123D01*
X2859497Y182756D01*
X2860515Y186555D01*
X2861029Y190454D01*
Y192420D01*
Y1712420D01*
Y1714386D01*
X2860515Y1718285D02*
X2861029Y1714386D01*
X2859497Y1722084D02*
X2860515Y1718285D01*
X2857993Y1725717D02*
X2859497Y1722084D01*
X2856026Y1729123D02*
X2857993Y1725717D01*
X2853632Y1732243D02*
X2856026Y1729123D01*
X2850851Y1735023D02*
X2853632Y1732243D01*
X2847731Y1737417D02*
X2850851Y1735023D01*
X2844326Y1739384D02*
X2847731Y1737417D01*
X2840692Y1740889D02*
X2844326Y1739384D01*
X2836894Y1741907D02*
X2840692Y1740889D01*
X2832995Y1742420D02*
X2836894Y1741907D01*
X2831029Y1742420D02*
X2832995D01*
X2822490D02*
X2831029D01*
X2820528Y1742484D02*
X2822490Y1742420D01*
X2816637Y1742996D02*
X2820528Y1742484D01*
X2812847Y1744012D02*
X2816637Y1742996D01*
X2809221Y1745514D02*
X2812847Y1744012D01*
X2805823Y1747476D02*
X2809221Y1745514D01*
X2802710Y1749865D02*
X2805823Y1747476D01*
X2799935Y1752639D02*
X2802710Y1749865D01*
X2797546Y1755753D02*
X2799935Y1752639D01*
X2796509Y1757420D02*
X2797546Y1755753D01*
X2795544Y1759091D02*
X2796509Y1757420D01*
X2793202Y1762159D02*
X2795544Y1759091D01*
X2790486Y1764902D02*
X2793202Y1762159D01*
X2787440Y1767274D02*
X2790486Y1764902D01*
X2785779Y1768255D02*
X2787440Y1767274D01*
X2784136Y1769297D02*
X2785779Y1768255D01*
X2781072Y1771690D02*
X2784136Y1769297D01*
X2778343Y1774459D02*
X2781072Y1771690D01*
X2775994Y1777558D02*
X2778343Y1774459D01*
X2774066Y1780935D02*
X2775994Y1777558D01*
X2772592Y1784532D02*
X2774066Y1780935D01*
X2771595Y1788290D02*
X2772592Y1784532D01*
X2771092Y1792146D02*
X2771595Y1788290D01*
X2771028Y1794090D02*
X2771092Y1792146D01*
X2771028Y1794090D02*
Y1872420D01*
Y1874386D01*
X2770515Y1878285D02*
X2771028Y1874386D01*
X2769497Y1882084D02*
X2770515Y1878285D01*
X2767992Y1885717D02*
X2769497Y1882084D01*
X2766026Y1889123D02*
X2767992Y1885717D01*
X2763632Y1892243D02*
X2766026Y1889123D01*
X2760851Y1895023D02*
X2763632Y1892243D01*
X2757731Y1897417D02*
X2760851Y1895023D01*
X2754326Y1899384D02*
X2757731Y1897417D01*
X2750692Y1900889D02*
X2754326Y1899384D01*
X2746894Y1901907D02*
X2750692Y1900889D01*
X2742995Y1902420D02*
X2746894Y1901907D01*
X2741029Y1902420D02*
X2742995D01*
X121028D02*
X2741029D01*
X119062D02*
X121028D01*
X115163Y1901907D02*
X119062Y1902420D01*
X111365Y1900889D02*
X115163Y1901907D01*
X107731Y1899384D02*
X111365Y1900889D01*
X104326Y1897417D02*
X107731Y1899384D01*
X101206Y1895023D02*
X104326Y1897417D01*
X98425Y1892243D02*
X101206Y1895023D01*
X96031Y1889123D02*
X98425Y1892243D01*
X94065Y1885717D02*
X96031Y1889123D01*
X92560Y1882084D02*
X94065Y1885717D01*
X91542Y1878285D02*
X92560Y1882084D01*
X91028Y1874386D02*
X91542Y1878285D01*
X91028Y1872420D02*
Y1874386D01*
Y1794090D02*
Y1872420D01*
X90965Y1792146D02*
X91028Y1794090D01*
X90463Y1788290D02*
X90965Y1792146D01*
X89465Y1784532D02*
X90463Y1788290D01*
X87991Y1780935D02*
X89465Y1784532D01*
X86063Y1777558D02*
X87991Y1780935D01*
X83714Y1774459D02*
X86063Y1777558D01*
X80985Y1771690D02*
X83714Y1774459D01*
X77920Y1769297D02*
X80985Y1771690D01*
X76279Y1768255D02*
X77920Y1769297D01*
X74616Y1767274D02*
X76279Y1768255D01*
X71571Y1764902D02*
X74616Y1767274D01*
X68855Y1762159D02*
X71571Y1764902D01*
X66513Y1759091D02*
X68855Y1762159D01*
X65548Y1757420D02*
X66513Y1759091D01*
X64511Y1755753D02*
X65548Y1757420D01*
X62122Y1752639D02*
X64511Y1755753D01*
X59347Y1749865D02*
X62122Y1752639D01*
X56234Y1747476D02*
X59347Y1749865D01*
X52836Y1745514D02*
X56234Y1747476D01*
X49210Y1744012D02*
X52836Y1745514D01*
X45420Y1742996D02*
X49210Y1744012D01*
X41529Y1742484D02*
X45420Y1742996D01*
X39567Y1742420D02*
X41529Y1742484D01*
X31028Y1742420D02*
X39567D01*
X29062D02*
X31028D01*
X25163Y1741907D02*
X29062Y1742420D01*
X21365Y1740889D02*
X25163Y1741907D01*
X17731Y1739384D02*
X21365Y1740889D01*
X14325Y1737417D02*
X17731Y1739384D01*
X11206Y1735023D02*
X14325Y1737417D01*
X8425Y1732243D02*
X11206Y1735023D01*
X6031Y1729123D02*
X8425Y1732243D01*
X4065Y1725717D02*
X6031Y1729123D01*
X2560Y1722084D02*
X4065Y1725717D01*
X1542Y1718285D02*
X2560Y1722084D01*
X1028Y1714386D02*
X1542Y1718285D01*
X1028Y1712420D02*
Y1714386D01*
Y192420D02*
Y1712420D01*
Y190454D02*
Y192420D01*
Y190454D02*
X1542Y186555D01*
X2560Y182756D01*
X4065Y179123D01*
X6031Y175717D01*
X8425Y172597D01*
X11206Y169816D01*
X14325Y167422D01*
X17731Y165456D01*
X21365Y163951D01*
X25163Y162933D01*
X29062Y162420D01*
X31028Y162420D01*
X39567D01*
X41529Y162356D01*
X45420Y161844D01*
X49210Y160828D01*
X52836Y159326D01*
X56234Y157364D01*
X59347Y154975D01*
X62122Y152200D01*
X64511Y149087D01*
X65548Y147420D01*
X66513Y145749D01*
X68855Y142681D01*
X71571Y139938D01*
X74616Y137566D01*
X76279Y136585D01*
M02*
