G04*
G04 #@! TF.GenerationSoftware,Altium Limited,Altium Designer,20.1.10 (176)*
G04*
G04 Layer_Physical_Order=3*
G04 Layer_Color=128*
%FSLAX44Y44*%
%MOMM*%
G71*
G04*
G04 #@! TF.SameCoordinates,9A07C0F8-2EC5-444E-B81E-C5A403CEBA23*
G04*
G04*
G04 #@! TF.FilePolarity,Negative*
G04*
G01*
G75*
%ADD10C,0.2000*%
%ADD11C,0.2540*%
%ADD19C,1.2000*%
%ADD20C,1.2000*%
%ADD102C,1.5000*%
%ADD114C,1.3000*%
%ADD116C,1.0160*%
G04:AMPARAMS|DCode=117|XSize=2.624mm|YSize=2.624mm|CornerRadius=0mm|HoleSize=0mm|Usage=FLASHONLY|Rotation=0.000|XOffset=0mm|YOffset=0mm|HoleType=Round|Shape=Relief|Width=0.254mm|Gap=0.254mm|Entries=4|*
%AMTHD117*
7,0,0,2.6240,2.1160,0.2540,45*
%
%ADD117THD117*%
%ADD118C,1.4000*%
%ADD119C,1.3000*%
%ADD121C,1.4160*%
%ADD123C,0.7000*%
G04:AMPARAMS|DCode=124|XSize=1.824mm|YSize=1.824mm|CornerRadius=0mm|HoleSize=0mm|Usage=FLASHONLY|Rotation=0.000|XOffset=0mm|YOffset=0mm|HoleType=Round|Shape=Relief|Width=0.254mm|Gap=0.254mm|Entries=4|*
%AMTHD124*
7,0,0,1.8240,1.3160,0.2540,45*
%
%ADD124THD124*%
%ADD127C,4.4000*%
G04:AMPARAMS|DCode=128|XSize=2.424mm|YSize=2.424mm|CornerRadius=0mm|HoleSize=0mm|Usage=FLASHONLY|Rotation=0.000|XOffset=0mm|YOffset=0mm|HoleType=Round|Shape=Relief|Width=0.254mm|Gap=0.254mm|Entries=4|*
%AMTHD128*
7,0,0,2.4240,1.9160,0.2540,45*
%
%ADD128THD128*%
%ADD129C,3.4000*%
%ADD130C,2.7000*%
G04:AMPARAMS|DCode=131|XSize=2.424mm|YSize=2.424mm|CornerRadius=0mm|HoleSize=0mm|Usage=FLASHONLY|Rotation=0.000|XOffset=0mm|YOffset=0mm|HoleType=Round|Shape=Relief|Width=0.254mm|Gap=0.254mm|Entries=4|*
%AMTHD131*
7,0,0,2.4240,1.9160,0.2540,45*
%
%ADD131THD131*%
G04:AMPARAMS|DCode=132|XSize=2.524mm|YSize=2.524mm|CornerRadius=0mm|HoleSize=0mm|Usage=FLASHONLY|Rotation=0.000|XOffset=0mm|YOffset=0mm|HoleType=Round|Shape=Relief|Width=0.254mm|Gap=0.254mm|Entries=4|*
%AMTHD132*
7,0,0,2.5240,2.0160,0.2540,45*
%
%ADD132THD132*%
G04:AMPARAMS|DCode=133|XSize=2.224mm|YSize=2.224mm|CornerRadius=0mm|HoleSize=0mm|Usage=FLASHONLY|Rotation=0.000|XOffset=0mm|YOffset=0mm|HoleType=Round|Shape=Relief|Width=0.254mm|Gap=0.254mm|Entries=4|*
%AMTHD133*
7,0,0,2.2240,1.7160,0.2540,45*
%
%ADD133THD133*%
%ADD134C,0.9000*%
D10*
X65548Y147420D02*
G03*
X76279Y136585I25981J15000D01*
G01*
Y1768255D02*
G03*
X65548Y1757420I15250J-25835D01*
G01*
Y147420D02*
G03*
X39567Y162420I-25981J-15000D01*
G01*
Y1742420D02*
G03*
X65548Y1757420I0J30000D01*
G01*
X91028Y110750D02*
G03*
X76279Y136585I-30000J-0D01*
G01*
Y1768255D02*
G03*
X91028Y1794090I-15250J25835D01*
G01*
X1028Y192420D02*
G03*
X31028Y162420I30000J0D01*
G01*
Y1742420D02*
G03*
X1028Y1712420I0J-30000D01*
G01*
X91028Y32420D02*
G03*
X121028Y2420I30000J0D01*
G01*
Y1902420D02*
G03*
X91028Y1872420I0J-30000D01*
G01*
X2741029Y2420D02*
G03*
X2771028Y32420I0J30000D01*
G01*
X2785779Y136585D02*
G03*
X2771028Y110750I15250J-25835D01*
G01*
X2785779Y136585D02*
G03*
X2796509Y147420I-15250J25835D01*
G01*
X2822490Y162420D02*
G03*
X2796509Y147420I0J-30000D01*
G01*
X2831029Y162420D02*
G03*
X2861029Y192420I0J30000D01*
G01*
Y1712420D02*
G03*
X2831029Y1742420I-30000J0D01*
G01*
X2796509Y1757420D02*
G03*
X2822490Y1742420I25981J15000D01*
G01*
X2796509Y1757420D02*
G03*
X2785779Y1768255I-25981J-15000D01*
G01*
X2771028Y1794090D02*
G03*
X2785779Y1768255I30000J0D01*
G01*
X2771028Y1872420D02*
G03*
X2741029Y1902420I-30000J0D01*
G01*
X2771028Y32420D02*
Y110750D01*
X31028Y1742420D02*
X39567D01*
X31028Y162420D02*
X39567D01*
X91028Y1794090D02*
Y1872420D01*
Y32420D02*
Y110750D01*
X1028Y192420D02*
Y1712420D01*
X121028Y2420D02*
X2741029D01*
X2822490Y162420D02*
X2831029D01*
X2861029Y190228D02*
Y1712420D01*
X2822490Y1742420D02*
X2831029D01*
X2771028Y1794090D02*
Y1872420D01*
X121028Y1902420D02*
X2741029D01*
D11*
X372500Y593705D02*
X406898Y628103D01*
X372500Y593250D02*
Y593705D01*
X517299Y585000D02*
X519000Y583299D01*
Y315000D02*
Y583299D01*
X420000Y585000D02*
X517299D01*
X420000Y330000D02*
Y585000D01*
X760000Y255000D02*
Y1904250D01*
X2420750Y1626205D02*
Y1902750D01*
Y1626205D02*
X2538250D01*
Y1905000D01*
X0Y330000D02*
X420000D01*
X562000Y202500D02*
Y628103D01*
Y360500D02*
Y367500D01*
Y360500D02*
Y367500D01*
X406898Y628103D02*
X562000D01*
X0Y593250D02*
X372500D01*
X2200000Y253000D02*
Y1902250D01*
X2040000Y253000D02*
Y1902250D01*
X1880000Y253000D02*
Y1902250D01*
X1720000Y253000D02*
Y1902250D01*
X1560000Y253000D02*
Y1902250D01*
X1400000Y253000D02*
Y1902250D01*
X1240000Y253000D02*
Y1902250D01*
X1080000Y253000D02*
Y1902250D01*
X920000Y253000D02*
Y1902250D01*
X600250Y724500D02*
Y1902250D01*
X1500Y724500D02*
X600250D01*
X600250D02*
X600250Y448750D01*
Y252971D02*
X2357471D01*
X600250D02*
Y448750D01*
X519000Y65000D02*
X577500D01*
X2357500Y212500D02*
Y1905000D01*
X2350000Y205000D02*
X2357500Y212500D01*
X2347500Y202500D02*
X2350000Y205000D01*
X562000Y202500D02*
X2347500D01*
X579364Y65379D02*
X579743Y65000D01*
X2360000D01*
X519000D02*
Y315000D01*
X2422500Y707500D02*
X2862500D01*
X2422500D02*
X2422500Y65000D01*
X2360000D02*
X2422500D01*
D19*
X91028Y110750D02*
G03*
X76279Y136585I-30000J-0D01*
G01*
X91028Y32420D02*
G03*
X121028Y2420I30000J0D01*
G01*
X2741029D02*
G03*
X2771028Y32420I0J30000D01*
G01*
X2785779Y136585D02*
G03*
X2771028Y110750I15250J-25835D01*
G01*
X2785779Y136585D02*
G03*
X2796509Y147420I-15250J25835D01*
G01*
X2822490Y162420D02*
G03*
X2796509Y147420I0J-30000D01*
G01*
X2832995Y162420D02*
G03*
X2860803Y190228I0J27808D01*
G01*
X2861029Y1712420D02*
G03*
X2831029Y1742420I-30000J0D01*
G01*
X2796509Y1757420D02*
G03*
X2822490Y1742420I25981J15000D01*
G01*
X2796509Y1757420D02*
G03*
X2785779Y1768255I-25981J-15000D01*
G01*
X2771028Y1794090D02*
G03*
X2785779Y1768255I30000J0D01*
G01*
X2771028Y1872420D02*
G03*
X2741029Y1902420I-30000J0D01*
G01*
X121028D02*
G03*
X91028Y1872420I0J-30000D01*
G01*
X76279Y1768255D02*
G03*
X91028Y1794090I-15250J25835D01*
G01*
X76279Y1768255D02*
G03*
X65548Y1757420I15250J-25835D01*
G01*
X39567Y1742420D02*
G03*
X65548Y1757420I0J30000D01*
G01*
X31028Y1742420D02*
G03*
X1028Y1712420I0J-30000D01*
G01*
Y192420D02*
G03*
X31028Y162420I30000J0D01*
G01*
X65548Y147420D02*
G03*
X39567Y162420I-25981J-15000D01*
G01*
X65548Y147420D02*
G03*
X76279Y136585I25981J15000D01*
G01*
X91028Y110750D02*
G03*
X76279Y136585I-30000J-0D01*
G01*
X91028Y32420D02*
G03*
X121028Y2420I30000J0D01*
G01*
X2741029D02*
G03*
X2771028Y32420I0J30000D01*
G01*
X2785779Y136585D02*
G03*
X2771028Y110750I15250J-25835D01*
G01*
X2785779Y136585D02*
G03*
X2796509Y147420I-15250J25835D01*
G01*
X2822490Y162420D02*
G03*
X2796509Y147420I0J-30000D01*
G01*
X2831029Y162420D02*
G03*
X2861029Y192420I0J30000D01*
G01*
Y1712420D02*
G03*
X2831029Y1742420I-30000J0D01*
G01*
X2796509Y1757420D02*
G03*
X2822490Y1742420I25981J15000D01*
G01*
X2796509Y1757420D02*
G03*
X2785779Y1768255I-25981J-15000D01*
G01*
X2771028Y1794090D02*
G03*
X2785779Y1768255I30000J0D01*
G01*
X2771028Y1872420D02*
G03*
X2741029Y1902420I-30000J0D01*
G01*
X121028D02*
G03*
X91028Y1872420I0J-30000D01*
G01*
X76279Y1768255D02*
G03*
X91028Y1794090I-15250J25835D01*
G01*
X76279Y1768255D02*
G03*
X65548Y1757420I15250J-25835D01*
G01*
X39567Y1742420D02*
G03*
X65548Y1757420I0J30000D01*
G01*
X31028Y1742420D02*
G03*
X1028Y1712420I0J-30000D01*
G01*
Y192420D02*
G03*
X31028Y162420I30000J0D01*
G01*
X65548Y147420D02*
G03*
X39567Y162420I-25981J-15000D01*
G01*
X65548Y147420D02*
G03*
X76279Y136585I25981J15000D01*
G01*
X91028Y110750D02*
G03*
X76279Y136585I-30000J-0D01*
G01*
X91028Y32420D02*
G03*
X121028Y2420I30000J0D01*
G01*
X2741029D02*
G03*
X2771028Y32420I0J30000D01*
G01*
X2785779Y136585D02*
G03*
X2771028Y110750I15250J-25835D01*
G01*
X2785779Y136585D02*
G03*
X2796509Y147420I-15250J25835D01*
G01*
X2822490Y162420D02*
G03*
X2796509Y147420I0J-30000D01*
G01*
X2831029Y162420D02*
G03*
X2861029Y192420I0J30000D01*
G01*
Y1712420D02*
G03*
X2831029Y1742420I-30000J0D01*
G01*
X2796509Y1757420D02*
G03*
X2822490Y1742420I25981J15000D01*
G01*
X2796509Y1757420D02*
G03*
X2785779Y1768255I-25981J-15000D01*
G01*
X2771028Y1794090D02*
G03*
X2785779Y1768255I30000J0D01*
G01*
X2771028Y1872420D02*
G03*
X2741029Y1902420I-30000J0D01*
G01*
X121028D02*
G03*
X91028Y1872420I0J-30000D01*
G01*
X76279Y1768255D02*
G03*
X91028Y1794090I-15250J25835D01*
G01*
X76279Y1768255D02*
G03*
X65548Y1757420I15250J-25835D01*
G01*
X39567Y1742420D02*
G03*
X65548Y1757420I0J30000D01*
G01*
X31028Y1742420D02*
G03*
X1028Y1712420I0J-30000D01*
G01*
Y192420D02*
G03*
X31028Y162420I30000J0D01*
G01*
X65548Y147420D02*
G03*
X39567Y162420I-25981J-15000D01*
G01*
X65548Y147420D02*
G03*
X76279Y136585I25981J15000D01*
G01*
Y136585D02*
X77920Y135543D01*
X80985Y133150D01*
X83714Y130381D01*
X86063Y127282D01*
X87991Y123905D01*
X89465Y120308D01*
X90463Y116550D01*
X90965Y112694D01*
X91028Y110750D01*
X91028Y32420D01*
Y30454D02*
Y32420D01*
Y30454D02*
X91542Y26555D01*
X92560Y22756D01*
X94065Y19123D01*
X96031Y15717D01*
X98425Y12597D01*
X101206Y9816D01*
X104326Y7423D01*
X107731Y5456D01*
X111365Y3951D01*
X115163Y2933D01*
X119062Y2420D01*
X121028Y2420D01*
X2741029D01*
X2742995D01*
X2746894Y2933D01*
X2750692Y3951D01*
X2754326Y5456D01*
X2757731Y7423D01*
X2760851Y9816D01*
X2763632Y12597D01*
X2766026Y15717D01*
X2767992Y19123D01*
X2769497Y22756D01*
X2770515Y26555D01*
X2771028Y30454D01*
Y32420D01*
Y110750D01*
X2771092Y112694D01*
X2771595Y116550D01*
X2772592Y120308D01*
X2774066Y123905D01*
X2775994Y127282D01*
X2778343Y130381D01*
X2781072Y133150D01*
X2784136Y135543D01*
X2785779Y136585D01*
X2787440Y137566D01*
X2790486Y139938D01*
X2793202Y142681D01*
X2795544Y145749D01*
X2796509Y147420D01*
X2797546Y149087D01*
X2799935Y152200D01*
X2802710Y154975D01*
X2805823Y157364D01*
X2809221Y159326D01*
X2812847Y160828D01*
X2816637Y161844D01*
X2820528Y162356D01*
X2822490Y162420D01*
X2831029D01*
X2832995D01*
X2836894Y162933D01*
X2840692Y163951D01*
X2844326Y165456D01*
X2847731Y167422D01*
X2850851Y169816D01*
X2853632Y172597D01*
X2856026Y175717D01*
X2857993Y179123D01*
X2859497Y182756D01*
X2860515Y186555D01*
X2861029Y190454D01*
Y192420D01*
Y1712420D01*
Y1714386D01*
X2860515Y1718285D02*
X2861029Y1714386D01*
X2859497Y1722084D02*
X2860515Y1718285D01*
X2857993Y1725717D02*
X2859497Y1722084D01*
X2856026Y1729123D02*
X2857993Y1725717D01*
X2853632Y1732243D02*
X2856026Y1729123D01*
X2850851Y1735023D02*
X2853632Y1732243D01*
X2847731Y1737417D02*
X2850851Y1735023D01*
X2844326Y1739384D02*
X2847731Y1737417D01*
X2840692Y1740889D02*
X2844326Y1739384D01*
X2836894Y1741907D02*
X2840692Y1740889D01*
X2832995Y1742420D02*
X2836894Y1741907D01*
X2831029Y1742420D02*
X2832995D01*
X2822490D02*
X2831029D01*
X2820528Y1742484D02*
X2822490Y1742420D01*
X2816637Y1742996D02*
X2820528Y1742484D01*
X2812847Y1744012D02*
X2816637Y1742996D01*
X2809221Y1745514D02*
X2812847Y1744012D01*
X2805823Y1747476D02*
X2809221Y1745514D01*
X2802710Y1749865D02*
X2805823Y1747476D01*
X2799935Y1752639D02*
X2802710Y1749865D01*
X2797546Y1755753D02*
X2799935Y1752639D01*
X2796509Y1757420D02*
X2797546Y1755753D01*
X2795544Y1759091D02*
X2796509Y1757420D01*
X2793202Y1762159D02*
X2795544Y1759091D01*
X2790486Y1764902D02*
X2793202Y1762159D01*
X2787440Y1767274D02*
X2790486Y1764902D01*
X2785779Y1768255D02*
X2787440Y1767274D01*
X2784136Y1769297D02*
X2785779Y1768255D01*
X2781072Y1771690D02*
X2784136Y1769297D01*
X2778343Y1774459D02*
X2781072Y1771690D01*
X2775994Y1777558D02*
X2778343Y1774459D01*
X2774066Y1780935D02*
X2775994Y1777558D01*
X2772592Y1784532D02*
X2774066Y1780935D01*
X2771595Y1788290D02*
X2772592Y1784532D01*
X2771092Y1792146D02*
X2771595Y1788290D01*
X2771028Y1794090D02*
X2771092Y1792146D01*
X2771028Y1794090D02*
Y1872420D01*
Y1874386D01*
X2770515Y1878285D02*
X2771028Y1874386D01*
X2769497Y1882084D02*
X2770515Y1878285D01*
X2767992Y1885717D02*
X2769497Y1882084D01*
X2766026Y1889123D02*
X2767992Y1885717D01*
X2763632Y1892243D02*
X2766026Y1889123D01*
X2760851Y1895023D02*
X2763632Y1892243D01*
X2757731Y1897417D02*
X2760851Y1895023D01*
X2754326Y1899384D02*
X2757731Y1897417D01*
X2750692Y1900889D02*
X2754326Y1899384D01*
X2746894Y1901907D02*
X2750692Y1900889D01*
X2742995Y1902420D02*
X2746894Y1901907D01*
X2741029Y1902420D02*
X2742995D01*
X121028D02*
X2741029D01*
X119062D02*
X121028D01*
X115163Y1901907D02*
X119062Y1902420D01*
X111365Y1900889D02*
X115163Y1901907D01*
X107731Y1899384D02*
X111365Y1900889D01*
X104326Y1897417D02*
X107731Y1899384D01*
X101206Y1895023D02*
X104326Y1897417D01*
X98425Y1892243D02*
X101206Y1895023D01*
X96031Y1889123D02*
X98425Y1892243D01*
X94065Y1885717D02*
X96031Y1889123D01*
X92560Y1882084D02*
X94065Y1885717D01*
X91542Y1878285D02*
X92560Y1882084D01*
X91028Y1874386D02*
X91542Y1878285D01*
X91028Y1872420D02*
Y1874386D01*
Y1794090D02*
Y1872420D01*
X90965Y1792146D02*
X91028Y1794090D01*
X90463Y1788290D02*
X90965Y1792146D01*
X89465Y1784532D02*
X90463Y1788290D01*
X87991Y1780935D02*
X89465Y1784532D01*
X86063Y1777558D02*
X87991Y1780935D01*
X83714Y1774459D02*
X86063Y1777558D01*
X80985Y1771690D02*
X83714Y1774459D01*
X77920Y1769297D02*
X80985Y1771690D01*
X76279Y1768255D02*
X77920Y1769297D01*
X74616Y1767274D02*
X76279Y1768255D01*
X71571Y1764902D02*
X74616Y1767274D01*
X68855Y1762159D02*
X71571Y1764902D01*
X66513Y1759091D02*
X68855Y1762159D01*
X65548Y1757420D02*
X66513Y1759091D01*
X64511Y1755753D02*
X65548Y1757420D01*
X62122Y1752639D02*
X64511Y1755753D01*
X59347Y1749865D02*
X62122Y1752639D01*
X56234Y1747476D02*
X59347Y1749865D01*
X52836Y1745514D02*
X56234Y1747476D01*
X49210Y1744012D02*
X52836Y1745514D01*
X45420Y1742996D02*
X49210Y1744012D01*
X41529Y1742484D02*
X45420Y1742996D01*
X39567Y1742420D02*
X41529Y1742484D01*
X31028Y1742420D02*
X39567D01*
X29062D02*
X31028D01*
X25163Y1741907D02*
X29062Y1742420D01*
X21365Y1740889D02*
X25163Y1741907D01*
X17731Y1739384D02*
X21365Y1740889D01*
X14325Y1737417D02*
X17731Y1739384D01*
X11206Y1735023D02*
X14325Y1737417D01*
X8425Y1732243D02*
X11206Y1735023D01*
X6031Y1729123D02*
X8425Y1732243D01*
X4065Y1725717D02*
X6031Y1729123D01*
X2560Y1722084D02*
X4065Y1725717D01*
X1542Y1718285D02*
X2560Y1722084D01*
X1028Y1714386D02*
X1542Y1718285D01*
X1028Y1712420D02*
Y1714386D01*
Y192420D02*
Y1712420D01*
Y190454D02*
Y192420D01*
Y190454D02*
X1542Y186555D01*
X2560Y182756D01*
X4065Y179123D01*
X6031Y175717D01*
X8425Y172597D01*
X11206Y169816D01*
X14325Y167422D01*
X17731Y165456D01*
X21365Y163951D01*
X25163Y162933D01*
X29062Y162420D01*
X31028Y162420D01*
X39567D01*
X41529Y162356D01*
X45420Y161844D01*
X49210Y160828D01*
X52836Y159326D01*
X56234Y157364D01*
X59347Y154975D01*
X62122Y152200D01*
X64511Y149087D01*
X65548Y147420D01*
X66513Y145749D01*
X68855Y142681D01*
X71571Y139938D01*
X74616Y137566D01*
X76279Y136585D01*
X91028Y32420D02*
Y110750D01*
X121028Y2420D02*
X2741029D01*
X2771028Y32420D02*
Y110750D01*
X2796509Y147420D02*
X2796509Y147420D01*
X2822490Y162420D02*
Y162420D01*
Y162420D02*
X2831029D01*
X2861029Y192420D02*
Y1712420D01*
X2822490Y1742420D02*
X2831029D01*
X2822490Y1742420D02*
Y1742420D01*
X2796509Y1757420D02*
X2796509Y1757420D01*
X2771028Y1794090D02*
Y1872420D01*
X121028Y1902420D02*
X2741029D01*
X91028Y1794090D02*
Y1872420D01*
X31028Y1742420D02*
X39567D01*
X1028Y192420D02*
Y1712420D01*
X31028Y162420D02*
X39567D01*
X91028Y32420D02*
Y110750D01*
X121028Y2420D02*
X2741029D01*
X2771028Y32420D02*
Y110750D01*
X2796509Y147420D02*
X2796509Y147420D01*
X2822490Y162420D02*
Y162420D01*
Y162420D02*
X2831029D01*
X2861029Y192420D02*
Y1712420D01*
X2822490Y1742420D02*
X2831029D01*
X2822490Y1742420D02*
Y1742420D01*
X2796509Y1757420D02*
X2796509Y1757420D01*
X2771028Y1794090D02*
Y1872420D01*
X121028Y1902420D02*
X2741029D01*
X91028Y1794090D02*
Y1872420D01*
X31028Y1742420D02*
X39567D01*
X1028Y192420D02*
Y1712420D01*
X31028Y162420D02*
X39567D01*
X91028Y32420D02*
Y110750D01*
X121028Y2420D02*
X2741029D01*
X2771028Y32420D02*
Y110750D01*
X2796509Y147420D02*
X2796509Y147420D01*
X2822490Y162420D02*
Y162420D01*
Y162420D02*
X2831029D01*
X2861029Y192420D02*
Y1712420D01*
X2822490Y1742420D02*
X2831029D01*
X2822490Y1742420D02*
Y1742420D01*
X2796509Y1757420D02*
X2796509Y1757420D01*
X2771028Y1794090D02*
Y1872420D01*
X121028Y1902420D02*
X2741029D01*
X91028Y1794090D02*
Y1872420D01*
X31028Y1742420D02*
X39567D01*
X1028Y192420D02*
Y1712420D01*
X31028Y162420D02*
X39567D01*
D20*
X76279Y136585D02*
X77920Y135543D01*
X80985Y133150D01*
X83714Y130381D01*
X86063Y127282D01*
X87991Y123905D01*
X89465Y120308D01*
X90463Y116550D01*
X90965Y112694D01*
X91028Y110750D01*
X91028Y32420D01*
Y30454D02*
Y32420D01*
Y30454D02*
X91542Y26555D01*
X92560Y22756D01*
X94065Y19123D01*
X96031Y15717D01*
X98425Y12597D01*
X101206Y9816D01*
X104326Y7423D01*
X107731Y5456D01*
X111365Y3951D01*
X115163Y2933D01*
X119062Y2420D01*
X121028Y2420D01*
X2741029D01*
X2742995D01*
X2746894Y2933D01*
X2750692Y3951D01*
X2754326Y5456D01*
X2757731Y7423D01*
X2760851Y9816D01*
X2763632Y12597D01*
X2766026Y15717D01*
X2767992Y19123D01*
X2769497Y22756D01*
X2770515Y26555D01*
X2771028Y30454D01*
Y32420D01*
Y110750D01*
X2771092Y112694D01*
X2771595Y116550D01*
X2772592Y120308D01*
X2774066Y123905D01*
X2775994Y127282D01*
X2778343Y130381D01*
X2781072Y133150D01*
X2784136Y135543D01*
X2785779Y136585D01*
X2787440Y137566D01*
X2790486Y139938D01*
X2793202Y142681D01*
X2795544Y145749D01*
X2796509Y147420D01*
X2797546Y149087D01*
X2799935Y152200D01*
X2802710Y154975D01*
X2805823Y157364D01*
X2809221Y159326D01*
X2812847Y160828D01*
X2816637Y161844D01*
X2820528Y162356D01*
X2822490Y162420D01*
X2831029D01*
X2832995D01*
X2836894Y162933D01*
X2840692Y163951D01*
X2844326Y165456D01*
X2847731Y167422D01*
X2850851Y169816D01*
X2853632Y172597D01*
X2856026Y175717D01*
X2857993Y179123D01*
X2859497Y182756D01*
X2860515Y186555D01*
X2861029Y190454D01*
Y192420D01*
Y1712420D01*
Y1714386D01*
X2860515Y1718285D02*
X2861029Y1714386D01*
X2859497Y1722084D02*
X2860515Y1718285D01*
X2857993Y1725717D02*
X2859497Y1722084D01*
X2856026Y1729123D02*
X2857993Y1725717D01*
X2853632Y1732243D02*
X2856026Y1729123D01*
X2850851Y1735023D02*
X2853632Y1732243D01*
X2847731Y1737417D02*
X2850851Y1735023D01*
X2844326Y1739384D02*
X2847731Y1737417D01*
X2840692Y1740889D02*
X2844326Y1739384D01*
X2836894Y1741907D02*
X2840692Y1740889D01*
X2832995Y1742420D02*
X2836894Y1741907D01*
X2831029Y1742420D02*
X2832995D01*
X2822490D02*
X2831029D01*
X2820528Y1742484D02*
X2822490Y1742420D01*
X2816637Y1742996D02*
X2820528Y1742484D01*
X2812847Y1744012D02*
X2816637Y1742996D01*
X2809221Y1745514D02*
X2812847Y1744012D01*
X2805823Y1747476D02*
X2809221Y1745514D01*
X2802710Y1749865D02*
X2805823Y1747476D01*
X2799935Y1752639D02*
X2802710Y1749865D01*
X2797546Y1755753D02*
X2799935Y1752639D01*
X2796509Y1757420D02*
X2797546Y1755753D01*
X2795544Y1759091D02*
X2796509Y1757420D01*
X2793202Y1762159D02*
X2795544Y1759091D01*
X2790486Y1764902D02*
X2793202Y1762159D01*
X2787440Y1767274D02*
X2790486Y1764902D01*
X2785779Y1768255D02*
X2787440Y1767274D01*
X2784136Y1769297D02*
X2785779Y1768255D01*
X2781072Y1771690D02*
X2784136Y1769297D01*
X2778343Y1774459D02*
X2781072Y1771690D01*
X2775994Y1777558D02*
X2778343Y1774459D01*
X2774066Y1780935D02*
X2775994Y1777558D01*
X2772592Y1784532D02*
X2774066Y1780935D01*
X2771595Y1788290D02*
X2772592Y1784532D01*
X2771092Y1792146D02*
X2771595Y1788290D01*
X2771028Y1794090D02*
X2771092Y1792146D01*
X2771028Y1794090D02*
Y1872420D01*
Y1874386D01*
X2770515Y1878285D02*
X2771028Y1874386D01*
X2769497Y1882084D02*
X2770515Y1878285D01*
X2767992Y1885717D02*
X2769497Y1882084D01*
X2766026Y1889123D02*
X2767992Y1885717D01*
X2763632Y1892243D02*
X2766026Y1889123D01*
X2760851Y1895023D02*
X2763632Y1892243D01*
X2757731Y1897417D02*
X2760851Y1895023D01*
X2754326Y1899384D02*
X2757731Y1897417D01*
X2750692Y1900889D02*
X2754326Y1899384D01*
X2746894Y1901907D02*
X2750692Y1900889D01*
X2742995Y1902420D02*
X2746894Y1901907D01*
X2741029Y1902420D02*
X2742995D01*
X121028D02*
X2741029D01*
X119062D02*
X121028D01*
X115163Y1901907D02*
X119062Y1902420D01*
X111365Y1900889D02*
X115163Y1901907D01*
X107731Y1899384D02*
X111365Y1900889D01*
X104326Y1897417D02*
X107731Y1899384D01*
X101206Y1895023D02*
X104326Y1897417D01*
X98425Y1892243D02*
X101206Y1895023D01*
X96031Y1889123D02*
X98425Y1892243D01*
X94065Y1885717D02*
X96031Y1889123D01*
X92560Y1882084D02*
X94065Y1885717D01*
X91542Y1878285D02*
X92560Y1882084D01*
X91028Y1874386D02*
X91542Y1878285D01*
X91028Y1872420D02*
Y1874386D01*
Y1794090D02*
Y1872420D01*
X90965Y1792146D02*
X91028Y1794090D01*
X90463Y1788290D02*
X90965Y1792146D01*
X89465Y1784532D02*
X90463Y1788290D01*
X87991Y1780935D02*
X89465Y1784532D01*
X86063Y1777558D02*
X87991Y1780935D01*
X83714Y1774459D02*
X86063Y1777558D01*
X80985Y1771690D02*
X83714Y1774459D01*
X77920Y1769297D02*
X80985Y1771690D01*
X76279Y1768255D02*
X77920Y1769297D01*
X74616Y1767274D02*
X76279Y1768255D01*
X71571Y1764902D02*
X74616Y1767274D01*
X68855Y1762159D02*
X71571Y1764902D01*
X66513Y1759091D02*
X68855Y1762159D01*
X65548Y1757420D02*
X66513Y1759091D01*
X64511Y1755753D02*
X65548Y1757420D01*
X62122Y1752639D02*
X64511Y1755753D01*
X59347Y1749865D02*
X62122Y1752639D01*
X56234Y1747476D02*
X59347Y1749865D01*
X52836Y1745514D02*
X56234Y1747476D01*
X49210Y1744012D02*
X52836Y1745514D01*
X45420Y1742996D02*
X49210Y1744012D01*
X41529Y1742484D02*
X45420Y1742996D01*
X39567Y1742420D02*
X41529Y1742484D01*
X31028Y1742420D02*
X39567D01*
X29062D02*
X31028D01*
X25163Y1741907D02*
X29062Y1742420D01*
X21365Y1740889D02*
X25163Y1741907D01*
X17731Y1739384D02*
X21365Y1740889D01*
X14325Y1737417D02*
X17731Y1739384D01*
X11206Y1735023D02*
X14325Y1737417D01*
X8425Y1732243D02*
X11206Y1735023D01*
X6031Y1729123D02*
X8425Y1732243D01*
X4065Y1725717D02*
X6031Y1729123D01*
X2560Y1722084D02*
X4065Y1725717D01*
X1542Y1718285D02*
X2560Y1722084D01*
X1028Y1714386D02*
X1542Y1718285D01*
X1028Y1712420D02*
Y1714386D01*
Y192420D02*
Y1712420D01*
Y190454D02*
Y192420D01*
Y190454D02*
X1542Y186555D01*
X2560Y182756D01*
X4065Y179123D01*
X6031Y175717D01*
X8425Y172597D01*
X11206Y169816D01*
X14325Y167422D01*
X17731Y165456D01*
X21365Y163951D01*
X25163Y162933D01*
X29062Y162420D01*
X31028Y162420D01*
X39567D01*
X41529Y162356D01*
X45420Y161844D01*
X49210Y160828D01*
X52836Y159326D01*
X56234Y157364D01*
X59347Y154975D01*
X62122Y152200D01*
X64511Y149087D01*
X65548Y147420D01*
X66513Y145749D01*
X68855Y142681D01*
X71571Y139938D01*
X74616Y137566D01*
X76279Y136585D01*
X77920Y135543D01*
X80985Y133150D01*
X83714Y130381D01*
X86063Y127282D01*
X87991Y123905D01*
X89465Y120308D01*
X90463Y116550D01*
X90965Y112694D01*
X91028Y110750D01*
X91028Y32420D01*
Y30454D02*
Y32420D01*
Y30454D02*
X91542Y26555D01*
X92560Y22756D01*
X94065Y19123D01*
X96031Y15717D01*
X98425Y12597D01*
X101206Y9816D01*
X104326Y7423D01*
X107731Y5456D01*
X111365Y3951D01*
X115163Y2933D01*
X119062Y2420D01*
X121028Y2420D01*
X2741029D01*
X2742995D01*
X2746894Y2933D01*
X2750692Y3951D01*
X2754326Y5456D01*
X2757731Y7423D01*
X2760851Y9816D01*
X2763632Y12597D01*
X2766026Y15717D01*
X2767992Y19123D01*
X2769497Y22756D01*
X2770515Y26555D01*
X2771028Y30454D01*
Y32420D01*
Y110750D01*
X2771092Y112694D01*
X2771595Y116550D01*
X2772592Y120308D01*
X2774066Y123905D01*
X2775994Y127282D01*
X2778343Y130381D01*
X2781072Y133150D01*
X2784136Y135543D01*
X2785779Y136585D01*
X2787440Y137566D01*
X2790486Y139938D01*
X2793202Y142681D01*
X2795544Y145749D01*
X2796509Y147420D01*
X2797546Y149087D01*
X2799935Y152200D01*
X2802710Y154975D01*
X2805823Y157364D01*
X2809221Y159326D01*
X2812847Y160828D01*
X2816637Y161844D01*
X2820528Y162356D01*
X2822490Y162420D01*
X2831029D01*
X2832995D01*
X2836894Y162933D01*
X2840692Y163951D01*
X2844326Y165456D01*
X2847731Y167422D01*
X2850851Y169816D01*
X2853632Y172597D01*
X2856026Y175717D01*
X2857993Y179123D01*
X2859497Y182756D01*
X2860515Y186555D01*
X2861029Y190454D01*
Y192420D01*
Y1712420D01*
Y1714386D01*
X2860515Y1718285D02*
X2861029Y1714386D01*
X2859497Y1722084D02*
X2860515Y1718285D01*
X2857993Y1725717D02*
X2859497Y1722084D01*
X2856026Y1729123D02*
X2857993Y1725717D01*
X2853632Y1732243D02*
X2856026Y1729123D01*
X2850851Y1735023D02*
X2853632Y1732243D01*
X2847731Y1737417D02*
X2850851Y1735023D01*
X2844326Y1739384D02*
X2847731Y1737417D01*
X2840692Y1740889D02*
X2844326Y1739384D01*
X2836894Y1741907D02*
X2840692Y1740889D01*
X2832995Y1742420D02*
X2836894Y1741907D01*
X2831029Y1742420D02*
X2832995D01*
X2822490D02*
X2831029D01*
X2820528Y1742484D02*
X2822490Y1742420D01*
X2816637Y1742996D02*
X2820528Y1742484D01*
X2812847Y1744012D02*
X2816637Y1742996D01*
X2809221Y1745514D02*
X2812847Y1744012D01*
X2805823Y1747476D02*
X2809221Y1745514D01*
X2802710Y1749865D02*
X2805823Y1747476D01*
X2799935Y1752639D02*
X2802710Y1749865D01*
X2797546Y1755753D02*
X2799935Y1752639D01*
X2796509Y1757420D02*
X2797546Y1755753D01*
X2795544Y1759091D02*
X2796509Y1757420D01*
X2793202Y1762159D02*
X2795544Y1759091D01*
X2790486Y1764902D02*
X2793202Y1762159D01*
X2787440Y1767274D02*
X2790486Y1764902D01*
X2785779Y1768255D02*
X2787440Y1767274D01*
X2784136Y1769297D02*
X2785779Y1768255D01*
X2781072Y1771690D02*
X2784136Y1769297D01*
X2778343Y1774459D02*
X2781072Y1771690D01*
X2775994Y1777558D02*
X2778343Y1774459D01*
X2774066Y1780935D02*
X2775994Y1777558D01*
X2772592Y1784532D02*
X2774066Y1780935D01*
X2771595Y1788290D02*
X2772592Y1784532D01*
X2771092Y1792146D02*
X2771595Y1788290D01*
X2771028Y1794090D02*
X2771092Y1792146D01*
X2771028Y1794090D02*
Y1872420D01*
Y1874386D01*
X2770515Y1878285D02*
X2771028Y1874386D01*
X2769497Y1882084D02*
X2770515Y1878285D01*
X2767992Y1885717D02*
X2769497Y1882084D01*
X2766026Y1889123D02*
X2767992Y1885717D01*
X2763632Y1892243D02*
X2766026Y1889123D01*
X2760851Y1895023D02*
X2763632Y1892243D01*
X2757731Y1897417D02*
X2760851Y1895023D01*
X2754326Y1899384D02*
X2757731Y1897417D01*
X2750692Y1900889D02*
X2754326Y1899384D01*
X2746894Y1901907D02*
X2750692Y1900889D01*
X2742995Y1902420D02*
X2746894Y1901907D01*
X2741029Y1902420D02*
X2742995D01*
X121028D02*
X2741029D01*
X119062D02*
X121028D01*
X115163Y1901907D02*
X119062Y1902420D01*
X111365Y1900889D02*
X115163Y1901907D01*
X107731Y1899384D02*
X111365Y1900889D01*
X104326Y1897417D02*
X107731Y1899384D01*
X101206Y1895023D02*
X104326Y1897417D01*
X98425Y1892243D02*
X101206Y1895023D01*
X96031Y1889123D02*
X98425Y1892243D01*
X94065Y1885717D02*
X96031Y1889123D01*
X92560Y1882084D02*
X94065Y1885717D01*
X91542Y1878285D02*
X92560Y1882084D01*
X91028Y1874386D02*
X91542Y1878285D01*
X91028Y1872420D02*
Y1874386D01*
Y1794090D02*
Y1872420D01*
X90965Y1792146D02*
X91028Y1794090D01*
X90463Y1788290D02*
X90965Y1792146D01*
X89465Y1784532D02*
X90463Y1788290D01*
X87991Y1780935D02*
X89465Y1784532D01*
X86063Y1777558D02*
X87991Y1780935D01*
X83714Y1774459D02*
X86063Y1777558D01*
X80985Y1771690D02*
X83714Y1774459D01*
X77920Y1769297D02*
X80985Y1771690D01*
X76279Y1768255D02*
X77920Y1769297D01*
X74616Y1767274D02*
X76279Y1768255D01*
X71571Y1764902D02*
X74616Y1767274D01*
X68855Y1762159D02*
X71571Y1764902D01*
X66513Y1759091D02*
X68855Y1762159D01*
X65548Y1757420D02*
X66513Y1759091D01*
X64511Y1755753D02*
X65548Y1757420D01*
X62122Y1752639D02*
X64511Y1755753D01*
X59347Y1749865D02*
X62122Y1752639D01*
X56234Y1747476D02*
X59347Y1749865D01*
X52836Y1745514D02*
X56234Y1747476D01*
X49210Y1744012D02*
X52836Y1745514D01*
X45420Y1742996D02*
X49210Y1744012D01*
X41529Y1742484D02*
X45420Y1742996D01*
X39567Y1742420D02*
X41529Y1742484D01*
X31028Y1742420D02*
X39567D01*
X29062D02*
X31028D01*
X25163Y1741907D02*
X29062Y1742420D01*
X21365Y1740889D02*
X25163Y1741907D01*
X17731Y1739384D02*
X21365Y1740889D01*
X14325Y1737417D02*
X17731Y1739384D01*
X11206Y1735023D02*
X14325Y1737417D01*
X8425Y1732243D02*
X11206Y1735023D01*
X6031Y1729123D02*
X8425Y1732243D01*
X4065Y1725717D02*
X6031Y1729123D01*
X2560Y1722084D02*
X4065Y1725717D01*
X1542Y1718285D02*
X2560Y1722084D01*
X1028Y1714386D02*
X1542Y1718285D01*
X1028Y1712420D02*
Y1714386D01*
Y192420D02*
Y1712420D01*
Y190454D02*
Y192420D01*
Y190454D02*
X1542Y186555D01*
X2560Y182756D01*
X4065Y179123D01*
X6031Y175717D01*
X8425Y172597D01*
X11206Y169816D01*
X14325Y167422D01*
X17731Y165456D01*
X21365Y163951D01*
X25163Y162933D01*
X29062Y162420D01*
X31028Y162420D01*
X39567D01*
X41529Y162356D01*
X45420Y161844D01*
X49210Y160828D01*
X52836Y159326D01*
X56234Y157364D01*
X59347Y154975D01*
X62122Y152200D01*
X64511Y149087D01*
X65548Y147420D01*
X66513Y145749D01*
X68855Y142681D01*
X71571Y139938D01*
X74616Y137566D01*
X76279Y136585D01*
X77920Y135543D01*
X80985Y133150D01*
X83714Y130381D01*
X86063Y127282D01*
X87991Y123905D01*
X89465Y120308D01*
X90463Y116550D01*
X90965Y112694D01*
X91028Y110750D01*
X91028Y32420D01*
Y30454D02*
Y32420D01*
Y30454D02*
X91542Y26555D01*
X92560Y22756D01*
X94065Y19123D01*
X96031Y15717D01*
X98425Y12597D01*
X101206Y9816D01*
X104326Y7423D01*
X107731Y5456D01*
X111365Y3951D01*
X115163Y2933D01*
X119062Y2420D01*
X121028Y2420D01*
X2741029D01*
X2742995D01*
X2746894Y2933D01*
X2750692Y3951D01*
X2754326Y5456D01*
X2757731Y7423D01*
X2760851Y9816D01*
X2763632Y12597D01*
X2766026Y15717D01*
X2767992Y19123D01*
X2769497Y22756D01*
X2770515Y26555D01*
X2771028Y30454D01*
Y32420D01*
Y110750D01*
X2771092Y112694D01*
X2771595Y116550D01*
X2772592Y120308D01*
X2774066Y123905D01*
X2775994Y127282D01*
X2778343Y130381D01*
X2781072Y133150D01*
X2784136Y135543D01*
X2785779Y136585D01*
X2787440Y137566D01*
X2790486Y139938D01*
X2793202Y142681D01*
X2795544Y145749D01*
X2796509Y147420D01*
X2797546Y149087D01*
X2799935Y152200D01*
X2802710Y154975D01*
X2805823Y157364D01*
X2809221Y159326D01*
X2812847Y160828D01*
X2816637Y161844D01*
X2820528Y162356D01*
X2822490Y162420D01*
X2831029D01*
X2832995D01*
X2836894Y162933D01*
X2840692Y163951D01*
X2844326Y165456D01*
X2847731Y167422D01*
X2850851Y169816D01*
X2853632Y172597D01*
X2856026Y175717D01*
X2857993Y179123D01*
X2859497Y182756D01*
X2860515Y186555D01*
X2861029Y190454D01*
Y192420D01*
Y1712420D01*
Y1714386D01*
X2860515Y1718285D02*
X2861029Y1714386D01*
X2859497Y1722084D02*
X2860515Y1718285D01*
X2857993Y1725717D02*
X2859497Y1722084D01*
X2856026Y1729123D02*
X2857993Y1725717D01*
X2853632Y1732243D02*
X2856026Y1729123D01*
X2850851Y1735023D02*
X2853632Y1732243D01*
X2847731Y1737417D02*
X2850851Y1735023D01*
X2844326Y1739384D02*
X2847731Y1737417D01*
X2840692Y1740889D02*
X2844326Y1739384D01*
X2836894Y1741907D02*
X2840692Y1740889D01*
X2832995Y1742420D02*
X2836894Y1741907D01*
X2831029Y1742420D02*
X2832995D01*
X2822490D02*
X2831029D01*
X2820528Y1742484D02*
X2822490Y1742420D01*
X2816637Y1742996D02*
X2820528Y1742484D01*
X2812847Y1744012D02*
X2816637Y1742996D01*
X2809221Y1745514D02*
X2812847Y1744012D01*
X2805823Y1747476D02*
X2809221Y1745514D01*
X2802710Y1749865D02*
X2805823Y1747476D01*
X2799935Y1752639D02*
X2802710Y1749865D01*
X2797546Y1755753D02*
X2799935Y1752639D01*
X2796509Y1757420D02*
X2797546Y1755753D01*
X2795544Y1759091D02*
X2796509Y1757420D01*
X2793202Y1762159D02*
X2795544Y1759091D01*
X2790486Y1764902D02*
X2793202Y1762159D01*
X2787440Y1767274D02*
X2790486Y1764902D01*
X2785779Y1768255D02*
X2787440Y1767274D01*
X2784136Y1769297D02*
X2785779Y1768255D01*
X2781072Y1771690D02*
X2784136Y1769297D01*
X2778343Y1774459D02*
X2781072Y1771690D01*
X2775994Y1777558D02*
X2778343Y1774459D01*
X2774066Y1780935D02*
X2775994Y1777558D01*
X2772592Y1784532D02*
X2774066Y1780935D01*
X2771595Y1788290D02*
X2772592Y1784532D01*
X2771092Y1792146D02*
X2771595Y1788290D01*
X2771028Y1794090D02*
X2771092Y1792146D01*
X2771028Y1794090D02*
Y1872420D01*
Y1874386D01*
X2770515Y1878285D02*
X2771028Y1874386D01*
X2769497Y1882084D02*
X2770515Y1878285D01*
X2767992Y1885717D02*
X2769497Y1882084D01*
X2766026Y1889123D02*
X2767992Y1885717D01*
X2763632Y1892243D02*
X2766026Y1889123D01*
X2760851Y1895023D02*
X2763632Y1892243D01*
X2757731Y1897417D02*
X2760851Y1895023D01*
X2754326Y1899384D02*
X2757731Y1897417D01*
X2750692Y1900889D02*
X2754326Y1899384D01*
X2746894Y1901907D02*
X2750692Y1900889D01*
X2742995Y1902420D02*
X2746894Y1901907D01*
X2741029Y1902420D02*
X2742995D01*
X121028D02*
X2741029D01*
X119062D02*
X121028D01*
X115163Y1901907D02*
X119062Y1902420D01*
X111365Y1900889D02*
X115163Y1901907D01*
X107731Y1899384D02*
X111365Y1900889D01*
X104326Y1897417D02*
X107731Y1899384D01*
X101206Y1895023D02*
X104326Y1897417D01*
X98425Y1892243D02*
X101206Y1895023D01*
X96031Y1889123D02*
X98425Y1892243D01*
X94065Y1885717D02*
X96031Y1889123D01*
X92560Y1882084D02*
X94065Y1885717D01*
X91542Y1878285D02*
X92560Y1882084D01*
X91028Y1874386D02*
X91542Y1878285D01*
X91028Y1872420D02*
Y1874386D01*
Y1794090D02*
Y1872420D01*
X90965Y1792146D02*
X91028Y1794090D01*
X90463Y1788290D02*
X90965Y1792146D01*
X89465Y1784532D02*
X90463Y1788290D01*
X87991Y1780935D02*
X89465Y1784532D01*
X86063Y1777558D02*
X87991Y1780935D01*
X83714Y1774459D02*
X86063Y1777558D01*
X80985Y1771690D02*
X83714Y1774459D01*
X77920Y1769297D02*
X80985Y1771690D01*
X76279Y1768255D02*
X77920Y1769297D01*
X74616Y1767274D02*
X76279Y1768255D01*
X71571Y1764902D02*
X74616Y1767274D01*
X68855Y1762159D02*
X71571Y1764902D01*
X66513Y1759091D02*
X68855Y1762159D01*
X65548Y1757420D02*
X66513Y1759091D01*
X64511Y1755753D02*
X65548Y1757420D01*
X62122Y1752639D02*
X64511Y1755753D01*
X59347Y1749865D02*
X62122Y1752639D01*
X56234Y1747476D02*
X59347Y1749865D01*
X52836Y1745514D02*
X56234Y1747476D01*
X49210Y1744012D02*
X52836Y1745514D01*
X45420Y1742996D02*
X49210Y1744012D01*
X41529Y1742484D02*
X45420Y1742996D01*
X39567Y1742420D02*
X41529Y1742484D01*
X31028Y1742420D02*
X39567D01*
X29062D02*
X31028D01*
X25163Y1741907D02*
X29062Y1742420D01*
X21365Y1740889D02*
X25163Y1741907D01*
X17731Y1739384D02*
X21365Y1740889D01*
X14325Y1737417D02*
X17731Y1739384D01*
X11206Y1735023D02*
X14325Y1737417D01*
X8425Y1732243D02*
X11206Y1735023D01*
X6031Y1729123D02*
X8425Y1732243D01*
X4065Y1725717D02*
X6031Y1729123D01*
X2560Y1722084D02*
X4065Y1725717D01*
X1542Y1718285D02*
X2560Y1722084D01*
X1028Y1714386D02*
X1542Y1718285D01*
X1028Y1712420D02*
Y1714386D01*
Y192420D02*
Y1712420D01*
Y190454D02*
Y192420D01*
Y190454D02*
X1542Y186555D01*
X2560Y182756D01*
X4065Y179123D01*
X6031Y175717D01*
X8425Y172597D01*
X11206Y169816D01*
X14325Y167422D01*
X17731Y165456D01*
X21365Y163951D01*
X25163Y162933D01*
X29062Y162420D01*
X31028Y162420D01*
X39567D01*
X41529Y162356D01*
X45420Y161844D01*
X49210Y160828D01*
X52836Y159326D01*
X56234Y157364D01*
X59347Y154975D01*
X62122Y152200D01*
X64511Y149087D01*
X65548Y147420D01*
X66513Y145749D01*
X68855Y142681D01*
X71571Y139938D01*
X74616Y137566D01*
X76279Y136585D01*
X77920Y135543D01*
X80985Y133150D01*
X83714Y130381D01*
X86063Y127282D01*
X87991Y123905D01*
X89465Y120308D01*
X90463Y116550D01*
X90965Y112694D01*
X91028Y110750D01*
X91028Y32420D01*
Y30454D02*
Y32420D01*
Y30454D02*
X91542Y26555D01*
X92560Y22756D01*
X94065Y19123D01*
X96031Y15717D01*
X98425Y12597D01*
X101206Y9816D01*
X104326Y7423D01*
X107731Y5456D01*
X111365Y3951D01*
X115163Y2933D01*
X119062Y2420D01*
X121028Y2420D01*
X2741029D01*
X2742995D01*
X2746894Y2933D01*
X2750692Y3951D01*
X2754326Y5456D01*
X2757731Y7423D01*
X2760851Y9816D01*
X2763632Y12597D01*
X2766026Y15717D01*
X2767992Y19123D01*
X2769497Y22756D01*
X2770515Y26555D01*
X2771028Y30454D01*
Y32420D01*
Y110750D01*
X2771092Y112694D01*
X2771595Y116550D01*
X2772592Y120308D01*
X2774066Y123905D01*
X2775994Y127282D01*
X2778343Y130381D01*
X2781072Y133150D01*
X2784136Y135543D01*
X2785779Y136585D01*
X2787440Y137566D01*
X2790486Y139938D01*
X2793202Y142681D01*
X2795544Y145749D01*
X2796509Y147420D01*
X2797546Y149087D01*
X2799935Y152200D01*
X2802710Y154975D01*
X2805823Y157364D01*
X2809221Y159326D01*
X2812847Y160828D01*
X2816637Y161844D01*
X2820528Y162356D01*
X2822490Y162420D01*
X2831029D01*
X2832995D02*
X2836894Y162933D01*
X2840692Y163951D01*
X2844326Y165456D01*
X2847731Y167422D01*
X2850851Y169816D01*
X2853632Y172597D01*
X2856026Y175717D01*
X2857993Y179123D01*
X2859497Y182756D01*
X2860515Y186555D01*
X2861029Y190454D01*
Y192420D01*
Y1712420D01*
Y1714386D01*
X2860515Y1718285D02*
X2861029Y1714386D01*
X2859497Y1722084D02*
X2860515Y1718285D01*
X2857993Y1725717D02*
X2859497Y1722084D01*
X2856026Y1729123D02*
X2857993Y1725717D01*
X2853632Y1732243D02*
X2856026Y1729123D01*
X2850851Y1735023D02*
X2853632Y1732243D01*
X2847731Y1737417D02*
X2850851Y1735023D01*
X2844326Y1739384D02*
X2847731Y1737417D01*
X2840692Y1740889D02*
X2844326Y1739384D01*
X2836894Y1741907D02*
X2840692Y1740889D01*
X2832995Y1742420D02*
X2836894Y1741907D01*
X2831029Y1742420D02*
X2832995D01*
X2822490D02*
X2831029D01*
X2820528Y1742484D02*
X2822490Y1742420D01*
X2816637Y1742996D02*
X2820528Y1742484D01*
X2812847Y1744012D02*
X2816637Y1742996D01*
X2809221Y1745514D02*
X2812847Y1744012D01*
X2805823Y1747476D02*
X2809221Y1745514D01*
X2802710Y1749865D02*
X2805823Y1747476D01*
X2799935Y1752639D02*
X2802710Y1749865D01*
X2797546Y1755753D02*
X2799935Y1752639D01*
X2796509Y1757420D02*
X2797546Y1755753D01*
X2795544Y1759091D02*
X2796509Y1757420D01*
X2793202Y1762159D02*
X2795544Y1759091D01*
X2790486Y1764902D02*
X2793202Y1762159D01*
X2787440Y1767274D02*
X2790486Y1764902D01*
X2785779Y1768255D02*
X2787440Y1767274D01*
X2784136Y1769297D02*
X2785779Y1768255D01*
X2781072Y1771690D02*
X2784136Y1769297D01*
X2778343Y1774459D02*
X2781072Y1771690D01*
X2775994Y1777558D02*
X2778343Y1774459D01*
X2774066Y1780935D02*
X2775994Y1777558D01*
X2772592Y1784532D02*
X2774066Y1780935D01*
X2771595Y1788290D02*
X2772592Y1784532D01*
X2771092Y1792146D02*
X2771595Y1788290D01*
X2771028Y1794090D02*
X2771092Y1792146D01*
X2771028Y1794090D02*
Y1872420D01*
Y1874386D01*
X2770515Y1878285D02*
X2771028Y1874386D01*
X2769497Y1882084D02*
X2770515Y1878285D01*
X2767992Y1885717D02*
X2769497Y1882084D01*
X2766026Y1889123D02*
X2767992Y1885717D01*
X2763632Y1892243D02*
X2766026Y1889123D01*
X2760851Y1895023D02*
X2763632Y1892243D01*
X2757731Y1897417D02*
X2760851Y1895023D01*
X2754326Y1899384D02*
X2757731Y1897417D01*
X2750692Y1900889D02*
X2754326Y1899384D01*
X2746894Y1901907D02*
X2750692Y1900889D01*
X2742995Y1902420D02*
X2746894Y1901907D01*
X2741029Y1902420D02*
X2742995D01*
X121028D02*
X2741029D01*
X119062D02*
X121028D01*
X115163Y1901907D02*
X119062Y1902420D01*
X111365Y1900889D02*
X115163Y1901907D01*
X107731Y1899384D02*
X111365Y1900889D01*
X104326Y1897417D02*
X107731Y1899384D01*
X101206Y1895023D02*
X104326Y1897417D01*
X98425Y1892243D02*
X101206Y1895023D01*
X96031Y1889123D02*
X98425Y1892243D01*
X94065Y1885717D02*
X96031Y1889123D01*
X92560Y1882084D02*
X94065Y1885717D01*
X91542Y1878285D02*
X92560Y1882084D01*
X91028Y1874386D02*
X91542Y1878285D01*
X91028Y1872420D02*
Y1874386D01*
Y1794090D02*
Y1872420D01*
X90965Y1792146D02*
X91028Y1794090D01*
X90463Y1788290D02*
X90965Y1792146D01*
X89465Y1784532D02*
X90463Y1788290D01*
X87991Y1780935D02*
X89465Y1784532D01*
X86063Y1777558D02*
X87991Y1780935D01*
X83714Y1774459D02*
X86063Y1777558D01*
X80985Y1771690D02*
X83714Y1774459D01*
X77920Y1769297D02*
X80985Y1771690D01*
X76279Y1768255D02*
X77920Y1769297D01*
X74616Y1767274D02*
X76279Y1768255D01*
X71571Y1764902D02*
X74616Y1767274D01*
X68855Y1762159D02*
X71571Y1764902D01*
X66513Y1759091D02*
X68855Y1762159D01*
X65548Y1757420D02*
X66513Y1759091D01*
X64511Y1755753D02*
X65548Y1757420D01*
X62122Y1752639D02*
X64511Y1755753D01*
X59347Y1749865D02*
X62122Y1752639D01*
X56234Y1747476D02*
X59347Y1749865D01*
X52836Y1745514D02*
X56234Y1747476D01*
X49210Y1744012D02*
X52836Y1745514D01*
X45420Y1742996D02*
X49210Y1744012D01*
X41529Y1742484D02*
X45420Y1742996D01*
X39567Y1742420D02*
X41529Y1742484D01*
X31028Y1742420D02*
X39567D01*
X29062D02*
X31028D01*
X25163Y1741907D02*
X29062Y1742420D01*
X21365Y1740889D02*
X25163Y1741907D01*
X17731Y1739384D02*
X21365Y1740889D01*
X14325Y1737417D02*
X17731Y1739384D01*
X11206Y1735023D02*
X14325Y1737417D01*
X8425Y1732243D02*
X11206Y1735023D01*
X6031Y1729123D02*
X8425Y1732243D01*
X4065Y1725717D02*
X6031Y1729123D01*
X2560Y1722084D02*
X4065Y1725717D01*
X1542Y1718285D02*
X2560Y1722084D01*
X1028Y1714386D02*
X1542Y1718285D01*
X1028Y1712420D02*
Y1714386D01*
Y192420D02*
Y1712420D01*
Y190454D02*
Y192420D01*
Y190454D02*
X1542Y186555D01*
X2560Y182756D01*
X4065Y179123D01*
X6031Y175717D01*
X8425Y172597D01*
X11206Y169816D01*
X14325Y167422D01*
X17731Y165456D01*
X21365Y163951D01*
X25163Y162933D01*
X29062Y162420D01*
X31028Y162420D01*
X39567D01*
X41529Y162356D01*
X45420Y161844D01*
X49210Y160828D01*
X52836Y159326D01*
X56234Y157364D01*
X59347Y154975D01*
X62122Y152200D01*
X64511Y149087D01*
X65548Y147420D01*
X66513Y145749D01*
X68855Y142681D01*
X71571Y139938D01*
X74616Y137566D01*
X76279Y136585D01*
D102*
X1985190Y530800D02*
D03*
X2010590D02*
D03*
X1985190Y505400D02*
D03*
X2010590D02*
D03*
X1985100Y1825600D02*
D03*
X2010500Y1876400D02*
D03*
X1985100D02*
D03*
X2010500Y1825600D02*
D03*
Y1749400D02*
D03*
X1985100D02*
D03*
X2010500Y1774800D02*
D03*
X1985100D02*
D03*
X2010500Y1800200D02*
D03*
X1985100D02*
D03*
Y1267500D02*
D03*
X2010500D02*
D03*
Y1292900D02*
D03*
X1985100Y1318300D02*
D03*
X2010500D02*
D03*
X1985100Y1343700D02*
D03*
X2010500D02*
D03*
X1985100Y1292900D02*
D03*
X2170590Y505400D02*
D03*
X2145190D02*
D03*
X2170590Y530800D02*
D03*
X2145190D02*
D03*
X2145100Y1800200D02*
D03*
X2170500D02*
D03*
X2145100Y1774800D02*
D03*
X2170500D02*
D03*
X2145100Y1749400D02*
D03*
X2170500D02*
D03*
Y1825600D02*
D03*
X2145100Y1876400D02*
D03*
X2170500D02*
D03*
X2145100Y1825600D02*
D03*
Y1292900D02*
D03*
X2170500Y1343700D02*
D03*
X2145100D02*
D03*
X2170500Y1318300D02*
D03*
X2145100D02*
D03*
X2170500Y1292900D02*
D03*
Y1267500D02*
D03*
X2145100D02*
D03*
X2305190Y530800D02*
D03*
X2330590D02*
D03*
X2305190Y505400D02*
D03*
X2330590D02*
D03*
X2305100Y1825600D02*
D03*
X2330500Y1876400D02*
D03*
X2305100D02*
D03*
X2330500Y1825600D02*
D03*
Y1749400D02*
D03*
X2305100D02*
D03*
X2330500Y1774800D02*
D03*
X2305100D02*
D03*
X2330500Y1800200D02*
D03*
X2305100D02*
D03*
Y1267500D02*
D03*
X2330500D02*
D03*
Y1292900D02*
D03*
X2305100Y1318300D02*
D03*
X2330500D02*
D03*
X2305100Y1343700D02*
D03*
X2330500D02*
D03*
X2305100Y1292900D02*
D03*
X2437500Y642592D02*
D03*
X2462900D02*
D03*
Y667992D02*
D03*
X2488300Y642592D02*
D03*
Y667992D02*
D03*
X2412100Y642592D02*
D03*
Y667992D02*
D03*
X2564600Y642590D02*
D03*
X2539200Y667990D02*
D03*
Y642590D02*
D03*
X705190Y530800D02*
D03*
X730590D02*
D03*
X705190Y505400D02*
D03*
X730590D02*
D03*
X890590D02*
D03*
X865190D02*
D03*
X890590Y530800D02*
D03*
X865190D02*
D03*
X1025190D02*
D03*
X1050590D02*
D03*
X1025190Y505400D02*
D03*
X1050590D02*
D03*
X1210590D02*
D03*
X1185190D02*
D03*
X1210590Y530800D02*
D03*
X1185190D02*
D03*
X1345190D02*
D03*
X1370590D02*
D03*
X1345190Y505400D02*
D03*
X1370590D02*
D03*
X1530590D02*
D03*
X1505190D02*
D03*
X1530590Y530800D02*
D03*
X1505190D02*
D03*
X1665190D02*
D03*
X1690590D02*
D03*
X1665190Y505400D02*
D03*
X1690590D02*
D03*
X1850590D02*
D03*
X1825190D02*
D03*
X1850590Y530800D02*
D03*
X1825190D02*
D03*
X705100Y1292900D02*
D03*
X730500Y1343700D02*
D03*
X705100D02*
D03*
X730500Y1318300D02*
D03*
X705100D02*
D03*
X730500Y1292900D02*
D03*
Y1267500D02*
D03*
X705100D02*
D03*
X865100D02*
D03*
X890500D02*
D03*
Y1292900D02*
D03*
X865100Y1318300D02*
D03*
X890500D02*
D03*
X865100Y1343700D02*
D03*
X890500D02*
D03*
X865100Y1292900D02*
D03*
X1025100D02*
D03*
X1050500Y1343700D02*
D03*
X1025100D02*
D03*
X1050500Y1318300D02*
D03*
X1025100D02*
D03*
X1050500Y1292900D02*
D03*
Y1267500D02*
D03*
X1025100D02*
D03*
X1345100D02*
D03*
X1370500D02*
D03*
Y1292900D02*
D03*
X1345100Y1318300D02*
D03*
X1370500D02*
D03*
X1345100Y1343700D02*
D03*
X1370500D02*
D03*
X1345100Y1292900D02*
D03*
X1505100D02*
D03*
X1530500Y1343700D02*
D03*
X1505100D02*
D03*
X1530500Y1318300D02*
D03*
X1505100D02*
D03*
X1530500Y1292900D02*
D03*
Y1267500D02*
D03*
X1505100D02*
D03*
X1665100D02*
D03*
X1690500D02*
D03*
Y1292900D02*
D03*
X1665100Y1318300D02*
D03*
X1690500D02*
D03*
X1665100Y1343700D02*
D03*
X1690500D02*
D03*
X1665100Y1292900D02*
D03*
X1825100D02*
D03*
X1850500Y1343700D02*
D03*
X1825100D02*
D03*
X1850500Y1318300D02*
D03*
X1825100D02*
D03*
X1850500Y1292900D02*
D03*
Y1267500D02*
D03*
X1825100D02*
D03*
X705100Y1825600D02*
D03*
X730500Y1876400D02*
D03*
X705100D02*
D03*
X730500Y1825600D02*
D03*
Y1749400D02*
D03*
X705100D02*
D03*
X730500Y1774800D02*
D03*
X705100D02*
D03*
X730500Y1800200D02*
D03*
X705100D02*
D03*
X865100D02*
D03*
X890500D02*
D03*
X865100Y1774800D02*
D03*
X890500D02*
D03*
X865100Y1749400D02*
D03*
X890500D02*
D03*
Y1825600D02*
D03*
X865100Y1876400D02*
D03*
X890500D02*
D03*
X865100Y1825600D02*
D03*
X1025100D02*
D03*
X1050500Y1876400D02*
D03*
X1025100D02*
D03*
X1050500Y1825600D02*
D03*
Y1749400D02*
D03*
X1025100D02*
D03*
X1050500Y1774800D02*
D03*
X1025100D02*
D03*
X1050500Y1800200D02*
D03*
X1025100D02*
D03*
X1185100D02*
D03*
X1210500D02*
D03*
X1185100Y1774800D02*
D03*
X1210500D02*
D03*
X1185100Y1749400D02*
D03*
X1210500D02*
D03*
Y1825600D02*
D03*
X1185100Y1876400D02*
D03*
X1210500D02*
D03*
X1185100Y1825600D02*
D03*
X1345100D02*
D03*
X1370500Y1876400D02*
D03*
X1345100D02*
D03*
X1370500Y1825600D02*
D03*
Y1749400D02*
D03*
X1345100D02*
D03*
X1370500Y1774800D02*
D03*
X1345100D02*
D03*
X1370500Y1800200D02*
D03*
X1345100D02*
D03*
X1505100D02*
D03*
X1530500D02*
D03*
X1505100Y1774800D02*
D03*
X1530500D02*
D03*
X1505100Y1749400D02*
D03*
X1530500D02*
D03*
Y1825600D02*
D03*
X1505100Y1876400D02*
D03*
X1530500D02*
D03*
X1505100Y1825600D02*
D03*
X1665100D02*
D03*
X1690500Y1876400D02*
D03*
X1665100D02*
D03*
X1690500Y1825600D02*
D03*
Y1749400D02*
D03*
X1665100D02*
D03*
X1690500Y1774800D02*
D03*
X1665100D02*
D03*
X1690500Y1800200D02*
D03*
X1665100D02*
D03*
X1825100D02*
D03*
X1850500D02*
D03*
X1825100Y1774800D02*
D03*
X1850500D02*
D03*
X1825100Y1749400D02*
D03*
X1850500D02*
D03*
Y1825600D02*
D03*
X1825100Y1876400D02*
D03*
X1850500D02*
D03*
X1825100Y1825600D02*
D03*
X1185100Y1267500D02*
D03*
X1210500D02*
D03*
Y1292900D02*
D03*
X1185100Y1318300D02*
D03*
X1210500D02*
D03*
X1185100Y1343700D02*
D03*
X1210500D02*
D03*
X1185100Y1292900D02*
D03*
X2774600Y220000D02*
D03*
X2800000D02*
D03*
Y296200D02*
D03*
X2774600Y245400D02*
D03*
X2800000D02*
D03*
X2774600Y270800D02*
D03*
X2800000D02*
D03*
X2774600Y296200D02*
D03*
X2800000Y372400D02*
D03*
X2774600Y321600D02*
D03*
X2800000D02*
D03*
X2774600Y347000D02*
D03*
X2800000D02*
D03*
X2774600Y448600D02*
D03*
X2800000D02*
D03*
X2774600Y423200D02*
D03*
X2800000D02*
D03*
X2774600Y397800D02*
D03*
X2800000D02*
D03*
D114*
X2507300Y1833000D02*
D03*
X2532300D02*
D03*
Y1813000D02*
D03*
D116*
X76279Y136585D02*
X77920Y135543D01*
X80985Y133150D01*
X83714Y130381D01*
X86063Y127282D01*
X87991Y123905D01*
X89465Y120308D01*
X90463Y116550D01*
X90965Y112694D01*
X91028Y110750D01*
X91028Y32420D01*
Y30454D02*
Y32420D01*
Y30454D02*
X91542Y26555D01*
X92560Y22756D01*
X94065Y19123D01*
X96031Y15717D01*
X98425Y12597D01*
X101206Y9816D01*
X104326Y7423D01*
X107731Y5456D01*
X111365Y3951D01*
X115163Y2933D01*
X119062Y2420D01*
X121028Y2420D01*
X2741029D01*
X2742995D01*
X2746894Y2933D01*
X2750692Y3951D01*
X2754326Y5456D01*
X2757731Y7423D01*
X2760851Y9816D01*
X2763632Y12597D01*
X2766026Y15717D01*
X2767992Y19123D01*
X2769497Y22756D01*
X2770515Y26555D01*
X2771028Y30454D01*
Y32420D01*
Y110750D01*
X2771092Y112694D01*
X2771595Y116550D01*
X2772592Y120308D01*
X2774066Y123905D01*
X2775994Y127282D01*
X2778343Y130381D01*
X2781072Y133150D01*
X2784136Y135543D01*
X2785779Y136585D01*
X2787440Y137566D01*
X2790486Y139938D01*
X2793202Y142681D01*
X2795544Y145749D01*
X2796509Y147420D01*
X2797546Y149087D01*
X2799935Y152200D01*
X2802710Y154975D01*
X2805823Y157364D01*
X2809221Y159326D01*
X2812847Y160828D01*
X2816637Y161844D01*
X2820528Y162356D01*
X2822490Y162420D01*
X2831029D01*
X2832995D01*
X2836894Y162933D01*
X2840692Y163951D01*
X2844326Y165456D01*
X2847731Y167422D01*
X2850851Y169816D01*
X2853632Y172597D01*
X2856026Y175717D01*
X2857993Y179123D01*
X2859497Y182756D01*
X2860515Y186555D01*
X2861029Y190454D01*
Y192420D01*
Y1712420D01*
Y1714386D01*
X2860515Y1718285D02*
X2861029Y1714386D01*
X2859497Y1722084D02*
X2860515Y1718285D01*
X2857993Y1725717D02*
X2859497Y1722084D01*
X2856026Y1729123D02*
X2857993Y1725717D01*
X2853632Y1732243D02*
X2856026Y1729123D01*
X2850851Y1735023D02*
X2853632Y1732243D01*
X2847731Y1737417D02*
X2850851Y1735023D01*
X2844326Y1739384D02*
X2847731Y1737417D01*
X2840692Y1740889D02*
X2844326Y1739384D01*
X2836894Y1741907D02*
X2840692Y1740889D01*
X2832995Y1742420D02*
X2836894Y1741907D01*
X2831029Y1742420D02*
X2832995D01*
X2822490D02*
X2831029D01*
X2820528Y1742484D02*
X2822490Y1742420D01*
X2816637Y1742996D02*
X2820528Y1742484D01*
X2812847Y1744012D02*
X2816637Y1742996D01*
X2809221Y1745514D02*
X2812847Y1744012D01*
X2805823Y1747476D02*
X2809221Y1745514D01*
X2802710Y1749865D02*
X2805823Y1747476D01*
X2799935Y1752639D02*
X2802710Y1749865D01*
X2797546Y1755753D02*
X2799935Y1752639D01*
X2796509Y1757420D02*
X2797546Y1755753D01*
X2795544Y1759091D02*
X2796509Y1757420D01*
X2793202Y1762159D02*
X2795544Y1759091D01*
X2790486Y1764902D02*
X2793202Y1762159D01*
X2787440Y1767274D02*
X2790486Y1764902D01*
X2785779Y1768255D02*
X2787440Y1767274D01*
X2784136Y1769297D02*
X2785779Y1768255D01*
X2781072Y1771690D02*
X2784136Y1769297D01*
X2778343Y1774459D02*
X2781072Y1771690D01*
X2775994Y1777558D02*
X2778343Y1774459D01*
X2774066Y1780935D02*
X2775994Y1777558D01*
X2772592Y1784532D02*
X2774066Y1780935D01*
X2771595Y1788290D02*
X2772592Y1784532D01*
X2771092Y1792146D02*
X2771595Y1788290D01*
X2771028Y1794090D02*
X2771092Y1792146D01*
X2771028Y1794090D02*
Y1872420D01*
Y1874386D01*
X2770515Y1878285D02*
X2771028Y1874386D01*
X2769497Y1882084D02*
X2770515Y1878285D01*
X2767992Y1885717D02*
X2769497Y1882084D01*
X2766026Y1889123D02*
X2767992Y1885717D01*
X2763632Y1892243D02*
X2766026Y1889123D01*
X2760851Y1895023D02*
X2763632Y1892243D01*
X2757731Y1897417D02*
X2760851Y1895023D01*
X2754326Y1899384D02*
X2757731Y1897417D01*
X2750692Y1900889D02*
X2754326Y1899384D01*
X2746894Y1901907D02*
X2750692Y1900889D01*
X2742995Y1902420D02*
X2746894Y1901907D01*
X2741029Y1902420D02*
X2742995D01*
X121028D02*
X2741029D01*
X119062D02*
X121028D01*
X115163Y1901907D02*
X119062Y1902420D01*
X111365Y1900889D02*
X115163Y1901907D01*
X107731Y1899384D02*
X111365Y1900889D01*
X104326Y1897417D02*
X107731Y1899384D01*
X101206Y1895023D02*
X104326Y1897417D01*
X98425Y1892243D02*
X101206Y1895023D01*
X96031Y1889123D02*
X98425Y1892243D01*
X94065Y1885717D02*
X96031Y1889123D01*
X92560Y1882084D02*
X94065Y1885717D01*
X91542Y1878285D02*
X92560Y1882084D01*
X91028Y1874386D02*
X91542Y1878285D01*
X91028Y1872420D02*
Y1874386D01*
Y1794090D02*
Y1872420D01*
X90965Y1792146D02*
X91028Y1794090D01*
X90463Y1788290D02*
X90965Y1792146D01*
X89465Y1784532D02*
X90463Y1788290D01*
X87991Y1780935D02*
X89465Y1784532D01*
X86063Y1777558D02*
X87991Y1780935D01*
X83714Y1774459D02*
X86063Y1777558D01*
X80985Y1771690D02*
X83714Y1774459D01*
X77920Y1769297D02*
X80985Y1771690D01*
X76279Y1768255D02*
X77920Y1769297D01*
X74616Y1767274D02*
X76279Y1768255D01*
X71571Y1764902D02*
X74616Y1767274D01*
X68855Y1762159D02*
X71571Y1764902D01*
X66513Y1759091D02*
X68855Y1762159D01*
X65548Y1757420D02*
X66513Y1759091D01*
X64511Y1755753D02*
X65548Y1757420D01*
X62122Y1752639D02*
X64511Y1755753D01*
X59347Y1749865D02*
X62122Y1752639D01*
X56234Y1747476D02*
X59347Y1749865D01*
X52836Y1745514D02*
X56234Y1747476D01*
X49210Y1744012D02*
X52836Y1745514D01*
X45420Y1742996D02*
X49210Y1744012D01*
X41529Y1742484D02*
X45420Y1742996D01*
X39567Y1742420D02*
X41529Y1742484D01*
X31028Y1742420D02*
X39567D01*
X29062D02*
X31028D01*
X25163Y1741907D02*
X29062Y1742420D01*
X21365Y1740889D02*
X25163Y1741907D01*
X17731Y1739384D02*
X21365Y1740889D01*
X14325Y1737417D02*
X17731Y1739384D01*
X11206Y1735023D02*
X14325Y1737417D01*
X8425Y1732243D02*
X11206Y1735023D01*
X6031Y1729123D02*
X8425Y1732243D01*
X4065Y1725717D02*
X6031Y1729123D01*
X2560Y1722084D02*
X4065Y1725717D01*
X1542Y1718285D02*
X2560Y1722084D01*
X1028Y1714386D02*
X1542Y1718285D01*
X1028Y1712420D02*
Y1714386D01*
Y192420D02*
Y1712420D01*
Y190454D02*
Y192420D01*
Y190454D02*
X1542Y186555D01*
X2560Y182756D01*
X4065Y179123D01*
X6031Y175717D01*
X8425Y172597D01*
X11206Y169816D01*
X14325Y167422D01*
X17731Y165456D01*
X21365Y163951D01*
X25163Y162933D01*
X29062Y162420D01*
X31028Y162420D01*
X39567D01*
X41529Y162356D01*
X45420Y161844D01*
X49210Y160828D01*
X52836Y159326D01*
X56234Y157364D01*
X59347Y154975D01*
X62122Y152200D01*
X64511Y149087D01*
X65548Y147420D01*
X66513Y145749D01*
X68855Y142681D01*
X71571Y139938D01*
X74616Y137566D01*
X76279Y136585D01*
D117*
X2010500Y1851000D02*
D03*
X1985100D02*
D03*
Y1242100D02*
D03*
X2010500D02*
D03*
X1985100Y1216700D02*
D03*
X2010500D02*
D03*
X2145100Y1851000D02*
D03*
X2170500D02*
D03*
Y1216700D02*
D03*
X2145100D02*
D03*
X2170500Y1242100D02*
D03*
X2145100D02*
D03*
X2330500Y1851000D02*
D03*
X2305100D02*
D03*
Y1242100D02*
D03*
X2330500D02*
D03*
X2305100Y1216700D02*
D03*
X2330500D02*
D03*
X2437500Y667992D02*
D03*
X2564600Y667990D02*
D03*
X730500Y1216700D02*
D03*
X705100D02*
D03*
X730500Y1242100D02*
D03*
X705100D02*
D03*
X865100D02*
D03*
X890500D02*
D03*
X865100Y1216700D02*
D03*
X890500D02*
D03*
X1050500D02*
D03*
X1025100D02*
D03*
X1050500Y1242100D02*
D03*
X1025100D02*
D03*
X1345100D02*
D03*
X1370500D02*
D03*
X1345100Y1216700D02*
D03*
X1370500D02*
D03*
X1530500D02*
D03*
X1505100D02*
D03*
X1530500Y1242100D02*
D03*
X1505100D02*
D03*
X1665100D02*
D03*
X1690500D02*
D03*
X1665100Y1216700D02*
D03*
X1690500D02*
D03*
X1850500D02*
D03*
X1825100D02*
D03*
X1850500Y1242100D02*
D03*
X1825100D02*
D03*
X730500Y1851000D02*
D03*
X705100D02*
D03*
X865100D02*
D03*
X890500D02*
D03*
X1050500D02*
D03*
X1025100D02*
D03*
X1185100D02*
D03*
X1210500D02*
D03*
X1370500D02*
D03*
X1345100D02*
D03*
X1505100D02*
D03*
X1530500D02*
D03*
X1690500D02*
D03*
X1665100D02*
D03*
X1825100D02*
D03*
X1850500D02*
D03*
X1185100Y1242100D02*
D03*
X1210500D02*
D03*
X1185100Y1216700D02*
D03*
X1210500D02*
D03*
X2774600Y372400D02*
D03*
D118*
X162500Y1739500D02*
D03*
Y1689500D02*
D03*
X362500Y700500D02*
D03*
X132500Y1690000D02*
D03*
X392500Y700500D02*
D03*
X162500Y1689500D02*
D03*
D119*
X267500Y1690000D02*
D03*
X237500Y1689500D02*
D03*
D121*
X2437110Y437935D02*
D03*
X2411710D02*
D03*
X2437110Y475935D02*
D03*
X2411710D02*
D03*
D123*
X480000Y314750D02*
D03*
X366250Y314250D02*
D03*
X450750Y322500D02*
D03*
X2388750Y386000D02*
D03*
X174426Y512000D02*
D03*
X161750D02*
D03*
X2460500Y912750D02*
D03*
X2491250Y893500D02*
D03*
X428000Y543000D02*
D03*
X2653154Y1453530D02*
D03*
X2668154D02*
D03*
X2653104Y1227000D02*
D03*
X2668104D02*
D03*
X2491250Y1123500D02*
D03*
Y1108720D02*
D03*
X2502530Y997000D02*
D03*
X2517530D02*
D03*
X2653104D02*
D03*
X2668104D02*
D03*
X2577250D02*
D03*
X2592250D02*
D03*
X2255000Y145000D02*
D03*
X2095000D02*
D03*
X2002500Y150000D02*
D03*
X1935000Y145000D02*
D03*
X1842500Y150000D02*
D03*
X1775000Y145000D02*
D03*
X1682500Y150000D02*
D03*
X1615000Y145000D02*
D03*
X1522500Y150000D02*
D03*
X1455000Y145000D02*
D03*
X1362500Y150000D02*
D03*
X1295000Y145000D02*
D03*
X1202500Y150000D02*
D03*
X1135000Y145000D02*
D03*
X1042500Y150000D02*
D03*
X975000Y145000D02*
D03*
X882500Y150000D02*
D03*
X815000Y145000D02*
D03*
X2322500Y150000D02*
D03*
X2162500D02*
D03*
X2521500Y815000D02*
D03*
X2521550Y1501530D02*
D03*
X2521500Y1275000D02*
D03*
X2463250Y1137500D02*
D03*
X2490500Y1303500D02*
D03*
X2614200Y1641250D02*
D03*
X2618456Y874044D02*
D03*
X2569250Y1108250D02*
D03*
X2666264Y910970D02*
D03*
X2745854Y909970D02*
D03*
X2668104Y767000D02*
D03*
X2745854Y859470D02*
D03*
X2573750Y882750D02*
D03*
X2577250Y767000D02*
D03*
X2614500Y564250D02*
D03*
X2643859Y573000D02*
D03*
X2619628D02*
D03*
X2635187Y578688D02*
D03*
X2582000Y1576250D02*
D03*
Y1342750D02*
D03*
X2572348Y1364787D02*
D03*
X2572398Y1591317D02*
D03*
X2618506Y1560574D02*
D03*
Y1586690D02*
D03*
X2745904Y1596000D02*
D03*
X2650750Y564250D02*
D03*
X2592250Y767000D02*
D03*
X2502530D02*
D03*
X2517530D02*
D03*
X2491250Y878720D02*
D03*
X2577250Y1227000D02*
D03*
X2592250D02*
D03*
X2502530D02*
D03*
X2517530D02*
D03*
X2653104Y767000D02*
D03*
X2463500Y552500D02*
D03*
X2491250Y1338720D02*
D03*
Y1353500D02*
D03*
X2727250Y358750D02*
D03*
X2673250Y360250D02*
D03*
X2739000Y177750D02*
D03*
X2681750Y1760250D02*
D03*
X2638250Y1779750D02*
D03*
X337000Y322500D02*
D03*
X357750Y341750D02*
D03*
X471500D02*
D03*
X2515000Y466250D02*
D03*
X2474750Y480250D02*
D03*
Y494250D02*
D03*
X2663000Y269500D02*
D03*
X2696000Y73500D02*
D03*
Y129000D02*
D03*
X2741750Y128500D02*
D03*
X2739000Y275500D02*
D03*
Y247500D02*
D03*
Y212500D02*
D03*
X2537250Y308000D02*
D03*
X144500Y508500D02*
D03*
X331250Y364750D02*
D03*
X133750Y535250D02*
D03*
X2628000Y312500D02*
D03*
X2720750Y467000D02*
D03*
X2474735Y427250D02*
D03*
X2547500Y355000D02*
D03*
X2720750Y418750D02*
D03*
X2684250Y523750D02*
D03*
X2612000Y369598D02*
D03*
X2589000Y564250D02*
D03*
X2635000Y302500D02*
D03*
X2652500D02*
D03*
X2642500Y312500D02*
D03*
X2578750Y355000D02*
D03*
X2560000Y354500D02*
D03*
X2414000Y376000D02*
D03*
X2376125Y438000D02*
D03*
X547494Y454514D02*
D03*
X501500Y373250D02*
D03*
X481250Y453750D02*
D03*
X501750Y425750D02*
D03*
X387500Y373500D02*
D03*
X260000Y544500D02*
D03*
X188250D02*
D03*
X470750Y510000D02*
D03*
Y518250D02*
D03*
Y501750D02*
D03*
X2477050Y1610904D02*
D03*
X2618375Y1482530D02*
D03*
X2592300Y1453530D02*
D03*
X2617050Y1494030D02*
D03*
X2577300Y1453530D02*
D03*
X2665904Y1596000D02*
D03*
X2667550Y1546530D02*
D03*
X2745904Y1546000D02*
D03*
X2491300Y1580030D02*
D03*
Y1565250D02*
D03*
X2477050Y1534030D02*
D03*
X2502580Y1453530D02*
D03*
X2517580D02*
D03*
X2491000Y1713500D02*
D03*
Y1701685D02*
D03*
X2667500Y860000D02*
D03*
X2477000Y847500D02*
D03*
X2618325Y796000D02*
D03*
X2617000Y807500D02*
D03*
X2745854Y1139470D02*
D03*
X2667500Y1090000D02*
D03*
X2745854Y1089470D02*
D03*
X2665854Y1139470D02*
D03*
X2477000Y1077500D02*
D03*
X2521500Y1045000D02*
D03*
X2618325Y1026000D02*
D03*
X2617000Y1037500D02*
D03*
X2618456Y1130160D02*
D03*
Y1104044D02*
D03*
X2572348Y1134787D02*
D03*
X2618325Y1256000D02*
D03*
X2617000Y1267500D02*
D03*
X2665854Y1369470D02*
D03*
X2745854D02*
D03*
X2667500Y1320000D02*
D03*
X2745854Y1319470D02*
D03*
X2618456Y1334044D02*
D03*
Y1360160D02*
D03*
X2532750Y565250D02*
D03*
X2522500D02*
D03*
X2512250D02*
D03*
X2519500Y512000D02*
D03*
X722500Y150000D02*
D03*
X655000Y145000D02*
D03*
X2647500Y352500D02*
D03*
X2620500Y197750D02*
D03*
X2624200Y1641250D02*
D03*
X2657500Y1662500D02*
D03*
X2561750Y1688500D02*
D03*
X2509250Y372750D02*
D03*
X2477000Y1668000D02*
D03*
Y1746000D02*
D03*
X2562000Y1779750D02*
D03*
X2526750Y1680750D02*
D03*
X2692331Y1861021D02*
D03*
X2692500Y1782500D02*
D03*
X2573250Y1641000D02*
D03*
X2584250Y1726500D02*
D03*
D124*
X2516000Y1642000D02*
D03*
X385000Y427000D02*
D03*
X2247500Y480000D02*
D03*
X2087500D02*
D03*
X1927500D02*
D03*
X1767500D02*
D03*
X1607500D02*
D03*
X1447500D02*
D03*
X1287500D02*
D03*
X1127500D02*
D03*
X967500D02*
D03*
X807500D02*
D03*
X647500D02*
D03*
X2536340Y1097160D02*
D03*
Y1327160D02*
D03*
X2572870Y1053974D02*
D03*
X2536444Y1129398D02*
D03*
X2626000Y578688D02*
D03*
X2604543Y824165D02*
D03*
X2648868Y1081118D02*
D03*
X2502000Y565250D02*
D03*
X2721220Y374920D02*
D03*
X2474750Y465000D02*
D03*
X2656500Y312500D02*
D03*
X2741750Y73500D02*
D03*
X2529250Y351750D02*
D03*
X2491250Y339750D02*
D03*
X331250Y382000D02*
D03*
X2594750Y302500D02*
D03*
X2720750Y429000D02*
D03*
X2722000Y528750D02*
D03*
X2576750Y564250D02*
D03*
X2720750Y479000D02*
D03*
X2474735Y415500D02*
D03*
X422000Y615250D02*
D03*
X418500Y640000D02*
D03*
X438500Y574000D02*
D03*
X469500Y434000D02*
D03*
X409000Y408750D02*
D03*
X207250Y580250D02*
D03*
X2605050Y1591030D02*
D03*
X2536494Y1585928D02*
D03*
X2536390Y1553690D02*
D03*
X2572920Y1510504D02*
D03*
X2604593Y1510695D02*
D03*
X2648918Y1537648D02*
D03*
X2648868Y851118D02*
D03*
X2572870Y823974D02*
D03*
X2536340Y867160D02*
D03*
X2536444Y899398D02*
D03*
X2605000Y904500D02*
D03*
X2604543Y1054165D02*
D03*
X2605000Y1134500D02*
D03*
Y1364500D02*
D03*
X2536444Y1359398D02*
D03*
X2572870Y1283974D02*
D03*
X2604543Y1284165D02*
D03*
X2648868Y1311118D02*
D03*
X2495750Y1757500D02*
D03*
X2600250Y1779750D02*
D03*
X2569500Y197750D02*
D03*
X2549500Y1779750D02*
D03*
D127*
X2133929Y859514D02*
D03*
X2770528Y1742420D02*
D03*
Y162420D02*
D03*
X1877529D02*
D03*
X984529Y1832420D02*
D03*
X91528Y1742420D02*
D03*
X126028Y249420D02*
D03*
X91528Y162420D02*
D03*
D128*
X497500Y700500D02*
D03*
X467500D02*
D03*
D129*
X87500Y1547000D02*
D03*
X534500Y844000D02*
D03*
X87500D02*
D03*
X534500Y1547000D02*
D03*
D130*
X2459600Y1860000D02*
D03*
X2580000D02*
D03*
D131*
X2507300Y1813000D02*
D03*
D132*
X436000Y435000D02*
D03*
X397000Y441000D02*
D03*
X2379250Y1800200D02*
D03*
D133*
X2336000Y232000D02*
D03*
X2314500Y364050D02*
D03*
X2280000D02*
D03*
Y334500D02*
D03*
X2244500Y364050D02*
D03*
X2176000Y232000D02*
D03*
X2154500Y364050D02*
D03*
X2120000D02*
D03*
Y334500D02*
D03*
X2084500Y364050D02*
D03*
X2016000Y232000D02*
D03*
X1994500Y364050D02*
D03*
X1960000D02*
D03*
Y334500D02*
D03*
X1924500Y364050D02*
D03*
X1856000Y232000D02*
D03*
X1834500Y364050D02*
D03*
X1800000D02*
D03*
Y334500D02*
D03*
X1764500Y364050D02*
D03*
X1696000Y232000D02*
D03*
X1674500Y364050D02*
D03*
X1640000D02*
D03*
Y334500D02*
D03*
X1604500Y364050D02*
D03*
X1536000Y232000D02*
D03*
X1514500Y364050D02*
D03*
X1480000D02*
D03*
Y334500D02*
D03*
X1444500Y364050D02*
D03*
X1376000Y232000D02*
D03*
X1354500Y364050D02*
D03*
X1320000D02*
D03*
Y334500D02*
D03*
X1284500Y364050D02*
D03*
X1216000Y232000D02*
D03*
X1194500Y364050D02*
D03*
X1160000D02*
D03*
Y334500D02*
D03*
X1124500Y364050D02*
D03*
X1056000Y232000D02*
D03*
X1034500Y364050D02*
D03*
X1000000D02*
D03*
Y334500D02*
D03*
X964500Y364050D02*
D03*
X874500D02*
D03*
X840000D02*
D03*
Y334500D02*
D03*
X804500Y364050D02*
D03*
X896000Y232000D02*
D03*
X736000D02*
D03*
X680000Y334500D02*
D03*
X644500Y364050D02*
D03*
X680000D02*
D03*
X714500D02*
D03*
X260000Y639500D02*
D03*
D134*
X133750Y626250D02*
D03*
X2735000Y500000D02*
D03*
M02*
