G04*
G04 #@! TF.GenerationSoftware,Altium Limited,Altium Designer,20.1.10 (176)*
G04*
G04 Layer_Color=16711935*
%FSAX42Y42*%
%MOMM*%
G71*
G04*
G04 #@! TF.SameCoordinates,6C51F090-7910-440F-980D-B9DEBD6B7A16*
G04*
G04*
G04 #@! TF.FilePolarity,Positive*
G04*
G01*
G75*
%ADD10C,0.20*%
%ADD141C,1.20*%
%ADD142C,1.20*%
D10*
X000655Y001474D02*
G03*
X000763Y001366I000260J000150D01*
G01*
Y017683D02*
G03*
X000655Y017574I000153J-000258D01*
G01*
X027858Y001366D02*
G03*
X027965Y001474I-000153J000258D01*
G01*
Y017574D02*
G03*
X027858Y017683I-000260J-000150D01*
G01*
X000655Y001474D02*
G03*
X000396Y001624I-000260J-000150D01*
G01*
Y017424D02*
G03*
X000655Y017574I000000J000300D01*
G01*
X028225Y001624D02*
G03*
X027965Y001474I000000J-000300D01*
G01*
Y017574D02*
G03*
X028225Y017424I000260J000150D01*
G01*
X027410Y000024D02*
G03*
X027710Y000324I000000J000300D01*
G01*
Y018724D02*
G03*
X027410Y019024I-000300J000000D01*
G01*
X000910Y001108D02*
G03*
X000763Y001366I-000300J-000000D01*
G01*
Y017683D02*
G03*
X000910Y017941I-000152J000258D01*
G01*
X027858Y001366D02*
G03*
X027710Y001108I000152J-000258D01*
G01*
Y017941D02*
G03*
X027858Y017683I000300J000000D01*
G01*
X000010Y001924D02*
G03*
X000310Y001624I000300J000000D01*
G01*
Y017424D02*
G03*
X000010Y017124I000000J-000300D01*
G01*
X000910Y000324D02*
G03*
X001210Y000024I000300J000000D01*
G01*
Y019024D02*
G03*
X000910Y018724I000000J-000300D01*
G01*
X028310Y001624D02*
G03*
X028610Y001924I000000J000300D01*
G01*
Y017124D02*
G03*
X028310Y017424I-000300J000000D01*
G01*
X000310D02*
X000396D01*
X000310Y001624D02*
X000396D01*
X000910Y017941D02*
Y018724D01*
X027710Y017941D02*
Y018724D01*
X000910Y000324D02*
Y001108D01*
X027710Y000324D02*
Y001108D01*
X000010Y001924D02*
Y017124D01*
X028610Y001902D02*
Y017124D01*
X028225Y017424D02*
X028310D01*
X028225Y001624D02*
X028310D01*
X001210Y000024D02*
X027410D01*
X001210Y019024D02*
X027410D01*
D141*
X000655Y001474D02*
G03*
X000396Y001624I-000260J-000150D01*
G01*
X000655Y001474D02*
G03*
X000763Y001366I000260J000150D01*
G01*
X000655Y001474D02*
G03*
X000396Y001624I-000260J-000150D01*
G01*
X000655Y001474D02*
G03*
X000763Y001366I000260J000150D01*
G01*
X000655Y001474D02*
G03*
X000396Y001624I-000260J-000150D01*
G01*
X000655Y001474D02*
G03*
X000763Y001366I000260J000150D01*
G01*
Y017683D02*
G03*
X000655Y017574I000153J-000258D01*
G01*
X000396Y017424D02*
G03*
X000655Y017574I000000J000300D01*
G01*
X000763Y017683D02*
G03*
X000655Y017574I000153J-000258D01*
G01*
X000396Y017424D02*
G03*
X000655Y017574I000000J000300D01*
G01*
X000763Y017683D02*
G03*
X000655Y017574I000153J-000258D01*
G01*
X000396Y017424D02*
G03*
X000655Y017574I000000J000300D01*
G01*
X027858Y001366D02*
G03*
X027965Y001474I-000153J000258D01*
G01*
X028225Y001624D02*
G03*
X027965Y001474I000000J-000300D01*
G01*
X027858Y001366D02*
G03*
X027965Y001474I-000153J000258D01*
G01*
X028225Y001624D02*
G03*
X027965Y001474I000000J-000300D01*
G01*
X027858Y001366D02*
G03*
X027965Y001474I-000153J000258D01*
G01*
X028225Y001624D02*
G03*
X027965Y001474I000000J-000300D01*
G01*
Y017574D02*
G03*
X028225Y017424I000260J000150D01*
G01*
X027965Y017574D02*
G03*
X027858Y017683I-000260J-000150D01*
G01*
X027965Y017574D02*
G03*
X028225Y017424I000260J000150D01*
G01*
X027965Y017574D02*
G03*
X027858Y017683I-000260J-000150D01*
G01*
X027965Y017574D02*
G03*
X028225Y017424I000260J000150D01*
G01*
X027965Y017574D02*
G03*
X027858Y017683I-000260J-000150D01*
G01*
X000910Y001108D02*
G03*
X000763Y001366I-000300J-000000D01*
G01*
X000910Y001108D02*
G03*
X000763Y001366I-000300J-000000D01*
G01*
X000910Y001108D02*
G03*
X000763Y001366I-000300J-000000D01*
G01*
X027858D02*
G03*
X027710Y001108I000152J-000258D01*
G01*
X027858Y001366D02*
G03*
X027710Y001108I000152J-000258D01*
G01*
X027858Y001366D02*
G03*
X027710Y001108I000152J-000258D01*
G01*
X000010Y001924D02*
G03*
X000310Y001624I000300J000000D01*
G01*
X000010Y001924D02*
G03*
X000310Y001624I000300J000000D01*
G01*
X000010Y001924D02*
G03*
X000310Y001624I000300J000000D01*
G01*
Y017424D02*
G03*
X000010Y017124I000000J-000300D01*
G01*
X000310Y017424D02*
G03*
X000010Y017124I000000J-000300D01*
G01*
X000310Y017424D02*
G03*
X000010Y017124I000000J-000300D01*
G01*
X001210Y019024D02*
G03*
X000910Y018724I000000J-000300D01*
G01*
X000763Y017683D02*
G03*
X000910Y017941I-000152J000258D01*
G01*
X001210Y019024D02*
G03*
X000910Y018724I000000J-000300D01*
G01*
X000763Y017683D02*
G03*
X000910Y017941I-000152J000258D01*
G01*
X001210Y019024D02*
G03*
X000910Y018724I000000J-000300D01*
G01*
X000763Y017683D02*
G03*
X000910Y017941I-000152J000258D01*
G01*
X028330Y001624D02*
G03*
X028608Y001902I000000J000278D01*
G01*
X028310Y001624D02*
G03*
X028610Y001924I000000J000300D01*
G01*
X028310Y001624D02*
G03*
X028610Y001924I000000J000300D01*
G01*
Y017124D02*
G03*
X028310Y017424I-000300J000000D01*
G01*
X027710Y017941D02*
G03*
X027858Y017683I000300J000000D01*
G01*
X027710Y018724D02*
G03*
X027410Y019024I-000300J000000D01*
G01*
X028610Y017124D02*
G03*
X028310Y017424I-000300J000000D01*
G01*
X027710Y017941D02*
G03*
X027858Y017683I000300J000000D01*
G01*
X027710Y018724D02*
G03*
X027410Y019024I-000300J000000D01*
G01*
X028610Y017124D02*
G03*
X028310Y017424I-000300J000000D01*
G01*
X027710Y017941D02*
G03*
X027858Y017683I000300J000000D01*
G01*
X027710Y018724D02*
G03*
X027410Y019024I-000300J000000D01*
G01*
X000910Y000324D02*
G03*
X001210Y000024I000300J000000D01*
G01*
X027410D02*
G03*
X027710Y000324I000000J000300D01*
G01*
X000910D02*
G03*
X001210Y000024I000300J000000D01*
G01*
X027410D02*
G03*
X027710Y000324I000000J000300D01*
G01*
X000910D02*
G03*
X001210Y000024I000300J000000D01*
G01*
X027410D02*
G03*
X027710Y000324I000000J000300D01*
G01*
X000060Y001757D02*
X000084Y001726D01*
X000112Y001698D01*
X000010Y001905D02*
Y001924D01*
Y017144D02*
X000015Y017183D01*
X000910Y000305D02*
Y000324D01*
Y000305D02*
X000915Y000266D01*
X000910Y001127D02*
X000910Y001108D01*
X000915Y018783D02*
X000926Y018821D01*
X001114Y019009D02*
X001152Y019019D01*
X001077Y018994D02*
X001114Y019009D01*
X027507D02*
X027543Y018994D01*
X027705Y000266D02*
X027710Y000305D01*
Y000324D01*
Y001108D02*
X027711Y001127D01*
X027741Y017809D02*
X027760Y017776D01*
X027965Y017574D02*
X027975Y017558D01*
X027955Y017591D02*
X027965Y017574D01*
X027965Y017574D02*
X027965Y017574D01*
X027965Y017574D02*
X027965Y017574D01*
X027965Y017574D02*
X027965Y017574D01*
X028509Y001698D02*
X028536Y001726D01*
X028560Y001757D01*
X000010Y001905D02*
X000015Y001866D01*
X000026Y001828D01*
X000041Y001791D01*
X000084Y017322D02*
X000112Y017350D01*
X000060Y017291D02*
X000084Y017322D01*
X000041Y017257D02*
X000060Y017291D01*
X000291Y001624D02*
X000310Y001624D01*
X000291Y017424D02*
X000310D01*
X000492Y001608D02*
X000528Y001593D01*
X000492Y017440D02*
X000528Y017455D01*
X000689Y001427D02*
X000716Y001399D01*
X000746Y001376D01*
X000716Y017649D02*
X000746Y017673D01*
X000689Y017622D02*
X000716Y017649D01*
X000915Y000266D02*
X000926Y000228D01*
X000941Y000191D01*
X000880Y001239D02*
X000895Y001203D01*
X000905Y001165D01*
X000910Y001127D01*
X000905Y017883D02*
X000910Y017921D01*
X000895Y017845D02*
X000905Y017883D01*
X000880Y017809D02*
X000895Y017845D01*
X027711Y001127D02*
X027716Y001165D01*
X027726Y001203D01*
X027741Y001239D01*
X027760Y001273D01*
X027726Y017845D02*
X027741Y017809D01*
X027716Y017883D02*
X027726Y017845D01*
X027711Y017921D02*
X027716Y017883D01*
X027905Y001399D02*
X027932Y001427D01*
X027955Y001457D01*
X027965Y001474D01*
X027975Y001491D01*
X027965Y001474D02*
X027965Y001474D01*
X027965Y001474D02*
X027965Y001474D01*
X027965Y001474D02*
X027965Y001474D01*
X027932Y017622D02*
X027955Y017591D01*
X027905Y017649D02*
X027932Y017622D01*
X028128Y001608D02*
X028166Y001618D01*
X028128Y017440D02*
X028166Y017430D01*
X028310Y001624D02*
X028330D01*
X028369Y001629D01*
X028330Y017424D02*
X028369Y017419D01*
X028310Y017424D02*
X028330D01*
X028560Y017291D02*
X028580Y017257D01*
X028536Y017322D02*
X028560Y017291D01*
X028509Y017350D02*
X028536Y017322D01*
X000041Y001791D02*
X000060Y001757D01*
X000026Y017221D02*
X000041Y017257D01*
X000015Y017183D02*
X000026Y017221D01*
X000010Y017124D02*
Y017144D01*
X000926Y018821D02*
X000941Y018857D01*
X000910Y018744D02*
X000915Y018783D01*
X000910Y018724D02*
Y018744D01*
Y017941D02*
Y018724D01*
X000910Y017921D02*
X000910Y017941D01*
Y018724D01*
Y017941D02*
Y018724D01*
Y017941D02*
Y018724D01*
X027710Y017941D02*
X027711Y017921D01*
X027710Y017941D02*
Y018724D01*
Y018744D01*
X027705Y018783D02*
X027710Y018744D01*
Y017941D02*
Y018724D01*
Y017941D02*
Y018724D01*
Y017941D02*
Y018724D01*
X028560Y001757D02*
X028580Y001791D01*
X000910Y001108D02*
X000910Y000324D01*
Y001108D01*
Y000324D02*
Y001108D01*
Y000324D02*
Y001108D01*
X027710Y000324D02*
Y001108D01*
Y000324D02*
Y001108D01*
Y000324D02*
Y001108D01*
Y000324D02*
Y001108D01*
X000010Y001924D02*
Y017124D01*
Y001924D02*
Y017124D01*
Y001924D02*
Y017124D01*
Y001924D02*
Y017124D01*
X000779Y001355D02*
X000810Y001331D01*
X000837Y001304D01*
X000593Y001550D02*
X000621Y001522D01*
X000645Y001491D01*
X000177Y017394D02*
X000214Y017409D01*
X000655Y017574D02*
X000665Y017591D01*
X000645Y017558D02*
X000655Y017574D01*
X000984Y000126D02*
X001012Y000098D01*
X001043Y000074D01*
X001191Y019024D02*
X001210D01*
X001152Y019019D02*
X001191Y019024D01*
X001043Y018974D02*
X001077Y018994D01*
X027577Y000074D02*
X027609Y000098D01*
X027636Y000126D01*
X027543Y018994D02*
X027577Y018974D01*
X027469Y019019D02*
X027507Y019009D01*
X027430Y019024D02*
X027469Y019019D01*
X027410Y019024D02*
X027430D01*
X027811Y001331D02*
X027841Y001355D01*
X027975Y001491D02*
X027999Y001522D01*
X028027Y001550D01*
X028443Y017394D02*
X028477Y017374D01*
X028407Y017409D02*
X028443Y017394D01*
X028610Y001905D02*
Y001924D01*
X000763Y001366D02*
X000779Y001355D01*
X000177Y001655D02*
X000214Y001640D01*
X000252Y001629D01*
X000291Y001624D01*
X000310Y001624D02*
X000396D01*
X000415Y001624D01*
X000454Y001618D01*
X000492Y001608D01*
X000528Y001593D02*
X000562Y001574D01*
X000593Y001550D01*
X000645Y001491D02*
X000655Y001474D01*
X000665Y001457D01*
X000689Y001427D01*
X000746Y001376D02*
X000763Y001366D01*
X000310Y001624D02*
X000396D01*
X000310D02*
X000396D01*
X000310D02*
X000396D01*
X000810Y017717D02*
X000837Y017745D01*
X000779Y017693D02*
X000810Y017717D01*
X000763Y017683D02*
X000779Y017693D01*
X000746Y017673D02*
X000763Y017683D01*
X000665Y017591D02*
X000689Y017622D01*
X000621Y017526D02*
X000645Y017558D01*
X000593Y017499D02*
X000621Y017526D01*
X000562Y017475D02*
X000593Y017499D01*
X000528Y017455D02*
X000562Y017475D01*
X000454Y017430D02*
X000492Y017440D01*
X000415Y017425D02*
X000454Y017430D01*
X000396Y017424D02*
X000415Y017425D01*
X000310Y017424D02*
X000396D01*
X000252Y017419D02*
X000291Y017424D01*
X000214Y017409D02*
X000252Y017419D01*
X000310Y017424D02*
X000396D01*
X000310D02*
X000396D01*
X000310D02*
X000396D01*
X001012Y018950D02*
X001043Y018974D01*
X000984Y018922D02*
X001012Y018950D01*
X027636Y018922D02*
X027660Y018891D01*
X027609Y018950D02*
X027636Y018922D01*
X027577Y018974D02*
X027609Y018950D01*
X027841Y001355D02*
X027858Y001366D01*
X027874Y001376D01*
X027905Y001399D01*
X028027Y001550D02*
X028058Y001574D01*
X028092Y001593D01*
X028128Y001608D01*
X028166Y001618D02*
X028205Y001624D01*
X028225Y001624D01*
X028310D01*
X028369Y001629D02*
X028407Y001640D01*
X028443Y001655D01*
X028225Y001624D02*
Y001624D01*
Y001624D02*
X028310D01*
X028225D02*
Y001624D01*
Y001624D02*
X028310D01*
X028225D02*
Y001624D01*
Y001624D02*
X028310D01*
X028369Y017419D02*
X028407Y017409D01*
X028225Y017424D02*
X028310D01*
X028205Y017425D02*
X028225Y017424D01*
X028166Y017430D02*
X028205Y017425D01*
X028092Y017455D02*
X028128Y017440D01*
X028058Y017475D02*
X028092Y017455D01*
X028027Y017499D02*
X028058Y017475D01*
X027999Y017526D02*
X028027Y017499D01*
X027975Y017558D02*
X027999Y017526D01*
X027874Y017673D02*
X027905Y017649D01*
X027858Y017683D02*
X027874Y017673D01*
X027841Y017693D02*
X027858Y017683D01*
X027811Y017717D02*
X027841Y017693D01*
X028225Y017424D02*
X028310D01*
X028225Y017424D02*
Y017424D01*
X028310D01*
X028225Y017424D02*
Y017424D01*
X028310D01*
X028225Y017424D02*
Y017424D01*
X027636Y000126D02*
X027660Y000157D01*
X028443Y001655D02*
X028477Y001674D01*
X028610Y017124D02*
Y017144D01*
Y001924D02*
Y017124D01*
Y001924D02*
Y017124D01*
Y001924D02*
Y017124D01*
Y001924D02*
Y017124D01*
X000143Y017374D02*
X000177Y017394D01*
X000112Y017350D02*
X000143Y017374D01*
X000861Y017776D02*
X000880Y017809D01*
X000837Y017745D02*
X000861Y017776D01*
X027783Y001304D02*
X027811Y001331D01*
X028605Y017183D02*
X028610Y017144D01*
X028477Y017374D02*
X028509Y017350D01*
X027760Y017776D02*
X027783Y017745D01*
X027695Y018821D02*
X027705Y018783D01*
X000837Y001304D02*
X000861Y001273D01*
X000880Y001239D01*
X000960Y018891D02*
X000984Y018922D01*
X000941Y018857D02*
X000960Y018891D01*
X027680Y000191D02*
X027695Y000228D01*
X027705Y000266D01*
X027760Y001273D02*
X027783Y001304D01*
X028580Y001791D02*
X028595Y001828D01*
X028605Y001866D01*
X028610Y001905D01*
X027783Y017745D02*
X027811Y017717D01*
X027660Y018891D02*
X027680Y018857D01*
X000112Y001698D02*
X000143Y001674D01*
X000177Y001655D01*
X000941Y000191D02*
X000960Y000157D01*
X000984Y000126D01*
X027660Y000157D02*
X027680Y000191D01*
X028477Y001674D02*
X028509Y001698D01*
X028595Y017221D02*
X028605Y017183D01*
X028580Y017257D02*
X028595Y017221D01*
X027680Y018857D02*
X027695Y018821D01*
X001210Y019024D02*
X027410D01*
X001210D02*
X027410D01*
X001210D02*
X027410D01*
X001210D02*
X027410D01*
X001043Y000074D02*
X001077Y000055D01*
X001114Y000040D01*
X001152Y000029D01*
X001191Y000024D01*
X001210Y000024D01*
X027410D01*
X027430D01*
X027469Y000029D01*
X027507Y000040D01*
X027543Y000055D01*
X027577Y000074D01*
X001210Y000024D02*
X027410D01*
X001210D02*
X027410D01*
X001210D02*
X027410D01*
D142*
X000060Y001757D02*
X000084Y001726D01*
X000112Y001698D01*
X000060Y001757D02*
X000084Y001726D01*
X000112Y001698D01*
X000060Y001757D02*
X000084Y001726D01*
X000112Y001698D01*
X000060Y001757D02*
X000084Y001726D01*
X000112Y001698D01*
X000010Y001905D02*
Y001924D01*
Y001905D02*
Y001924D01*
Y001905D02*
Y001924D01*
Y001905D02*
Y001924D01*
Y017144D02*
X000015Y017183D01*
X000010Y017144D02*
X000015Y017183D01*
X000010Y017144D02*
X000015Y017183D01*
X000010Y017144D02*
X000015Y017183D01*
X000910Y000305D02*
Y000324D01*
Y000305D02*
X000915Y000266D01*
X000910Y000305D02*
Y000324D01*
Y000305D02*
X000915Y000266D01*
X000910Y000305D02*
Y000324D01*
Y000305D02*
X000915Y000266D01*
X000910Y000305D02*
Y000324D01*
Y000305D02*
X000915Y000266D01*
X000910Y001127D02*
X000910Y001108D01*
X000910Y001127D02*
X000910Y001108D01*
X000910Y001127D02*
X000910Y001108D01*
X000910Y001127D02*
X000910Y001108D01*
X000915Y018783D02*
X000926Y018821D01*
X000915Y018783D02*
X000926Y018821D01*
X000915Y018783D02*
X000926Y018821D01*
X000915Y018783D02*
X000926Y018821D01*
X001114Y019009D02*
X001152Y019019D01*
X001077Y018994D02*
X001114Y019009D01*
X001152Y019019D01*
X001077Y018994D02*
X001114Y019009D01*
X001152Y019019D01*
X001077Y018994D02*
X001114Y019009D01*
X001152Y019019D01*
X001077Y018994D02*
X001114Y019009D01*
X027507D02*
X027543Y018994D01*
X027507Y019009D02*
X027543Y018994D01*
X027507Y019009D02*
X027543Y018994D01*
X027507Y019009D02*
X027543Y018994D01*
X027705Y000266D02*
X027710Y000305D01*
Y000324D01*
X027705Y000266D02*
X027710Y000305D01*
Y000324D01*
X027705Y000266D02*
X027710Y000305D01*
Y000324D01*
X027705Y000266D02*
X027710Y000305D01*
Y000324D01*
Y001108D02*
X027711Y001127D01*
X027710Y001108D02*
X027711Y001127D01*
X027710Y001108D02*
X027711Y001127D01*
X027710Y001108D02*
X027711Y001127D01*
X027741Y017809D02*
X027760Y017776D01*
X027741Y017809D02*
X027760Y017776D01*
X027741Y017809D02*
X027760Y017776D01*
X027741Y017809D02*
X027760Y017776D01*
X027965Y017574D02*
X027975Y017558D01*
X027955Y017591D02*
X027965Y017574D01*
X027975Y017558D01*
X027955Y017591D02*
X027965Y017574D01*
X027975Y017558D01*
X027955Y017591D02*
X027965Y017574D01*
X027975Y017558D01*
X027955Y017591D02*
X027965Y017574D01*
X028509Y001698D02*
X028536Y001726D01*
X028560Y001757D01*
X028509Y001698D02*
X028536Y001726D01*
X028560Y001757D01*
X028509Y001698D02*
X028536Y001726D01*
X028560Y001757D01*
X028509Y001698D02*
X028536Y001726D01*
X028560Y001757D01*
X000010Y001905D02*
X000015Y001866D01*
X000026Y001828D01*
X000041Y001791D01*
X000010Y001905D02*
X000015Y001866D01*
X000026Y001828D01*
X000041Y001791D01*
X000010Y001905D02*
X000015Y001866D01*
X000026Y001828D01*
X000041Y001791D01*
X000010Y001905D02*
X000015Y001866D01*
X000026Y001828D01*
X000041Y001791D01*
X000084Y017322D02*
X000112Y017350D01*
X000060Y017291D02*
X000084Y017322D01*
X000041Y017257D02*
X000060Y017291D01*
X000084Y017322D02*
X000112Y017350D01*
X000060Y017291D02*
X000084Y017322D01*
X000041Y017257D02*
X000060Y017291D01*
X000084Y017322D02*
X000112Y017350D01*
X000060Y017291D02*
X000084Y017322D01*
X000041Y017257D02*
X000060Y017291D01*
X000084Y017322D02*
X000112Y017350D01*
X000060Y017291D02*
X000084Y017322D01*
X000041Y017257D02*
X000060Y017291D01*
X000291Y001624D02*
X000310Y001624D01*
X000291Y001624D02*
X000310Y001624D01*
X000291Y001624D02*
X000310Y001624D01*
X000291Y001624D02*
X000310Y001624D01*
X000291Y017424D02*
X000310D01*
X000291D02*
X000310D01*
X000291D02*
X000310D01*
X000291D02*
X000310D01*
X000492Y001608D02*
X000528Y001593D01*
X000492Y001608D02*
X000528Y001593D01*
X000492Y001608D02*
X000528Y001593D01*
X000492Y001608D02*
X000528Y001593D01*
X000492Y017440D02*
X000528Y017455D01*
X000492Y017440D02*
X000528Y017455D01*
X000492Y017440D02*
X000528Y017455D01*
X000492Y017440D02*
X000528Y017455D01*
X000689Y001427D02*
X000716Y001399D01*
X000746Y001376D01*
X000689Y001427D02*
X000716Y001399D01*
X000746Y001376D01*
X000689Y001427D02*
X000716Y001399D01*
X000746Y001376D01*
X000689Y001427D02*
X000716Y001399D01*
X000746Y001376D01*
X000716Y017649D02*
X000746Y017673D01*
X000689Y017622D02*
X000716Y017649D01*
X000746Y017673D01*
X000689Y017622D02*
X000716Y017649D01*
X000746Y017673D01*
X000689Y017622D02*
X000716Y017649D01*
X000746Y017673D01*
X000689Y017622D02*
X000716Y017649D01*
X000915Y000266D02*
X000926Y000228D01*
X000941Y000191D01*
X000915Y000266D02*
X000926Y000228D01*
X000941Y000191D01*
X000915Y000266D02*
X000926Y000228D01*
X000941Y000191D01*
X000915Y000266D02*
X000926Y000228D01*
X000941Y000191D01*
X000880Y001239D02*
X000895Y001203D01*
X000905Y001165D01*
X000910Y001127D01*
X000880Y001239D02*
X000895Y001203D01*
X000905Y001165D01*
X000910Y001127D01*
X000880Y001239D02*
X000895Y001203D01*
X000905Y001165D01*
X000910Y001127D01*
X000880Y001239D02*
X000895Y001203D01*
X000905Y001165D01*
X000910Y001127D01*
X000905Y017883D02*
X000910Y017921D01*
X000895Y017845D02*
X000905Y017883D01*
X000880Y017809D02*
X000895Y017845D01*
X000905Y017883D02*
X000910Y017921D01*
X000895Y017845D02*
X000905Y017883D01*
X000880Y017809D02*
X000895Y017845D01*
X000905Y017883D02*
X000910Y017921D01*
X000895Y017845D02*
X000905Y017883D01*
X000880Y017809D02*
X000895Y017845D01*
X000905Y017883D02*
X000910Y017921D01*
X000895Y017845D02*
X000905Y017883D01*
X000880Y017809D02*
X000895Y017845D01*
X027711Y001127D02*
X027716Y001165D01*
X027726Y001203D01*
X027741Y001239D01*
X027760Y001273D01*
X027711Y001127D02*
X027716Y001165D01*
X027726Y001203D01*
X027741Y001239D01*
X027760Y001273D01*
X027711Y001127D02*
X027716Y001165D01*
X027726Y001203D01*
X027741Y001239D01*
X027760Y001273D01*
X027711Y001127D02*
X027716Y001165D01*
X027726Y001203D01*
X027741Y001239D01*
X027760Y001273D01*
X027726Y017845D02*
X027741Y017809D01*
X027716Y017883D02*
X027726Y017845D01*
X027711Y017921D02*
X027716Y017883D01*
X027726Y017845D02*
X027741Y017809D01*
X027716Y017883D02*
X027726Y017845D01*
X027711Y017921D02*
X027716Y017883D01*
X027726Y017845D02*
X027741Y017809D01*
X027716Y017883D02*
X027726Y017845D01*
X027711Y017921D02*
X027716Y017883D01*
X027726Y017845D02*
X027741Y017809D01*
X027716Y017883D02*
X027726Y017845D01*
X027711Y017921D02*
X027716Y017883D01*
X027905Y001399D02*
X027932Y001427D01*
X027955Y001457D01*
X027965Y001474D01*
X027975Y001491D01*
X027905Y001399D02*
X027932Y001427D01*
X027955Y001457D01*
X027965Y001474D01*
X027975Y001491D01*
X027905Y001399D02*
X027932Y001427D01*
X027955Y001457D01*
X027965Y001474D01*
X027975Y001491D01*
X027905Y001399D02*
X027932Y001427D01*
X027955Y001457D01*
X027965Y001474D01*
X027975Y001491D01*
X027932Y017622D02*
X027955Y017591D01*
X027905Y017649D02*
X027932Y017622D01*
X027955Y017591D01*
X027905Y017649D02*
X027932Y017622D01*
X027955Y017591D01*
X027905Y017649D02*
X027932Y017622D01*
X027955Y017591D01*
X027905Y017649D02*
X027932Y017622D01*
X028128Y001608D02*
X028166Y001618D01*
X028128Y001608D02*
X028166Y001618D01*
X028128Y001608D02*
X028166Y001618D01*
X028128Y001608D02*
X028166Y001618D01*
X028128Y017440D02*
X028166Y017430D01*
X028128Y017440D02*
X028166Y017430D01*
X028128Y017440D02*
X028166Y017430D01*
X028128Y017440D02*
X028166Y017430D01*
X028310Y001624D02*
X028330D01*
X028369Y001629D01*
X028310Y001624D02*
X028330D01*
X028369Y001629D01*
X028310Y001624D02*
X028330D01*
X028369Y001629D01*
X028330Y001624D02*
X028369Y001629D01*
X028330Y017424D02*
X028369Y017419D01*
X028310Y017424D02*
X028330D01*
X028369Y017419D01*
X028310Y017424D02*
X028330D01*
X028369Y017419D01*
X028310Y017424D02*
X028330D01*
X028369Y017419D01*
X028310Y017424D02*
X028330D01*
X028560Y017291D02*
X028580Y017257D01*
X028536Y017322D02*
X028560Y017291D01*
X028509Y017350D02*
X028536Y017322D01*
X028560Y017291D02*
X028580Y017257D01*
X028536Y017322D02*
X028560Y017291D01*
X028509Y017350D02*
X028536Y017322D01*
X028560Y017291D02*
X028580Y017257D01*
X028536Y017322D02*
X028560Y017291D01*
X028509Y017350D02*
X028536Y017322D01*
X028560Y017291D02*
X028580Y017257D01*
X028536Y017322D02*
X028560Y017291D01*
X028509Y017350D02*
X028536Y017322D01*
X000041Y001791D02*
X000060Y001757D01*
X000041Y001791D02*
X000060Y001757D01*
X000041Y001791D02*
X000060Y001757D01*
X000041Y001791D02*
X000060Y001757D01*
X000026Y017221D02*
X000041Y017257D01*
X000015Y017183D02*
X000026Y017221D01*
X000010Y017124D02*
Y017144D01*
X000026Y017221D02*
X000041Y017257D01*
X000015Y017183D02*
X000026Y017221D01*
X000010Y017124D02*
Y017144D01*
X000026Y017221D02*
X000041Y017257D01*
X000015Y017183D02*
X000026Y017221D01*
X000010Y017124D02*
Y017144D01*
X000026Y017221D02*
X000041Y017257D01*
X000015Y017183D02*
X000026Y017221D01*
X000010Y017124D02*
Y017144D01*
X000926Y018821D02*
X000941Y018857D01*
X000910Y018744D02*
X000915Y018783D01*
X000910Y018724D02*
Y018744D01*
Y017941D02*
Y018724D01*
X000910Y017921D02*
X000910Y017941D01*
X000926Y018821D02*
X000941Y018857D01*
X000910Y018744D02*
X000915Y018783D01*
X000910Y018724D02*
Y018744D01*
Y017941D02*
Y018724D01*
X000910Y017921D02*
X000910Y017941D01*
X000926Y018821D02*
X000941Y018857D01*
X000910Y018744D02*
X000915Y018783D01*
X000910Y018724D02*
Y018744D01*
Y017941D02*
Y018724D01*
X000910Y017921D02*
X000910Y017941D01*
X000926Y018821D02*
X000941Y018857D01*
X000910Y018744D02*
X000915Y018783D01*
X000910Y018724D02*
Y018744D01*
Y017941D02*
Y018724D01*
X000910Y017921D02*
X000910Y017941D01*
X027710D02*
X027711Y017921D01*
X027710Y017941D02*
Y018724D01*
Y018744D01*
X027705Y018783D02*
X027710Y018744D01*
Y017941D02*
X027711Y017921D01*
X027710Y017941D02*
Y018724D01*
Y018744D01*
X027705Y018783D02*
X027710Y018744D01*
Y017941D02*
X027711Y017921D01*
X027710Y017941D02*
Y018724D01*
Y018744D01*
X027705Y018783D02*
X027710Y018744D01*
Y017941D02*
X027711Y017921D01*
X027710Y017941D02*
Y018724D01*
Y018744D01*
X027705Y018783D02*
X027710Y018744D01*
X028560Y001757D02*
X028580Y001791D01*
X028560Y001757D02*
X028580Y001791D01*
X028560Y001757D02*
X028580Y001791D01*
X028560Y001757D02*
X028580Y001791D01*
X000910Y001108D02*
X000910Y000324D01*
X000910Y001108D02*
X000910Y000324D01*
X000910Y001108D02*
X000910Y000324D01*
X000910Y001108D02*
X000910Y000324D01*
X027710Y000324D02*
Y001108D01*
Y000324D02*
Y001108D01*
Y000324D02*
Y001108D01*
Y000324D02*
Y001108D01*
X000010Y001924D02*
Y017124D01*
Y001924D02*
Y017124D01*
Y001924D02*
Y017124D01*
Y001924D02*
Y017124D01*
X000779Y001355D02*
X000810Y001331D01*
X000837Y001304D01*
X000779Y001355D02*
X000810Y001331D01*
X000837Y001304D01*
X000779Y001355D02*
X000810Y001331D01*
X000837Y001304D01*
X000779Y001355D02*
X000810Y001331D01*
X000837Y001304D01*
X000593Y001550D02*
X000621Y001522D01*
X000645Y001491D01*
X000593Y001550D02*
X000621Y001522D01*
X000645Y001491D01*
X000593Y001550D02*
X000621Y001522D01*
X000645Y001491D01*
X000593Y001550D02*
X000621Y001522D01*
X000645Y001491D01*
X000177Y017394D02*
X000214Y017409D01*
X000177Y017394D02*
X000214Y017409D01*
X000177Y017394D02*
X000214Y017409D01*
X000177Y017394D02*
X000214Y017409D01*
X000655Y017574D02*
X000665Y017591D01*
X000645Y017558D02*
X000655Y017574D01*
X000665Y017591D01*
X000645Y017558D02*
X000655Y017574D01*
X000665Y017591D01*
X000645Y017558D02*
X000655Y017574D01*
X000665Y017591D01*
X000645Y017558D02*
X000655Y017574D01*
X000984Y000126D02*
X001012Y000098D01*
X001043Y000074D01*
X000984Y000126D02*
X001012Y000098D01*
X001043Y000074D01*
X000984Y000126D02*
X001012Y000098D01*
X001043Y000074D01*
X000984Y000126D02*
X001012Y000098D01*
X001043Y000074D01*
X001191Y019024D02*
X001210D01*
X001152Y019019D02*
X001191Y019024D01*
X001043Y018974D02*
X001077Y018994D01*
X001191Y019024D02*
X001210D01*
X001152Y019019D02*
X001191Y019024D01*
X001043Y018974D02*
X001077Y018994D01*
X001191Y019024D02*
X001210D01*
X001152Y019019D02*
X001191Y019024D01*
X001043Y018974D02*
X001077Y018994D01*
X001191Y019024D02*
X001210D01*
X001152Y019019D02*
X001191Y019024D01*
X001043Y018974D02*
X001077Y018994D01*
X027577Y000074D02*
X027609Y000098D01*
X027636Y000126D01*
X027577Y000074D02*
X027609Y000098D01*
X027636Y000126D01*
X027577Y000074D02*
X027609Y000098D01*
X027636Y000126D01*
X027577Y000074D02*
X027609Y000098D01*
X027636Y000126D01*
X027543Y018994D02*
X027577Y018974D01*
X027469Y019019D02*
X027507Y019009D01*
X027430Y019024D02*
X027469Y019019D01*
X027410Y019024D02*
X027430D01*
X027543Y018994D02*
X027577Y018974D01*
X027469Y019019D02*
X027507Y019009D01*
X027430Y019024D02*
X027469Y019019D01*
X027410Y019024D02*
X027430D01*
X027543Y018994D02*
X027577Y018974D01*
X027469Y019019D02*
X027507Y019009D01*
X027430Y019024D02*
X027469Y019019D01*
X027410Y019024D02*
X027430D01*
X027543Y018994D02*
X027577Y018974D01*
X027469Y019019D02*
X027507Y019009D01*
X027430Y019024D02*
X027469Y019019D01*
X027410Y019024D02*
X027430D01*
X027811Y001331D02*
X027841Y001355D01*
X027811Y001331D02*
X027841Y001355D01*
X027811Y001331D02*
X027841Y001355D01*
X027811Y001331D02*
X027841Y001355D01*
X027975Y001491D02*
X027999Y001522D01*
X028027Y001550D01*
X027975Y001491D02*
X027999Y001522D01*
X028027Y001550D01*
X027975Y001491D02*
X027999Y001522D01*
X028027Y001550D01*
X027975Y001491D02*
X027999Y001522D01*
X028027Y001550D01*
X028443Y017394D02*
X028477Y017374D01*
X028407Y017409D02*
X028443Y017394D01*
X028477Y017374D01*
X028407Y017409D02*
X028443Y017394D01*
X028477Y017374D01*
X028407Y017409D02*
X028443Y017394D01*
X028477Y017374D01*
X028407Y017409D02*
X028443Y017394D01*
X028610Y001905D02*
Y001924D01*
Y001905D02*
Y001924D01*
Y001905D02*
Y001924D01*
Y001905D02*
Y001924D01*
X000763Y001366D02*
X000779Y001355D01*
X000177Y001655D02*
X000214Y001640D01*
X000252Y001629D01*
X000291Y001624D01*
X000310Y001624D02*
X000396D01*
X000415Y001624D01*
X000454Y001618D01*
X000492Y001608D01*
X000528Y001593D02*
X000562Y001574D01*
X000593Y001550D01*
X000645Y001491D02*
X000655Y001474D01*
X000665Y001457D01*
X000689Y001427D01*
X000746Y001376D02*
X000763Y001366D01*
X000779Y001355D01*
X000177Y001655D02*
X000214Y001640D01*
X000252Y001629D01*
X000291Y001624D01*
X000310Y001624D02*
X000396D01*
X000415Y001624D01*
X000454Y001618D01*
X000492Y001608D01*
X000528Y001593D02*
X000562Y001574D01*
X000593Y001550D01*
X000645Y001491D02*
X000655Y001474D01*
X000665Y001457D01*
X000689Y001427D01*
X000746Y001376D02*
X000763Y001366D01*
X000779Y001355D01*
X000177Y001655D02*
X000214Y001640D01*
X000252Y001629D01*
X000291Y001624D01*
X000310Y001624D02*
X000396D01*
X000415Y001624D01*
X000454Y001618D01*
X000492Y001608D01*
X000528Y001593D02*
X000562Y001574D01*
X000593Y001550D01*
X000645Y001491D02*
X000655Y001474D01*
X000665Y001457D01*
X000689Y001427D01*
X000746Y001376D02*
X000763Y001366D01*
X000779Y001355D01*
X000177Y001655D02*
X000214Y001640D01*
X000252Y001629D01*
X000291Y001624D01*
X000310Y001624D02*
X000396D01*
X000415Y001624D01*
X000454Y001618D01*
X000492Y001608D01*
X000528Y001593D02*
X000562Y001574D01*
X000593Y001550D01*
X000645Y001491D02*
X000655Y001474D01*
X000665Y001457D01*
X000689Y001427D01*
X000746Y001376D02*
X000763Y001366D01*
X000810Y017717D02*
X000837Y017745D01*
X000779Y017693D02*
X000810Y017717D01*
X000763Y017683D02*
X000779Y017693D01*
X000746Y017673D02*
X000763Y017683D01*
X000665Y017591D02*
X000689Y017622D01*
X000621Y017526D02*
X000645Y017558D01*
X000593Y017499D02*
X000621Y017526D01*
X000562Y017475D02*
X000593Y017499D01*
X000528Y017455D02*
X000562Y017475D01*
X000454Y017430D02*
X000492Y017440D01*
X000415Y017425D02*
X000454Y017430D01*
X000396Y017424D02*
X000415Y017425D01*
X000310Y017424D02*
X000396D01*
X000252Y017419D02*
X000291Y017424D01*
X000214Y017409D02*
X000252Y017419D01*
X000810Y017717D02*
X000837Y017745D01*
X000779Y017693D02*
X000810Y017717D01*
X000763Y017683D02*
X000779Y017693D01*
X000746Y017673D02*
X000763Y017683D01*
X000665Y017591D02*
X000689Y017622D01*
X000621Y017526D02*
X000645Y017558D01*
X000593Y017499D02*
X000621Y017526D01*
X000562Y017475D02*
X000593Y017499D01*
X000528Y017455D02*
X000562Y017475D01*
X000454Y017430D02*
X000492Y017440D01*
X000415Y017425D02*
X000454Y017430D01*
X000396Y017424D02*
X000415Y017425D01*
X000310Y017424D02*
X000396D01*
X000252Y017419D02*
X000291Y017424D01*
X000214Y017409D02*
X000252Y017419D01*
X000810Y017717D02*
X000837Y017745D01*
X000779Y017693D02*
X000810Y017717D01*
X000763Y017683D02*
X000779Y017693D01*
X000746Y017673D02*
X000763Y017683D01*
X000665Y017591D02*
X000689Y017622D01*
X000621Y017526D02*
X000645Y017558D01*
X000593Y017499D02*
X000621Y017526D01*
X000562Y017475D02*
X000593Y017499D01*
X000528Y017455D02*
X000562Y017475D01*
X000454Y017430D02*
X000492Y017440D01*
X000415Y017425D02*
X000454Y017430D01*
X000396Y017424D02*
X000415Y017425D01*
X000310Y017424D02*
X000396D01*
X000252Y017419D02*
X000291Y017424D01*
X000214Y017409D02*
X000252Y017419D01*
X000810Y017717D02*
X000837Y017745D01*
X000779Y017693D02*
X000810Y017717D01*
X000763Y017683D02*
X000779Y017693D01*
X000746Y017673D02*
X000763Y017683D01*
X000665Y017591D02*
X000689Y017622D01*
X000621Y017526D02*
X000645Y017558D01*
X000593Y017499D02*
X000621Y017526D01*
X000562Y017475D02*
X000593Y017499D01*
X000528Y017455D02*
X000562Y017475D01*
X000454Y017430D02*
X000492Y017440D01*
X000415Y017425D02*
X000454Y017430D01*
X000396Y017424D02*
X000415Y017425D01*
X000310Y017424D02*
X000396D01*
X000252Y017419D02*
X000291Y017424D01*
X000214Y017409D02*
X000252Y017419D01*
X001012Y018950D02*
X001043Y018974D01*
X000984Y018922D02*
X001012Y018950D01*
X001043Y018974D01*
X000984Y018922D02*
X001012Y018950D01*
X001043Y018974D01*
X000984Y018922D02*
X001012Y018950D01*
X001043Y018974D01*
X000984Y018922D02*
X001012Y018950D01*
X027636Y018922D02*
X027660Y018891D01*
X027609Y018950D02*
X027636Y018922D01*
X027577Y018974D02*
X027609Y018950D01*
X027636Y018922D02*
X027660Y018891D01*
X027609Y018950D02*
X027636Y018922D01*
X027577Y018974D02*
X027609Y018950D01*
X027636Y018922D02*
X027660Y018891D01*
X027609Y018950D02*
X027636Y018922D01*
X027577Y018974D02*
X027609Y018950D01*
X027636Y018922D02*
X027660Y018891D01*
X027609Y018950D02*
X027636Y018922D01*
X027577Y018974D02*
X027609Y018950D01*
X027841Y001355D02*
X027858Y001366D01*
X027874Y001376D01*
X027905Y001399D01*
X028027Y001550D02*
X028058Y001574D01*
X028092Y001593D01*
X028128Y001608D01*
X028166Y001618D02*
X028205Y001624D01*
X028225Y001624D01*
X028310D01*
X028369Y001629D02*
X028407Y001640D01*
X028443Y001655D01*
X027841Y001355D02*
X027858Y001366D01*
X027874Y001376D01*
X027905Y001399D01*
X028027Y001550D02*
X028058Y001574D01*
X028092Y001593D01*
X028128Y001608D01*
X028166Y001618D02*
X028205Y001624D01*
X028225Y001624D01*
X028310D01*
X028369Y001629D02*
X028407Y001640D01*
X028443Y001655D01*
X027841Y001355D02*
X027858Y001366D01*
X027874Y001376D01*
X027905Y001399D01*
X028027Y001550D02*
X028058Y001574D01*
X028092Y001593D01*
X028128Y001608D01*
X028166Y001618D02*
X028205Y001624D01*
X028225Y001624D01*
X028310D01*
X028369Y001629D02*
X028407Y001640D01*
X028443Y001655D01*
X027841Y001355D02*
X027858Y001366D01*
X027874Y001376D01*
X027905Y001399D01*
X028027Y001550D02*
X028058Y001574D01*
X028092Y001593D01*
X028128Y001608D01*
X028166Y001618D02*
X028205Y001624D01*
X028225Y001624D01*
X028310D01*
X028369Y001629D02*
X028407Y001640D01*
X028443Y001655D01*
X028369Y017419D02*
X028407Y017409D01*
X028225Y017424D02*
X028310D01*
X028205Y017425D02*
X028225Y017424D01*
X028166Y017430D02*
X028205Y017425D01*
X028092Y017455D02*
X028128Y017440D01*
X028058Y017475D02*
X028092Y017455D01*
X028027Y017499D02*
X028058Y017475D01*
X027999Y017526D02*
X028027Y017499D01*
X027975Y017558D02*
X027999Y017526D01*
X027874Y017673D02*
X027905Y017649D01*
X027858Y017683D02*
X027874Y017673D01*
X027841Y017693D02*
X027858Y017683D01*
X027811Y017717D02*
X027841Y017693D01*
X028369Y017419D02*
X028407Y017409D01*
X028225Y017424D02*
X028310D01*
X028205Y017425D02*
X028225Y017424D01*
X028166Y017430D02*
X028205Y017425D01*
X028092Y017455D02*
X028128Y017440D01*
X028058Y017475D02*
X028092Y017455D01*
X028027Y017499D02*
X028058Y017475D01*
X027999Y017526D02*
X028027Y017499D01*
X027975Y017558D02*
X027999Y017526D01*
X027874Y017673D02*
X027905Y017649D01*
X027858Y017683D02*
X027874Y017673D01*
X027841Y017693D02*
X027858Y017683D01*
X027811Y017717D02*
X027841Y017693D01*
X028369Y017419D02*
X028407Y017409D01*
X028225Y017424D02*
X028310D01*
X028205Y017425D02*
X028225Y017424D01*
X028166Y017430D02*
X028205Y017425D01*
X028092Y017455D02*
X028128Y017440D01*
X028058Y017475D02*
X028092Y017455D01*
X028027Y017499D02*
X028058Y017475D01*
X027999Y017526D02*
X028027Y017499D01*
X027975Y017558D02*
X027999Y017526D01*
X027874Y017673D02*
X027905Y017649D01*
X027858Y017683D02*
X027874Y017673D01*
X027841Y017693D02*
X027858Y017683D01*
X027811Y017717D02*
X027841Y017693D01*
X028369Y017419D02*
X028407Y017409D01*
X028225Y017424D02*
X028310D01*
X028205Y017425D02*
X028225Y017424D01*
X028166Y017430D02*
X028205Y017425D01*
X028092Y017455D02*
X028128Y017440D01*
X028058Y017475D02*
X028092Y017455D01*
X028027Y017499D02*
X028058Y017475D01*
X027999Y017526D02*
X028027Y017499D01*
X027975Y017558D02*
X027999Y017526D01*
X027874Y017673D02*
X027905Y017649D01*
X027858Y017683D02*
X027874Y017673D01*
X027841Y017693D02*
X027858Y017683D01*
X027811Y017717D02*
X027841Y017693D01*
X027636Y000126D02*
X027660Y000157D01*
X027636Y000126D02*
X027660Y000157D01*
X027636Y000126D02*
X027660Y000157D01*
X027636Y000126D02*
X027660Y000157D01*
X028443Y001655D02*
X028477Y001674D01*
X028443Y001655D02*
X028477Y001674D01*
X028443Y001655D02*
X028477Y001674D01*
X028443Y001655D02*
X028477Y001674D01*
X028610Y017124D02*
Y017144D01*
Y017124D02*
Y017144D01*
Y017124D02*
Y017144D01*
Y017124D02*
Y017144D01*
Y001924D02*
Y017124D01*
Y001924D02*
Y017124D01*
Y001924D02*
Y017124D01*
Y001924D02*
Y017124D01*
X000143Y017374D02*
X000177Y017394D01*
X000112Y017350D02*
X000143Y017374D01*
X000177Y017394D01*
X000112Y017350D02*
X000143Y017374D01*
X000177Y017394D01*
X000112Y017350D02*
X000143Y017374D01*
X000177Y017394D01*
X000112Y017350D02*
X000143Y017374D01*
X000861Y017776D02*
X000880Y017809D01*
X000837Y017745D02*
X000861Y017776D01*
X000880Y017809D01*
X000837Y017745D02*
X000861Y017776D01*
X000880Y017809D01*
X000837Y017745D02*
X000861Y017776D01*
X000880Y017809D01*
X000837Y017745D02*
X000861Y017776D01*
X027783Y001304D02*
X027811Y001331D01*
X027783Y001304D02*
X027811Y001331D01*
X027783Y001304D02*
X027811Y001331D01*
X027783Y001304D02*
X027811Y001331D01*
X028605Y017183D02*
X028610Y017144D01*
X028605Y017183D02*
X028610Y017144D01*
X028605Y017183D02*
X028610Y017144D01*
X028605Y017183D02*
X028610Y017144D01*
X028477Y017374D02*
X028509Y017350D01*
X028477Y017374D02*
X028509Y017350D01*
X028477Y017374D02*
X028509Y017350D01*
X028477Y017374D02*
X028509Y017350D01*
X027760Y017776D02*
X027783Y017745D01*
X027760Y017776D02*
X027783Y017745D01*
X027760Y017776D02*
X027783Y017745D01*
X027760Y017776D02*
X027783Y017745D01*
X027695Y018821D02*
X027705Y018783D01*
X027695Y018821D02*
X027705Y018783D01*
X027695Y018821D02*
X027705Y018783D01*
X027695Y018821D02*
X027705Y018783D01*
X000837Y001304D02*
X000861Y001273D01*
X000880Y001239D01*
X000837Y001304D02*
X000861Y001273D01*
X000880Y001239D01*
X000837Y001304D02*
X000861Y001273D01*
X000880Y001239D01*
X000837Y001304D02*
X000861Y001273D01*
X000880Y001239D01*
X000960Y018891D02*
X000984Y018922D01*
X000941Y018857D02*
X000960Y018891D01*
X000984Y018922D01*
X000941Y018857D02*
X000960Y018891D01*
X000984Y018922D01*
X000941Y018857D02*
X000960Y018891D01*
X000984Y018922D01*
X000941Y018857D02*
X000960Y018891D01*
X027680Y000191D02*
X027695Y000228D01*
X027705Y000266D01*
X027680Y000191D02*
X027695Y000228D01*
X027705Y000266D01*
X027680Y000191D02*
X027695Y000228D01*
X027705Y000266D01*
X027680Y000191D02*
X027695Y000228D01*
X027705Y000266D01*
X027760Y001273D02*
X027783Y001304D01*
X027760Y001273D02*
X027783Y001304D01*
X027760Y001273D02*
X027783Y001304D01*
X027760Y001273D02*
X027783Y001304D01*
X028580Y001791D02*
X028595Y001828D01*
X028605Y001866D01*
X028610Y001905D01*
X028580Y001791D02*
X028595Y001828D01*
X028605Y001866D01*
X028610Y001905D01*
X028580Y001791D02*
X028595Y001828D01*
X028605Y001866D01*
X028610Y001905D01*
X028580Y001791D02*
X028595Y001828D01*
X028605Y001866D01*
X028610Y001905D01*
X027783Y017745D02*
X027811Y017717D01*
X027783Y017745D02*
X027811Y017717D01*
X027783Y017745D02*
X027811Y017717D01*
X027783Y017745D02*
X027811Y017717D01*
X027660Y018891D02*
X027680Y018857D01*
X027660Y018891D02*
X027680Y018857D01*
X027660Y018891D02*
X027680Y018857D01*
X027660Y018891D02*
X027680Y018857D01*
X000112Y001698D02*
X000143Y001674D01*
X000177Y001655D01*
X000112Y001698D02*
X000143Y001674D01*
X000177Y001655D01*
X000112Y001698D02*
X000143Y001674D01*
X000177Y001655D01*
X000112Y001698D02*
X000143Y001674D01*
X000177Y001655D01*
X000941Y000191D02*
X000960Y000157D01*
X000984Y000126D01*
X000941Y000191D02*
X000960Y000157D01*
X000984Y000126D01*
X000941Y000191D02*
X000960Y000157D01*
X000984Y000126D01*
X000941Y000191D02*
X000960Y000157D01*
X000984Y000126D01*
X027660Y000157D02*
X027680Y000191D01*
X027660Y000157D02*
X027680Y000191D01*
X027660Y000157D02*
X027680Y000191D01*
X027660Y000157D02*
X027680Y000191D01*
X028477Y001674D02*
X028509Y001698D01*
X028477Y001674D02*
X028509Y001698D01*
X028477Y001674D02*
X028509Y001698D01*
X028477Y001674D02*
X028509Y001698D01*
X028595Y017221D02*
X028605Y017183D01*
X028580Y017257D02*
X028595Y017221D01*
X027680Y018857D02*
X027695Y018821D01*
X028595Y017221D02*
X028605Y017183D01*
X028580Y017257D02*
X028595Y017221D01*
X027680Y018857D02*
X027695Y018821D01*
X028595Y017221D02*
X028605Y017183D01*
X028580Y017257D02*
X028595Y017221D01*
X027680Y018857D02*
X027695Y018821D01*
X028595Y017221D02*
X028605Y017183D01*
X028580Y017257D02*
X028595Y017221D01*
X027680Y018857D02*
X027695Y018821D01*
X001210Y019024D02*
X027410D01*
X001210D02*
X027410D01*
X001210D02*
X027410D01*
X001210D02*
X027410D01*
X001043Y000074D02*
X001077Y000055D01*
X001114Y000040D01*
X001152Y000029D01*
X001191Y000024D01*
X001210Y000024D01*
X027410D01*
X027430D01*
X027469Y000029D01*
X027507Y000040D01*
X027543Y000055D01*
X027577Y000074D01*
X001043D02*
X001077Y000055D01*
X001114Y000040D01*
X001152Y000029D01*
X001191Y000024D01*
X001210Y000024D01*
X027410D01*
X027430D01*
X027469Y000029D01*
X027507Y000040D01*
X027543Y000055D01*
X027577Y000074D01*
X001043D02*
X001077Y000055D01*
X001114Y000040D01*
X001152Y000029D01*
X001191Y000024D01*
X001210Y000024D01*
X027410D01*
X027430D01*
X027469Y000029D01*
X027507Y000040D01*
X027543Y000055D01*
X027577Y000074D01*
X001043D02*
X001077Y000055D01*
X001114Y000040D01*
X001152Y000029D01*
X001191Y000024D01*
X001210Y000024D01*
X027410D01*
X027430D01*
X027469Y000029D01*
X027507Y000040D01*
X027543Y000055D01*
X027577Y000074D01*
M02*
