G04*
G04 #@! TF.GenerationSoftware,Altium Limited,Altium Designer,20.1.10 (176)*
G04*
G04 Layer_Physical_Order=4*
G04 Layer_Color=16737819*
%FSAX42Y42*%
%MOMM*%
G71*
G04*
G04 #@! TF.SameCoordinates,6C51F090-7910-440F-980D-B9DEBD6B7A16*
G04*
G04*
G04 #@! TF.FilePolarity,Positive*
G04*
G01*
G75*
%ADD10C,0.20*%
%ADD11C,0.25*%
%ADD65R,0.80X1.30*%
%ADD66R,1.30X0.80*%
%ADD86R,2.00X2.80*%
%ADD93C,0.30*%
%ADD95C,0.50*%
%ADD99C,1.60*%
%ADD100R,1.60X1.60*%
%ADD101R,1.41X1.41*%
%ADD102C,1.41*%
%ADD103C,3.32*%
%ADD104C,1.52*%
G04:AMPARAMS|DCode=105|XSize=1.52mm|YSize=1.52mm|CornerRadius=0.38mm|HoleSize=0mm|Usage=FLASHONLY|Rotation=180.000|XOffset=0mm|YOffset=0mm|HoleType=Round|Shape=RoundedRectangle|*
%AMROUNDEDRECTD105*
21,1,1.52,0.76,0,0,180.0*
21,1,0.76,1.52,0,0,180.0*
1,1,0.76,-0.38,0.38*
1,1,0.76,0.38,0.38*
1,1,0.76,0.38,-0.38*
1,1,0.76,-0.38,-0.38*
%
%ADD105ROUNDEDRECTD105*%
%ADD106O,2.70X3.00*%
%ADD107C,5.00*%
%ADD108R,2.70X3.00*%
%ADD109R,1.60X1.60*%
%ADD110C,1.37*%
%ADD111R,1.37X1.37*%
%ADD112C,0.60*%
%ADD113C,1.30*%
%ADD114C,6.00*%
%ADD136C,0.20*%
%ADD137R,0.41X1.57*%
%ADD138R,1.57X0.41*%
G36*
X001735Y015050D02*
X001035D01*
Y015400D01*
X001735D01*
Y015050D01*
D02*
G37*
G36*
X002800Y015050D02*
X002100D01*
Y015400D01*
X002800D01*
Y015050D01*
D02*
G37*
G36*
X003850D02*
X003150D01*
Y015400D01*
X003850D01*
Y015050D01*
D02*
G37*
%LPC*%
G36*
X001365Y015340D02*
X001255D01*
Y015230D01*
X001365D01*
Y015340D01*
D02*
G37*
G36*
X001235D02*
X001125D01*
Y015230D01*
X001235D01*
Y015340D01*
D02*
G37*
G36*
X001665Y015335D02*
X001555D01*
Y015225D01*
X001665D01*
Y015335D01*
D02*
G37*
G36*
X001535D02*
X001425D01*
Y015225D01*
X001535D01*
Y015335D01*
D02*
G37*
G36*
X001365Y015210D02*
X001255D01*
Y015100D01*
X001365D01*
Y015210D01*
D02*
G37*
G36*
X001235D02*
X001125D01*
Y015100D01*
X001235D01*
Y015210D01*
D02*
G37*
G36*
X001665Y015205D02*
X001555D01*
Y015095D01*
X001665D01*
Y015205D01*
D02*
G37*
G36*
X001535D02*
X001425D01*
Y015095D01*
X001535D01*
Y015205D01*
D02*
G37*
G36*
X002605Y015340D02*
Y015230D01*
X002715D01*
X002712Y015251D01*
X002700Y015281D01*
X002681Y015306D01*
X002656Y015325D01*
X002627Y015337D01*
X002605Y015340D01*
D02*
G37*
G36*
X002585D02*
X002564Y015337D01*
X002535Y015325D01*
X002510Y015306D01*
X002491Y015281D01*
X002479Y015251D01*
X002476Y015230D01*
X002585D01*
Y015340D01*
D02*
G37*
G36*
X002305Y015335D02*
Y015225D01*
X002415D01*
X002412Y015246D01*
X002400Y015276D01*
X002381Y015301D01*
X002356Y015320D01*
X002327Y015332D01*
X002305Y015335D01*
D02*
G37*
G36*
X002285D02*
X002264Y015332D01*
X002235Y015320D01*
X002210Y015301D01*
X002191Y015276D01*
X002179Y015246D01*
X002176Y015225D01*
X002285D01*
Y015335D01*
D02*
G37*
G36*
X002715Y015210D02*
X002605D01*
Y015100D01*
X002627Y015103D01*
X002656Y015115D01*
X002681Y015134D01*
X002700Y015159D01*
X002712Y015189D01*
X002715Y015210D01*
D02*
G37*
G36*
X002585D02*
X002476D01*
X002479Y015189D01*
X002491Y015159D01*
X002510Y015134D01*
X002535Y015115D01*
X002564Y015103D01*
X002585Y015100D01*
Y015210D01*
D02*
G37*
G36*
X002415Y015205D02*
X002305D01*
Y015095D01*
X002327Y015098D01*
X002356Y015110D01*
X002381Y015129D01*
X002400Y015154D01*
X002412Y015184D01*
X002415Y015205D01*
D02*
G37*
G36*
X002285D02*
X002176D01*
X002179Y015184D01*
X002191Y015154D01*
X002210Y015129D01*
X002235Y015110D01*
X002264Y015098D01*
X002285Y015095D01*
Y015205D01*
D02*
G37*
G36*
X003355Y015340D02*
Y015230D01*
X003465D01*
X003462Y015251D01*
X003450Y015281D01*
X003431Y015306D01*
X003406Y015325D01*
X003377Y015337D01*
X003355Y015340D01*
D02*
G37*
G36*
X003335D02*
X003314Y015337D01*
X003285Y015325D01*
X003260Y015306D01*
X003241Y015281D01*
X003229Y015251D01*
X003226Y015230D01*
X003335D01*
Y015340D01*
D02*
G37*
G36*
X003655Y015335D02*
Y015225D01*
X003765D01*
X003762Y015246D01*
X003750Y015276D01*
X003731Y015301D01*
X003706Y015320D01*
X003677Y015332D01*
X003655Y015335D01*
D02*
G37*
G36*
X003635D02*
X003614Y015332D01*
X003585Y015320D01*
X003560Y015301D01*
X003541Y015276D01*
X003529Y015246D01*
X003526Y015225D01*
X003635D01*
Y015335D01*
D02*
G37*
G36*
X003465Y015210D02*
X003355D01*
Y015100D01*
X003377Y015103D01*
X003406Y015115D01*
X003431Y015134D01*
X003450Y015159D01*
X003462Y015189D01*
X003465Y015210D01*
D02*
G37*
G36*
X003335D02*
X003226D01*
X003229Y015189D01*
X003241Y015159D01*
X003260Y015134D01*
X003285Y015115D01*
X003314Y015103D01*
X003335Y015100D01*
Y015210D01*
D02*
G37*
G36*
X003765Y015205D02*
X003655D01*
Y015095D01*
X003677Y015098D01*
X003706Y015110D01*
X003731Y015129D01*
X003750Y015154D01*
X003762Y015184D01*
X003765Y015205D01*
D02*
G37*
G36*
X003635D02*
X003526D01*
X003529Y015184D01*
X003541Y015154D01*
X003560Y015129D01*
X003585Y015110D01*
X003614Y015098D01*
X003635Y015095D01*
Y015205D01*
D02*
G37*
%LPD*%
D10*
X027590Y003591D02*
G03*
X027589Y003591I-000014J-000014D01*
G01*
X027604Y003941D02*
G03*
X027579Y003916I000056J-000081D01*
G01*
X027742Y003748D02*
G03*
X027772Y003778I-000082J000112D01*
G01*
X027742Y003748D02*
G03*
X027738Y003720I000012J-000016D01*
G01*
X027800Y003782D02*
G03*
X027772Y003778I-000012J-000016D01*
G01*
X027742Y003948D02*
G03*
X027738Y003920I000012J-000016D01*
G01*
X027800Y003982D02*
G03*
X027772Y003978I-000012J-000016D01*
G01*
X027742Y003948D02*
G03*
X027772Y003978I-000082J000112D01*
G01*
X027804Y004141D02*
G03*
X027779Y004116I000056J-000081D01*
G01*
X027930Y003790D02*
G03*
X027930Y003791I-000059J000059D01*
G01*
X027930Y003990D02*
G03*
X027930Y003991I-000060J000060D01*
G01*
X027930Y003791D02*
G03*
X027950Y003901I-000070J000069D01*
G01*
X027930Y003991D02*
G03*
X027949Y004102I-000070J000069D01*
G01*
X027800Y003782D02*
G03*
X027930Y003790I000060J000078D01*
G01*
X027800Y003982D02*
G03*
X027930Y003990I000060J000078D01*
G01*
X027829Y004166D02*
G03*
X027954Y004291I000031J000094D01*
G01*
X027629Y003966D02*
G03*
X027754Y004091I000031J000094D01*
G01*
X027588Y003792D02*
G03*
X027738Y003920I000072J000068D01*
G01*
X027590Y003591D02*
G03*
X027738Y003720I000070J000069D01*
G01*
X025677Y005578D02*
X025742Y005642D01*
X025767D01*
X025867Y005470D02*
X025870Y005472D01*
Y005612D01*
X025890Y005632D02*
Y005642D01*
X025870Y005612D02*
X025890Y005632D01*
X027038Y004608D02*
X027135D01*
X027162Y004662D02*
X027170Y004670D01*
X027162Y004635D02*
Y004662D01*
X027135Y004608D02*
X027162Y004635D01*
X027045Y004790D02*
X027130D01*
X027170Y004830D02*
X027170D01*
X027130Y004790D02*
X027170Y004830D01*
X024748Y004650D02*
X024750D01*
X025327Y005653D02*
X025327Y005653D01*
X025275Y005765D02*
X025327Y005712D01*
X025475Y003550D02*
X025550Y003475D01*
X025688Y016532D02*
X025730Y016490D01*
X025617Y016923D02*
X025699Y017005D01*
X025617Y016885D02*
Y016923D01*
X026120Y003685D02*
Y003696D01*
X026350Y003025D02*
X026358Y003017D01*
X026377D01*
X026260Y005787D02*
Y005790D01*
X026520Y003030D02*
X026525Y003025D01*
X026485Y003120D02*
X026520Y003085D01*
X026485Y003120D02*
Y003165D01*
X026565Y003125D02*
Y003125D01*
X026452Y003982D02*
X026503Y003930D01*
X026452Y004908D02*
X026600Y005057D01*
X026720Y003600D02*
X026770Y003550D01*
X027038Y003510D02*
X027157D01*
X027170Y003523D01*
Y003580D01*
X027159Y003720D02*
X027170D01*
X027139Y003700D02*
X027159Y003720D01*
X027038Y003700D02*
X027139D01*
X027170Y003980D02*
Y003980D01*
X027120Y003930D02*
X027170Y003980D01*
X027170Y003980D01*
X027038Y004167D02*
X027177D01*
X027162Y004358D02*
X027170Y004350D01*
X027038Y004358D02*
X027162D01*
X027038Y004797D02*
X027045Y004790D01*
X027373Y002877D02*
X027390Y002894D01*
X027584Y003597D02*
X027589Y003591D01*
X027575Y003605D02*
X027584Y003597D01*
X027460Y003490D02*
X027575Y003605D01*
X027582Y003798D02*
X027588Y003792D01*
X027574Y003806D02*
X027582Y003798D01*
X027560Y003792D02*
X027574Y003806D01*
X027588Y003792D02*
X027588Y003792D01*
X027550Y005960D02*
X027610Y006020D01*
X027772Y003778D02*
X027772D01*
X027738Y003920D02*
X027738Y003920D01*
X027772Y003978D02*
Y003978D01*
X027742Y003948D02*
X027742D01*
X027804Y004141D02*
X027821Y004158D01*
X027754Y004091D02*
X027779Y004116D01*
X027950Y003905D02*
X027950Y003901D01*
X027950Y003905D02*
X027950Y003913D01*
X027949Y004107D02*
X027949Y004102D01*
X027949Y004107D02*
X027949Y004115D01*
X028420Y004383D02*
Y004450D01*
Y004586D02*
Y004652D01*
Y004757D02*
Y004855D01*
X024750Y004650D02*
X024770Y004670D01*
X024747Y004272D02*
X024780Y004305D01*
X024927Y004688D02*
X024945Y004670D01*
X025327Y005653D02*
Y005712D01*
X025677Y005470D02*
Y005578D01*
X026120Y003685D02*
X026140Y003665D01*
X026260Y005490D02*
X026262Y005488D01*
X026250Y005475D02*
X026262Y005488D01*
X026520Y003030D02*
Y003085D01*
X026440Y005475D02*
Y005610D01*
X026510Y005080D02*
Y005400D01*
X026560Y005073D02*
Y005350D01*
X026600Y005057D02*
Y005300D01*
X025550Y002993D02*
Y003475D01*
X025788Y003328D02*
Y003550D01*
X026140Y003325D02*
Y003665D01*
X026260Y005490D02*
Y005787D01*
X026352Y005698D02*
Y005787D01*
X026400Y003960D02*
Y004913D01*
X026452Y003982D02*
Y004908D01*
X026770Y003010D02*
Y003550D01*
X027310Y002917D02*
Y003647D01*
X027390Y002894D02*
Y003622D01*
X027460Y002908D02*
Y003490D01*
X027759Y003150D02*
Y003559D01*
X027860Y003190D02*
Y003460D01*
X026360Y003290D02*
Y004930D01*
X024787Y004115D02*
X024912D01*
X024747Y004155D02*
X024787Y004115D01*
X024780Y004305D02*
X024912D01*
X025195Y005120D02*
Y005260D01*
X025195Y005120D02*
X025195Y005120D01*
X025020Y005260D02*
X025195D01*
X024875Y005765D02*
X025275D01*
X025699Y017005D02*
X025842D01*
X026425Y003026D02*
X026574Y002877D01*
X026770Y003010D02*
X026862Y002917D01*
X026565Y003125D02*
X026623Y003183D01*
X026560Y003600D02*
X026720D01*
X026400Y003960D02*
X026470Y003890D01*
X026598Y017605D02*
X026815D01*
X026817Y017602D01*
X027604Y003941D02*
X027629Y003966D01*
X027230Y006020D02*
X027370D01*
X027260Y005960D02*
X027550D01*
X027821Y004158D02*
X027829Y004166D01*
X024770Y004670D02*
X024912D01*
X024635Y005525D02*
X024875Y005765D01*
X025600Y003000D02*
X025802Y002798D01*
X025550Y002993D02*
X025803Y002740D01*
X026425Y003026D02*
Y003125D01*
X026377Y003017D02*
X026557Y002838D01*
X026360Y003290D02*
X026485Y003165D01*
X026623Y003183D02*
Y003313D01*
X026352Y005698D02*
X026440Y005610D01*
X027390Y002838D02*
X027460Y002908D01*
X027310Y003647D02*
X027579Y003916D01*
X027390Y003622D02*
X027560Y003792D01*
X027759Y003559D02*
X027860Y003660D01*
X027954Y004291D02*
X028420Y004757D01*
X025600Y003000D02*
Y003600D01*
X026360Y004930D02*
X026510Y005080D01*
X026400Y004913D02*
X026560Y005073D01*
X027950Y003913D02*
X028420Y004383D01*
X027949Y004115D02*
X028420Y004586D01*
X026045Y001977D02*
X026205D01*
X026862Y002917D02*
X027310D01*
X026574Y002877D02*
X027373D01*
X027407Y002798D02*
X027759Y003150D01*
X026557Y002838D02*
X027390D01*
X027410Y002740D02*
X027860Y003190D01*
X026560Y005350D02*
X027230Y006020D01*
X026600Y005300D02*
X027260Y005960D01*
X025802Y002798D02*
X027407D01*
X025803Y002740D02*
X027410D01*
X026470Y003890D02*
X027170D01*
X026503Y003930D02*
X027120D01*
X026510Y005400D02*
X027130Y006020D01*
D11*
X026232Y009200D02*
X026350D01*
X024912Y008787D02*
X024956Y008831D01*
X024912Y011087D02*
X024956Y011131D01*
X024912Y011235D02*
X024956Y011191D01*
X024912Y013535D02*
X024956Y013491D01*
X024913Y015800D02*
X024957Y015756D01*
X024913Y017017D02*
X024942Y017046D01*
X024910Y017017D02*
X024913D01*
X024910Y017135D02*
X024913D01*
X024948Y017100D01*
X025025Y007670D02*
Y007682D01*
X025170Y007670D02*
X025175D01*
X025028Y007773D02*
X025055Y007746D01*
X025028Y007773D02*
Y007853D01*
X025020Y007861D02*
X025028Y007853D01*
X025142D02*
X025150Y007861D01*
X025142Y007773D02*
Y007853D01*
X025115Y007746D02*
X025142Y007773D01*
X025085Y008435D02*
X025093Y008443D01*
X025049Y008831D02*
X025120Y008760D01*
X025074Y008891D02*
X025180Y008785D01*
X025025Y009970D02*
Y009982D01*
X025055Y010012D01*
Y010046D01*
X025028Y010073D02*
X025055Y010046D01*
X025115Y010046D02*
X025142Y010073D01*
X025115Y010025D02*
Y010046D01*
Y010025D02*
X025170Y009970D01*
X025175D01*
X025085Y010735D02*
X025093Y010743D01*
Y010823D02*
X025120Y010850D01*
X025049Y011131D02*
X025120Y011060D01*
X025115Y012325D02*
X025170Y012270D01*
X025115Y012346D02*
X025142Y012373D01*
X025115Y012325D02*
Y012346D01*
X025170Y012270D02*
X025175D01*
X025025D02*
Y012282D01*
X025055Y012312D01*
Y012346D01*
X025028Y012373D02*
X025055Y012346D01*
X025142Y012453D02*
X025150Y012461D01*
X025020D02*
X025028Y012453D01*
X025085Y013035D02*
X025093Y013043D01*
Y013123D01*
X025120Y013150D01*
X025056Y014577D02*
Y014611D01*
X025026Y014548D02*
X025056Y014577D01*
X025026Y014535D02*
Y014548D01*
X025171Y014535D02*
X025176D01*
X025115Y014591D02*
Y014611D01*
Y014591D02*
X025171Y014535D01*
X025021Y014726D02*
X025029Y014718D01*
X025143D02*
X025151Y014726D01*
X025093Y015388D02*
X025121Y015415D01*
X025093Y015308D02*
Y015388D01*
X025085Y015300D02*
X025093Y015308D01*
X025147Y017046D02*
X025180Y017013D01*
X025153Y017100D02*
X025180Y017127D01*
X025260Y017013D02*
X025268Y017005D01*
X025260Y017127D02*
X025268Y017135D01*
X025760Y008018D02*
X025775Y008033D01*
X025760Y010318D02*
X025775Y010333D01*
X025760Y012618D02*
X025775Y012633D01*
X025761Y014884D02*
X025775Y014898D01*
X025918Y008033D02*
X025926Y008025D01*
X025918Y008147D02*
X025926Y008155D01*
X025872Y010020D02*
X025923Y009970D01*
X025872Y010020D02*
Y010056D01*
X025918Y010333D02*
X025926Y010325D01*
X025918Y010447D02*
X025926Y010455D01*
X025872Y012320D02*
X025923Y012270D01*
X025872Y012320D02*
Y012356D01*
X025918Y012633D02*
X025926Y012625D01*
X025918Y012747D02*
X025926Y012755D01*
X025873Y014586D02*
X025923Y014535D01*
X025918Y015012D02*
X025927Y015020D01*
X025918Y014898D02*
X025927Y014890D01*
X025933Y016952D02*
X025956Y016975D01*
X025877Y016952D02*
X025933D01*
X025842Y016940D02*
X025849Y016948D01*
X026102Y016975D02*
X026162Y016915D01*
X026232Y009200D02*
X026245Y009187D01*
X026232Y011500D02*
X026350D01*
X026232Y016071D02*
X026339D01*
X026340Y016070D01*
X026566Y007684D02*
X026576Y007695D01*
X026531Y007670D02*
X026566Y007684D01*
X026500Y008090D02*
X026508Y008082D01*
X026606D01*
X026552Y007957D02*
X026576Y007955D01*
X026542Y007957D02*
X026552Y007957D01*
X026504Y007963D02*
X026542Y007957D01*
X026500Y007960D02*
X026504Y007963D01*
X026531Y009970D02*
X026566Y009984D01*
X026576Y009995D01*
X026500Y010260D02*
X026504Y010263D01*
X026542Y010257D02*
X026552Y010257D01*
X026504Y010263D02*
X026542Y010257D01*
X026552Y010257D02*
X026576Y010255D01*
X026508Y010382D02*
X026606D01*
X026500Y010390D02*
X026508Y010382D01*
X026566Y012284D02*
X026576Y012295D01*
X026531Y012270D02*
X026566Y012284D01*
X026552Y012557D02*
X026576Y012555D01*
X026504Y012563D02*
X026542Y012557D01*
X026552Y012557D01*
X026500Y012560D02*
X026504Y012563D01*
X026500Y012690D02*
X026508Y012682D01*
X026606D01*
X026566Y014550D02*
X026577Y014560D01*
X026532Y014535D02*
X026566Y014550D01*
X026501Y014955D02*
X026508Y014947D01*
X026644Y007681D02*
X026671D01*
X026681Y007670D01*
X026671Y009981D02*
X026681Y009970D01*
X026644Y009981D02*
X026671D01*
Y012281D02*
X026681Y012270D01*
X026644Y012281D02*
X026671D01*
X026671Y014546D02*
X026682Y014535D01*
X026645Y014546D02*
X026671D01*
X024912Y008935D02*
X024956Y008891D01*
X024912Y013387D02*
X024956Y013431D01*
X024913Y015653D02*
X024957Y015696D01*
X025055Y007712D02*
Y007746D01*
X025025Y007682D02*
X025055Y007712D01*
X025115Y007725D02*
Y007746D01*
Y007725D02*
X025170Y007670D01*
X025093Y008443D02*
Y008523D01*
X025120Y008550D01*
Y008760D01*
X025180Y008550D02*
Y008785D01*
X025020Y010161D02*
X025028Y010153D01*
Y010073D02*
Y010153D01*
X025142Y010073D02*
Y010153D01*
X025150Y010161D01*
X025180Y010850D02*
Y011085D01*
X025074Y011191D02*
X025180Y011085D01*
X025120Y010850D02*
Y011060D01*
X025093Y010743D02*
Y010823D01*
X025142Y012373D02*
Y012453D01*
X025028Y012373D02*
Y012453D01*
X025049Y013431D02*
X025120Y013360D01*
Y013150D02*
Y013360D01*
X025180Y013150D02*
Y013385D01*
X025074Y013491D02*
X025180Y013385D01*
X025029Y014638D02*
X025056Y014611D01*
X025029Y014638D02*
Y014718D01*
X025143Y014638D02*
Y014718D01*
X025115Y014611D02*
X025143Y014638D01*
X025074Y015756D02*
X025180Y015650D01*
X025049Y015696D02*
X025121Y015625D01*
X025760Y007868D02*
Y008018D01*
X025700Y007843D02*
Y008043D01*
Y010143D02*
Y010343D01*
X025760Y010168D02*
Y010318D01*
Y012468D02*
Y012618D01*
X025700Y012443D02*
Y012643D01*
X025872Y007720D02*
Y007756D01*
Y007720D02*
X025923Y007670D01*
X025873Y014586D02*
Y014621D01*
X025933Y017058D02*
X025956Y017035D01*
X025877Y017058D02*
X025933D01*
X025842Y017070D02*
X025849Y017062D01*
X026162Y016442D02*
Y016915D01*
X026235Y013805D02*
X026335D01*
X026235D02*
X026240Y013810D01*
X026576Y007695D02*
Y007955D01*
Y009995D02*
Y010255D01*
X026505Y014828D02*
X026542Y014822D01*
X026501Y014825D02*
X026505Y014828D01*
X026553Y014822D02*
X026577Y014821D01*
X026542Y014822D02*
X026553Y014822D01*
X025180Y015415D02*
Y015650D01*
X025121Y015415D02*
Y015625D01*
X025701Y014709D02*
Y014909D01*
X025761Y014734D02*
Y014884D01*
X026576Y012295D02*
Y012555D01*
X026577Y014560D02*
Y014821D01*
X025207Y008443D02*
X025215Y008435D01*
X024956Y008831D02*
X025049D01*
X024956Y008891D02*
X025074D01*
X025207Y010743D02*
X025215Y010735D01*
X025180Y010850D02*
X025207Y010823D01*
X024956Y011131D02*
X025049D01*
X024956Y011191D02*
X025074D01*
X025207Y013043D02*
X025215Y013035D01*
X025207Y013043D02*
Y013123D01*
X025180Y013150D02*
X025207Y013123D01*
X024956Y013431D02*
X025049D01*
X024956Y013491D02*
X025074D01*
X025180Y015415D02*
X025207Y015388D01*
Y015308D02*
Y015388D01*
Y015308D02*
X025215Y015300D01*
X024957Y015756D02*
X025074D01*
X024957Y015696D02*
X025049D01*
X024942Y017046D02*
X025147D01*
X025180Y017013D02*
X025260D01*
X025180Y017127D02*
X025260D01*
X024948Y017100D02*
X025153D01*
X025760Y007868D02*
X025872Y007756D01*
X025775Y008033D02*
X025918D01*
X025804Y008147D02*
X025918D01*
X025773Y009970D02*
X025812Y010010D01*
X025700Y010143D02*
X025812Y010031D01*
Y010010D02*
Y010031D01*
X025775Y010333D02*
X025918D01*
X025804Y010447D02*
X025918D01*
X025773Y012270D02*
X025812Y012310D01*
Y012331D01*
X025775Y012633D02*
X025918D01*
X025700Y012643D02*
X025804Y012747D01*
X025918D01*
X025773Y014535D02*
X025813Y014575D01*
Y014597D01*
X025701Y014909D02*
X025804Y015012D01*
X025918D01*
X025775Y014898D02*
X025918D01*
X026621Y007704D02*
X026644Y007681D01*
X026606Y008082D02*
X026621Y008067D01*
Y010004D02*
X026644Y009981D01*
X026621Y012304D02*
X026644Y012281D01*
X026606Y012682D02*
X026621Y012667D01*
X026622Y014569D02*
X026645Y014546D01*
X026508Y014947D02*
X026607D01*
X026622Y014933D01*
X026127Y017035D02*
X026222Y016940D01*
X025207Y008443D02*
Y008523D01*
X025180Y008550D02*
X025207Y008523D01*
Y010743D02*
Y010823D01*
X025773Y007670D02*
X025812Y007710D01*
X025700Y007843D02*
X025812Y007731D01*
Y007710D02*
Y007731D01*
X025700Y008043D02*
X025804Y008147D01*
X025700Y010343D02*
X025804Y010447D01*
X025760Y010168D02*
X025872Y010056D01*
X025760Y012468D02*
X025872Y012356D01*
X025700Y012443D02*
X025812Y012331D01*
X025701Y014709D02*
X025813Y014597D01*
X026621Y007704D02*
Y008067D01*
Y010004D02*
Y010367D01*
X026606Y010382D02*
X026621Y010367D01*
X026222Y016442D02*
Y016940D01*
X025761Y014734D02*
X025873Y014621D01*
X026621Y012304D02*
Y012667D01*
X026622Y014569D02*
Y014933D01*
X025956Y016975D02*
X026102D01*
X025956Y017035D02*
X026127D01*
D65*
X026042Y016071D02*
D03*
X026232D02*
D03*
X025460Y017577D02*
D03*
X025650D02*
D03*
X025302D02*
D03*
X025112D02*
D03*
X026140Y003150D02*
D03*
X025950D02*
D03*
X026984Y013695D02*
D03*
X027174D02*
D03*
X027174Y015960D02*
D03*
X026984D02*
D03*
X025867Y005470D02*
D03*
X025677D02*
D03*
X027174Y011395D02*
D03*
X026984D02*
D03*
X026140Y003325D02*
D03*
X025950D02*
D03*
X026283D02*
D03*
X026473D02*
D03*
X026984Y009095D02*
D03*
X027174D02*
D03*
X024590Y006175D02*
D03*
X024400D02*
D03*
X026042Y011500D02*
D03*
X026232D02*
D03*
X025997Y017577D02*
D03*
X025807D02*
D03*
X026994Y010895D02*
D03*
X027184D02*
D03*
X026045Y001977D02*
D03*
X025855D02*
D03*
X026042Y009200D02*
D03*
X026232D02*
D03*
X026045Y013805D02*
D03*
X026235D02*
D03*
X026250Y005475D02*
D03*
X026440D02*
D03*
X027184Y008595D02*
D03*
X026994D02*
D03*
X027184Y013195D02*
D03*
X026994D02*
D03*
X026994Y015460D02*
D03*
X027184D02*
D03*
D66*
X027038Y005188D02*
D03*
Y004997D02*
D03*
X026050Y011155D02*
D03*
Y011345D02*
D03*
X025770Y013455D02*
D03*
Y013646D02*
D03*
X025500Y011345D02*
D03*
Y011155D02*
D03*
Y015910D02*
D03*
Y015720D02*
D03*
Y010835D02*
D03*
Y011025D02*
D03*
Y013135D02*
D03*
Y013325D02*
D03*
Y015400D02*
D03*
Y015590D02*
D03*
Y009045D02*
D03*
Y008855D02*
D03*
X024912Y003728D02*
D03*
Y003538D02*
D03*
Y004305D02*
D03*
Y004115D02*
D03*
Y004860D02*
D03*
Y004670D02*
D03*
X025500Y008535D02*
D03*
Y008725D02*
D03*
Y013645D02*
D03*
Y013455D02*
D03*
X025150Y006450D02*
D03*
Y006640D02*
D03*
X025788Y003138D02*
D03*
Y003328D02*
D03*
X025764Y009046D02*
D03*
Y008856D02*
D03*
X025775Y015721D02*
D03*
Y015911D02*
D03*
X026623Y003313D02*
D03*
Y003503D02*
D03*
X026598Y017795D02*
D03*
Y017605D02*
D03*
X027038Y003510D02*
D03*
Y003700D02*
D03*
Y004358D02*
D03*
Y004167D02*
D03*
Y004797D02*
D03*
Y004608D02*
D03*
X027212Y005188D02*
D03*
Y004997D02*
D03*
X025020Y005450D02*
D03*
Y005260D02*
D03*
X025195Y005450D02*
D03*
Y005260D02*
D03*
X025764Y011156D02*
D03*
Y011346D02*
D03*
X026050Y008855D02*
D03*
Y009045D02*
D03*
Y010835D02*
D03*
Y011025D02*
D03*
Y013325D02*
D03*
Y013135D02*
D03*
X026051Y015400D02*
D03*
Y015590D02*
D03*
X026051Y015910D02*
D03*
Y015720D02*
D03*
X026050Y008725D02*
D03*
Y008535D02*
D03*
Y013455D02*
D03*
Y013645D02*
D03*
D86*
X025730Y016490D02*
D03*
X025362D02*
D03*
D93*
X026450Y005787D02*
X028090Y007427D01*
X027610Y011747D02*
X028090Y011268D01*
Y007427D02*
Y011268D01*
X027988Y011683D02*
X028152Y011518D01*
X026513Y005712D02*
X028152Y007352D01*
Y011518D01*
X004897Y002577D02*
X004905D01*
X024250Y006225D02*
X024300Y006175D01*
X024499Y004379D02*
X024543Y004422D01*
X024629Y006680D02*
X024637Y006688D01*
Y006787D02*
X024725Y006875D01*
X024912Y003728D02*
X024912Y003728D01*
X024883Y006426D02*
X024895Y006438D01*
X024905Y013035D02*
X024905Y013035D01*
X025090Y004860D02*
X025150Y004800D01*
X025138Y006438D02*
X025150Y006450D01*
Y006640D02*
X025170Y006660D01*
X025020Y008435D02*
Y008475D01*
Y010450D02*
X025085Y010385D01*
X025020Y012750D02*
X025085Y012685D01*
X025021Y015015D02*
X025085Y014950D01*
X025021Y015300D02*
Y015340D01*
X025110Y017575D02*
X025112Y017577D01*
X025073Y018330D02*
X025074Y018331D01*
X025364Y008994D02*
X025368D01*
X025364Y011294D02*
X025373D01*
X025364Y013594D02*
X025368D01*
X025561Y008855D02*
X025562Y008855D01*
X025500Y009045D02*
X025529D01*
X025419D02*
X025500D01*
Y009811D02*
X025500D01*
X025500Y011025D02*
Y011155D01*
X025561D02*
X025562Y011155D01*
X025484Y011329D02*
X025500Y011345D01*
X025561Y013455D02*
X025562Y013455D01*
X025419Y013645D02*
X025500D01*
Y015720D02*
X025500Y015721D01*
X025492Y015903D02*
X025500Y015910D01*
X025462Y017757D02*
X025495Y017789D01*
Y017798D01*
X025764Y008855D02*
X025764Y008856D01*
Y009046D02*
X025783Y009027D01*
X025750Y011142D02*
X025764Y011155D01*
X025750Y011025D02*
Y011142D01*
X025770Y013455D02*
X025770Y013455D01*
X025757Y015721D02*
X025767Y015710D01*
X025620Y017789D02*
X025652Y017757D01*
X025620Y017789D02*
Y017798D01*
X025948Y003010D02*
Y003025D01*
Y003147D02*
X025950Y003150D01*
X025926Y008090D02*
X025936Y008081D01*
X025926Y010390D02*
X025936Y010381D01*
X025926Y012690D02*
X025936Y012681D01*
X025927Y014955D02*
X025936Y014946D01*
X026140Y003150D02*
X026165Y003125D01*
X026142Y005642D02*
Y005645D01*
X026164Y008081D02*
X026170Y008075D01*
X026025Y008855D02*
X026050D01*
Y011040D02*
X026185D01*
X026050D02*
Y011155D01*
Y011025D02*
Y011040D01*
X026164Y012681D02*
X026170Y012675D01*
X026050Y013340D02*
X026185D01*
X026050Y013325D02*
Y013340D01*
X026165Y014946D02*
X026170Y014940D01*
X026051Y015606D02*
X026185D01*
X026051Y015590D02*
Y015606D01*
X026383Y017798D02*
X026384Y017796D01*
X026473Y003522D02*
X026475Y003525D01*
X026481Y003519D01*
X026510Y005712D02*
X026513D01*
X026596Y017796D02*
X026598Y017795D01*
X026770Y005000D02*
X026773Y004997D01*
X026760Y005000D02*
X026770D01*
X026671Y009110D02*
X026686Y009095D01*
X026663Y009110D02*
X026671D01*
X026842Y005238D02*
X026849D01*
X026899Y005188D01*
X024250Y006225D02*
Y006555D01*
X024543Y004422D02*
Y004597D01*
X024637Y006688D02*
Y006787D01*
X024912Y003405D02*
Y003538D01*
X025150Y004662D02*
Y004800D01*
X025020Y005450D02*
Y005653D01*
X025085Y007861D02*
Y008085D01*
X025020Y008150D02*
X025085Y008085D01*
Y010161D02*
Y010385D01*
X025020Y010735D02*
Y010775D01*
X025085Y012461D02*
Y012685D01*
X025020Y012750D02*
Y013035D01*
X025150Y012835D02*
Y013035D01*
X025021Y015015D02*
Y015300D01*
X025151Y015101D02*
Y015300D01*
X025225Y005475D02*
Y005653D01*
X025215Y007861D02*
Y008150D01*
Y010161D02*
Y010450D01*
Y012461D02*
Y012750D01*
X025365Y015859D02*
Y015867D01*
X025292Y016420D02*
X025362Y016490D01*
X025268Y016807D02*
Y016940D01*
X025500Y008725D02*
Y008855D01*
Y013325D02*
Y013455D01*
Y015590D02*
Y015720D01*
X025462Y017580D02*
Y017757D01*
X025750Y008725D02*
Y008842D01*
X025770Y013325D02*
Y013455D01*
X025652Y017580D02*
Y017757D01*
X025948Y003025D02*
Y003147D01*
X025950Y003150D02*
Y003325D01*
X026112Y005675D02*
X026142Y005645D01*
X026050Y008740D02*
X026185D01*
X026050D02*
Y008855D01*
Y008725D02*
Y008740D01*
X026164Y010381D02*
X026170Y010375D01*
X026050Y013340D02*
Y013455D01*
X026051Y015606D02*
Y015720D01*
X026280Y003125D02*
Y003325D01*
X025020Y008150D02*
Y008435D01*
X025150Y008235D02*
Y008435D01*
X025020Y010450D02*
Y010735D01*
X025150Y010535D02*
Y010735D01*
X025085Y014726D02*
Y014950D01*
X025215Y014726D02*
Y015015D01*
X025500Y007689D02*
Y008535D01*
Y011909D02*
Y013135D01*
Y014250D02*
Y015400D01*
X025977Y004670D02*
Y006632D01*
X025842Y017135D02*
Y017264D01*
X026473Y003325D02*
Y003522D01*
X027892Y007700D02*
Y008828D01*
X027875Y014025D02*
X027988Y013912D01*
X025500Y009811D02*
Y010835D01*
X026195Y005720D02*
Y007128D01*
X026112Y005675D02*
Y007076D01*
X026283Y003325D02*
Y004365D01*
X027988Y011683D02*
Y013912D01*
X003788Y002605D02*
X004034D01*
X004069Y002570D01*
X004888Y002560D02*
X004905Y002577D01*
X004889Y002570D02*
X004897Y002577D01*
X024300Y006175D02*
X024400D01*
X024250Y006555D02*
X024375Y006680D01*
X024912Y003728D02*
X025093D01*
X024912Y004860D02*
X025090D01*
X025195Y005450D02*
X025200D01*
X024895Y006438D02*
X025138D01*
X024590Y006426D02*
X024629D01*
X025150Y008235D02*
X025209Y008176D01*
Y008156D02*
X025215Y008150D01*
X025209Y008156D02*
Y008176D01*
X024770Y008475D02*
X025020D01*
X025150Y010535D02*
X025209Y010476D01*
Y010456D02*
Y010476D01*
Y010456D02*
X025215Y010450D01*
X025209Y012756D02*
Y012776D01*
Y012756D02*
X025215Y012750D01*
X024905Y013035D02*
X025020D01*
X025210Y015021D02*
X025215Y015015D01*
X024771Y015340D02*
X025021D01*
X024957Y017575D02*
X025110D01*
X025695Y001977D02*
X025855D01*
X025813Y003010D02*
X025948D01*
X025795Y003028D02*
X025813Y003010D01*
X025788Y003138D02*
X025795Y003130D01*
X025372Y006660D02*
X025392Y006680D01*
X026000Y008880D02*
Y008880D01*
Y008880D02*
X026025Y008855D01*
X025562Y008855D02*
X025764D01*
X025368Y008994D02*
X025419Y009045D01*
X025783Y009027D02*
X025853D01*
X025562Y011155D02*
X025764D01*
X025373Y011294D02*
X025408Y011329D01*
X025484D01*
X025562Y013455D02*
X025770D01*
X025500Y015721D02*
X025757D01*
X025400Y015903D02*
X025492D01*
X025365Y015867D02*
X025400Y015903D01*
X025390Y016940D02*
X025413Y016963D01*
Y017044D01*
X025997Y017587D02*
X026002Y017593D01*
X025652Y017577D02*
X025798D01*
X026165Y003125D02*
X026280D01*
X026481Y003519D02*
X026606D01*
X026623Y003503D01*
X026195Y005720D02*
X026200Y005715D01*
X026248Y008025D02*
X026500D01*
X026183Y007960D02*
X026248Y008025D01*
X026250Y008155D02*
X026500D01*
X026248Y010325D02*
X026500D01*
X026183Y010260D02*
X026248Y010325D01*
X026250Y010455D02*
X026500D01*
X026248Y012625D02*
X026500D01*
X026250Y012755D02*
X026500D01*
X026170Y012675D02*
X026250Y012755D01*
X026251Y015020D02*
X026501D01*
X026170Y014940D02*
X026251Y015020D01*
X026249Y014890D02*
X026501D01*
X026384Y017796D02*
X026596D01*
X027038Y004997D02*
X027212D01*
Y005188D02*
X027220Y005195D01*
Y005237D01*
X027184Y008595D02*
X027459D01*
X027184Y010895D02*
X027459D01*
X027184Y015460D02*
X027459D01*
X024543Y004597D02*
X024748Y004803D01*
X024562Y004759D02*
X024745Y004942D01*
X025200Y005450D02*
X025225Y005475D01*
X024590Y006175D02*
Y006426D01*
X024770Y010775D02*
X025020D01*
X025150Y012835D02*
X025209Y012776D01*
X025151Y015101D02*
X025210Y015042D01*
Y015021D02*
Y015042D01*
X025795Y003028D02*
Y003130D01*
X025735Y006875D02*
X025977Y006632D01*
X025853Y009027D02*
X026000Y008880D01*
X025500Y009811D02*
X025909Y009403D01*
X025500Y011909D02*
X025662Y011747D01*
X025368Y013594D02*
X025419Y013645D01*
X025500Y014250D02*
X025725Y014025D01*
X025387Y017070D02*
X025413Y017044D01*
X026002Y017593D02*
Y017798D01*
X026170Y008075D02*
X026250Y008155D01*
X026170Y010375D02*
X026250Y010455D01*
X026183Y012560D02*
X026248Y012625D01*
X026184Y014825D02*
X026249Y014890D01*
X027170Y005288D02*
X027220Y005237D01*
X027184Y013195D02*
X027459D01*
X026195Y007128D02*
X026501Y007434D01*
X004069Y002570D02*
X004889D01*
X024371Y004379D02*
X024499D01*
X024371Y004759D02*
X024562D01*
X025170Y006660D02*
X025372D01*
X024725Y006875D02*
X025735D01*
X025926Y007960D02*
X026183D01*
X025936Y008081D02*
X026164D01*
X025926Y010260D02*
X026183D01*
X025936Y010381D02*
X026164D01*
X025926Y012560D02*
X026183D01*
X025936Y012681D02*
X026164D01*
X025936Y014946D02*
X026165D01*
X025160Y016420D02*
X025292D01*
X025268Y016940D02*
X025390D01*
X025302Y017577D02*
X025460D01*
X026773Y004997D02*
X027038D01*
X026899Y005188D02*
X027038D01*
X026686Y009095D02*
X026984D01*
X026659Y011395D02*
X026984D01*
X026659Y013695D02*
X026984D01*
X026659Y015960D02*
X026984D01*
X025977Y004670D02*
X026283Y004365D01*
X025927Y014825D02*
X026184D01*
X025268Y017070D02*
X025387D01*
X027626Y007434D02*
X027892Y007700D01*
X025500Y007689D02*
X026112Y007076D01*
X027318Y009403D02*
X027892Y008828D01*
X026501Y007434D02*
X027626D01*
X025909Y009403D02*
X027318D01*
X025662Y011747D02*
X027610D01*
X025725Y014025D02*
X027875D01*
D95*
X026046Y009049D02*
X026050Y009045D01*
X026042Y009200D02*
X026046Y009196D01*
X026045Y010830D02*
X026050Y010835D01*
X026046Y011349D02*
X026049Y011346D01*
X026050Y011345D01*
X026042Y011500D02*
X026046Y011496D01*
X026045Y013130D02*
X026050Y013135D01*
X026046Y013649D02*
X026050Y013645D01*
X026046Y015396D02*
X026051Y015400D01*
X026046Y015914D02*
X026051Y015910D01*
X026963Y008600D02*
X026994Y008570D01*
X026963Y010900D02*
X026994Y010870D01*
X027459Y013695D02*
X027461D01*
X027459Y015960D02*
X027462D01*
X001505Y003440D02*
X001508D01*
X001513Y003435D01*
X001515D01*
X025730Y016490D02*
Y016773D01*
X025842Y017264D02*
X025842Y017265D01*
X026045Y008530D02*
X026050Y008535D01*
X026046Y013649D02*
Y013801D01*
X026042Y013805D02*
X026046Y013801D01*
X026046Y015107D02*
Y015396D01*
X026042Y016071D02*
X026046Y016066D01*
Y015914D02*
Y016066D01*
X026963Y013200D02*
X026994Y013170D01*
X026964Y015465D02*
X026994Y015435D01*
X027459Y011395D02*
X027461D01*
X001800Y001660D02*
Y002938D01*
X001900Y001820D02*
Y003050D01*
Y001820D02*
X001983Y001738D01*
X005850Y001850D02*
Y003625D01*
X026046Y009049D02*
Y009196D01*
X026045Y008242D02*
Y008530D01*
Y010542D02*
Y010830D01*
Y012842D02*
Y013130D01*
X026046Y011349D02*
Y011496D01*
X027451Y009095D02*
X027456Y009100D01*
X027174Y009095D02*
X027451D01*
X027456Y009100D02*
X027459D01*
X027174Y013695D02*
X027459D01*
X027174Y015960D02*
X027459D01*
X001800Y001660D02*
X001930Y001530D01*
X025617Y016885D02*
X025730Y016773D01*
X027174Y011395D02*
X027459D01*
X005700Y002000D02*
Y003700D01*
X005438Y001738D02*
X005700Y002000D01*
X023090Y004415D02*
X023645Y003860D01*
X005850Y003625D02*
X006460Y004235D01*
X001930Y001530D02*
X003262D01*
X001983Y001738D02*
X003465D01*
X004262Y001530D02*
X005530D01*
X004603Y001738D02*
X005438D01*
X024068Y003180D02*
X025380D01*
X026675Y008600D02*
X026963D01*
X026675Y010900D02*
X026963D01*
X023645Y003860D02*
X023888D01*
X026675Y013200D02*
X026963D01*
X026676Y015465D02*
X026964D01*
X001515Y003435D02*
X001900Y003050D01*
X001332Y003405D02*
X001800Y002938D01*
X005530Y001530D02*
X005850Y001850D01*
X005700Y003700D02*
X006415Y004415D01*
X003272Y001530D02*
X004262D01*
X003465Y001738D02*
X004603D01*
X023012Y004235D02*
X024068Y003180D01*
X006460Y004235D02*
X023012D01*
X006415Y004415D02*
X023090D01*
D99*
X021451Y018002D02*
D03*
X021705D02*
D03*
X021451Y017748D02*
D03*
X021705D02*
D03*
X021451Y017494D02*
D03*
X021705Y018256D02*
D03*
X021451Y018510D02*
D03*
X021705D02*
D03*
X021451Y018764D02*
D03*
X021705D02*
D03*
X021451Y018256D02*
D03*
X007052Y005054D02*
D03*
X007306Y005308D02*
D03*
X007052D02*
D03*
X008652D02*
D03*
X008906D02*
D03*
X008652Y005054D02*
D03*
X015051Y012675D02*
D03*
X015305D02*
D03*
X015051Y012421D02*
D03*
X015305D02*
D03*
X015051Y012167D02*
D03*
X015305Y012929D02*
D03*
X015051Y013183D02*
D03*
X015305D02*
D03*
X015051Y013437D02*
D03*
X015305D02*
D03*
X015051Y012929D02*
D03*
X016651D02*
D03*
X016905Y013437D02*
D03*
X016651D02*
D03*
X016905Y013183D02*
D03*
X016651D02*
D03*
X016905Y012929D02*
D03*
X016651Y012167D02*
D03*
X016905Y012421D02*
D03*
X016651D02*
D03*
X016905Y012675D02*
D03*
X016651D02*
D03*
X018252Y005308D02*
D03*
X018506D02*
D03*
X018252Y005054D02*
D03*
X018251Y012675D02*
D03*
X018505D02*
D03*
X018251Y012421D02*
D03*
X018505D02*
D03*
X018251Y012167D02*
D03*
X018505Y012929D02*
D03*
X018251Y013183D02*
D03*
X018505D02*
D03*
X018251Y013437D02*
D03*
X018505D02*
D03*
X018251Y012929D02*
D03*
X019852Y005054D02*
D03*
X020106Y005308D02*
D03*
X019852D02*
D03*
X021452D02*
D03*
X021706D02*
D03*
X021452Y005054D02*
D03*
X007051Y018002D02*
D03*
X007305D02*
D03*
X007051Y017748D02*
D03*
X007305D02*
D03*
X007051Y017494D02*
D03*
X007305Y018256D02*
D03*
X007051Y018510D02*
D03*
X007305D02*
D03*
X007051Y018764D02*
D03*
X007305D02*
D03*
X007051Y018256D02*
D03*
X008651D02*
D03*
X008905Y018764D02*
D03*
X008651D02*
D03*
X008905Y018510D02*
D03*
X008651D02*
D03*
X008905Y018256D02*
D03*
X008651Y017494D02*
D03*
X008905Y017748D02*
D03*
X008651D02*
D03*
X008905Y018002D02*
D03*
X008651D02*
D03*
X010252Y005054D02*
D03*
X010506Y005308D02*
D03*
X010252D02*
D03*
X010251Y018002D02*
D03*
X010505D02*
D03*
X010251Y017748D02*
D03*
X010505D02*
D03*
X010251Y017494D02*
D03*
X010505Y018256D02*
D03*
X010251Y018510D02*
D03*
X010505D02*
D03*
X010251Y018764D02*
D03*
X010505D02*
D03*
X010251Y018256D02*
D03*
X011852Y005308D02*
D03*
X012106D02*
D03*
X011852Y005054D02*
D03*
X011851Y018256D02*
D03*
X012105Y018764D02*
D03*
X011851D02*
D03*
X012105Y018510D02*
D03*
X011851D02*
D03*
X012105Y018256D02*
D03*
X011851Y017494D02*
D03*
X012105Y017748D02*
D03*
X011851D02*
D03*
X012105Y018002D02*
D03*
X011851D02*
D03*
X013452Y005054D02*
D03*
X013706Y005308D02*
D03*
X013452D02*
D03*
X013451Y018002D02*
D03*
X013705D02*
D03*
X013451Y017748D02*
D03*
X013705D02*
D03*
X013451Y017494D02*
D03*
X013705Y018256D02*
D03*
X013451Y018510D02*
D03*
X013705D02*
D03*
X013451Y018764D02*
D03*
X013705D02*
D03*
X013451Y018256D02*
D03*
X015051D02*
D03*
X015305Y018764D02*
D03*
X015051D02*
D03*
X015305Y018510D02*
D03*
X015051D02*
D03*
X015305Y018256D02*
D03*
X015051Y017494D02*
D03*
X015305Y017748D02*
D03*
X015051D02*
D03*
X015305Y018002D02*
D03*
X015051D02*
D03*
X015052Y005308D02*
D03*
X015306D02*
D03*
X015052Y005054D02*
D03*
X016651Y018002D02*
D03*
X016905D02*
D03*
X016651Y017748D02*
D03*
X016905D02*
D03*
X016651Y017494D02*
D03*
X016905Y018256D02*
D03*
X016651Y018510D02*
D03*
X016905D02*
D03*
X016651Y018764D02*
D03*
X016905D02*
D03*
X016651Y018256D02*
D03*
X016652Y005054D02*
D03*
X016906Y005308D02*
D03*
X016652D02*
D03*
X018251Y018256D02*
D03*
X018505Y018764D02*
D03*
X018251D02*
D03*
X018505Y018510D02*
D03*
X018251D02*
D03*
X018505Y018256D02*
D03*
X018251Y017494D02*
D03*
X018505Y017748D02*
D03*
X018251D02*
D03*
X018505Y018002D02*
D03*
X018251D02*
D03*
X019851D02*
D03*
X020105D02*
D03*
X019851Y017748D02*
D03*
X020105D02*
D03*
X019851Y017494D02*
D03*
X020105Y018256D02*
D03*
X019851Y018510D02*
D03*
X020105D02*
D03*
X019851Y018764D02*
D03*
X020105D02*
D03*
X019851Y018256D02*
D03*
X023052Y005054D02*
D03*
X023306Y005308D02*
D03*
X023052D02*
D03*
X023051Y018002D02*
D03*
X023305D02*
D03*
X023051Y017748D02*
D03*
X023305D02*
D03*
X023051Y017494D02*
D03*
X023305Y018256D02*
D03*
X023051Y018510D02*
D03*
X023305D02*
D03*
X023051Y018764D02*
D03*
X023305D02*
D03*
X023051Y018256D02*
D03*
X024121Y006680D02*
D03*
X024629D02*
D03*
X024375D02*
D03*
X024121Y006426D02*
D03*
X024375D02*
D03*
X024629D02*
D03*
X024883D02*
D03*
X025392Y006426D02*
D03*
Y006680D02*
D03*
X025646Y006426D02*
D03*
X007051Y012675D02*
D03*
X007305D02*
D03*
X007051Y012421D02*
D03*
X007305D02*
D03*
X007051Y012167D02*
D03*
X007305Y012929D02*
D03*
X007051Y013183D02*
D03*
X007305D02*
D03*
X007051Y013437D02*
D03*
X007305D02*
D03*
X007051Y012929D02*
D03*
X008651D02*
D03*
X008905Y013437D02*
D03*
X008651D02*
D03*
X008905Y013183D02*
D03*
X008651D02*
D03*
X008905Y012929D02*
D03*
X008651Y012167D02*
D03*
X008905Y012421D02*
D03*
X008651D02*
D03*
X008905Y012675D02*
D03*
X008651D02*
D03*
X010251D02*
D03*
X010505D02*
D03*
X010251Y012421D02*
D03*
X010505D02*
D03*
X010251Y012167D02*
D03*
X010505Y012929D02*
D03*
X010251Y013183D02*
D03*
X010505D02*
D03*
X010251Y013437D02*
D03*
X010505D02*
D03*
X010251Y012929D02*
D03*
X011851D02*
D03*
X012105Y013437D02*
D03*
X011851D02*
D03*
X012105Y013183D02*
D03*
X011851D02*
D03*
X012105Y012929D02*
D03*
X011851Y012167D02*
D03*
X012105Y012421D02*
D03*
X011851D02*
D03*
X012105Y012675D02*
D03*
X011851D02*
D03*
X013451Y012929D02*
D03*
X013705Y013437D02*
D03*
X013451D02*
D03*
X013705Y013183D02*
D03*
X013451D02*
D03*
X013705Y012929D02*
D03*
X013451Y012167D02*
D03*
X013705Y012421D02*
D03*
X013451D02*
D03*
X013705Y012675D02*
D03*
X013451D02*
D03*
X019851Y012929D02*
D03*
X020105Y013437D02*
D03*
X019851D02*
D03*
X020105Y013183D02*
D03*
X019851D02*
D03*
X020105Y012929D02*
D03*
X019851Y012167D02*
D03*
X020105Y012421D02*
D03*
X019851D02*
D03*
X020105Y012675D02*
D03*
X019851D02*
D03*
X021451D02*
D03*
X021705D02*
D03*
X021451Y012421D02*
D03*
X021705D02*
D03*
X021451Y012167D02*
D03*
X021705Y012929D02*
D03*
X021451Y013183D02*
D03*
X021705D02*
D03*
X021451Y013437D02*
D03*
X021705D02*
D03*
X021451Y012929D02*
D03*
X023051D02*
D03*
X023305Y013437D02*
D03*
X023051D02*
D03*
X023305Y013183D02*
D03*
X023051D02*
D03*
X023305Y012929D02*
D03*
X023051Y012167D02*
D03*
X023305Y012421D02*
D03*
X023051D02*
D03*
X023305Y012675D02*
D03*
X023051D02*
D03*
D100*
X021705Y017494D02*
D03*
X007306Y005054D02*
D03*
X008906D02*
D03*
X015305Y012167D02*
D03*
X016905D02*
D03*
X018506Y005054D02*
D03*
X018505Y012167D02*
D03*
X020106Y005054D02*
D03*
X021706D02*
D03*
X007305Y017494D02*
D03*
X008905D02*
D03*
X010506Y005054D02*
D03*
X010505Y017494D02*
D03*
X012106Y005054D02*
D03*
X012105Y017494D02*
D03*
X013706Y005054D02*
D03*
X013705Y017494D02*
D03*
X015305D02*
D03*
X015306Y005054D02*
D03*
X016905Y017494D02*
D03*
X016906Y005054D02*
D03*
X018505Y017494D02*
D03*
X020105D02*
D03*
X023306Y005054D02*
D03*
X023305Y017494D02*
D03*
X007305Y012167D02*
D03*
X008905D02*
D03*
X010505D02*
D03*
X012105D02*
D03*
X013705D02*
D03*
X020105D02*
D03*
X021705D02*
D03*
X023305D02*
D03*
D101*
X025073Y018130D02*
D03*
D102*
X025323D02*
D03*
Y018330D02*
D03*
X025073D02*
D03*
D103*
X025800Y018600D02*
D03*
X024596D02*
D03*
D104*
X024117Y004759D02*
D03*
Y004379D02*
D03*
D105*
X024371Y004759D02*
D03*
Y004379D02*
D03*
D106*
X003645Y015215D02*
D03*
X003345Y015220D02*
D03*
X004895Y005325D02*
D03*
X002295Y015215D02*
D03*
X004595Y005325D02*
D03*
X003845D02*
D03*
X002595Y015220D02*
D03*
X003545Y005325D02*
D03*
D107*
X001505Y007275D02*
D03*
X004555D02*
D03*
X001830Y009625D02*
D03*
X004230D02*
D03*
X003030Y010925D02*
D03*
X004555Y013275D02*
D03*
X005265Y013790D02*
D03*
X000795Y006760D02*
D03*
X005265D02*
D03*
X000795Y013790D02*
D03*
X001505Y013275D02*
D03*
D108*
X001545Y015215D02*
D03*
X001245Y015220D02*
D03*
D109*
X024883Y006680D02*
D03*
X025646Y006680D02*
D03*
D110*
X027660Y004660D02*
D03*
Y004860D02*
D03*
X027860Y004460D02*
D03*
X027660D02*
D03*
X027860Y004660D02*
D03*
Y004860D02*
D03*
Y005060D02*
D03*
X027660D02*
D03*
X027860Y005260D02*
D03*
Y004260D02*
D03*
X027660Y004060D02*
D03*
X027860D02*
D03*
X027660Y004260D02*
D03*
X027860Y003860D02*
D03*
X027660Y003660D02*
D03*
X027860D02*
D03*
X027660Y003860D02*
D03*
X027860Y003460D02*
D03*
X027660D02*
D03*
D111*
Y005260D02*
D03*
D112*
X026192Y008985D02*
D03*
X026350Y009200D02*
D03*
X004595Y003420D02*
D03*
Y003503D02*
D03*
Y003338D02*
D03*
X001332Y003405D02*
D03*
X003550Y001365D02*
D03*
X004167Y003750D02*
D03*
X004375Y001925D02*
D03*
X004603Y001738D02*
D03*
X024748Y004803D02*
D03*
Y004942D02*
D03*
X024912Y008787D02*
D03*
Y011087D02*
D03*
Y011235D02*
D03*
Y013535D02*
D03*
X024913Y015800D02*
D03*
X024910Y017017D02*
D03*
Y017135D02*
D03*
X025475Y003550D02*
D03*
X025750Y011025D02*
D03*
X025923Y007670D02*
D03*
Y012270D02*
D03*
X025923Y014535D02*
D03*
X026142Y005642D02*
D03*
X026142Y016412D02*
D03*
X026280Y003125D02*
D03*
X026350Y011500D02*
D03*
X026573Y001340D02*
D03*
X026560Y003600D02*
D03*
X026531Y007670D02*
D03*
Y012270D02*
D03*
X026532Y014535D02*
D03*
X026681Y007670D02*
D03*
Y012270D02*
D03*
X026682Y014535D02*
D03*
X026980Y001885D02*
D03*
X027170Y003980D02*
D03*
X027130Y006020D02*
D03*
X027370D02*
D03*
X001505Y003440D02*
D03*
X003750Y001877D02*
D03*
X011275Y004800D02*
D03*
X016150Y001450D02*
D03*
X020025Y001500D02*
D03*
X023888Y003860D02*
D03*
X024635Y005525D02*
D03*
X024912Y008935D02*
D03*
Y013387D02*
D03*
X024913Y015653D02*
D03*
X025093Y003728D02*
D03*
X025293Y003517D02*
D03*
X025327Y005653D02*
D03*
X025495Y017798D02*
D03*
X025695Y001977D02*
D03*
X025750Y008725D02*
D03*
X025923Y009970D02*
D03*
X026120Y003696D02*
D03*
X026350Y003025D02*
D03*
X026340Y013805D02*
D03*
Y016070D02*
D03*
X026525Y003025D02*
D03*
X026510Y005712D02*
D03*
X026531Y009970D02*
D03*
X026663Y009110D02*
D03*
X026681Y009970D02*
D03*
X026925Y017825D02*
D03*
X026923Y018610D02*
D03*
X027170Y003890D02*
D03*
X028145Y002620D02*
D03*
X003258Y001530D02*
D03*
X003200Y002140D02*
D03*
X003465Y001738D02*
D03*
X004688Y001365D02*
D03*
X004262Y001530D02*
D03*
X024140Y003760D02*
D03*
X025025Y007670D02*
D03*
X025175D02*
D03*
Y012270D02*
D03*
X025025D02*
D03*
X025026Y014535D02*
D03*
X025176D02*
D03*
X024771Y015340D02*
D03*
X024957Y017575D02*
D03*
X025380Y003180D02*
D03*
X025788Y003550D02*
D03*
X025600Y003600D02*
D03*
X025773Y007670D02*
D03*
X025729Y008240D02*
D03*
X025773Y012270D02*
D03*
X025770Y013325D02*
D03*
X025773Y014535D02*
D03*
X025775Y015710D02*
D03*
X026425Y003125D02*
D03*
X026842Y005238D02*
D03*
X026450Y005787D02*
D03*
X026260D02*
D03*
X026352D02*
D03*
X026489Y013111D02*
D03*
X026659Y013695D02*
D03*
X026659Y015960D02*
D03*
X026242Y016412D02*
D03*
X027170Y004167D02*
D03*
X027610Y006020D02*
D03*
X027459Y008595D02*
D03*
Y010895D02*
D03*
X027459Y015960D02*
D03*
X001225Y003672D02*
D03*
X001632Y003440D02*
D03*
X001225Y004583D02*
D03*
X003200Y001967D02*
D03*
X004072Y004720D02*
D03*
X004700Y002858D02*
D03*
X004583Y002660D02*
D03*
X004272Y004060D02*
D03*
X005362Y002865D02*
D03*
X006475Y004800D02*
D03*
X007225Y001500D02*
D03*
X008075Y004800D02*
D03*
X008825Y001500D02*
D03*
X009750Y001450D02*
D03*
X009675Y004800D02*
D03*
X010425Y001500D02*
D03*
X011350Y001450D02*
D03*
X012025Y001500D02*
D03*
X012950Y001450D02*
D03*
X012875Y004800D02*
D03*
X013625Y001500D02*
D03*
X014550Y001450D02*
D03*
X014475Y004800D02*
D03*
X015225Y001500D02*
D03*
X016075Y004800D02*
D03*
X016825Y001500D02*
D03*
X017750Y001450D02*
D03*
X017675Y004800D02*
D03*
X018425Y001500D02*
D03*
X019498Y000823D02*
D03*
X019350Y001450D02*
D03*
X019275Y004800D02*
D03*
X021098Y000823D02*
D03*
X020950Y001450D02*
D03*
X020875Y004800D02*
D03*
X021625Y001500D02*
D03*
X022695Y000823D02*
D03*
X022550Y001450D02*
D03*
X022475Y004800D02*
D03*
X023225Y001500D02*
D03*
X024748Y004650D02*
D03*
X025150Y004662D02*
D03*
X024747Y004272D02*
D03*
X025225Y005653D02*
D03*
X025020D02*
D03*
X025123D02*
D03*
X025195Y005120D02*
D03*
X024770Y008475D02*
D03*
X025025Y009970D02*
D03*
X025175D02*
D03*
X024632Y011375D02*
D03*
X024770Y010775D02*
D03*
X024771Y016109D02*
D03*
X024770Y016680D02*
D03*
Y017460D02*
D03*
X025948Y003025D02*
D03*
X025890Y005642D02*
D03*
X025767D02*
D03*
X025729Y010540D02*
D03*
X025773Y009970D02*
D03*
X025764Y011346D02*
D03*
X026049Y011346D02*
D03*
X025729Y012840D02*
D03*
X025770Y013646D02*
D03*
X025729Y015105D02*
D03*
X025771Y015913D02*
D03*
X025617Y016885D02*
D03*
X026002Y017798D02*
D03*
X025620D02*
D03*
X025842Y017265D02*
D03*
X026205Y001977D02*
D03*
X026573Y001890D02*
D03*
X026565Y003125D02*
D03*
X026475Y003525D02*
D03*
X026200Y005715D02*
D03*
X026675Y008600D02*
D03*
X026489Y008511D02*
D03*
X026659Y011395D02*
D03*
X026489Y010811D02*
D03*
X026675Y010900D02*
D03*
Y013200D02*
D03*
X026489Y015376D02*
D03*
X026575Y016625D02*
D03*
X026817Y017602D02*
D03*
X026383Y017798D02*
D03*
X027170Y003720D02*
D03*
Y003580D02*
D03*
Y004670D02*
D03*
Y004350D02*
D03*
Y004830D02*
D03*
Y005288D02*
D03*
X027459Y013195D02*
D03*
Y013695D02*
D03*
X027459Y015460D02*
D03*
X028420Y003860D02*
D03*
Y004060D02*
D03*
Y004247D02*
D03*
Y004450D02*
D03*
Y004652D02*
D03*
Y004855D02*
D03*
X001960Y004122D02*
D03*
X024912Y003397D02*
D03*
X024747Y004155D02*
D03*
X024605Y009128D02*
D03*
X024905Y013035D02*
D03*
X025160Y016420D02*
D03*
X025733Y016410D02*
D03*
X026760Y005000D02*
D03*
X026676Y015465D02*
D03*
X027311Y002620D02*
D03*
X027459Y009100D02*
D03*
Y011395D02*
D03*
X028335Y003270D02*
D03*
X001770Y003765D02*
D03*
X026050Y009045D02*
D03*
X026183Y010260D02*
D03*
X026170Y014940D02*
D03*
X025364Y015537D02*
D03*
X026980Y001330D02*
D03*
X006695Y000823D02*
D03*
X006550Y001450D02*
D03*
X004903Y002052D02*
D03*
X004108Y004472D02*
D03*
X008297Y000823D02*
D03*
X009895D02*
D03*
X008150Y001450D02*
D03*
X011495Y000823D02*
D03*
X013095D02*
D03*
X014695D02*
D03*
X016293D02*
D03*
X017898D02*
D03*
X023761Y004380D02*
D03*
X026183Y007960D02*
D03*
X026170Y008075D02*
D03*
X026185Y008740D02*
D03*
X025363Y008672D02*
D03*
X025215Y010450D02*
D03*
X026170Y010375D02*
D03*
X026045Y010542D02*
D03*
X025363Y010972D02*
D03*
X025364Y011294D02*
D03*
X026185Y011302D02*
D03*
Y011040D02*
D03*
X025215Y012750D02*
D03*
X026183Y012560D02*
D03*
X026170Y012675D02*
D03*
X026045Y012842D02*
D03*
X025363Y013272D02*
D03*
X026050Y013645D02*
D03*
X025364Y013594D02*
D03*
X026185Y013340D02*
D03*
Y013602D02*
D03*
X026184Y014825D02*
D03*
X025215Y015015D02*
D03*
X026046Y015107D02*
D03*
X026185Y015867D02*
D03*
X026051Y015910D02*
D03*
X025365Y015859D02*
D03*
X025268Y016807D02*
D03*
X004905Y002577D02*
D03*
X025215Y008150D02*
D03*
X026045Y008242D02*
D03*
X025364Y008994D02*
D03*
X026185Y015606D02*
D03*
D113*
X023375Y002320D02*
D03*
X006445Y003640D02*
D03*
X006800D02*
D03*
X007145D02*
D03*
X008045D02*
D03*
X008745D02*
D03*
X008400D02*
D03*
X009645D02*
D03*
X010345D02*
D03*
X010000D02*
D03*
X011245D02*
D03*
X012160Y002320D02*
D03*
X011945Y003640D02*
D03*
X011600D02*
D03*
X012845D02*
D03*
X013760Y002320D02*
D03*
X013545Y003640D02*
D03*
X014445D02*
D03*
X015360Y002320D02*
D03*
X015145Y003640D02*
D03*
X016045D02*
D03*
X016960Y002320D02*
D03*
X016745Y003640D02*
D03*
X017645D02*
D03*
X018560Y002320D02*
D03*
X018345Y003640D02*
D03*
X019245D02*
D03*
X020160Y002320D02*
D03*
X019945Y003640D02*
D03*
X020845D02*
D03*
X021760Y002320D02*
D03*
X021545Y003640D02*
D03*
X022445D02*
D03*
X023145D02*
D03*
X003788Y002605D02*
D03*
X006800Y003345D02*
D03*
X008400D02*
D03*
X010000D02*
D03*
X011600D02*
D03*
X002488Y004715D02*
D03*
X004247Y002670D02*
D03*
X008960Y002320D02*
D03*
X007360D02*
D03*
X010560D02*
D03*
X013200Y003640D02*
D03*
X016400D02*
D03*
X014800D02*
D03*
X019600D02*
D03*
X018000D02*
D03*
X022800D02*
D03*
X021200D02*
D03*
X013200Y003345D02*
D03*
X016400D02*
D03*
X014800D02*
D03*
X019600D02*
D03*
X018000D02*
D03*
X022800D02*
D03*
X021200D02*
D03*
X023793Y018002D02*
D03*
D114*
X000915Y009524D02*
D03*
X009845D02*
D03*
X018775D02*
D03*
X027705D02*
D03*
X000915Y001624D02*
D03*
Y017424D02*
D03*
X009845D02*
D03*
X018775Y001624D02*
D03*
X027705D02*
D03*
Y017424D02*
D03*
D136*
X027588Y003792D02*
D03*
X027950Y003905D02*
D03*
X027949Y004107D02*
D03*
D137*
X025215Y008435D02*
D03*
X025150D02*
D03*
X025085D02*
D03*
X025020D02*
D03*
Y007861D02*
D03*
X025085D02*
D03*
X025150D02*
D03*
X025215D02*
D03*
X025215Y015300D02*
D03*
X025151D02*
D03*
X025085D02*
D03*
X025021D02*
D03*
Y014726D02*
D03*
X025085D02*
D03*
X025151D02*
D03*
X025215D02*
D03*
X025215Y010161D02*
D03*
X025150D02*
D03*
X025085D02*
D03*
X025020D02*
D03*
Y010735D02*
D03*
X025085D02*
D03*
X025150D02*
D03*
X025215D02*
D03*
Y013035D02*
D03*
X025150D02*
D03*
X025085D02*
D03*
X025020D02*
D03*
Y012461D02*
D03*
X025085D02*
D03*
X025150D02*
D03*
X025215D02*
D03*
D138*
X026500Y008155D02*
D03*
Y008090D02*
D03*
Y008025D02*
D03*
Y007960D02*
D03*
X025926D02*
D03*
Y008025D02*
D03*
Y008090D02*
D03*
Y008155D02*
D03*
Y010455D02*
D03*
Y010390D02*
D03*
Y010325D02*
D03*
Y010260D02*
D03*
X026500D02*
D03*
Y010325D02*
D03*
Y010390D02*
D03*
Y010455D02*
D03*
Y012755D02*
D03*
Y012690D02*
D03*
Y012625D02*
D03*
Y012560D02*
D03*
X025926D02*
D03*
Y012625D02*
D03*
Y012690D02*
D03*
Y012755D02*
D03*
X026501Y015020D02*
D03*
Y014955D02*
D03*
Y014890D02*
D03*
Y014825D02*
D03*
X025927D02*
D03*
Y014890D02*
D03*
Y014955D02*
D03*
Y015020D02*
D03*
X025842Y016940D02*
D03*
Y017005D02*
D03*
Y017070D02*
D03*
Y017135D02*
D03*
X025268D02*
D03*
Y017070D02*
D03*
Y017005D02*
D03*
Y016940D02*
D03*
M02*
