M48
;Layer_Color=9474304
;FILE_FORMAT=4:4
METRIC,LZ
;TYPE=PLATED
T1F00S00C0.3000
T2F00S00C0.5000
T3F00S00C0.7000
T4F00S00C0.9000
T5F00S00C1.0000
T6F00S00C1.0160
T7F00S00C1.1000
T8F00S00C2.3000
T9F00S00C3.0000
T10F00S00C4.0000
%
T01
X00337Y003225
X0036625Y0031425
X0035775Y0034175
X0033125Y0036475
Y00382
X003875Y003735
X005015Y0037325
X004715Y0034175
X0048Y0031475
X0045075Y003225
X00655Y00145
X007225Y0015
X00815Y00145
X008825Y0015
X00975Y00145
X010425Y0015
X01135Y00145
X012025Y0015
X01295Y00145
X013625Y0015
X01455Y00145
X015225Y0015
X01615Y00145
X016825Y0015
X01775Y00145
X018425Y0015
X01935Y00145
X020025Y0015
X02095Y00145
X021625Y0015
X02255Y00145
X023225Y0015
X025695Y0019775
X026205
X02663Y002695
X026525Y003025
X026565Y003125
X026425
X02628
X02635Y003025
X0259475
X0253725Y00308
X0252925Y0035175
X025475Y00355
X0256Y003545
X0257875Y00355
X02612Y00369598
X026475Y003525
X0267325Y0036025
X0272725Y0035875
X0272122Y0037492
X02739Y002755
Y002475
Y002125
Y0017775
X0274175Y001285
X02696Y00129
Y000735
X0274175
X0249125Y0033975
X0250925Y0037275
X02414Y00376
X0238875Y00386
X02474735Y004155
Y0042725
X0247475Y00465
Y0048025
Y0049425
X025195Y00512
X02515Y0046625
X0251225Y0056525
X02502
X025225
X0253275
X0257675Y0056425
X02589
X026145
X02619628Y00573
X02626Y00578688
X02635187
X02643859Y00573
X0265075Y0056425
X0268425Y0052375
X02722Y0052875
X0272075Y00479
Y00467
Y00429
Y0041875
X024635Y005525
X0250253Y00767
X0251753
X0257725
X0259225
X02653104
X02668104
X02376125Y00438
X022475Y0048
X020875
X019275
X017675
X016075
X014475
X012875
X011275
X009675
X008075
X006475
X00547494Y00454514
X0048125Y0045375
X004695Y00434
X0050175Y0042575
X0047075Y0050175
Y0051
Y0051825
X00428Y00543
X004385Y00574
X00422Y0061525
X004185Y0064
X00409Y0040875
X00385Y00427
X0026Y005445
X0018825
X00174426Y00512
X0016175
X001445Y005085
X0013375Y0053525
X0020725Y0058025
X02477Y008475
X0249125Y0087872
Y008935
X024605Y0091275
X02536444Y00899398
X0253634Y0086716
X0257375Y0088275
X02605Y009045
X02618456Y00874044
X02648868Y00851118
X026675Y0086
X02666264Y0091097
X02745854Y0090997
Y0085947
X02604543Y00824165
X02617Y008075
X02618325Y00796
X0257287Y00823974
X025215Y00815
X0251753Y00997
X0250253
X025215Y01045
X0257287Y01053974
X02604543Y01054165
X02617Y010375
X02618325Y01026
X0259225Y00997
X0257725
X02653104
X02668104
X026675Y0109
X02648868Y01081118
X02618456Y01104044
Y0113016
X02605Y011345
X02572348Y01134787
X0256925Y0110825
X0253634Y0109716
X02536444Y01129398
X0249125Y011235
Y0110872
X02477Y010775
X0246325Y011375
X02665854Y0113947
X02745854
Y0108947
X02668104Y01227
X02653104
X0259225
X0257725
X0251753
X0250253
X025215Y01275
X024905Y013035
X0249125Y0133872
Y013535
X02536444Y01359398
X0253634Y0132716
X02582Y0134275
X02572348Y01364787
X02605Y013645
X02618456Y0136016
Y01334044
X02648868Y01311118
X026675Y0132
X02665854Y0136947
X02745854
Y0131947
X02604543Y01284165
X02617Y012675
X02618325Y01256
X0257287Y01283974
X025773Y0145353
X025923
X02618375Y0148253
X0261705Y0149403
X02604593Y01510695
X0257292Y01510504
X0252155Y0150153
X0251758Y0145353
X0250258
X0247705Y0153403
X024913Y0156525
Y0158003
X02536494Y01585928
X0253639Y0155369
X02582Y0157625
X02618506Y0158669
Y01560574
X02648918Y01537648
X0266755Y0154653
X02745904Y01546
X02668154Y0145353
X02653154
X02665904Y01596
X0260505Y0159103
X02572398Y01591317
X0257325Y01641
X026142Y0164125
X026242
X026575Y016625
X0256175Y016885
X0252675Y0168075
X02516Y01642
X02477Y01668
X02491Y01701685
Y017135
X02477Y01746
X0249575Y017575
X025495Y0177975
X02562
X0260025
X0263825
X026925Y017825
X0268175Y0176025
X02692331Y01861021
X0258425Y017265
X0247705Y01610904
X02745904Y01596
T02
X02735Y005
X0013375Y0062625
T03
X00736Y00232
X007145Y0036405
X0068
Y003345
X006445Y0036405
X008045
X0084
Y003345
X008745Y0036405
X009645
X01
Y003345
X010345Y0036405
X011245
X0116
Y003345
X01056Y00232
X00896
X01216
X011945Y0036405
X012845
X0132
Y003345
X013545Y0036405
X014445
X0148
Y003345
X015145Y0036405
X01536Y00232
X01376
X01696
X016745Y0036405
X0164
Y003345
X016045Y0036405
X017645
X018
Y003345
X018345Y0036405
X019245
X0196
Y003345
X01856Y00232
X02016
X019945Y0036405
X020845
X0212
Y003345
X021545Y0036405
X022445
X0228
Y003345
X023145Y0036405
X02336Y00232
X02176
X0026Y006395
T04
X004675Y007005
X004975
X002675Y0169
X002375Y016895
X025073Y01813
Y01833
X025323
Y01813
T05
X00397Y00441
X00436Y00435
X003925Y007005
X003625
X001625Y016895
X001325Y0169
X001625Y017395
X0237925Y018002
T06
X0241171Y00437935
X0243711
Y00475935
X0241171
T07
X027746Y0022
Y002454
Y002708
Y002962
Y003216
Y00347
Y003724
X028
Y00347
Y003216
Y002962
Y002708
Y002454
Y0022
Y003978
Y004232
Y004486
X027746
Y004232
Y003978
X025646Y0064259
Y0066799
X025392
Y0064259
X024883Y00642592
X024629
X024375
Y00667992
X024629
X024883
X024121
Y00642592
X0233059Y005308
X0230519
Y005054
X0233059
X0217059
X0214519
Y005308
X0217059
X0201059
X0198519
Y005054
X0201059
X0185059
X0182519
Y005308
X0185059
X0169059
X0166519
Y005054
X0169059
X0153059
X0150519
Y005308
X0153059
X0137059
X0134519
Y005054
X0137059
X0121059
Y005308
X0118519
Y005054
X0105059
Y005308
X0102519
Y005054
X0089059
X0086519
Y005308
X0089059
X0073059
X0070519
Y005054
X0073059
X019851Y012167
Y012421
Y012675
X020105
Y012421
Y012167
Y012929
Y013183
X019851
Y013437
X020105
X019851Y012929
X021451
Y013183
Y013437
X021705
Y013183
Y012929
Y012675
Y012421
Y012167
X021451
Y012421
Y012675
X023051
X023305
Y012421
X023051
Y012167
X023305
Y012929
Y013183
X023051
Y013437
X023305
X023051Y012929
X018505
X018251
Y013183
Y013437
X018505
Y013183
Y012675
Y012421
Y012167
X018251
Y012421
Y012675
X016905
X016651
Y012421
X016905
Y012167
X016651
Y012929
X016905
Y013183
X016651
Y013437
X016905
X015305
X015051
Y013183
Y012929
X015305
Y013183
Y012675
Y012421
Y012167
X015051
Y012421
Y012675
X013705
X013451
Y012421
X013705
Y012167
X013451
Y012929
X013705
Y013183
X013451
Y013437
X013705
X012105
Y013183
Y012929
Y012675
Y012421
Y012167
X011851
Y012421
Y012675
Y012929
Y013183
Y013437
X010505
X010251
Y013183
Y012929
X010505
Y013183
Y012675
Y012421
Y012167
X010251
Y012421
Y012675
X008905
X008651
Y012421
X008905
Y012167
X008651
Y012929
X008905
Y013183
X008651
Y013437
X008905
X007305
X007051
Y013183
Y012929
X007305
Y013183
Y012675
Y012421
Y012167
X007051
Y012421
Y012675
Y017494
X007305
Y017748
X007051
Y018002
Y018256
Y01851
Y018764
X007305
Y01851
Y018256
Y018002
X008651
X008905
Y017748
X008651
Y017494
X008905
Y018256
Y01851
X008651
Y018764
X008905
X008651Y018256
X010251
Y01851
Y018764
X010505
Y01851
Y018256
Y018002
Y017748
Y017494
X010251
Y017748
Y018002
X011851
Y017748
Y017494
Y018256
Y01851
Y018764
X012105
Y01851
Y018256
Y018002
Y017748
Y017494
X013451
X013705
Y017748
X013451
Y018002
Y018256
Y01851
Y018764
X013705
Y01851
Y018256
Y018002
X015051
X015305
Y017748
X015051
Y017494
X015305
Y018256
Y01851
X015051
Y018764
X015305
X015051Y018256
X016651
Y01851
Y018764
X016905
Y01851
Y018256
Y018002
Y017748
Y017494
X016651
Y017748
Y018002
X018251
X018505
Y017748
X018251
Y017494
X018505
Y018256
Y01851
X018251
Y018764
X018505
X018251Y018256
X019851
Y01851
Y018764
X020105
Y01851
Y018256
Y018002
Y017748
Y017494
X019851
Y017748
Y018002
X021451
X021705
Y017748
X021451
Y017494
X021705
Y018256
Y01851
X021451
Y018764
X021705
X021451Y018256
X023051
Y01851
Y018764
X023305
Y01851
Y018256
Y018002
Y017748
Y017494
X023051
Y017748
Y018002
T08
X024596Y0186
X0258
T09
X000875Y00844
X005345
Y01547
X000875
T10
X00091528Y0016242
X00126028Y0024942
X01877529Y0016242
X02770528
X02133929Y00859514
X00091528Y0174242
X00984529Y0183242
X02770528Y0174242
M30
